<svg width="320" height="36" viewBox="0 0 320 36" fill="none" xmlns="http://www.w3.org/2000/svg">
<rect x="1" y="1" width="318" height="34" rx="17" stroke="#1C9BD8" stroke-width="2"/>
<path d="M197.88 25.33C196.652 25.33 195.672 24.9698 194.938 24.2493C194.204 23.5288 193.837 22.5681 193.837 21.3673V14.9628C193.837 13.7619 194.204 12.8013 194.938 12.0808C195.672 11.3603 196.652 11 197.88 11C199.107 11 200.088 11.3603 200.822 12.0808C201.569 12.8013 201.943 13.7619 201.943 14.9628V21.3673C201.943 22.5681 201.569 23.5288 200.822 24.2493C200.088 24.9698 199.107 25.33 197.88 25.33ZM197.88 22.9083C198.253 22.9083 198.554 22.7816 198.78 22.5281C199.007 22.2612 199.121 21.9143 199.121 21.4873V14.8427C199.121 14.4157 199.007 14.0755 198.78 13.822C198.554 13.5551 198.253 13.4217 197.88 13.4217C197.506 13.4217 197.206 13.5551 196.979 13.822C196.766 14.0755 196.659 14.4157 196.659 14.8427V21.4873C196.659 21.9143 196.766 22.2612 196.979 22.5281C197.206 22.7816 197.506 22.9083 197.88 22.9083Z" fill="#1C9BD8"/>
<path d="M192.811 11C192.878 11 192.931 11.0267 192.971 11.0801C193.025 11.1201 193.051 11.1735 193.051 11.2402V13.1815C193.051 13.2482 193.025 13.3083 192.971 13.3617C192.931 13.4017 192.878 13.4217 192.811 13.4217H190.309C190.243 13.4217 190.209 13.4551 190.209 13.5218V24.7696C190.209 24.8364 190.183 24.8964 190.129 24.9498C190.089 24.9898 190.036 25.0098 189.969 25.0098H187.628C187.561 25.0098 187.501 24.9898 187.447 24.9498C187.407 24.8964 187.387 24.8364 187.387 24.7696V13.5218C187.387 13.4551 187.354 13.4217 187.287 13.4217H184.886C184.819 13.4217 184.759 13.4017 184.706 13.3617C184.666 13.3083 184.646 13.2482 184.646 13.1815V11.2402C184.646 11.1735 184.666 11.1201 184.706 11.0801C184.759 11.0267 184.819 11 184.886 11H192.811Z" fill="#1C9BD8"/>
<path d="M180.674 25.0098C180.607 25.0098 180.547 24.9898 180.494 24.9498C180.454 24.8964 180.434 24.8364 180.434 24.7696V11.2402C180.434 11.1735 180.454 11.1201 180.494 11.0801C180.547 11.0267 180.607 11 180.674 11H183.015C183.082 11 183.135 11.0267 183.176 11.0801C183.229 11.1201 183.256 11.1735 183.256 11.2402V24.7696C183.256 24.8364 183.229 24.8964 183.176 24.9498C183.135 24.9898 183.082 25.0098 183.015 25.0098H180.674Z" fill="#1C9BD8"/>
<path d="M176.537 25.0098C176.39 25.0098 176.296 24.9431 176.256 24.8097L174.715 19.2858C174.689 19.2324 174.655 19.2057 174.615 19.2057H173.935C173.868 19.2057 173.835 19.2391 173.835 19.3058V24.7696C173.835 24.8364 173.808 24.8964 173.755 24.9498C173.715 24.9898 173.661 25.0098 173.594 25.0098H171.253C171.186 25.0098 171.126 24.9898 171.073 24.9498C171.033 24.8964 171.013 24.8364 171.013 24.7696V11.2402C171.013 11.1735 171.033 11.1201 171.073 11.0801C171.126 11.0267 171.186 11 171.253 11H175.296C176.03 11 176.683 11.1801 177.257 11.5404C177.831 11.8873 178.271 12.381 178.578 13.0214C178.898 13.6619 179.058 14.3957 179.058 15.223C179.058 16.0102 178.905 16.704 178.598 17.3044C178.304 17.9048 177.891 18.3718 177.357 18.7054C177.33 18.7187 177.31 18.7387 177.297 18.7654C177.284 18.7788 177.284 18.7988 177.297 18.8255L179.138 24.7296L179.158 24.8097C179.158 24.9431 179.085 25.0098 178.938 25.0098H176.537ZM173.935 13.4217C173.868 13.4217 173.835 13.4551 173.835 13.5218V16.9442C173.835 17.0109 173.868 17.0442 173.935 17.0442H174.835C175.249 17.0442 175.583 16.8841 175.836 16.5639C176.103 16.2303 176.236 15.79 176.236 15.243C176.236 14.6826 176.103 14.2423 175.836 13.922C175.583 13.5885 175.249 13.4217 174.835 13.4217H173.935Z" fill="#1C9BD8"/>
<path d="M167.116 25.0098C166.969 25.0098 166.875 24.9431 166.835 24.8097L165.294 19.2858C165.268 19.2324 165.234 19.2057 165.194 19.2057H164.514C164.447 19.2057 164.414 19.2391 164.414 19.3058V24.7696C164.414 24.8364 164.387 24.8964 164.334 24.9498C164.294 24.9898 164.24 25.0098 164.174 25.0098H161.832C161.765 25.0098 161.705 24.9898 161.652 24.9498C161.612 24.8964 161.592 24.8364 161.592 24.7696V11.2402C161.592 11.1735 161.612 11.1201 161.652 11.0801C161.705 11.0267 161.765 11 161.832 11H165.875C166.609 11 167.262 11.1801 167.836 11.5404C168.41 11.8873 168.85 12.381 169.157 13.0214C169.477 13.6619 169.637 14.3957 169.637 15.223C169.637 16.0102 169.484 16.704 169.177 17.3044C168.884 17.9048 168.47 18.3718 167.936 18.7054C167.91 18.7187 167.89 18.7387 167.876 18.7654C167.863 18.7788 167.863 18.7988 167.876 18.8255L169.717 24.7296L169.737 24.8097C169.737 24.9431 169.664 25.0098 169.517 25.0098H167.116ZM164.514 13.4217C164.447 13.4217 164.414 13.4551 164.414 13.5218V16.9442C164.414 17.0109 164.447 17.0442 164.514 17.0442H165.414C165.828 17.0442 166.162 16.8841 166.415 16.5639C166.682 16.2303 166.815 15.79 166.815 15.243C166.815 14.6826 166.682 14.2423 166.415 13.922C166.162 13.5885 165.828 13.4217 165.414 13.4217H164.514Z" fill="#1C9BD8"/>
<path d="M157.82 25.0098C157.66 25.0098 157.573 24.9364 157.56 24.7897L157.24 22.8683C157.24 22.8016 157.2 22.7682 157.12 22.7682H154.578C154.498 22.7682 154.458 22.8016 154.458 22.8683L154.137 24.7897C154.124 24.9364 154.037 25.0098 153.877 25.0098H151.536C151.362 25.0098 151.295 24.9231 151.335 24.7496L154.278 11.2202C154.304 11.0734 154.391 11 154.538 11H157.24C157.386 11 157.473 11.0734 157.5 11.2202L160.422 24.7496L160.442 24.8297C160.442 24.9498 160.368 25.0098 160.222 25.0098H157.82ZM154.858 20.4866C154.858 20.5534 154.885 20.5867 154.938 20.5867H156.739C156.806 20.5867 156.833 20.5534 156.819 20.4866L155.879 15.0228C155.865 14.9828 155.845 14.9628 155.819 14.9628C155.792 14.9628 155.772 14.9828 155.759 15.0228L154.858 20.4866Z" fill="#1C9BD8"/>
<path d="M146.63 25.33C145.429 25.33 144.462 24.9764 143.728 24.2693C143.008 23.5488 142.647 22.5881 142.647 21.3873V14.9027C142.647 13.7152 143.008 12.7679 143.728 12.0607C144.462 11.3536 145.429 11 146.63 11C147.844 11 148.812 11.3536 149.532 12.0607C150.266 12.7679 150.633 13.7152 150.633 14.9027V15.1229C150.633 15.1896 150.606 15.2496 150.553 15.303C150.513 15.343 150.46 15.3631 150.393 15.3631L148.051 15.4631C147.891 15.4631 147.811 15.3897 147.811 15.243V14.7226C147.811 14.3357 147.704 14.0221 147.491 13.7819C147.277 13.5418 146.99 13.4217 146.63 13.4217C146.283 13.4217 146.003 13.5418 145.79 13.7819C145.576 14.0221 145.469 14.3357 145.469 14.7226V21.6274C145.469 22.0144 145.576 22.3279 145.79 22.5681C146.003 22.7949 146.283 22.9083 146.63 22.9083C146.99 22.9083 147.277 22.7949 147.491 22.5681C147.704 22.3279 147.811 22.0144 147.811 21.6274V21.0871C147.811 21.0203 147.831 20.967 147.871 20.9269C147.924 20.8736 147.985 20.8469 148.051 20.8469L150.393 20.947C150.46 20.947 150.513 20.9736 150.553 21.027C150.606 21.067 150.633 21.1204 150.633 21.1871V21.3873C150.633 22.5881 150.266 23.5488 149.532 24.2693C148.798 24.9764 147.831 25.33 146.63 25.33Z" fill="#1C9BD8"/>
<path d="M130.56 25.17C130.493 25.17 130.433 25.1499 130.379 25.1099C130.339 25.0565 130.319 24.9965 130.319 24.9298V11.4003C130.319 11.3336 130.339 11.2802 130.379 11.2402C130.433 11.1868 130.493 11.1602 130.56 11.1602H132.901C132.968 11.1602 133.021 11.1868 133.061 11.2402C133.115 11.2802 133.141 11.3336 133.141 11.4003V22.6482C133.141 22.7149 133.175 22.7483 133.241 22.7483H137.444C137.511 22.7483 137.564 22.775 137.604 22.8283C137.658 22.8684 137.684 22.9217 137.684 22.9884V24.9298C137.684 24.9965 137.658 25.0565 137.604 25.1099C137.564 25.1499 137.511 25.17 137.444 25.17H130.56Z" fill="#1C9BD8"/>
<path d="M126.549 25.17C126.388 25.17 126.302 25.0966 126.288 24.9498L125.968 23.0285C125.968 22.9618 125.928 22.9284 125.848 22.9284H123.306C123.226 22.9284 123.186 22.9618 123.186 23.0285L122.866 24.9498C122.853 25.0966 122.766 25.17 122.606 25.17H120.264C120.091 25.17 120.024 25.0832 120.064 24.9098L123.006 11.3803C123.033 11.2335 123.119 11.1602 123.266 11.1602H125.968C126.115 11.1602 126.202 11.2335 126.228 11.3803L129.15 24.9098L129.17 24.9898C129.17 25.1099 129.097 25.17 128.95 25.17H126.549ZM123.586 20.6468C123.586 20.7135 123.613 20.7469 123.667 20.7469H125.468C125.534 20.7469 125.561 20.7135 125.548 20.6468L124.607 15.183C124.594 15.1429 124.574 15.1229 124.547 15.1229C124.52 15.1229 124.5 15.1429 124.487 15.183L123.586 20.6468Z" fill="#1C9BD8"/>
<path d="M112.761 25.17C112.614 25.17 112.521 25.1032 112.481 24.9698L110.94 19.446C110.913 19.3926 110.88 19.3659 110.84 19.3659H110.159C110.093 19.3659 110.059 19.3993 110.059 19.466V24.9298C110.059 24.9965 110.033 25.0565 109.979 25.1099C109.939 25.1499 109.886 25.17 109.819 25.17H107.477C107.411 25.17 107.351 25.1499 107.297 25.1099C107.257 25.0565 107.237 24.9965 107.237 24.9298V11.4003C107.237 11.3336 107.257 11.2802 107.297 11.2402C107.351 11.1868 107.411 11.1602 107.477 11.1602H111.52C112.254 11.1602 112.908 11.3403 113.482 11.7005C114.055 12.0474 114.496 12.5411 114.803 13.1816C115.123 13.822 115.283 14.5559 115.283 15.3831C115.283 16.1703 115.129 16.8641 114.823 17.4646C114.529 18.065 114.115 18.532 113.582 18.8655C113.555 18.8789 113.535 18.8989 113.522 18.9256C113.508 18.9389 113.508 18.9589 113.522 18.9856L115.363 24.8898L115.383 24.9698C115.383 25.1032 115.31 25.17 115.163 25.17H112.761ZM110.159 13.5819C110.093 13.5819 110.059 13.6152 110.059 13.6819V17.1043C110.059 17.171 110.093 17.2044 110.159 17.2044H111.06C111.474 17.2044 111.807 17.0443 112.061 16.7241C112.328 16.3905 112.461 15.9502 112.461 15.4031C112.461 14.8427 112.328 14.4024 112.061 14.0822C111.807 13.7486 111.474 13.5819 111.06 13.5819H110.159Z" fill="#1C9BD8"/>
<path d="M103.466 25.17C103.305 25.17 103.219 25.0966 103.205 24.9498L102.885 23.0285C102.885 22.9618 102.845 22.9284 102.765 22.9284H100.223C100.143 22.9284 100.103 22.9618 100.103 23.0285L99.7829 24.9498C99.7696 25.0966 99.6829 25.17 99.5228 25.17H97.1811C97.0077 25.17 96.941 25.0832 96.981 24.9098L99.923 11.3803C99.9497 11.2335 100.036 11.1602 100.183 11.1602H102.885C103.032 11.1602 103.119 11.2335 103.145 11.3803L106.067 24.9098L106.087 24.9898C106.087 25.1099 106.014 25.17 105.867 25.17H103.466ZM100.503 20.6468C100.503 20.7135 100.53 20.7469 100.584 20.7469H102.385C102.451 20.7469 102.478 20.7135 102.465 20.6468L101.524 15.183C101.511 15.1429 101.491 15.1229 101.464 15.1229C101.437 15.1229 101.417 15.1429 101.404 15.183L100.503 20.6468Z" fill="#1C9BD8"/>
<path d="M92.2172 25.33C91.0163 25.33 90.049 24.9898 89.3151 24.3093C88.5946 23.6155 88.2344 22.6949 88.2344 21.5474V14.7826C88.2344 13.6352 88.5946 12.7212 89.3151 12.0407C90.049 11.3469 91.0163 11 92.2172 11C93.418 11 94.3853 11.3469 95.1192 12.0407C95.853 12.7345 96.22 13.6552 96.22 14.8027V15.5632C96.22 15.6299 96.1933 15.6899 96.1399 15.7433C96.0999 15.7833 96.0465 15.8034 95.9798 15.8034H93.6382C93.5714 15.8034 93.5114 15.7833 93.458 15.7433C93.418 15.6899 93.398 15.6299 93.398 15.5632V14.7626C93.398 14.3624 93.2912 14.0421 93.0778 13.802C92.8643 13.5484 92.5774 13.4217 92.2172 13.4217C91.8703 13.4217 91.5901 13.5484 91.3766 13.802C91.1631 14.0421 91.0563 14.3624 91.0563 14.7626V21.5674C91.0563 21.9677 91.1631 22.2946 91.3766 22.5481C91.5901 22.7882 91.8703 22.9083 92.2172 22.9083C92.5774 22.9083 92.8643 22.7882 93.0778 22.5481C93.2912 22.2946 93.398 21.9677 93.398 21.5674V19.9663C93.398 19.8996 93.3646 19.8662 93.2979 19.8662H92.4173C92.3506 19.8662 92.2905 19.8462 92.2372 19.8062C92.1971 19.7528 92.1771 19.6927 92.1771 19.626V17.8448C92.1771 17.7781 92.1971 17.7247 92.2372 17.6847C92.2905 17.6313 92.3506 17.6046 92.4173 17.6046H95.9798C96.0465 17.6046 96.0999 17.6313 96.1399 17.6847C96.1933 17.7247 96.22 17.7781 96.22 17.8448V21.5474C96.22 22.6949 95.853 23.6155 95.1192 24.3093C94.3853 24.9898 93.418 25.33 92.2172 25.33Z" fill="#1C9BD8"/>
<path d="M87.0053 13.3417C87.0053 13.4084 86.9786 13.4684 86.9252 13.5218C86.8852 13.5618 86.8318 13.5819 86.7651 13.5819H82.5822C82.5155 13.5819 82.4821 13.6152 82.4821 13.6819V16.8441C82.4821 16.9108 82.5155 16.9442 82.5822 16.9442H84.9839C85.0506 16.9442 85.104 16.9709 85.144 17.0243C85.1974 17.0643 85.224 17.1177 85.224 17.1844V19.1257C85.224 19.1924 85.1974 19.2525 85.144 19.3059C85.104 19.3459 85.0506 19.3659 84.9839 19.3659H82.5822C82.5155 19.3659 82.4821 19.3993 82.4821 19.466V22.6482C82.4821 22.7149 82.5155 22.7483 82.5822 22.7483H86.7651C86.8318 22.7483 86.8852 22.775 86.9252 22.8283C86.9786 22.8684 87.0053 22.9217 87.0053 22.9884V24.9298C87.0053 24.9965 86.9786 25.0565 86.9252 25.1099C86.8852 25.1499 86.8318 25.17 86.7651 25.17H79.9003C79.8336 25.17 79.7736 25.1499 79.7202 25.1099C79.6802 25.0565 79.6602 24.9965 79.6602 24.9298V11.4003C79.6602 11.3336 79.6802 11.2802 79.7202 11.2402C79.7736 11.1868 79.8336 11.1602 79.9003 11.1602H86.7651C86.8318 11.1602 86.8852 11.1868 86.9252 11.2402C86.9786 11.2802 87.0053 11.3336 87.0053 11.4003V13.3417Z" fill="#1C9BD8"/>
<path d="M75.7631 25.17C75.6164 25.17 75.523 25.1032 75.4829 24.9698L73.9418 19.446C73.9152 19.3926 73.8818 19.3659 73.8418 19.3659H73.1613C73.0946 19.3659 73.0612 19.3993 73.0612 19.466V24.9298C73.0612 24.9965 73.0345 25.0565 72.9812 25.1099C72.9411 25.1499 72.8878 25.17 72.8211 25.17H70.4794C70.4127 25.17 70.3527 25.1499 70.2993 25.1099C70.2593 25.0565 70.2393 24.9965 70.2393 24.9298V11.4003C70.2393 11.3336 70.2593 11.2802 70.2993 11.2402C70.3527 11.1868 70.4127 11.1602 70.4794 11.1602H74.5223C75.2561 11.1602 75.9099 11.3403 76.4836 11.7005C77.0574 12.0474 77.4977 12.5411 77.8046 13.1816C78.1248 13.822 78.2849 14.5559 78.2849 15.3831C78.2849 16.1703 78.1314 16.8641 77.8246 17.4646C77.531 18.065 77.1174 18.532 76.5837 18.8655C76.557 18.8789 76.537 18.8989 76.5237 18.9256C76.5103 18.9389 76.5103 18.9589 76.5237 18.9856L78.3649 24.8898L78.385 24.9698C78.385 25.1032 78.3116 25.17 78.1648 25.17H75.7631ZM73.1613 13.5819C73.0946 13.5819 73.0612 13.6152 73.0612 13.6819V17.1043C73.0612 17.171 73.0946 17.2044 73.1613 17.2044H74.0619C74.4756 17.2044 74.8091 17.0443 75.0626 16.7241C75.3295 16.3905 75.4629 15.9502 75.4629 15.4031C75.4629 14.8427 75.3295 14.4024 75.0626 14.0822C74.8091 13.7486 74.4756 13.5819 74.0619 13.5819H73.1613Z" fill="#1C9BD8"/>
<path d="M64.6781 25.33C63.4773 25.33 62.5099 24.9898 61.7761 24.3093C61.0556 23.6155 60.6953 22.6949 60.6953 21.5474V14.7826C60.6953 13.6352 61.0556 12.7212 61.7761 12.0407C62.5099 11.3469 63.4773 11 64.6781 11C65.8789 11 66.8463 11.3469 67.5801 12.0407C68.314 12.7345 68.6809 13.6552 68.6809 14.8027V15.5632C68.6809 15.6299 68.6542 15.6899 68.6008 15.7433C68.5608 15.7833 68.5074 15.8034 68.4407 15.8034H66.0991C66.0324 15.8034 65.9723 15.7833 65.919 15.7433C65.8789 15.6899 65.8589 15.6299 65.8589 15.5632V14.7626C65.8589 14.3624 65.7522 14.0421 65.5387 13.802C65.3252 13.5484 65.0384 13.4217 64.6781 13.4217C64.3312 13.4217 64.051 13.5484 63.8375 13.802C63.624 14.0421 63.5173 14.3624 63.5173 14.7626V21.5674C63.5173 21.9677 63.624 22.2946 63.8375 22.5481C64.051 22.7882 64.3312 22.9083 64.6781 22.9083C65.0384 22.9083 65.3252 22.7882 65.5387 22.5481C65.7522 22.2946 65.8589 21.9677 65.8589 21.5674V19.9663C65.8589 19.8996 65.8256 19.8662 65.7589 19.8662H64.8782C64.8115 19.8662 64.7515 19.8462 64.6981 19.8062C64.6581 19.7528 64.6381 19.6927 64.6381 19.626V17.8448C64.6381 17.7781 64.6581 17.7247 64.6981 17.6847C64.7515 17.6313 64.8115 17.6046 64.8782 17.6046H68.4407C68.5074 17.6046 68.5608 17.6313 68.6008 17.6847C68.6542 17.7247 68.6809 17.7781 68.6809 17.8448V21.5474C68.6809 22.6949 68.314 23.6155 67.5801 24.3093C66.8463 24.9898 65.8789 25.33 64.6781 25.33Z" fill="#1C9BD8"/>
<path d="M57.4958 25.17C57.3357 25.17 57.249 25.0966 57.2356 24.9498L56.9154 23.0285C56.9154 22.9618 56.8754 22.9284 56.7953 22.9284H54.2535C54.1735 22.9284 54.1334 22.9618 54.1334 23.0285L53.8132 24.9498C53.7999 25.0966 53.7131 25.17 53.553 25.17H51.2114C51.0379 25.17 50.9712 25.0832 51.0113 24.9098L53.9533 11.3803C53.98 11.2335 54.0667 11.1602 54.2135 11.1602H56.9154C57.0622 11.1602 57.1489 11.2335 57.1756 11.3803L60.0976 24.9098L60.1176 24.9898C60.1176 25.1099 60.0442 25.17 59.8975 25.17H57.4958ZM54.5337 20.6468C54.5337 20.7135 54.5604 20.7469 54.6138 20.7469H56.415C56.4818 20.7469 56.5084 20.7135 56.4951 20.6468L55.5544 15.183C55.5411 15.1429 55.5211 15.1229 55.4944 15.1229C55.4677 15.1229 55.4477 15.1429 55.4344 15.183L54.5337 20.6468Z" fill="#1C9BD8"/>
<path fill-rule="evenodd" clip-rule="evenodd" d="M230.969 8.50406L232.23 22.1806C232.35 23.4707 233.515 24.5123 234.829 24.5123H246.884C247.415 24.5123 247.852 24.0901 247.852 23.5614C247.852 23.0332 247.417 22.6105 246.885 22.6105H234.831C234.674 22.6105 234.512 22.5426 234.382 22.4263C234.252 22.3099 234.17 22.158 234.156 22.0082L234.055 20.9112L246.734 18.6026C248.006 18.3707 249 17.1992 249 15.925V11.5812C249 10.242 247.891 9.1571 246.533 9.1571H232.97L232.894 8.33146C232.774 7.04136 231.61 6 230.295 6H227.966C227.435 6 227 6.42274 227 6.95089C227 7.47905 227.435 7.90179 227.966 7.90179H230.294C230.45 7.90179 230.613 7.96962 230.743 8.08601C230.873 8.20249 230.955 8.35434 230.969 8.50406ZM233.822 20.7358L233.822 20.7358L233.941 22.0278C233.98 22.4521 234.395 22.8248 234.831 22.8248H246.885C247.3 22.8248 247.636 23.1541 247.636 23.5614C247.636 23.6632 247.615 23.7602 247.577 23.8483C247.615 23.7602 247.636 23.6632 247.636 23.5614C247.636 23.154 247.3 22.8248 246.885 22.8248H234.831C234.395 22.8248 233.98 22.4521 233.941 22.0278L233.822 20.7358ZM227.363 6.51173C227.5 6.33115 227.719 6.21432 227.966 6.21432H230.295C231.501 6.21432 232.57 7.17338 232.68 8.35122L232.774 9.37142H246.533C247.774 9.37142 248.784 10.3629 248.784 11.5812V15.925C248.784 16.2172 248.727 16.5042 248.623 16.7736C248.727 16.5042 248.784 16.2172 248.784 15.925V11.5812C248.784 10.3629 247.774 9.37138 246.533 9.37138H232.774L232.68 8.35118C232.57 7.17335 231.501 6.21429 230.295 6.21429H227.966C227.719 6.21429 227.5 6.33114 227.363 6.51173ZM233.685 19.2618L246.42 16.9437C246.592 16.9125 246.757 16.826 246.895 16.7058C246.757 16.826 246.592 16.9125 246.42 16.9437L233.685 19.2618L232.909 10.8446H232.909L233.685 19.2618ZM233.879 19.0088L233.146 11.0589H246.532C246.83 11.0589 247.067 11.2954 247.067 11.5812V15.9257C247.067 16.0943 246.991 16.2807 246.858 16.4374C246.726 16.5939 246.552 16.7019 246.381 16.7329L233.879 19.0088ZM241.475 27.3579C241.475 28.8171 242.684 30 244.165 30C245.645 30 246.854 28.8171 246.854 27.3579C246.854 25.8986 245.645 24.7157 244.165 24.7157C242.684 24.7157 241.475 25.8986 241.475 27.3579ZM243.408 27.3579C243.408 26.952 243.745 26.6175 244.165 26.6175C244.585 26.6175 244.922 26.952 244.922 27.3579C244.922 27.7637 244.585 28.0982 244.165 28.0982C243.745 28.0982 243.408 27.7637 243.408 27.3579ZM233.203 27.3579C233.203 28.8171 234.412 30 235.893 30C237.374 30 238.582 28.817 238.582 27.3579C238.582 25.8986 237.373 24.7157 235.893 24.7157C234.412 24.7157 233.203 25.8986 233.203 27.3579ZM235.136 27.3579C235.136 26.952 235.473 26.6175 235.893 26.6175C236.313 26.6175 236.65 26.952 236.65 27.3579C236.65 27.7636 236.312 28.0982 235.893 28.0982C235.473 28.0982 235.136 27.7636 235.136 27.3579ZM246.444 28.3019C246.569 28.0115 246.638 27.6925 246.638 27.3579C246.638 26.0195 245.528 24.93 244.165 24.93C243.597 24.93 243.074 25.1186 242.656 25.4352C243.074 25.1186 243.597 24.93 244.165 24.93C245.528 24.93 246.638 26.0194 246.638 27.3579C246.638 27.6925 246.569 28.0115 246.444 28.3019ZM243.244 27.0501C243.21 27.1467 243.192 27.2502 243.192 27.3579C243.192 27.8845 243.628 28.3125 244.165 28.3125C244.433 28.3125 244.676 28.2055 244.852 28.0327C244.676 28.2055 244.433 28.3125 244.165 28.3125C243.628 28.3125 243.192 27.8846 243.192 27.3579C243.192 27.2502 243.21 27.1467 243.244 27.0501ZM238.172 28.3019C238.297 28.0115 238.367 27.6925 238.367 27.3579C238.367 26.0195 237.257 24.93 235.893 24.93C235.327 24.93 234.804 25.1177 234.387 25.433C234.804 25.1177 235.327 24.93 235.893 24.93C237.257 24.93 238.367 26.0194 238.367 27.3579C238.367 27.6925 238.297 28.0115 238.172 28.3019ZM234.974 27.045C234.939 27.143 234.92 27.2483 234.92 27.3579C234.92 27.8845 235.357 28.3125 235.893 28.3125C236.161 28.3125 236.404 28.2055 236.58 28.0327C236.404 28.2055 236.161 28.3125 235.893 28.3125C235.357 28.3125 234.92 27.8846 234.92 27.3579C234.92 27.2483 234.939 27.143 234.974 27.045Z" fill="#1C9BD8"/>
<path d="M216 8L216 27.3148" stroke="#1C9BD8" stroke-width="2" stroke-linecap="round"/>
</svg>
