<svg width="320" height="36" viewBox="0 0 320 36" fill="none" xmlns="http://www.w3.org/2000/svg">
<rect x="1" y="1" width="318" height="34" rx="17" stroke="#D9D9D9" stroke-width="2"/>
<path d="M23.7 21.16C23.7 22.3867 23.34 23.3333 22.62 24C21.9133 24.6667 20.9867 25 19.84 25H16.32C16.2533 25 16.1933 24.98 16.14 24.94C16.1 24.8867 16.08 24.8267 16.08 24.76V11.24C16.08 11.1733 16.1 11.12 16.14 11.08C16.1933 11.0267 16.2533 11 16.32 11H19.48C20.7467 11 21.74 11.32 22.46 11.96C23.18 12.6 23.54 13.5333 23.54 14.76C23.54 16.1333 23.0533 17.1133 22.08 17.7C22.0133 17.74 22 17.78 22.04 17.82C22.56 18.1533 22.9667 18.6 23.26 19.16C23.5533 19.72 23.7 20.3867 23.7 21.16ZM18.5 13C18.4333 13 18.4 13.0333 18.4 13.1V16.82C18.4 16.8867 18.4333 16.92 18.5 16.92H19.52C20.0667 16.92 20.4933 16.7533 20.8 16.42C21.1067 16.0867 21.26 15.6133 21.26 15C21.26 14.36 21.1067 13.8667 20.8 13.52C20.4933 13.1733 20.0667 13 19.52 13H18.5ZM19.66 22.98C20.1933 22.98 20.6133 22.7933 20.92 22.42C21.2267 22.0467 21.38 21.52 21.38 20.84C21.38 20.1467 21.2267 19.6067 20.92 19.22C20.6133 18.82 20.1933 18.62 19.66 18.62H18.5C18.4333 18.62 18.4 18.6533 18.4 18.72V22.88C18.4 22.9467 18.4333 22.98 18.5 22.98H19.66ZM29.0183 25.16C27.8716 25.16 26.9516 24.7933 26.2583 24.06C25.5783 23.3133 25.2383 22.3333 25.2383 21.12V11.24C25.2383 11.1733 25.2583 11.12 25.2983 11.08C25.3516 11.0267 25.4116 11 25.4783 11H27.3183C27.3849 11 27.4383 11.0267 27.4783 11.08C27.5316 11.12 27.5583 11.1733 27.5583 11.24V21.36C27.5583 21.8933 27.6916 22.3267 27.9583 22.66C28.2249 22.9933 28.5783 23.16 29.0183 23.16C29.4583 23.16 29.8116 22.9933 30.0783 22.66C30.3449 22.3267 30.4783 21.8933 30.4783 21.36V11.24C30.4783 11.1733 30.4983 11.12 30.5383 11.08C30.5916 11.0267 30.6516 11 30.7183 11H32.5583C32.6249 11 32.6783 11.0267 32.7183 11.08C32.7716 11.12 32.7983 11.1733 32.7983 11.24V21.12C32.7983 22.3333 32.4516 23.3133 31.7583 24.06C31.0649 24.7933 30.1516 25.16 29.0183 25.16ZM38.1691 25.16C37.0624 25.16 36.1691 24.8267 35.4891 24.16C34.8091 23.4933 34.4691 22.62 34.4691 21.54V21.02C34.4691 20.9533 34.4891 20.9 34.5291 20.86C34.5824 20.8067 34.6424 20.78 34.7091 20.78H36.5291C36.5957 20.78 36.6491 20.8067 36.6891 20.86C36.7424 20.9 36.7691 20.9533 36.7691 21.02V21.42C36.7691 21.94 36.8957 22.36 37.1491 22.68C37.4157 23 37.7557 23.16 38.1691 23.16C38.5824 23.16 38.9224 23.0133 39.1891 22.72C39.4557 22.4133 39.5891 22.0133 39.5891 21.52C39.5891 21.1733 39.5157 20.8733 39.3691 20.62C39.2224 20.3667 39.0157 20.1267 38.7491 19.9C38.4824 19.6733 38.0557 19.3467 37.4691 18.92C36.8024 18.44 36.2624 18.0133 35.8491 17.64C35.4491 17.2667 35.1091 16.82 34.8291 16.3C34.5624 15.7667 34.4291 15.1533 34.4291 14.46C34.4291 13.3533 34.7624 12.4733 35.4291 11.82C36.0957 11.1667 36.9757 10.84 38.0691 10.84C39.1757 10.84 40.0691 11.1867 40.7491 11.88C41.4291 12.56 41.7691 13.4667 41.7691 14.6V15.08C41.7691 15.1467 41.7424 15.2067 41.6891 15.26C41.6491 15.3 41.5957 15.32 41.5291 15.32H39.7291C39.6624 15.32 39.6024 15.3 39.5491 15.26C39.5091 15.2067 39.4891 15.1467 39.4891 15.08V14.56C39.4891 14.04 39.3557 13.6267 39.0891 13.32C38.8357 13 38.4957 12.84 38.0691 12.84C37.6691 12.84 37.3424 12.9867 37.0891 13.28C36.8357 13.56 36.7091 13.9533 36.7091 14.46C36.7091 14.94 36.8424 15.3467 37.1091 15.68C37.3891 16.0133 37.9291 16.4733 38.7291 17.06C39.5424 17.66 40.1557 18.1533 40.5691 18.54C40.9824 18.9133 41.3024 19.3267 41.5291 19.78C41.7557 20.2333 41.8691 20.7733 41.8691 21.4C41.8691 22.5333 41.5291 23.4467 40.8491 24.14C40.1691 24.82 39.2757 25.16 38.1691 25.16ZM47.0609 25.16C45.9276 25.16 45.0143 24.82 44.3209 24.14C43.6409 23.4467 43.3009 22.5333 43.3009 21.4V14.58C43.3009 13.4333 43.6409 12.5267 44.3209 11.86C45.0143 11.18 45.9276 10.84 47.0609 10.84C48.2076 10.84 49.1276 11.18 49.8209 11.86C50.5143 12.5267 50.8609 13.4333 50.8609 14.58V14.82C50.8609 14.8867 50.8343 14.9467 50.7809 15C50.7409 15.0533 50.6876 15.08 50.6209 15.08L48.7609 15.16C48.6009 15.16 48.5209 15.08 48.5209 14.92V14.42C48.5209 13.9533 48.3876 13.5733 48.1209 13.28C47.8543 12.9867 47.5009 12.84 47.0609 12.84C46.6343 12.84 46.2876 12.9867 46.0209 13.28C45.7543 13.5733 45.6209 13.9533 45.6209 14.42V21.58C45.6209 22.0467 45.7543 22.4267 46.0209 22.72C46.2876 23.0133 46.6343 23.16 47.0609 23.16C47.5009 23.16 47.8543 23.0133 48.1209 22.72C48.3876 22.4267 48.5209 22.0467 48.5209 21.58V21.08C48.5209 21.0133 48.5409 20.96 48.5809 20.92C48.6343 20.8667 48.6943 20.84 48.7609 20.84L50.6209 20.92C50.6876 20.92 50.7409 20.9467 50.7809 21C50.8343 21.04 50.8609 21.0933 50.8609 21.16V21.4C50.8609 22.5333 50.5143 23.4467 49.8209 24.14C49.1276 24.82 48.2076 25.16 47.0609 25.16ZM58.2053 25C58.0453 25 57.9586 24.9267 57.9453 24.78L57.5653 22.68C57.5653 22.6133 57.5253 22.58 57.4453 22.58H54.5253C54.4453 22.58 54.4053 22.6133 54.4053 22.68L54.0253 24.78C54.012 24.9267 53.9253 25 53.7653 25H51.9453C51.7586 25 51.6853 24.9133 51.7253 24.74L54.6853 11.22C54.712 11.0733 54.7986 11 54.9453 11H57.0653C57.212 11 57.2986 11.0733 57.3253 11.22L60.2853 24.74V24.82C60.2853 24.94 60.212 25 60.0653 25H58.2053ZM54.7653 20.66C54.752 20.7267 54.7853 20.76 54.8653 20.76H57.0853C57.1653 20.76 57.1986 20.7267 57.1853 20.66L56.0253 14.34C56.012 14.3 55.992 14.28 55.9653 14.28C55.9386 14.28 55.9186 14.3 55.9053 14.34L54.7653 20.66ZM67.1864 25C67.0531 25 66.9664 24.9333 66.9264 24.8L65.2264 19.06C65.1997 19.0067 65.1664 18.98 65.1264 18.98H64.0664C63.9997 18.98 63.9664 19.0133 63.9664 19.08V24.76C63.9664 24.8267 63.9397 24.8867 63.8864 24.94C63.8464 24.98 63.7931 25 63.7264 25H61.8864C61.8197 25 61.7597 24.98 61.7064 24.94C61.6664 24.8867 61.6464 24.8267 61.6464 24.76V11.24C61.6464 11.1733 61.6664 11.12 61.7064 11.08C61.7597 11.0267 61.8197 11 61.8864 11H65.6464C66.3531 11 66.9731 11.1733 67.5064 11.52C68.0531 11.8533 68.4731 12.3333 68.7664 12.96C69.0731 13.5733 69.2264 14.28 69.2264 15.08C69.2264 15.9067 69.0664 16.62 68.7464 17.22C68.4264 17.82 67.9797 18.2733 67.4064 18.58C67.3531 18.5933 67.3331 18.6333 67.3464 18.7L69.3064 24.72C69.3197 24.7467 69.3264 24.78 69.3264 24.82C69.3264 24.94 69.2531 25 69.1064 25H67.1864ZM64.0664 13C63.9997 13 63.9664 13.0333 63.9664 13.1V17.08C63.9664 17.1467 63.9997 17.18 64.0664 17.18H65.2864C65.7664 17.18 66.1531 16.9933 66.4464 16.62C66.7531 16.2467 66.9064 15.74 66.9064 15.1C66.9064 14.46 66.7531 13.9533 66.4464 13.58C66.1531 13.1933 65.7664 13 65.2864 13H64.0664Z" fill="#D9D9D9"/>
<path d="M305.45 27.5525C304.716 28.2867 303.527 28.2867 302.793 27.5525L299.478 24.2352C298.115 25.1101 296.504 25.6314 294.765 25.6314C289.925 25.6314 286 21.7047 286 16.8604C286 12.016 289.925 8.08936 294.765 8.08936C299.606 8.08936 303.53 12.016 303.53 16.8604C303.53 18.6004 303.008 20.2131 302.135 21.5775L305.45 24.8948C306.183 25.6289 306.183 26.8183 305.45 27.5525ZM294.765 10.5953C291.308 10.5953 288.504 13.3999 288.504 16.8603C288.504 20.3207 291.308 23.1253 294.765 23.1253C298.223 23.1253 301.026 20.3207 301.026 16.8603C301.026 13.3999 298.223 10.5953 294.765 10.5953Z" fill="#D9D9D9"/>
</svg>
