<svg width="24" height="21" viewBox="0 0 24 21" fill="none" xmlns="http://www.w3.org/2000/svg">
<path d="M20.3996 3.69504H18.8636L18.4796 2.46337C18.2307 1.74066 17.7689 1.11531 17.1583 0.673949C16.5477 0.232589 15.8185 -0.00292756 15.0717 2.74707e-05H8.92781C8.17369 0.00147556 7.43905 0.245971 6.82758 0.699007C6.21611 1.15204 5.75869 1.79074 5.51989 2.52495L5.13589 3.75662H3.59993C2.64517 3.75662 1.72951 4.14592 1.05439 4.83886C0.379277 5.53181 0 6.47165 0 7.45163V17.305C0 18.285 0.379277 19.2248 1.05439 19.9178C1.72951 20.6107 2.64517 21 3.59993 21H20.3996C21.3543 21 22.27 20.6107 22.9451 19.9178C23.6202 19.2248 23.9995 18.285 23.9995 17.305V7.45163C24.0075 6.96124 23.9202 6.47412 23.7429 6.01869C23.5655 5.56326 23.3016 5.14862 22.9666 4.79896C22.6315 4.4493 22.2319 4.17161 21.7912 3.98208C21.3505 3.79255 20.8774 3.69497 20.3996 3.69504ZM21.5996 17.2434C21.5996 17.5701 21.4731 17.8833 21.2481 18.1143C21.023 18.3453 20.7178 18.4751 20.3996 18.4751H3.59993C3.28167 18.4751 2.97645 18.3453 2.75141 18.1143C2.52638 17.8833 2.39995 17.5701 2.39995 17.2434V7.39005C2.39995 7.06339 2.52638 6.75011 2.75141 6.51912C2.97645 6.28814 3.28167 6.15838 3.59993 6.15838H5.99988C6.26155 6.1724 6.5205 6.09812 6.73718 5.94688C6.95386 5.79565 7.11636 5.57577 7.19985 5.32084L7.84784 3.3009C7.92834 3.05627 8.08171 2.84379 8.28627 2.6935C8.49084 2.5432 8.73625 2.4627 8.98781 2.46337H15.1317C15.3833 2.4627 15.6287 2.5432 15.8332 2.6935C16.0378 2.84379 16.1912 3.05627 16.2717 3.3009L16.9196 5.32084C16.9967 5.55578 17.1409 5.7614 17.3336 5.91082C17.5263 6.06025 17.7584 6.14653 17.9996 6.15838H20.3996C20.7178 6.15838 21.023 6.28814 21.2481 6.51912C21.4731 6.75011 21.5996 7.06339 21.5996 7.39005V17.2434ZM11.9998 6.15838C11.0504 6.15838 10.1224 6.44732 9.33307 6.98867C8.54373 7.53002 7.92851 8.29946 7.56522 9.1997C7.20193 10.0999 7.10687 11.0905 7.29208 12.0462C7.47728 13.0019 7.93443 13.8797 8.60571 14.5687C9.27699 15.2578 10.1322 15.727 11.0633 15.9171C11.9944 16.1072 12.9595 16.0096 13.8366 15.6367C14.7137 15.2638 15.4633 14.6324 15.9907 13.8222C16.5181 13.012 16.7997 12.0595 16.7997 11.0851C16.7997 9.77842 16.2939 8.5253 15.3938 7.60137C14.4936 6.67744 13.2728 6.15838 11.9998 6.15838ZM11.9998 13.5484C11.5251 13.5484 11.0611 13.4039 10.6664 13.1332C10.2717 12.8626 9.96413 12.4779 9.78249 12.0277C9.60084 11.5776 9.55331 11.0823 9.64591 10.6045C9.73852 10.1266 9.96709 9.68772 10.3027 9.34321C10.6384 8.99871 11.066 8.7641 11.5315 8.66905C11.9971 8.574 12.4796 8.62278 12.9182 8.80923C13.3567 8.99567 13.7315 9.3114 13.9952 9.7165C14.2589 10.1216 14.3997 10.5979 14.3997 11.0851C14.3997 11.7384 14.1468 12.3649 13.6968 12.8269C13.2467 13.2889 12.6363 13.5484 11.9998 13.5484Z" fill="white"/>
</svg>
