<svg width="26" height="25" viewBox="0 0 26 25" fill="none" xmlns="http://www.w3.org/2000/svg">
<path d="M10.0166 19.2803C11.5922 19.2804 12.875 20.5646 12.875 22.1406C12.8747 23.7165 11.592 24.9998 10.0166 25C8.44106 25 7.15748 23.7166 7.15723 22.1406C7.15723 20.5645 8.44091 19.2803 10.0166 19.2803ZM21.4531 19.2803C23.0287 19.2805 24.3115 20.5646 24.3115 22.1406C24.3113 23.7165 23.0285 24.9998 21.4531 25C19.8776 25 18.594 23.7166 18.5938 22.1406C18.5938 20.5645 19.8774 19.2803 21.4531 19.2803ZM10.0166 21.1865C9.49561 21.1865 9.06348 21.6195 9.06348 22.1406C9.06373 22.6616 9.49576 23.0938 10.0166 23.0938C10.5373 23.0936 10.9695 22.6615 10.9697 22.1406C10.9697 21.6196 10.5375 21.1867 10.0166 21.1865ZM21.4531 21.1865C20.9321 21.1865 20.5 21.6195 20.5 22.1406C20.5003 22.6616 20.9323 23.0938 21.4531 23.0938C21.9738 23.0936 22.406 22.6615 22.4062 22.1406C22.4062 21.6196 21.974 21.1867 21.4531 21.1865ZM3.73926 0C5.29426 0 6.65891 0.962737 7.20801 2.39453L7.25879 2.53516V2.53613L7.68066 3.81348H23.2197C23.9021 3.8135 24.5707 4.10554 25.0312 4.62207L25.3486 4.97852H25.2861C25.5684 5.43841 25.6852 5.98185 25.6309 6.51465V6.5166L24.7666 14.2832C24.5639 16.1714 22.9721 17.5878 21.085 17.5879H10.3857C8.49855 17.5879 6.90687 16.1715 6.7041 14.2832L5.70312 5.23047L5.04883 3.26855C4.86244 2.70939 4.3353 2.33398 3.73926 2.33398H2.02441C1.38535 2.33398 0.857422 1.80609 0.857422 1.16699C0.857524 0.527977 1.38541 0 2.02441 0H3.73926ZM9.03516 14.0322L9.05469 14.1602C9.18469 14.7894 9.73878 15.2529 10.3984 15.2529H21.0977C21.7987 15.2529 22.3795 14.7295 22.46 14.04V14.0312L22.4609 14.0195L23.3252 6.25391L23.3242 6.22656C23.323 6.21843 23.3209 6.21067 23.3184 6.2041C23.3159 6.19764 23.3138 6.1921 23.3115 6.18848C23.311 6.18762 23.31 6.18706 23.3096 6.18652C23.2993 6.17624 23.2885 6.16701 23.2754 6.16016C23.2633 6.15387 23.2458 6.14747 23.2197 6.14746H8.15918L9.03516 14.0322Z" fill="white"/>
</svg>
