<svg width="19" height="19" viewBox="0 0 19 19" fill="none" xmlns="http://www.w3.org/2000/svg">
<path d="M6.25684 14.4512C7.30626 14.4513 8.16113 15.3069 8.16113 16.3574C8.16109 17.4079 7.30623 18.2635 6.25684 18.2637C5.20732 18.2637 4.35258 17.408 4.35254 16.3574C4.35254 15.3068 5.20729 14.4512 6.25684 14.4512ZM13.874 14.4512C14.9236 14.4512 15.7783 15.3068 15.7783 16.3574C15.7783 17.408 14.9235 18.2637 13.874 18.2637C12.8246 18.2636 11.9698 17.4079 11.9697 16.3574C11.9697 15.3069 12.8246 14.4513 13.874 14.4512ZM6.25684 15.7217C5.90981 15.7217 5.62207 16.0101 5.62207 16.3574C5.62211 16.7048 5.90983 16.9932 6.25684 16.9932C6.60372 16.993 6.89156 16.7047 6.8916 16.3574C6.8916 16.0101 6.60374 15.7218 6.25684 15.7217ZM13.874 15.7217C13.5271 15.7218 13.2393 16.0101 13.2393 16.3574C13.2393 16.7047 13.5271 16.993 13.874 16.9932C14.221 16.9932 14.5087 16.7048 14.5088 16.3574C14.5088 16.0101 14.2211 15.7217 13.874 15.7217ZM2.07422 1.59961C3.11005 1.59961 4.01906 2.24184 4.38477 3.19629L4.41797 3.28906V3.29004L4.69922 4.1416H15.0498C15.5043 4.14162 15.9491 4.33647 16.2559 4.68066L16.4678 4.91797H16.4258C16.614 5.22459 16.6915 5.58712 16.6553 5.94238V5.94336L16.0801 11.1201C15.945 12.3787 14.8848 13.3221 13.6279 13.3223H6.50098C5.24399 13.3222 4.18389 12.3787 4.04883 11.1201L3.38184 5.08594L2.94629 3.77832C2.82214 3.40561 2.47123 3.15527 2.07422 3.15527H0.931641C0.506112 3.15522 0.15446 2.80375 0.154297 2.37793C0.154344 1.95201 0.506042 1.59966 0.931641 1.59961H2.07422ZM5.60156 10.9531L5.61523 11.0381C5.70183 11.4575 6.07038 11.7666 6.50977 11.7666H13.6367C14.1034 11.7664 14.4904 11.4174 14.5439 10.958V10.9443L15.1201 5.76758L15.1191 5.75C15.1184 5.74459 15.1169 5.73973 15.1152 5.73535C15.1135 5.73089 15.1119 5.72706 15.1104 5.72461L15.1094 5.72363C15.1025 5.71681 15.0956 5.71062 15.0869 5.70605C15.0789 5.70187 15.0672 5.69728 15.0498 5.69727H5.01758L5.60156 10.9531Z" fill="#1C9BD8"/>
<circle cx="14" cy="5.01929" r="4" fill="#EDEDED" stroke="#1C9BD8" stroke-width="1.3"/>
<path d="M13.689 7.11455C13.6318 7.11455 13.5851 7.09624 13.5487 7.05962C13.5124 7.01776 13.4942 6.97068 13.4942 6.91837V5.4823H12.1078C12.0507 5.4823 12.0013 5.46399 11.9598 5.42737C11.9234 5.39075 11.9053 5.34367 11.9053 5.28612V4.71326C11.9053 4.65572 11.9234 4.60863 11.9598 4.57201C12.0013 4.53016 12.0507 4.50923 12.1078 4.50923H13.4942V3.12026C13.4942 3.06271 13.5124 3.01562 13.5487 2.979C13.5851 2.94238 13.6318 2.92407 13.689 2.92407H14.3276C14.3796 2.92407 14.4237 2.94238 14.4601 2.979C14.5016 3.01562 14.5224 3.06271 14.5224 3.12026V4.50923H15.901C15.9581 4.50923 16.0049 4.53016 16.0412 4.57201C16.0776 4.60863 16.0957 4.65572 16.0957 4.71326V5.28612C16.0957 5.34367 16.0776 5.39075 16.0412 5.42737C16.0049 5.46399 15.9581 5.4823 15.901 5.4823H14.5224V6.91837C14.5224 6.97068 14.5016 7.01776 14.4601 7.05962C14.4237 7.09624 14.3796 7.11455 14.3276 7.11455H13.689Z" fill="#1C9BD8"/>
</svg>
