<svg width="55" height="55" viewBox="0 0 55 55" fill="none" xmlns="http://www.w3.org/2000/svg">
<circle cx="27.1435" cy="27.1435" r="27.1435" fill="white"/>
<path fill-rule="evenodd" clip-rule="evenodd" d="M18.1183 16.6339L19.4894 32.1019C19.6199 33.5609 20.8862 34.7389 22.3159 34.7389H35.4243C36.0018 34.7389 36.4766 34.2614 36.4766 33.6635C36.4766 33.0661 36.0041 32.588 35.4259 32.588H22.3176C22.1475 32.588 21.9706 32.5113 21.8295 32.3797C21.6884 32.248 21.599 32.0763 21.584 31.9068L21.4738 30.6662L35.261 28.0552C36.6444 27.7929 37.7253 26.4679 37.7253 25.0268V20.1141C37.7253 18.5995 36.5191 17.3725 35.0423 17.3725H20.2945L20.212 16.4387C20.0815 14.9796 18.8152 13.8019 17.3855 13.8019H14.8529C14.2748 13.8019 13.8022 14.28 13.8022 14.8773C13.8022 15.4747 14.2748 15.9528 14.8529 15.9528H17.3847C17.5542 15.9528 17.7312 16.0295 17.8725 16.1611C18.0138 16.2929 18.1033 16.4646 18.1183 16.6339ZM21.2206 30.4678L21.2206 30.4678L21.3504 31.929C21.3928 32.4089 21.8442 32.8304 22.3175 32.8304H35.4259C35.8772 32.8304 36.2421 33.2028 36.2421 33.6635C36.2421 33.7787 36.2192 33.8883 36.1778 33.988C36.2192 33.8883 36.2421 33.7786 36.2421 33.6635C36.2421 33.2028 35.8773 32.8304 35.4259 32.8304H22.3176C21.8442 32.8304 21.3928 32.4088 21.3504 31.929L21.2206 30.4678ZM14.1973 14.3806C14.3459 14.1764 14.5841 14.0443 14.8529 14.0443H17.3855C18.6962 14.0443 19.8593 15.129 19.9784 16.4611L20.0804 17.6149H35.0423C36.3922 17.6149 37.4908 18.7362 37.4908 20.1141V25.0269C37.4908 25.3574 37.4284 25.6819 37.3149 25.9866C37.4284 25.6819 37.4908 25.3574 37.4908 25.0268V20.1141C37.4908 18.7362 36.3923 17.6148 35.0423 17.6148H20.0805L19.9784 16.461C19.8593 15.1289 18.6963 14.0442 17.3855 14.0442H14.8529C14.5841 14.0442 14.3459 14.1764 14.1973 14.3806ZM21.0721 28.8007L34.9199 26.179C35.1072 26.1437 35.2859 26.0458 35.4361 25.91C35.2859 26.0458 35.1072 26.1437 34.9199 26.179L21.0721 28.8008L20.2282 19.2811H20.2282L21.0721 28.8007ZM21.2822 28.5145L20.4852 19.5234H35.0415C35.3652 19.5234 35.6231 19.7909 35.6231 20.1141V25.0277C35.6231 25.2183 35.5409 25.4291 35.3966 25.6063C35.2525 25.7834 35.0636 25.9056 34.8776 25.9406L21.2822 28.5145ZM29.5427 37.9572C29.5427 39.6076 30.8576 40.9454 32.4673 40.9454C34.0771 40.9454 35.3919 39.6075 35.3919 37.9572C35.3919 36.3068 34.0771 34.969 32.4673 34.969C30.8576 34.969 29.5427 36.3068 29.5427 37.9572ZM31.6441 37.9572C31.6441 37.4982 32.0106 37.1199 32.4673 37.1199C32.9241 37.1199 33.2905 37.4982 33.2905 37.9572C33.2905 38.4162 32.9241 38.7945 32.4673 38.7945C32.0106 38.7945 31.6441 38.4162 31.6441 37.9572ZM20.5478 37.9572C20.5478 39.6075 21.8626 40.9454 23.4724 40.9454C25.0831 40.9454 26.397 39.6075 26.397 37.9572C26.397 36.3068 25.0822 34.969 23.4724 34.969C21.8626 34.969 20.5478 36.3068 20.5478 37.9572ZM22.6492 37.9572C22.6492 37.4982 23.0157 37.1199 23.4724 37.1199C23.9292 37.1199 24.2956 37.4982 24.2956 37.9572C24.2956 38.4161 23.9285 38.7945 23.4724 38.7945C23.0164 38.7945 22.6492 38.4161 22.6492 37.9572ZM34.9456 39.0248C35.082 38.6965 35.1574 38.3356 35.1574 37.9572C35.1574 36.4435 33.9503 35.2114 32.4673 35.2114C31.8503 35.2114 31.2811 35.4246 30.8267 35.7827C31.2811 35.4246 31.8503 35.2113 32.4673 35.2113C33.9503 35.2113 35.1574 36.4435 35.1574 37.9572C35.1574 38.3356 35.082 38.6965 34.9456 39.0248ZM31.4659 37.6091C31.4294 37.7183 31.4096 37.8354 31.4096 37.9572C31.4096 38.5529 31.8838 39.0369 32.4673 39.0369C32.7591 39.0369 33.0236 38.9159 33.215 38.7204C33.0236 38.9159 32.7591 39.0369 32.4673 39.0369C31.8838 39.0369 31.4096 38.5529 31.4096 37.9572C31.4096 37.8355 31.4294 37.7183 31.4659 37.6091ZM25.9508 39.0248C26.0871 38.6965 26.1625 38.3356 26.1625 37.9572C26.1625 36.4435 24.9554 35.2114 23.4724 35.2114C22.8569 35.2114 22.2888 35.4236 21.835 35.7802C22.2889 35.4236 22.8569 35.2113 23.4724 35.2113C24.9554 35.2113 26.1625 36.4435 26.1625 37.9572C26.1625 38.3356 26.0871 38.6965 25.9508 39.0248ZM22.4729 37.6034C22.4352 37.7142 22.4147 37.8333 22.4147 37.9572C22.4147 38.5529 22.8897 39.0369 23.4724 39.0369C23.7638 39.0369 24.0282 38.9159 24.2198 38.7204C24.0282 38.9159 23.7638 39.0369 23.4724 39.0369C22.8897 39.0369 22.4147 38.5529 22.4147 37.9572C22.4147 37.8333 22.4352 37.7143 22.4729 37.6034Z" fill="#313131"/>
</svg>
