<svg width="18" height="18" viewBox="0 0 18 18" fill="none" xmlns="http://www.w3.org/2000/svg">
<path d="M6.21484 13.7919C7.16721 13.7919 7.94336 14.569 7.94336 15.5223C7.94318 16.4755 7.1671 17.2518 6.21484 17.2518C5.26256 17.2518 4.48651 16.4755 4.48633 15.5223C4.48633 14.569 5.26245 13.7919 6.21484 13.7919ZM13.127 13.7919C14.0794 13.7919 14.8555 14.569 14.8555 15.5223C14.8553 16.4755 14.0792 17.2518 13.127 17.2518C12.1748 17.2516 11.3996 16.4754 11.3994 15.5223C11.3994 14.5691 12.1747 13.7921 13.127 13.7919ZM6.21484 14.9452C5.89994 14.9452 5.63867 15.2071 5.63867 15.5223C5.63885 15.8374 5.90005 16.0985 6.21484 16.0985C6.52961 16.0985 6.79084 15.8374 6.79102 15.5223C6.79102 15.2071 6.52972 14.9452 6.21484 14.9452ZM13.127 14.9452C12.8122 14.9454 12.5518 15.2073 12.5518 15.5223C12.5519 15.8373 12.8123 16.0983 13.127 16.0985C13.4417 16.0985 13.7029 15.8374 13.7031 15.5223C13.7031 15.2071 13.4419 14.9452 13.127 14.9452ZM2.41992 2.13074C3.35981 2.1308 4.18477 2.71292 4.5166 3.57898L4.54688 3.66394V3.66492L4.80176 4.43738H14.1943C14.6067 4.43741 15.0107 4.6134 15.2891 4.92566L15.4814 5.14148H15.4434C15.614 5.41968 15.6842 5.74887 15.6514 6.07117V6.07214L15.1289 10.7694C15.0064 11.9116 14.044 12.7684 12.9033 12.7684H6.43652C5.29595 12.7683 4.33441 11.9115 4.21191 10.7694L3.60645 5.29382L3.21094 4.1073C3.09827 3.76918 2.7801 3.54193 2.41992 3.54187H1.38281C0.996638 3.54175 0.677734 3.2223 0.677734 2.83582C0.678045 2.44958 0.996826 2.13085 1.38281 2.13074H2.41992ZM5.62012 10.618L5.63281 10.6952C5.71138 11.0758 6.04565 11.3563 6.44434 11.3563H12.9111C13.3347 11.3563 13.6866 11.0398 13.7354 10.6229V10.6102L14.2578 5.91296V5.89636C14.2571 5.89146 14.2554 5.88666 14.2539 5.88269C14.2524 5.87887 14.2504 5.87606 14.249 5.8739C14.2475 5.87152 14.2476 5.87055 14.249 5.87195C14.2428 5.86568 14.2355 5.86049 14.2275 5.85632C14.2203 5.85256 14.2099 5.84853 14.1943 5.84851H5.09082L5.62012 10.618Z" fill="#1C9BD8"/>
<circle cx="13.2411" cy="5.07439" r="3.62975" fill="#EDEDED" stroke="#1C9BD8" stroke-width="1.3"/>
<path d="M12.9594 6.97563C12.9076 6.97563 12.8652 6.95901 12.8322 6.92578C12.7992 6.8878 12.7827 6.84508 12.7827 6.7976V5.49447H11.5246C11.4728 5.49447 11.428 5.47785 11.3903 5.44462C11.3573 5.41139 11.3408 5.36866 11.3408 5.31644V4.79661C11.3408 4.74439 11.3573 4.70167 11.3903 4.66844C11.428 4.63046 11.4728 4.61147 11.5246 4.61147H12.7827V3.35106C12.7827 3.29884 12.7992 3.25611 12.8322 3.22288C12.8652 3.18965 12.9076 3.17303 12.9594 3.17303H13.539C13.5861 3.17303 13.6261 3.18965 13.6591 3.22288C13.6968 3.25611 13.7157 3.29884 13.7157 3.35106V4.61147H14.9667C15.0185 4.61147 15.061 4.63046 15.0939 4.66844C15.1269 4.70167 15.1434 4.74439 15.1434 4.79661V5.31644C15.1434 5.36866 15.1269 5.41139 15.0939 5.44462C15.061 5.47785 15.0185 5.49447 14.9667 5.49447H13.7157V6.7976C13.7157 6.84508 13.6968 6.8878 13.6591 6.92578C13.6261 6.95901 13.5861 6.97563 13.539 6.97563H12.9594Z" fill="#1C9BD8"/>
</svg>
