<svg width="54" height="54" viewBox="0 0 54 54" fill="none" xmlns="http://www.w3.org/2000/svg">
<circle cx="26.789" cy="26.789" r="26.789" fill="white"/>
<path d="M19.6376 30.8755H24.0646C24.456 30.8755 24.8313 30.7224 25.1081 30.45C25.3848 30.1775 25.5403 29.8079 25.5403 29.4226C25.5403 29.0372 25.3848 28.6676 25.1081 28.3952C24.8313 28.1227 24.456 27.9696 24.0646 27.9696H19.6376C19.2462 27.9696 18.8709 28.1227 18.5942 28.3952C18.3174 28.6676 18.1619 29.0372 18.1619 29.4226C18.1619 29.8079 18.3174 30.1775 18.5942 30.45C18.8709 30.7224 19.2462 30.8755 19.6376 30.8755ZM37.3456 16.3459H16.6863C15.5122 16.3459 14.3861 16.8051 13.5559 17.6226C12.7257 18.44 12.2593 19.5487 12.2593 20.7048V33.7814C12.2593 34.9375 12.7257 36.0462 13.5559 36.8636C14.3861 37.6811 15.5122 38.1403 16.6863 38.1403H37.3456C38.5197 38.1403 39.6457 37.6811 40.4759 36.8636C41.3062 36.0462 41.7726 34.9375 41.7726 33.7814V20.7048C41.7726 19.5487 41.3062 18.44 40.4759 17.6226C39.6457 16.8051 38.5197 16.3459 37.3456 16.3459ZM38.8213 33.7814C38.8213 34.1668 38.6658 34.5364 38.389 34.8088C38.1123 35.0813 37.737 35.2344 37.3456 35.2344H16.6863C16.2949 35.2344 15.9196 35.0813 15.6428 34.8088C15.3661 34.5364 15.2106 34.1668 15.2106 33.7814V25.0637H38.8213V33.7814ZM38.8213 22.1577H15.2106V20.7048C15.2106 20.3194 15.3661 19.9499 15.6428 19.6774C15.9196 19.4049 16.2949 19.2518 16.6863 19.2518H37.3456C37.737 19.2518 38.1123 19.4049 38.389 19.6774C38.6658 19.9499 38.8213 20.3194 38.8213 20.7048V22.1577Z" fill="#313131"/>
</svg>
