<svg width="130" height="19" viewBox="0 0 130 19" fill="none" xmlns="http://www.w3.org/2000/svg">
<path d="M129.377 9.14891C129.377 8.66359 129.176 8.19891 128.827 7.85815L121.321 0.536956C120.973 0.196196 120.497 0 120 0L0 3.88026e-05V19L120.011 19C120.507 19 120.983 18.8038 121.332 18.463L128.827 11.1315C129.176 10.7908 129.377 10.3261 129.377 9.84076V9.14891Z" fill="#1C9BD8"/>
<path d="M12.776 15.128C11.7627 15.128 10.952 14.8293 10.344 14.232C9.736 13.6347 9.432 12.84 9.432 11.848V6.936C9.432 5.93333 9.736 5.13867 10.344 4.552C10.952 3.96533 11.7627 3.672 12.776 3.672C13.7893 3.672 14.6 3.96533 15.208 4.552C15.8267 5.13867 16.136 5.93333 16.136 6.936V7.08C16.136 7.13333 16.1147 7.18133 16.072 7.224C16.04 7.256 15.9973 7.272 15.944 7.272L13.672 7.368C13.544 7.368 13.48 7.304 13.48 7.176V6.744C13.48 6.49867 13.416 6.30667 13.288 6.168C13.16 6.01867 12.9893 5.944 12.776 5.944C12.5733 5.944 12.408 6.01867 12.28 6.168C12.152 6.30667 12.088 6.49867 12.088 6.744V12.072C12.088 12.3067 12.152 12.4987 12.28 12.648C12.408 12.7867 12.5733 12.856 12.776 12.856C12.9893 12.856 13.16 12.7867 13.288 12.648C13.416 12.4987 13.48 12.3067 13.48 12.072V11.608C13.48 11.5547 13.496 11.512 13.528 11.48C13.5707 11.4373 13.6187 11.416 13.672 11.416L15.944 11.512C15.9973 11.512 16.04 11.5333 16.072 11.576C16.1147 11.608 16.136 11.6507 16.136 11.704V11.848C16.136 12.84 15.8267 13.6347 15.208 14.232C14.6 14.8293 13.7893 15.128 12.776 15.128ZM17.2676 15C17.2143 15 17.1663 14.984 17.1236 14.952C17.0916 14.9093 17.0756 14.8613 17.0756 14.808V3.992C17.0756 3.93867 17.0916 3.896 17.1236 3.864C17.1663 3.82133 17.2143 3.8 17.2676 3.8H19.5396C19.593 3.8 19.6356 3.82133 19.6676 3.864C19.7103 3.896 19.7316 3.93867 19.7316 3.992V12.648C19.7316 12.7013 19.7583 12.728 19.8116 12.728H23.0756C23.129 12.728 23.1716 12.7493 23.2036 12.792C23.2463 12.824 23.2676 12.8667 23.2676 12.92V14.808C23.2676 14.8613 23.2463 14.9093 23.2036 14.952C23.1716 14.984 23.129 15 23.0756 15H17.2676ZM24.252 15C24.1987 15 24.1507 14.984 24.108 14.952C24.076 14.9093 24.06 14.8613 24.06 14.808V3.992C24.06 3.93867 24.076 3.896 24.108 3.864C24.1507 3.82133 24.1987 3.8 24.252 3.8H26.524C26.5773 3.8 26.62 3.82133 26.652 3.864C26.6947 3.896 26.716 3.93867 26.716 3.992V14.808C26.716 14.8613 26.6947 14.9093 26.652 14.952C26.62 14.984 26.5773 15 26.524 15H24.252ZM33.9696 5.88C33.9696 5.93333 33.9483 5.98133 33.9056 6.024C33.8736 6.056 33.831 6.072 33.7776 6.072H30.5616C30.5083 6.072 30.4816 6.09867 30.4816 6.152V8.168C30.4816 8.22133 30.5083 8.248 30.5616 8.248H32.3216C32.375 8.248 32.4176 8.26933 32.4496 8.312C32.4923 8.344 32.5136 8.38667 32.5136 8.44V10.344C32.5136 10.3973 32.4923 10.4453 32.4496 10.488C32.4176 10.52 32.375 10.536 32.3216 10.536H30.5616C30.5083 10.536 30.4816 10.5627 30.4816 10.616V12.648C30.4816 12.7013 30.5083 12.728 30.5616 12.728H33.7776C33.831 12.728 33.8736 12.7493 33.9056 12.792C33.9483 12.824 33.9696 12.8667 33.9696 12.92V14.808C33.9696 14.8613 33.9483 14.9093 33.9056 14.952C33.8736 14.984 33.831 15 33.7776 15H28.0176C27.9643 15 27.9163 14.984 27.8736 14.952C27.8416 14.9093 27.8256 14.8613 27.8256 14.808V3.992C27.8256 3.93867 27.8416 3.896 27.8736 3.864C27.9163 3.82133 27.9643 3.8 28.0176 3.8H33.7776C33.831 3.8 33.8736 3.82133 33.9056 3.864C33.9483 3.896 33.9696 3.93867 33.9696 3.992V5.88ZM39.4961 3.992C39.4961 3.93867 39.5121 3.896 39.5441 3.864C39.5868 3.82133 39.6348 3.8 39.6881 3.8H41.9281C41.9815 3.8 42.0241 3.82133 42.0561 3.864C42.0988 3.896 42.1201 3.93867 42.1201 3.992V14.808C42.1201 14.8613 42.0988 14.9093 42.0561 14.952C42.0241 14.984 41.9815 15 41.9281 15H39.3841C39.2668 15 39.1921 14.9467 39.1601 14.84L37.5761 9.272C37.5655 9.24 37.5441 9.224 37.5121 9.224C37.4908 9.21333 37.4801 9.22933 37.4801 9.272L37.5121 14.808C37.5121 14.8613 37.4908 14.9093 37.4481 14.952C37.4161 14.984 37.3735 15 37.3201 15H35.0801C35.0268 15 34.9788 14.984 34.9361 14.952C34.9041 14.9093 34.8881 14.8613 34.8881 14.808V3.992C34.8881 3.93867 34.9041 3.896 34.9361 3.864C34.9788 3.82133 35.0268 3.8 35.0801 3.8H37.5921C37.7095 3.8 37.7841 3.85333 37.8161 3.96L39.4161 9.56C39.4268 9.592 39.4428 9.608 39.4641 9.608C39.4961 9.608 39.5121 9.58667 39.5121 9.544L39.4961 3.992ZM49.9195 3.8C49.9728 3.8 50.0155 3.82133 50.0475 3.864C50.0902 3.896 50.1115 3.93867 50.1115 3.992V5.88C50.1115 5.93333 50.0902 5.98133 50.0475 6.024C50.0155 6.056 49.9728 6.072 49.9195 6.072H47.9355C47.8822 6.072 47.8555 6.09867 47.8555 6.152V14.808C47.8555 14.8613 47.8342 14.9093 47.7915 14.952C47.7595 14.984 47.7168 15 47.6635 15H45.3915C45.3382 15 45.2902 14.984 45.2475 14.952C45.2155 14.9093 45.1995 14.8613 45.1995 14.808V6.152C45.1995 6.09867 45.1728 6.072 45.1195 6.072H43.2155C43.1622 6.072 43.1142 6.056 43.0715 6.024C43.0395 5.98133 43.0235 5.93333 43.0235 5.88V3.992C43.0235 3.93867 43.0395 3.896 43.0715 3.864C43.1142 3.82133 43.1622 3.8 43.2155 3.8H49.9195ZM57.1571 5.88C57.1571 5.93333 57.1358 5.98133 57.0931 6.024C57.0611 6.056 57.0185 6.072 56.9651 6.072H53.7491C53.6958 6.072 53.6691 6.09867 53.6691 6.152V8.168C53.6691 8.22133 53.6958 8.248 53.7491 8.248H55.5091C55.5625 8.248 55.6051 8.26933 55.6371 8.312C55.6798 8.344 55.7011 8.38667 55.7011 8.44V10.344C55.7011 10.3973 55.6798 10.4453 55.6371 10.488C55.6051 10.52 55.5625 10.536 55.5091 10.536H53.7491C53.6958 10.536 53.6691 10.5627 53.6691 10.616V12.648C53.6691 12.7013 53.6958 12.728 53.7491 12.728H56.9651C57.0185 12.728 57.0611 12.7493 57.0931 12.792C57.1358 12.824 57.1571 12.8667 57.1571 12.92V14.808C57.1571 14.8613 57.1358 14.9093 57.0931 14.952C57.0611 14.984 57.0185 15 56.9651 15H51.2051C51.1518 15 51.1038 14.984 51.0611 14.952C51.0291 14.9093 51.0131 14.8613 51.0131 14.808V3.992C51.0131 3.93867 51.0291 3.896 51.0611 3.864C51.1038 3.82133 51.1518 3.8 51.2051 3.8H56.9651C57.0185 3.8 57.0611 3.82133 57.0931 3.864C57.1358 3.896 57.1571 3.93867 57.1571 3.992V5.88ZM61.1956 15.128C60.545 15.128 59.9743 15.0053 59.4836 14.76C58.993 14.504 58.609 14.152 58.3316 13.704C58.065 13.2453 57.9316 12.728 57.9316 12.152V11.656C57.9316 11.6027 57.9476 11.56 57.9796 11.528C58.0223 11.4853 58.0703 11.464 58.1236 11.464H60.3636C60.417 11.464 60.4596 11.4853 60.4916 11.528C60.5343 11.56 60.5556 11.6027 60.5556 11.656V12.024C60.5556 12.28 60.6143 12.4827 60.7316 12.632C60.8596 12.7813 61.0196 12.856 61.2116 12.856C61.4036 12.856 61.5583 12.7867 61.6756 12.648C61.8036 12.4987 61.8676 12.312 61.8676 12.088C61.8676 11.8427 61.7716 11.624 61.5796 11.432C61.3876 11.2293 61.0036 10.92 60.4276 10.504C59.8943 10.12 59.457 9.77867 59.1156 9.48C58.7743 9.17067 58.481 8.792 58.2356 8.344C57.9903 7.88533 57.8676 7.35733 57.8676 6.76C57.8676 6.152 58.001 5.61333 58.2676 5.144C58.545 4.67467 58.929 4.312 59.4196 4.056C59.921 3.8 60.4916 3.672 61.1316 3.672C61.7823 3.672 62.353 3.80533 62.8436 4.072C63.345 4.328 63.729 4.696 63.9956 5.176C64.273 5.64533 64.4116 6.18933 64.4116 6.808V7.192C64.4116 7.24533 64.3903 7.29333 64.3476 7.336C64.3156 7.368 64.273 7.384 64.2196 7.384H61.9956C61.9423 7.384 61.8943 7.368 61.8516 7.336C61.8196 7.29333 61.8036 7.24533 61.8036 7.192V6.744C61.8036 6.50933 61.7396 6.31733 61.6116 6.168C61.4836 6.01867 61.3236 5.944 61.1316 5.944C60.9396 5.944 60.785 6.01867 60.6676 6.168C60.5503 6.31733 60.4916 6.51467 60.4916 6.76C60.4916 7.02667 60.5823 7.26667 60.7636 7.48C60.945 7.69333 61.313 8.00267 61.8676 8.408C62.5396 8.90933 63.0463 9.31467 63.3876 9.624C63.729 9.93333 63.9956 10.28 64.1876 10.664C64.3796 11.0373 64.4756 11.48 64.4756 11.992C64.4756 12.952 64.1716 13.7147 63.5636 14.28C62.9663 14.8453 62.177 15.128 61.1956 15.128ZM73.1524 3.992C73.1524 3.93867 73.1684 3.896 73.2004 3.864C73.243 3.82133 73.291 3.8 73.3444 3.8H75.5844C75.6377 3.8 75.6804 3.82133 75.7124 3.864C75.755 3.896 75.7764 3.93867 75.7764 3.992V14.808C75.7764 14.8613 75.755 14.9093 75.7124 14.952C75.6804 14.984 75.6377 15 75.5844 15H73.0404C72.923 15 72.8484 14.9467 72.8164 14.84L71.2324 9.272C71.2217 9.24 71.2004 9.224 71.1684 9.224C71.147 9.21333 71.1364 9.22933 71.1364 9.272L71.1684 14.808C71.1684 14.8613 71.147 14.9093 71.1044 14.952C71.0724 14.984 71.0297 15 70.9764 15H68.7364C68.683 15 68.635 14.984 68.5924 14.952C68.5604 14.9093 68.5444 14.8613 68.5444 14.808V3.992C68.5444 3.93867 68.5604 3.896 68.5924 3.864C68.635 3.82133 68.683 3.8 68.7364 3.8H71.2484C71.3657 3.8 71.4404 3.85333 71.4724 3.96L73.0724 9.56C73.083 9.592 73.099 9.608 73.1204 9.608C73.1524 9.608 73.1684 9.58667 73.1684 9.544L73.1524 3.992ZM80.1838 15.128C79.5224 15.128 78.9411 14.9893 78.4398 14.712C77.9384 14.424 77.5491 14.024 77.2718 13.512C76.9944 13 76.8558 12.408 76.8558 11.736V3.992C76.8558 3.93867 76.8718 3.896 76.9038 3.864C76.9464 3.82133 76.9944 3.8 77.0478 3.8H79.3198C79.3731 3.8 79.4158 3.82133 79.4478 3.864C79.4904 3.896 79.5118 3.93867 79.5118 3.992V11.992C79.5118 12.248 79.5704 12.456 79.6878 12.616C79.8158 12.776 79.9811 12.856 80.1838 12.856C80.3864 12.856 80.5464 12.776 80.6638 12.616C80.7918 12.456 80.8558 12.248 80.8558 11.992V3.992C80.8558 3.93867 80.8718 3.896 80.9038 3.864C80.9464 3.82133 80.9944 3.8 81.0477 3.8H83.3198C83.3731 3.8 83.4158 3.82133 83.4478 3.864C83.4904 3.896 83.5118 3.93867 83.5118 3.992V11.736C83.5118 12.408 83.3731 13 83.0958 13.512C82.8184 14.024 82.4291 14.424 81.9278 14.712C81.4264 14.9893 80.8451 15.128 80.1838 15.128ZM90.6884 5.88C90.6884 5.93333 90.667 5.98133 90.6244 6.024C90.5924 6.056 90.5497 6.072 90.4964 6.072H87.2804C87.227 6.072 87.2004 6.09867 87.2004 6.152V8.168C87.2004 8.22133 87.227 8.248 87.2804 8.248H89.0404C89.0937 8.248 89.1364 8.26933 89.1684 8.312C89.211 8.344 89.2324 8.38667 89.2324 8.44V10.344C89.2324 10.3973 89.211 10.4453 89.1684 10.488C89.1364 10.52 89.0937 10.536 89.0404 10.536H87.2804C87.227 10.536 87.2004 10.5627 87.2004 10.616V12.648C87.2004 12.7013 87.227 12.728 87.2804 12.728H90.4964C90.5497 12.728 90.5924 12.7493 90.6244 12.792C90.667 12.824 90.6884 12.8667 90.6884 12.92V14.808C90.6884 14.8613 90.667 14.9093 90.6244 14.952C90.5924 14.984 90.5497 15 90.4964 15H84.7364C84.683 15 84.635 14.984 84.5924 14.952C84.5604 14.9093 84.5444 14.8613 84.5444 14.808V3.992C84.5444 3.93867 84.5604 3.896 84.5924 3.864C84.635 3.82133 84.683 3.8 84.7364 3.8H90.4964C90.5497 3.8 90.5924 3.82133 90.6244 3.864C90.667 3.896 90.6884 3.93867 90.6884 3.992V5.88ZM93.8309 15C93.7135 15 93.6442 14.9413 93.6229 14.824L91.3509 4.008L91.3349 3.944C91.3349 3.848 91.3935 3.8 91.5109 3.8H93.9909C94.1189 3.8 94.1882 3.85867 94.1989 3.976L95.1109 10.36C95.1215 10.4027 95.1375 10.424 95.1589 10.424C95.1909 10.4133 95.2069 10.392 95.2069 10.36L96.0549 3.976C96.0655 3.85867 96.1349 3.8 96.2629 3.8H98.6789C98.8175 3.8 98.8709 3.86933 98.8389 4.008L96.5509 14.824C96.5295 14.9413 96.4602 15 96.3429 15H93.8309ZM102.652 15.128C101.617 15.128 100.791 14.8293 100.172 14.232C99.5641 13.6347 99.2601 12.8293 99.2601 11.816V6.984C99.2601 5.98133 99.5641 5.18133 100.172 4.584C100.791 3.976 101.617 3.672 102.652 3.672C103.676 3.672 104.497 3.976 105.116 4.584C105.745 5.18133 106.06 5.98133 106.06 6.984V11.816C106.06 12.8293 105.745 13.6347 105.116 14.232C104.497 14.8293 103.676 15.128 102.652 15.128ZM102.652 12.856C102.887 12.856 103.068 12.776 103.196 12.616C103.335 12.4453 103.404 12.216 103.404 11.928V6.872C103.404 6.584 103.335 6.36 103.196 6.2C103.068 6.02933 102.887 5.944 102.652 5.944C102.417 5.944 102.236 6.02933 102.108 6.2C101.98 6.36 101.916 6.584 101.916 6.872V11.928C101.916 12.216 101.98 12.4453 102.108 12.616C102.236 12.776 102.417 12.856 102.652 12.856ZM110.164 15.128C109.514 15.128 108.943 15.0053 108.452 14.76C107.962 14.504 107.578 14.152 107.3 13.704C107.034 13.2453 106.9 12.728 106.9 12.152V11.656C106.9 11.6027 106.916 11.56 106.948 11.528C106.991 11.4853 107.039 11.464 107.092 11.464H109.332C109.386 11.464 109.428 11.4853 109.46 11.528C109.503 11.56 109.524 11.6027 109.524 11.656V12.024C109.524 12.28 109.583 12.4827 109.7 12.632C109.828 12.7813 109.988 12.856 110.18 12.856C110.372 12.856 110.527 12.7867 110.644 12.648C110.772 12.4987 110.836 12.312 110.836 12.088C110.836 11.8427 110.74 11.624 110.548 11.432C110.356 11.2293 109.972 10.92 109.396 10.504C108.863 10.12 108.426 9.77867 108.084 9.48C107.743 9.17067 107.45 8.792 107.204 8.344C106.959 7.88533 106.836 7.35733 106.836 6.76C106.836 6.152 106.97 5.61333 107.236 5.144C107.514 4.67467 107.898 4.312 108.388 4.056C108.89 3.8 109.46 3.672 110.1 3.672C110.751 3.672 111.322 3.80533 111.812 4.072C112.314 4.328 112.698 4.696 112.964 5.176C113.242 5.64533 113.38 6.18933 113.38 6.808V7.192C113.38 7.24533 113.359 7.29333 113.316 7.336C113.284 7.368 113.242 7.384 113.188 7.384H110.964C110.911 7.384 110.863 7.368 110.82 7.336C110.788 7.29333 110.772 7.24533 110.772 7.192V6.744C110.772 6.50933 110.708 6.31733 110.58 6.168C110.452 6.01867 110.292 5.944 110.1 5.944C109.908 5.944 109.754 6.01867 109.636 6.168C109.519 6.31733 109.46 6.51467 109.46 6.76C109.46 7.02667 109.551 7.26667 109.732 7.48C109.914 7.69333 110.282 8.00267 110.836 8.408C111.508 8.90933 112.015 9.31467 112.356 9.624C112.698 9.93333 112.964 10.28 113.156 10.664C113.348 11.0373 113.444 11.48 113.444 11.992C113.444 12.952 113.14 13.7147 112.532 14.28C111.935 14.8453 111.146 15.128 110.164 15.128Z" fill="white"/>
</svg>
