<svg width="142" height="19" viewBox="0 0 142 19" fill="none" xmlns="http://www.w3.org/2000/svg">
<path d="M141.556 9.14891C141.556 8.66359 141.355 8.19891 141.006 7.85815L133.5 0.536956C133.151 0.196196 132.675 0 132.179 0H0V19H132.189C132.686 19 133.162 18.8038 133.511 18.463L141.006 11.1315C141.355 10.7908 141.556 10.3261 141.556 9.84076V9.14891Z" fill="#1C9BD8"/>
<path d="M12.776 15.128C11.7627 15.128 10.952 14.8293 10.344 14.232C9.736 13.6347 9.432 12.84 9.432 11.848V6.936C9.432 5.93333 9.736 5.13867 10.344 4.552C10.952 3.96533 11.7627 3.672 12.776 3.672C13.7893 3.672 14.6 3.96533 15.208 4.552C15.8267 5.13867 16.136 5.93333 16.136 6.936V7.08C16.136 7.13333 16.1147 7.18133 16.072 7.224C16.04 7.256 15.9973 7.272 15.944 7.272L13.672 7.368C13.544 7.368 13.48 7.304 13.48 7.176V6.744C13.48 6.49867 13.416 6.30667 13.288 6.168C13.16 6.01867 12.9893 5.944 12.776 5.944C12.5733 5.944 12.408 6.01867 12.28 6.168C12.152 6.30667 12.088 6.49867 12.088 6.744V12.072C12.088 12.3067 12.152 12.4987 12.28 12.648C12.408 12.7867 12.5733 12.856 12.776 12.856C12.9893 12.856 13.16 12.7867 13.288 12.648C13.416 12.4987 13.48 12.3067 13.48 12.072V11.608C13.48 11.5547 13.496 11.512 13.528 11.48C13.5707 11.4373 13.6187 11.416 13.672 11.416L15.944 11.512C15.9973 11.512 16.04 11.5333 16.072 11.576C16.1147 11.608 16.136 11.6507 16.136 11.704V11.848C16.136 12.84 15.8267 13.6347 15.208 14.232C14.6 14.8293 13.7893 15.128 12.776 15.128ZM17.2676 15C17.2143 15 17.1663 14.984 17.1236 14.952C17.0916 14.9093 17.0756 14.8613 17.0756 14.808V3.992C17.0756 3.93867 17.0916 3.896 17.1236 3.864C17.1663 3.82133 17.2143 3.8 17.2676 3.8H19.5396C19.593 3.8 19.6356 3.82133 19.6676 3.864C19.7103 3.896 19.7316 3.93867 19.7316 3.992V12.648C19.7316 12.7013 19.7583 12.728 19.8116 12.728H23.0756C23.129 12.728 23.1716 12.7493 23.2036 12.792C23.2463 12.824 23.2676 12.8667 23.2676 12.92V14.808C23.2676 14.8613 23.2463 14.9093 23.2036 14.952C23.1716 14.984 23.129 15 23.0756 15H17.2676ZM24.252 15C24.1987 15 24.1507 14.984 24.108 14.952C24.076 14.9093 24.06 14.8613 24.06 14.808V3.992C24.06 3.93867 24.076 3.896 24.108 3.864C24.1507 3.82133 24.1987 3.8 24.252 3.8H26.524C26.5773 3.8 26.62 3.82133 26.652 3.864C26.6947 3.896 26.716 3.93867 26.716 3.992V14.808C26.716 14.8613 26.6947 14.9093 26.652 14.952C26.62 14.984 26.5773 15 26.524 15H24.252ZM33.9696 5.88C33.9696 5.93333 33.9483 5.98133 33.9056 6.024C33.8736 6.056 33.831 6.072 33.7776 6.072H30.5616C30.5083 6.072 30.4816 6.09867 30.4816 6.152V8.168C30.4816 8.22133 30.5083 8.248 30.5616 8.248H32.3216C32.375 8.248 32.4176 8.26933 32.4496 8.312C32.4923 8.344 32.5136 8.38667 32.5136 8.44V10.344C32.5136 10.3973 32.4923 10.4453 32.4496 10.488C32.4176 10.52 32.375 10.536 32.3216 10.536H30.5616C30.5083 10.536 30.4816 10.5627 30.4816 10.616V12.648C30.4816 12.7013 30.5083 12.728 30.5616 12.728H33.7776C33.831 12.728 33.8736 12.7493 33.9056 12.792C33.9483 12.824 33.9696 12.8667 33.9696 12.92V14.808C33.9696 14.8613 33.9483 14.9093 33.9056 14.952C33.8736 14.984 33.831 15 33.7776 15H28.0176C27.9643 15 27.9163 14.984 27.8736 14.952C27.8416 14.9093 27.8256 14.8613 27.8256 14.808V3.992C27.8256 3.93867 27.8416 3.896 27.8736 3.864C27.9163 3.82133 27.9643 3.8 28.0176 3.8H33.7776C33.831 3.8 33.8736 3.82133 33.9056 3.864C33.9483 3.896 33.9696 3.93867 33.9696 3.992V5.88ZM39.4961 3.992C39.4961 3.93867 39.5121 3.896 39.5441 3.864C39.5868 3.82133 39.6348 3.8 39.6881 3.8H41.9281C41.9815 3.8 42.0241 3.82133 42.0561 3.864C42.0988 3.896 42.1201 3.93867 42.1201 3.992V14.808C42.1201 14.8613 42.0988 14.9093 42.0561 14.952C42.0241 14.984 41.9815 15 41.9281 15H39.3841C39.2668 15 39.1921 14.9467 39.1601 14.84L37.5761 9.272C37.5655 9.24 37.5441 9.224 37.5121 9.224C37.4908 9.21333 37.4801 9.22933 37.4801 9.272L37.5121 14.808C37.5121 14.8613 37.4908 14.9093 37.4481 14.952C37.4161 14.984 37.3735 15 37.3201 15H35.0801C35.0268 15 34.9788 14.984 34.9361 14.952C34.9041 14.9093 34.8881 14.8613 34.8881 14.808V3.992C34.8881 3.93867 34.9041 3.896 34.9361 3.864C34.9788 3.82133 35.0268 3.8 35.0801 3.8H37.5921C37.7095 3.8 37.7841 3.85333 37.8161 3.96L39.4161 9.56C39.4268 9.592 39.4428 9.608 39.4641 9.608C39.4961 9.608 39.5121 9.58667 39.5121 9.544L39.4961 3.992ZM49.9195 3.8C49.9728 3.8 50.0155 3.82133 50.0475 3.864C50.0902 3.896 50.1115 3.93867 50.1115 3.992V5.88C50.1115 5.93333 50.0902 5.98133 50.0475 6.024C50.0155 6.056 49.9728 6.072 49.9195 6.072H47.9355C47.8822 6.072 47.8555 6.09867 47.8555 6.152V14.808C47.8555 14.8613 47.8342 14.9093 47.7915 14.952C47.7595 14.984 47.7168 15 47.6635 15H45.3915C45.3382 15 45.2902 14.984 45.2475 14.952C45.2155 14.9093 45.1995 14.8613 45.1995 14.808V6.152C45.1995 6.09867 45.1728 6.072 45.1195 6.072H43.2155C43.1622 6.072 43.1142 6.056 43.0715 6.024C43.0395 5.98133 43.0235 5.93333 43.0235 5.88V3.992C43.0235 3.93867 43.0395 3.896 43.0715 3.864C43.1142 3.82133 43.1622 3.8 43.2155 3.8H49.9195ZM57.1571 5.88C57.1571 5.93333 57.1358 5.98133 57.0931 6.024C57.0611 6.056 57.0185 6.072 56.9651 6.072H53.7491C53.6958 6.072 53.6691 6.09867 53.6691 6.152V8.168C53.6691 8.22133 53.6958 8.248 53.7491 8.248H55.5091C55.5625 8.248 55.6051 8.26933 55.6371 8.312C55.6798 8.344 55.7011 8.38667 55.7011 8.44V10.344C55.7011 10.3973 55.6798 10.4453 55.6371 10.488C55.6051 10.52 55.5625 10.536 55.5091 10.536H53.7491C53.6958 10.536 53.6691 10.5627 53.6691 10.616V12.648C53.6691 12.7013 53.6958 12.728 53.7491 12.728H56.9651C57.0185 12.728 57.0611 12.7493 57.0931 12.792C57.1358 12.824 57.1571 12.8667 57.1571 12.92V14.808C57.1571 14.8613 57.1358 14.9093 57.0931 14.952C57.0611 14.984 57.0185 15 56.9651 15H51.2051C51.1518 15 51.1038 14.984 51.0611 14.952C51.0291 14.9093 51.0131 14.8613 51.0131 14.808V3.992C51.0131 3.93867 51.0291 3.896 51.0611 3.864C51.1038 3.82133 51.1518 3.8 51.2051 3.8H56.9651C57.0185 3.8 57.0611 3.82133 57.0931 3.864C57.1358 3.896 57.1571 3.93867 57.1571 3.992V5.88ZM61.1956 15.128C60.545 15.128 59.9743 15.0053 59.4836 14.76C58.993 14.504 58.609 14.152 58.3316 13.704C58.065 13.2453 57.9316 12.728 57.9316 12.152V11.656C57.9316 11.6027 57.9476 11.56 57.9796 11.528C58.0223 11.4853 58.0703 11.464 58.1236 11.464H60.3636C60.417 11.464 60.4596 11.4853 60.4916 11.528C60.5343 11.56 60.5556 11.6027 60.5556 11.656V12.024C60.5556 12.28 60.6143 12.4827 60.7316 12.632C60.8596 12.7813 61.0196 12.856 61.2116 12.856C61.4036 12.856 61.5583 12.7867 61.6756 12.648C61.8036 12.4987 61.8676 12.312 61.8676 12.088C61.8676 11.8427 61.7716 11.624 61.5796 11.432C61.3876 11.2293 61.0036 10.92 60.4276 10.504C59.8943 10.12 59.457 9.77867 59.1156 9.48C58.7743 9.17067 58.481 8.792 58.2356 8.344C57.9903 7.88533 57.8676 7.35733 57.8676 6.76C57.8676 6.152 58.001 5.61333 58.2676 5.144C58.545 4.67467 58.929 4.312 59.4196 4.056C59.921 3.8 60.4916 3.672 61.1316 3.672C61.7823 3.672 62.353 3.80533 62.8436 4.072C63.345 4.328 63.729 4.696 63.9956 5.176C64.273 5.64533 64.4116 6.18933 64.4116 6.808V7.192C64.4116 7.24533 64.3903 7.29333 64.3476 7.336C64.3156 7.368 64.273 7.384 64.2196 7.384H61.9956C61.9423 7.384 61.8943 7.368 61.8516 7.336C61.8196 7.29333 61.8036 7.24533 61.8036 7.192V6.744C61.8036 6.50933 61.7396 6.31733 61.6116 6.168C61.4836 6.01867 61.3236 5.944 61.1316 5.944C60.9396 5.944 60.785 6.01867 60.6676 6.168C60.5503 6.31733 60.4916 6.51467 60.4916 6.76C60.4916 7.02667 60.5823 7.26667 60.7636 7.48C60.945 7.69333 61.313 8.00267 61.8676 8.408C62.5396 8.90933 63.0463 9.31467 63.3876 9.624C63.729 9.93333 63.9956 10.28 64.1876 10.664C64.3796 11.0373 64.4756 11.48 64.4756 11.992C64.4756 12.952 64.1716 13.7147 63.5636 14.28C62.9663 14.8453 62.177 15.128 61.1956 15.128ZM72.1604 3.8C72.779 3.8 73.323 3.94933 73.7924 4.248C74.2724 4.536 74.6457 4.94667 74.9124 5.48C75.179 6.01333 75.3124 6.62133 75.3124 7.304C75.3124 7.976 75.1844 8.568 74.9284 9.08C74.683 9.58133 74.331 9.97067 73.8724 10.248C73.4137 10.5253 72.8857 10.664 72.2884 10.664H71.2484C71.195 10.664 71.1684 10.6907 71.1684 10.744V14.808C71.1684 14.8613 71.147 14.9093 71.1044 14.952C71.0724 14.984 71.0297 15 70.9764 15H68.7044C68.651 15 68.603 14.984 68.5604 14.952C68.5284 14.9093 68.5124 14.8613 68.5124 14.808V3.992C68.5124 3.93867 68.5284 3.896 68.5604 3.864C68.603 3.82133 68.651 3.8 68.7044 3.8H72.1604ZM71.6964 8.616C71.9844 8.616 72.2137 8.50933 72.3844 8.296C72.5657 8.072 72.6564 7.76267 72.6564 7.368C72.6564 6.952 72.5657 6.632 72.3844 6.408C72.2137 6.184 71.9844 6.072 71.6964 6.072H71.2484C71.195 6.072 71.1684 6.09867 71.1684 6.152V8.536C71.1684 8.58933 71.195 8.616 71.2484 8.616H71.6964ZM82.2665 5.88C82.2665 5.93333 82.2452 5.98133 82.2025 6.024C82.1705 6.056 82.1278 6.072 82.0745 6.072H78.8585C78.8052 6.072 78.7785 6.09867 78.7785 6.152V8.168C78.7785 8.22133 78.8052 8.248 78.8585 8.248H80.6185C80.6718 8.248 80.7145 8.26933 80.7465 8.312C80.7892 8.344 80.8105 8.38667 80.8105 8.44V10.344C80.8105 10.3973 80.7892 10.4453 80.7465 10.488C80.7145 10.52 80.6718 10.536 80.6185 10.536H78.8585C78.8052 10.536 78.7785 10.5627 78.7785 10.616V12.648C78.7785 12.7013 78.8052 12.728 78.8585 12.728H82.0745C82.1278 12.728 82.1705 12.7493 82.2025 12.792C82.2452 12.824 82.2665 12.8667 82.2665 12.92V14.808C82.2665 14.8613 82.2452 14.9093 82.2025 14.952C82.1705 14.984 82.1278 15 82.0745 15H76.3145C76.2612 15 76.2132 14.984 76.1705 14.952C76.1385 14.9093 76.1225 14.8613 76.1225 14.808V3.992C76.1225 3.93867 76.1385 3.896 76.1705 3.864C76.2132 3.82133 76.2612 3.8 76.3145 3.8H82.0745C82.1278 3.8 82.1705 3.82133 82.2025 3.864C82.2452 3.896 82.2665 3.93867 82.2665 3.992V5.88ZM87.553 15C87.4357 15 87.361 14.9467 87.329 14.84L86.241 10.6C86.2303 10.5573 86.2037 10.536 86.161 10.536H85.921C85.8677 10.536 85.841 10.5627 85.841 10.616V14.808C85.841 14.8613 85.8197 14.9093 85.777 14.952C85.745 14.984 85.7023 15 85.649 15H83.377C83.3237 15 83.2757 14.984 83.233 14.952C83.201 14.9093 83.185 14.8613 83.185 14.808V3.992C83.185 3.93867 83.201 3.896 83.233 3.864C83.2757 3.82133 83.3237 3.8 83.377 3.8H86.817C87.4357 3.8 87.985 3.94933 88.465 4.248C88.945 4.536 89.313 4.94667 89.569 5.48C89.8357 6.00267 89.969 6.6 89.969 7.272C89.969 7.86933 89.857 8.408 89.633 8.888C89.4197 9.35733 89.1157 9.736 88.721 10.024C88.6997 10.0347 88.6837 10.0507 88.673 10.072C88.6623 10.0827 88.6623 10.0987 88.673 10.12L90.049 14.776L90.065 14.84C90.065 14.9467 90.0063 15 89.889 15H87.553ZM85.921 6.072C85.8677 6.072 85.841 6.09867 85.841 6.152V8.424C85.841 8.47733 85.8677 8.504 85.921 8.504H86.369C86.657 8.504 86.8863 8.39733 87.057 8.184C87.2277 7.97067 87.313 7.67733 87.313 7.304C87.313 6.90933 87.2277 6.60533 87.057 6.392C86.8863 6.17867 86.657 6.072 86.369 6.072H85.921ZM91.0801 15C91.0268 15 90.9788 14.984 90.9361 14.952C90.9041 14.9093 90.8881 14.8613 90.8881 14.808V3.992C90.8881 3.93867 90.9041 3.896 90.9361 3.864C90.9788 3.82133 91.0268 3.8 91.0801 3.8H94.1361C95.1601 3.8 95.9815 4.088 96.6001 4.664C97.2188 5.24 97.5281 6.00267 97.5281 6.952V11.848C97.5281 12.7973 97.2188 13.56 96.6001 14.136C95.9815 14.712 95.1601 15 94.1361 15H91.0801ZM93.5441 12.648C93.5441 12.7013 93.5708 12.728 93.6241 12.728L94.0721 12.712C94.2961 12.7013 94.4828 12.6053 94.6321 12.424C94.7815 12.232 94.8615 11.9813 94.8721 11.672V7.128C94.8721 6.808 94.7975 6.552 94.6481 6.36C94.4988 6.168 94.3015 6.072 94.0561 6.072H93.6241C93.5708 6.072 93.5441 6.09867 93.5441 6.152V12.648ZM98.7676 15C98.7143 15 98.6663 14.984 98.6236 14.952C98.5916 14.9093 98.5756 14.8613 98.5756 14.808V3.992C98.5756 3.93867 98.5916 3.896 98.6236 3.864C98.6663 3.82133 98.7143 3.8 98.7676 3.8H101.04C101.093 3.8 101.136 3.82133 101.168 3.864C101.21 3.896 101.232 3.93867 101.232 3.992V14.808C101.232 14.8613 101.21 14.9093 101.168 14.952C101.136 14.984 101.093 15 101.04 15H98.7676ZM102.533 15C102.48 15 102.432 14.984 102.389 14.952C102.357 14.9093 102.341 14.8613 102.341 14.808V3.992C102.341 3.93867 102.357 3.896 102.389 3.864C102.432 3.82133 102.48 3.8 102.533 3.8H105.589C106.613 3.8 107.435 4.088 108.053 4.664C108.672 5.24 108.981 6.00267 108.981 6.952V11.848C108.981 12.7973 108.672 13.56 108.053 14.136C107.435 14.712 106.613 15 105.589 15H102.533ZM104.997 12.648C104.997 12.7013 105.024 12.728 105.077 12.728L105.525 12.712C105.749 12.7013 105.936 12.6053 106.085 12.424C106.235 12.232 106.315 11.9813 106.325 11.672V7.128C106.325 6.808 106.251 6.552 106.101 6.36C105.952 6.168 105.755 6.072 105.509 6.072H105.077C105.024 6.072 104.997 6.09867 104.997 6.152V12.648ZM113.293 15.128C112.258 15.128 111.431 14.8293 110.813 14.232C110.205 13.6347 109.901 12.8293 109.901 11.816V6.984C109.901 5.98133 110.205 5.18133 110.813 4.584C111.431 3.976 112.258 3.672 113.293 3.672C114.317 3.672 115.138 3.976 115.757 4.584C116.386 5.18133 116.701 5.98133 116.701 6.984V11.816C116.701 12.8293 116.386 13.6347 115.757 14.232C115.138 14.8293 114.317 15.128 113.293 15.128ZM113.293 12.856C113.527 12.856 113.709 12.776 113.837 12.616C113.975 12.4453 114.045 12.216 114.045 11.928V6.872C114.045 6.584 113.975 6.36 113.837 6.2C113.709 6.02933 113.527 5.944 113.293 5.944C113.058 5.944 112.877 6.02933 112.749 6.2C112.621 6.36 112.557 6.584 112.557 6.872V11.928C112.557 12.216 112.621 12.4453 112.749 12.616C112.877 12.776 113.058 12.856 113.293 12.856ZM120.805 15.128C120.154 15.128 119.584 15.0053 119.093 14.76C118.602 14.504 118.218 14.152 117.941 13.704C117.674 13.2453 117.541 12.728 117.541 12.152V11.656C117.541 11.6027 117.557 11.56 117.589 11.528C117.632 11.4853 117.68 11.464 117.733 11.464H119.973C120.026 11.464 120.069 11.4853 120.101 11.528C120.144 11.56 120.165 11.6027 120.165 11.656V12.024C120.165 12.28 120.224 12.4827 120.341 12.632C120.469 12.7813 120.629 12.856 120.821 12.856C121.013 12.856 121.168 12.7867 121.285 12.648C121.413 12.4987 121.477 12.312 121.477 12.088C121.477 11.8427 121.381 11.624 121.189 11.432C120.997 11.2293 120.613 10.92 120.037 10.504C119.504 10.12 119.066 9.77867 118.725 9.48C118.384 9.17067 118.09 8.792 117.845 8.344C117.6 7.88533 117.477 7.35733 117.477 6.76C117.477 6.152 117.61 5.61333 117.877 5.144C118.154 4.67467 118.538 4.312 119.029 4.056C119.53 3.8 120.101 3.672 120.741 3.672C121.392 3.672 121.962 3.80533 122.453 4.072C122.954 4.328 123.338 4.696 123.605 5.176C123.882 5.64533 124.021 6.18933 124.021 6.808V7.192C124.021 7.24533 124 7.29333 123.957 7.336C123.925 7.368 123.882 7.384 123.829 7.384H121.605C121.552 7.384 121.504 7.368 121.461 7.336C121.429 7.29333 121.413 7.24533 121.413 7.192V6.744C121.413 6.50933 121.349 6.31733 121.221 6.168C121.093 6.01867 120.933 5.944 120.741 5.944C120.549 5.944 120.394 6.01867 120.277 6.168C120.16 6.31733 120.101 6.51467 120.101 6.76C120.101 7.02667 120.192 7.26667 120.373 7.48C120.554 7.69333 120.922 8.00267 121.477 8.408C122.149 8.90933 122.656 9.31467 122.997 9.624C123.338 9.93333 123.605 10.28 123.797 10.664C123.989 11.0373 124.085 11.48 124.085 11.992C124.085 12.952 123.781 13.7147 123.173 14.28C122.576 14.8453 121.786 15.128 120.805 15.128Z" fill="white"/>
</svg>
