<svg width="144" height="19" viewBox="0 0 144 19" fill="none" xmlns="http://www.w3.org/2000/svg">
<path d="M144 9.14891C144 8.66359 143.796 8.19891 143.441 7.85815L135.805 0.536956C135.45 0.196196 134.966 0 134.461 0H0V19H134.472C134.977 19 135.461 18.8038 135.816 18.463L143.441 11.1315C143.796 10.7908 144 10.3261 144 9.84076V9.14891Z" fill="#1C9BD8"/>
<path d="M12.824 15.128C11.768 15.128 10.92 14.8187 10.28 14.2C9.64 13.5813 9.32 12.7547 9.32 11.72V7.048C9.32 6.01333 9.63467 5.192 10.264 4.584C10.904 3.976 11.7573 3.672 12.824 3.672C13.88 3.672 14.728 3.976 15.368 4.584C16.008 5.192 16.328 6.01333 16.328 7.048V7.128C16.328 7.20267 16.3067 7.26667 16.264 7.32C16.2213 7.36267 16.1627 7.384 16.088 7.384L13.56 7.464C13.4 7.464 13.32 7.38933 13.32 7.24V6.84C13.32 6.65867 13.272 6.51467 13.176 6.408C13.0907 6.30133 12.9733 6.248 12.824 6.248C12.6747 6.248 12.552 6.30133 12.456 6.408C12.3707 6.51467 12.328 6.65867 12.328 6.84V11.976C12.328 12.1573 12.3707 12.3013 12.456 12.408C12.552 12.504 12.6747 12.552 12.824 12.552C12.9733 12.552 13.0907 12.504 13.176 12.408C13.272 12.3013 13.32 12.1573 13.32 11.976V11.544C13.32 11.3947 13.4 11.32 13.56 11.32L16.088 11.4C16.1627 11.4 16.2213 11.4267 16.264 11.48C16.3067 11.5227 16.328 11.5813 16.328 11.656V11.72C16.328 12.4027 16.1787 13.0053 15.88 13.528C15.592 14.04 15.1813 14.4347 14.648 14.712C14.1253 14.9893 13.5173 15.128 12.824 15.128ZM17.2654 15C17.1907 15 17.132 14.9787 17.0894 14.936C17.0467 14.8933 17.0254 14.8347 17.0254 14.76V4.04C17.0254 3.96533 17.0467 3.90667 17.0894 3.864C17.132 3.82133 17.1907 3.8 17.2654 3.8H19.7934C19.868 3.8 19.9267 3.82133 19.9694 3.864C20.012 3.90667 20.0334 3.96533 20.0334 4.04V12.328C20.0334 12.392 20.0654 12.424 20.1294 12.424H23.2494C23.324 12.424 23.3827 12.4453 23.4254 12.488C23.468 12.5307 23.4894 12.5893 23.4894 12.664V14.76C23.4894 14.8347 23.468 14.8933 23.4254 14.936C23.3827 14.9787 23.324 15 23.2494 15H17.2654ZM24.406 15C24.3313 15 24.2727 14.9787 24.23 14.936C24.1873 14.8933 24.166 14.8347 24.166 14.76V4.04C24.166 3.96533 24.1873 3.90667 24.23 3.864C24.2727 3.82133 24.3313 3.8 24.406 3.8H26.934C27.0087 3.8 27.0673 3.82133 27.11 3.864C27.1527 3.90667 27.174 3.96533 27.174 4.04V14.76C27.174 14.8347 27.1527 14.8933 27.11 14.936C27.0673 14.9787 27.0087 15 26.934 15H24.406ZM34.4098 6.136C34.4098 6.21067 34.3884 6.26933 34.3458 6.312C34.3031 6.35467 34.2444 6.376 34.1698 6.376H31.1138C31.0498 6.376 31.0178 6.408 31.0178 6.472V8.008C31.0178 8.072 31.0498 8.104 31.1138 8.104H32.6978C32.7724 8.104 32.8311 8.12533 32.8738 8.168C32.9164 8.21067 32.9378 8.26933 32.9378 8.344V10.44C32.9378 10.5147 32.9164 10.5733 32.8738 10.616C32.8311 10.6587 32.7724 10.68 32.6978 10.68H31.1138C31.0498 10.68 31.0178 10.712 31.0178 10.776V12.328C31.0178 12.392 31.0498 12.424 31.1138 12.424H34.1698C34.2444 12.424 34.3031 12.4453 34.3458 12.488C34.3884 12.5307 34.4098 12.5893 34.4098 12.664V14.76C34.4098 14.8347 34.3884 14.8933 34.3458 14.936C34.3031 14.9787 34.2444 15 34.1698 15H28.2498C28.1751 15 28.1164 14.9787 28.0738 14.936C28.0311 14.8933 28.0098 14.8347 28.0098 14.76V4.04C28.0098 3.96533 28.0311 3.90667 28.0738 3.864C28.1164 3.82133 28.1751 3.8 28.2498 3.8H34.1698C34.2444 3.8 34.3031 3.82133 34.3458 3.864C34.3884 3.90667 34.4098 3.96533 34.4098 4.04V6.136ZM39.7591 4.04C39.7591 3.96533 39.7805 3.90667 39.8231 3.864C39.8658 3.82133 39.9245 3.8 39.9991 3.8H42.4951C42.5698 3.8 42.6285 3.82133 42.6711 3.864C42.7138 3.90667 42.7351 3.96533 42.7351 4.04V14.76C42.7351 14.8347 42.7138 14.8933 42.6711 14.936C42.6285 14.9787 42.5698 15 42.4951 15H39.6471C39.5085 15 39.4231 14.9307 39.3911 14.792L38.1751 9.944C38.1645 9.912 38.1431 9.896 38.1111 9.896C38.0791 9.896 38.0631 9.91733 38.0631 9.96L38.0951 14.76C38.0951 14.8347 38.0738 14.8933 38.0311 14.936C37.9885 14.9787 37.9298 15 37.8551 15H35.3591C35.2845 15 35.2258 14.9787 35.1831 14.936C35.1405 14.8933 35.1191 14.8347 35.1191 14.76V4.04C35.1191 3.96533 35.1405 3.90667 35.1831 3.864C35.2258 3.82133 35.2845 3.8 35.3591 3.8H38.1751C38.3138 3.8 38.3991 3.86933 38.4311 4.008L39.6631 8.872C39.6738 8.91467 39.6951 8.936 39.7271 8.936C39.7591 8.936 39.7751 8.91467 39.7751 8.872L39.7591 4.04ZM50.6123 3.8C50.6869 3.8 50.7456 3.82133 50.7883 3.864C50.8309 3.90667 50.8523 3.96533 50.8523 4.04V6.136C50.8523 6.21067 50.8309 6.26933 50.7883 6.312C50.7456 6.35467 50.6869 6.376 50.6123 6.376H48.7243C48.6603 6.376 48.6283 6.408 48.6283 6.472V14.76C48.6283 14.8347 48.6069 14.8933 48.5643 14.936C48.5216 14.9787 48.4629 15 48.3883 15H45.8603C45.7856 15 45.7269 14.9787 45.6843 14.936C45.6416 14.8933 45.6203 14.8347 45.6203 14.76V6.472C45.6203 6.408 45.5883 6.376 45.5243 6.376H43.6842C43.6096 6.376 43.5509 6.35467 43.5083 6.312C43.4656 6.26933 43.4443 6.21067 43.4443 6.136V4.04C43.4443 3.96533 43.4656 3.90667 43.5083 3.864C43.5509 3.82133 43.6096 3.8 43.6842 3.8H50.6123ZM57.9566 6.136C57.9566 6.21067 57.9353 6.26933 57.8926 6.312C57.85 6.35467 57.7913 6.376 57.7166 6.376H54.6606C54.5966 6.376 54.5646 6.408 54.5646 6.472V8.008C54.5646 8.072 54.5966 8.104 54.6606 8.104H56.2446C56.3193 8.104 56.378 8.12533 56.4206 8.168C56.4633 8.21067 56.4846 8.26933 56.4846 8.344V10.44C56.4846 10.5147 56.4633 10.5733 56.4206 10.616C56.378 10.6587 56.3193 10.68 56.2446 10.68H54.6606C54.5966 10.68 54.5646 10.712 54.5646 10.776V12.328C54.5646 12.392 54.5966 12.424 54.6606 12.424H57.7166C57.7913 12.424 57.85 12.4453 57.8926 12.488C57.9353 12.5307 57.9566 12.5893 57.9566 12.664V14.76C57.9566 14.8347 57.9353 14.8933 57.8926 14.936C57.85 14.9787 57.7913 15 57.7166 15H51.7966C51.722 15 51.6633 14.9787 51.6206 14.936C51.578 14.8933 51.5566 14.8347 51.5566 14.76V4.04C51.5566 3.96533 51.578 3.90667 51.6206 3.864C51.6633 3.82133 51.722 3.8 51.7966 3.8H57.7166C57.7913 3.8 57.85 3.82133 57.8926 3.864C57.9353 3.90667 57.9566 3.96533 57.9566 4.04V6.136ZM62.01 15.128C61.3273 15.128 60.73 15 60.218 14.744C59.706 14.488 59.306 14.136 59.018 13.688C58.7407 13.2293 58.602 12.7067 58.602 12.12V11.624C58.602 11.5493 58.6233 11.4907 58.666 11.448C58.7087 11.4053 58.7673 11.384 58.842 11.384H61.338C61.4127 11.384 61.4713 11.4053 61.514 11.448C61.5567 11.4907 61.578 11.5493 61.578 11.624V11.976C61.578 12.1467 61.6207 12.2853 61.706 12.392C61.7913 12.4987 61.898 12.552 62.026 12.552C62.154 12.552 62.2607 12.504 62.346 12.408C62.4313 12.312 62.474 12.1893 62.474 12.04C62.474 11.8587 62.3887 11.6827 62.218 11.512C62.0473 11.3307 61.69 11.048 61.146 10.664C60.6127 10.2907 60.17 9.94933 59.818 9.64C59.4767 9.33067 59.178 8.94133 58.922 8.472C58.666 8.00267 58.538 7.464 58.538 6.856C58.538 6.22667 58.6767 5.672 58.954 5.192C59.242 4.712 59.642 4.33867 60.154 4.072C60.6767 3.80533 61.274 3.672 61.946 3.672C62.6287 3.672 63.226 3.80533 63.738 4.072C64.2607 4.33867 64.6607 4.712 64.938 5.192C65.226 5.672 65.37 6.22667 65.37 6.856V7.208C65.37 7.28267 65.3487 7.34133 65.306 7.384C65.2633 7.42667 65.2047 7.448 65.13 7.448H62.65C62.5753 7.448 62.5167 7.42667 62.474 7.384C62.4313 7.34133 62.41 7.28267 62.41 7.208V6.792C62.41 6.632 62.3673 6.504 62.282 6.408C62.1967 6.30133 62.0847 6.248 61.946 6.248C61.8073 6.248 61.6953 6.30133 61.61 6.408C61.5353 6.51467 61.498 6.65867 61.498 6.84C61.498 7.05333 61.5833 7.26133 61.754 7.464C61.9247 7.656 62.266 7.93867 62.778 8.312C63.4607 8.81333 63.9727 9.21867 64.314 9.528C64.666 9.83733 64.938 10.1893 65.13 10.584C65.3327 10.968 65.434 11.4213 65.434 11.944C65.434 12.9147 65.1193 13.688 64.49 14.264C63.8607 14.84 63.034 15.128 62.01 15.128ZM74.3154 15C74.1554 15 74.07 14.9253 74.0594 14.776L73.8834 13.576C73.8834 13.5547 73.8727 13.5333 73.8514 13.512C73.83 13.4907 73.8034 13.48 73.7714 13.48H72.3634C72.3314 13.48 72.3047 13.4907 72.2834 13.512C72.262 13.5333 72.2514 13.5547 72.2514 13.576L72.0914 14.776C72.0807 14.9253 71.9954 15 71.8354 15H69.3234C69.1527 15 69.0834 14.9147 69.1154 14.744L71.3874 4.008C71.4194 3.86933 71.51 3.8 71.6594 3.8H74.5714C74.7207 3.8 74.8114 3.86933 74.8434 4.008L77.1154 14.744V14.808C77.1154 14.936 77.0407 15 76.8914 15H74.3154ZM72.6034 11.08C72.6034 11.144 72.63 11.176 72.6834 11.176H73.4354C73.51 11.176 73.5367 11.144 73.5154 11.08L73.0834 8.2C73.0727 8.15733 73.0567 8.136 73.0354 8.136C73.014 8.136 72.998 8.15733 72.9874 8.2L72.6034 11.08ZM83.8779 3.8C83.9525 3.8 84.0112 3.82133 84.0539 3.864C84.0965 3.90667 84.1179 3.96533 84.1179 4.04V6.136C84.1179 6.21067 84.0965 6.26933 84.0539 6.312C84.0112 6.35467 83.9525 6.376 83.8779 6.376H81.9899C81.9259 6.376 81.8939 6.408 81.8939 6.472V14.76C81.8939 14.8347 81.8725 14.8933 81.8299 14.936C81.7872 14.9787 81.7285 15 81.6539 15H79.1259C79.0512 15 78.9925 14.9787 78.9499 14.936C78.9072 14.8933 78.8859 14.8347 78.8859 14.76V6.472C78.8859 6.408 78.8539 6.376 78.7899 6.376H76.9499C76.8752 6.376 76.8165 6.35467 76.7739 6.312C76.7312 6.26933 76.7099 6.21067 76.7099 6.136V4.04C76.7099 3.96533 76.7312 3.90667 76.7739 3.864C76.8165 3.82133 76.8752 3.8 76.9499 3.8H83.8779ZM91.2223 6.136C91.2223 6.21067 91.2009 6.26933 91.1583 6.312C91.1156 6.35467 91.0569 6.376 90.9823 6.376H87.9263C87.8623 6.376 87.8303 6.408 87.8303 6.472V8.008C87.8303 8.072 87.8623 8.104 87.9263 8.104H89.5103C89.5849 8.104 89.6436 8.12533 89.6863 8.168C89.7289 8.21067 89.7503 8.26933 89.7503 8.344V10.44C89.7503 10.5147 89.7289 10.5733 89.6863 10.616C89.6436 10.6587 89.5849 10.68 89.5103 10.68H87.9263C87.8623 10.68 87.8303 10.712 87.8303 10.776V12.328C87.8303 12.392 87.8623 12.424 87.9263 12.424H90.9823C91.0569 12.424 91.1156 12.4453 91.1583 12.488C91.2009 12.5307 91.2223 12.5893 91.2223 12.664V14.76C91.2223 14.8347 91.2009 14.8933 91.1583 14.936C91.1156 14.9787 91.0569 15 90.9823 15H85.0623C84.9876 15 84.9289 14.9787 84.8863 14.936C84.8436 14.8933 84.8223 14.8347 84.8223 14.76V4.04C84.8223 3.96533 84.8436 3.90667 84.8863 3.864C84.9289 3.82133 84.9876 3.8 85.0623 3.8H90.9823C91.0569 3.8 91.1156 3.82133 91.1583 3.864C91.2009 3.90667 91.2223 3.96533 91.2223 4.04V6.136ZM96.5716 4.04C96.5716 3.96533 96.593 3.90667 96.6356 3.864C96.6783 3.82133 96.737 3.8 96.8116 3.8H99.3076C99.3823 3.8 99.441 3.82133 99.4836 3.864C99.5263 3.90667 99.5476 3.96533 99.5476 4.04V14.76C99.5476 14.8347 99.5263 14.8933 99.4836 14.936C99.441 14.9787 99.3823 15 99.3076 15H96.4596C96.321 15 96.2356 14.9307 96.2036 14.792L94.9876 9.944C94.977 9.912 94.9556 9.896 94.9236 9.896C94.8916 9.896 94.8756 9.91733 94.8756 9.96L94.9076 14.76C94.9076 14.8347 94.8863 14.8933 94.8436 14.936C94.801 14.9787 94.7423 15 94.6676 15H92.1716C92.097 15 92.0383 14.9787 91.9956 14.936C91.953 14.8933 91.9316 14.8347 91.9316 14.76V4.04C91.9316 3.96533 91.953 3.90667 91.9956 3.864C92.0383 3.82133 92.097 3.8 92.1716 3.8H94.9876C95.1263 3.8 95.2116 3.86933 95.2436 4.008L96.4756 8.872C96.4863 8.91467 96.5076 8.936 96.5396 8.936C96.5716 8.936 96.5876 8.91467 96.5876 8.872L96.5716 4.04ZM100.625 15C100.55 15 100.491 14.9787 100.449 14.936C100.406 14.8933 100.385 14.8347 100.385 14.76V4.04C100.385 3.96533 100.406 3.90667 100.449 3.864C100.491 3.82133 100.55 3.8 100.625 3.8H103.777C104.481 3.8 105.099 3.93333 105.633 4.2C106.177 4.46667 106.598 4.84533 106.897 5.336C107.195 5.816 107.345 6.37067 107.345 7V11.8C107.345 12.4293 107.195 12.9893 106.897 13.48C106.598 13.96 106.177 14.3333 105.633 14.6C105.099 14.8667 104.481 15 103.777 15H100.625ZM103.393 12.328C103.393 12.392 103.425 12.424 103.489 12.424L103.713 12.408C103.883 12.3973 104.027 12.3173 104.145 12.168C104.262 12.0187 104.326 11.8267 104.337 11.592V7.192C104.337 6.94667 104.278 6.74933 104.161 6.6C104.043 6.45067 103.889 6.376 103.697 6.376H103.489C103.425 6.376 103.393 6.408 103.393 6.472V12.328ZM108.359 15C108.284 15 108.226 14.9787 108.183 14.936C108.14 14.8933 108.119 14.8347 108.119 14.76V4.04C108.119 3.96533 108.14 3.90667 108.183 3.864C108.226 3.82133 108.284 3.8 108.359 3.8H110.887C110.962 3.8 111.02 3.82133 111.063 3.864C111.106 3.90667 111.127 3.96533 111.127 4.04V14.76C111.127 14.8347 111.106 14.8933 111.063 14.936C111.02 14.9787 110.962 15 110.887 15H108.359ZM112.203 15C112.128 15 112.07 14.9787 112.027 14.936C111.984 14.8933 111.963 14.8347 111.963 14.76V4.04C111.963 3.96533 111.984 3.90667 112.027 3.864C112.07 3.82133 112.128 3.8 112.203 3.8H115.355C116.059 3.8 116.678 3.93333 117.211 4.2C117.755 4.46667 118.176 4.84533 118.475 5.336C118.774 5.816 118.923 6.37067 118.923 7V11.8C118.923 12.4293 118.774 12.9893 118.475 13.48C118.176 13.96 117.755 14.3333 117.211 14.6C116.678 14.8667 116.059 15 115.355 15H112.203ZM114.971 12.328C114.971 12.392 115.003 12.424 115.067 12.424L115.291 12.408C115.462 12.3973 115.606 12.3173 115.723 12.168C115.84 12.0187 115.904 11.8267 115.915 11.592V7.192C115.915 6.94667 115.856 6.74933 115.739 6.6C115.622 6.45067 115.467 6.376 115.275 6.376H115.067C115.003 6.376 114.971 6.408 114.971 6.472V12.328ZM123.153 15.128C122.076 15.128 121.212 14.8187 120.561 14.2C119.921 13.5813 119.601 12.7493 119.601 11.704V7.096C119.601 6.05067 119.921 5.21867 120.561 4.6C121.212 3.98133 122.076 3.672 123.153 3.672C124.231 3.672 125.089 3.98133 125.729 4.6C126.38 5.21867 126.705 6.05067 126.705 7.096V11.704C126.705 12.7493 126.38 13.5813 125.729 14.2C125.089 14.8187 124.231 15.128 123.153 15.128ZM123.153 12.552C123.324 12.552 123.457 12.488 123.553 12.36C123.649 12.232 123.697 12.056 123.697 11.832V6.968C123.697 6.744 123.649 6.568 123.553 6.44C123.457 6.312 123.324 6.248 123.153 6.248C122.983 6.248 122.849 6.312 122.753 6.44C122.657 6.568 122.609 6.744 122.609 6.968V11.832C122.609 12.056 122.657 12.232 122.753 12.36C122.849 12.488 122.983 12.552 123.153 12.552ZM130.791 15.128C130.109 15.128 129.511 15 128.999 14.744C128.487 14.488 128.087 14.136 127.799 13.688C127.522 13.2293 127.383 12.7067 127.383 12.12V11.624C127.383 11.5493 127.405 11.4907 127.447 11.448C127.49 11.4053 127.549 11.384 127.623 11.384H130.119C130.194 11.384 130.253 11.4053 130.295 11.448C130.338 11.4907 130.359 11.5493 130.359 11.624V11.976C130.359 12.1467 130.402 12.2853 130.487 12.392C130.573 12.4987 130.679 12.552 130.807 12.552C130.935 12.552 131.042 12.504 131.127 12.408C131.213 12.312 131.255 12.1893 131.255 12.04C131.255 11.8587 131.17 11.6827 130.999 11.512C130.829 11.3307 130.471 11.048 129.927 10.664C129.394 10.2907 128.951 9.94933 128.599 9.64C128.258 9.33067 127.959 8.94133 127.703 8.472C127.447 8.00267 127.319 7.464 127.319 6.856C127.319 6.22667 127.458 5.672 127.735 5.192C128.023 4.712 128.423 4.33867 128.935 4.072C129.458 3.80533 130.055 3.672 130.727 3.672C131.41 3.672 132.007 3.80533 132.519 4.072C133.042 4.33867 133.442 4.712 133.719 5.192C134.007 5.672 134.151 6.22667 134.151 6.856V7.208C134.151 7.28267 134.13 7.34133 134.087 7.384C134.045 7.42667 133.986 7.448 133.911 7.448H131.431C131.357 7.448 131.298 7.42667 131.255 7.384C131.213 7.34133 131.191 7.28267 131.191 7.208V6.792C131.191 6.632 131.149 6.504 131.063 6.408C130.978 6.30133 130.866 6.248 130.727 6.248C130.589 6.248 130.477 6.30133 130.391 6.408C130.317 6.51467 130.279 6.65867 130.279 6.84C130.279 7.05333 130.365 7.26133 130.535 7.464C130.706 7.656 131.047 7.93867 131.559 8.312C132.242 8.81333 132.754 9.21867 133.095 9.528C133.447 9.83733 133.719 10.1893 133.911 10.584C134.114 10.968 134.215 11.4213 134.215 11.944C134.215 12.9147 133.901 13.688 133.271 14.264C132.642 14.84 131.815 15.128 130.791 15.128Z" fill="white"/>
</svg>
