<svg width="54" height="54" viewBox="0 0 54 54" fill="none" xmlns="http://www.w3.org/2000/svg">
<circle cx="26.9245" cy="26.9245" r="26.9245" fill="white"/>
<path d="M22.2999 25.6161C23.4793 25.6161 24.6321 25.2663 25.6127 24.6111C26.5933 23.9559 27.3576 23.0246 27.8089 21.935C28.2603 20.8455 28.3783 19.6465 28.1483 18.4898C27.9182 17.3331 27.3503 16.2706 26.5163 15.4367C25.6824 14.6028 24.6199 14.0348 23.4632 13.8048C22.3065 13.5747 21.1076 13.6928 20.018 14.1441C18.9284 14.5954 17.9971 15.3597 17.3419 16.3403C16.6867 17.3209 16.337 18.4738 16.337 19.6531C16.337 21.2346 16.9652 22.7513 18.0835 23.8696C19.2017 24.9878 20.7184 25.6161 22.2999 25.6161ZM22.2999 16.6717C22.8896 16.6717 23.466 16.8465 23.9563 17.1741C24.4466 17.5017 24.8288 17.9674 25.0544 18.5122C25.2801 19.057 25.3391 19.6564 25.2241 20.2348C25.109 20.8131 24.8251 21.3444 24.4081 21.7613C23.9911 22.1783 23.4599 22.4623 22.8816 22.5773C22.3032 22.6924 21.7037 22.6333 21.1589 22.4076C20.6141 22.182 20.1485 21.7998 19.8209 21.3095C19.4933 20.8192 19.3184 20.2428 19.3184 19.6531C19.3184 18.8624 19.6325 18.104 20.1917 17.5449C20.7508 16.9858 21.5092 16.6717 22.2999 16.6717ZM34.2258 28.5975C35.1103 28.5975 35.975 28.3353 36.7104 27.8438C37.4459 27.3524 38.0191 26.654 38.3576 25.8368C38.6961 25.0196 38.7846 24.1204 38.6121 23.2529C38.4395 22.3853 38.0136 21.5885 37.3881 20.963C36.7627 20.3376 35.9658 19.9116 35.0983 19.7391C34.2307 19.5665 33.3315 19.6551 32.5143 19.9936C31.6972 20.332 30.9987 20.9053 30.5073 21.6407C30.0159 22.3762 29.7536 23.2408 29.7536 24.1253C29.7536 25.3114 30.2248 26.449 31.0635 27.2877C31.9022 28.1264 33.0397 28.5975 34.2258 28.5975ZM34.2258 22.6346C34.5206 22.6346 34.8088 22.722 35.054 22.8858C35.2991 23.0496 35.4902 23.2825 35.603 23.5549C35.7159 23.8273 35.7454 24.127 35.6879 24.4162C35.6304 24.7053 35.4884 24.971 35.2799 25.1794C35.0714 25.3879 34.8058 25.5299 34.5166 25.5874C34.2274 25.6449 33.9277 25.6154 33.6553 25.5026C33.3829 25.3898 33.1501 25.1987 32.9863 24.9535C32.8225 24.7084 32.735 24.4202 32.735 24.1253C32.735 23.73 32.8921 23.3508 33.1717 23.0712C33.4512 22.7917 33.8304 22.6346 34.2258 22.6346ZM34.2258 30.0883C32.5738 30.0901 30.9692 30.6407 29.6641 31.6535C28.204 30.1991 26.3458 29.2096 24.3241 28.8099C22.3023 28.4101 20.2074 28.6179 18.3036 29.4072C16.3998 30.1965 14.7723 31.5318 13.6264 33.2448C12.4805 34.9578 11.8675 36.9718 11.8647 39.0327C11.8647 39.4281 12.0218 39.8072 12.3014 40.0868C12.5809 40.3664 12.9601 40.5234 13.3555 40.5234C13.7508 40.5234 14.13 40.3664 14.4096 40.0868C14.6892 39.8072 14.8462 39.4281 14.8462 39.0327C14.8462 37.0559 15.6315 35.16 17.0293 33.7621C18.4272 32.3643 20.3231 31.579 22.2999 31.579C24.2767 31.579 26.1726 32.3643 27.5704 33.7621C28.9683 35.16 29.7536 37.0559 29.7536 39.0327C29.7536 39.4281 29.9106 39.8072 30.1902 40.0868C30.4698 40.3664 30.8489 40.5234 31.2443 40.5234C31.6397 40.5234 32.0189 40.3664 32.2984 40.0868C32.578 39.8072 32.735 39.4281 32.735 39.0327C32.7386 37.2862 32.2974 35.5675 31.453 34.0387C32.1118 33.5181 32.9038 33.1935 33.7385 33.102C34.5732 33.0106 35.4167 33.1559 36.1726 33.5214C36.9285 33.8869 37.5663 34.4579 38.0129 35.1689C38.4595 35.8799 38.6969 36.7023 38.698 37.542C38.698 37.9373 38.855 38.3165 39.1346 38.5961C39.4142 38.8756 39.7934 39.0327 40.1887 39.0327C40.5841 39.0327 40.9633 38.8756 41.2428 38.5961C41.5224 38.3165 41.6795 37.9373 41.6795 37.542C41.6795 35.5651 40.8942 33.6692 39.4963 32.2714C38.0985 30.8736 36.2026 30.0883 34.2258 30.0883Z" fill="#313131"/>
</svg>
