<svg width="320" height="36" viewBox="0 0 320 36" fill="none" xmlns="http://www.w3.org/2000/svg">
<rect width="320" height="36" rx="18" fill="#1C9BD8"/>
<path d="M216 8L216 27.3148" stroke="white" stroke-width="2" stroke-linecap="round"/>
<path d="M246 11.2381H244C244 8.34667 241.76 6 239 6C236.24 6 234 8.34667 234 11.2381H232C230.9 11.2381 230 12.181 230 13.3333V25.9048C230 27.0571 230.9 28 232 28H246C247.1 28 248 27.0571 248 25.9048V13.3333C248 12.181 247.1 11.2381 246 11.2381ZM239 8.09524C240.66 8.09524 242 9.49905 242 11.2381H236C236 9.49905 237.34 8.09524 239 8.09524ZM246 25.9048H232V13.3333H246V25.9048ZM239 17.5238C237.34 17.5238 236 16.12 236 14.381H234C234 17.2724 236.24 19.619 239 19.619C241.76 19.619 244 17.2724 244 14.381H242C242 16.12 240.66 17.5238 239 17.5238Z" fill="white"/>
<path d="M198.276 24.8436C198.119 24.8436 198.035 24.7719 198.022 24.6285L197.709 22.7514C197.709 22.6862 197.67 22.6536 197.592 22.6536H195.108C195.03 22.6536 194.991 22.6862 194.991 22.7514L194.678 24.6285C194.665 24.7719 194.58 24.8436 194.424 24.8436H192.136C191.967 24.8436 191.902 24.7589 191.941 24.5894L194.815 11.3715C194.841 11.2281 194.926 11.1564 195.069 11.1564H197.709C197.852 11.1564 197.937 11.2281 197.963 11.3715L200.818 24.5894L200.837 24.6676C200.837 24.7849 200.766 24.8436 200.622 24.8436H198.276ZM195.382 20.4246C195.382 20.4898 195.408 20.5224 195.46 20.5224H197.22C197.285 20.5224 197.311 20.4898 197.298 20.4246L196.379 15.0866C196.366 15.0475 196.347 15.0279 196.321 15.0279C196.295 15.0279 196.275 15.0475 196.262 15.0866L195.382 20.4246Z" fill="white"/>
<path d="M188.625 24.8436C188.482 24.8436 188.391 24.7784 188.351 24.6481L186.846 19.2514C186.82 19.1993 186.787 19.1732 186.748 19.1732H186.083C186.018 19.1732 185.985 19.2058 185.985 19.271V24.6089C185.985 24.6741 185.959 24.7328 185.907 24.7849C185.868 24.824 185.816 24.8436 185.751 24.8436H183.463C183.398 24.8436 183.339 24.824 183.287 24.7849C183.248 24.7328 183.229 24.6741 183.229 24.6089V11.3911C183.229 11.3259 183.248 11.2738 183.287 11.2346C183.339 11.1825 183.398 11.1564 183.463 11.1564H187.413C188.13 11.1564 188.769 11.3324 189.329 11.6844C189.89 12.0233 190.32 12.5056 190.62 13.1313C190.932 13.757 191.089 14.4739 191.089 15.2821C191.089 16.0512 190.939 16.7291 190.639 17.3157C190.352 17.9022 189.948 18.3585 189.427 18.6844C189.401 18.6974 189.381 18.717 189.368 18.743C189.355 18.7561 189.355 18.7756 189.368 18.8017L191.167 24.5698L191.187 24.6481C191.187 24.7784 191.115 24.8436 190.972 24.8436H188.625ZM186.083 13.5224C186.018 13.5224 185.985 13.5549 185.985 13.6201V16.9637C185.985 17.0289 186.018 17.0615 186.083 17.0615H186.963C187.367 17.0615 187.693 16.905 187.941 16.5922C188.202 16.2663 188.332 15.8361 188.332 15.3017C188.332 14.7542 188.202 14.324 187.941 14.0112C187.693 13.6853 187.367 13.5224 186.963 13.5224H186.083Z" fill="white"/>
<path d="M177.741 25C176.541 25 175.583 24.648 174.866 23.9441C174.149 23.2402 173.791 22.3017 173.791 21.1285V14.8715C173.791 13.6983 174.149 12.7598 174.866 12.0559C175.583 11.352 176.541 11 177.741 11C178.94 11 179.898 11.352 180.615 12.0559C181.345 12.7598 181.71 13.6983 181.71 14.8715V21.1285C181.71 22.3017 181.345 23.2402 180.615 23.9441C179.898 24.648 178.94 25 177.741 25ZM177.741 22.6341C178.106 22.6341 178.399 22.5102 178.621 22.2626C178.842 22.0019 178.953 21.6629 178.953 21.2458V14.7542C178.953 14.3371 178.842 14.0047 178.621 13.757C178.399 13.4963 178.106 13.3659 177.741 13.3659C177.376 13.3659 177.082 13.4963 176.861 13.757C176.652 14.0047 176.548 14.3371 176.548 14.7542V21.2458C176.548 21.6629 176.652 22.0019 176.861 22.2626C177.082 22.5102 177.376 22.6341 177.741 22.6341Z" fill="white"/>
<path d="M169.501 11.3911C169.501 11.3259 169.52 11.2738 169.559 11.2346C169.611 11.1825 169.67 11.1564 169.735 11.1564H172.023C172.088 11.1564 172.14 11.1825 172.179 11.2346C172.232 11.2738 172.258 11.3259 172.258 11.3911V24.6089C172.258 24.6741 172.232 24.7328 172.179 24.7849C172.14 24.824 172.088 24.8436 172.023 24.8436H169.735C169.67 24.8436 169.611 24.824 169.559 24.7849C169.52 24.7328 169.501 24.6741 169.501 24.6089V19.271C169.501 19.2058 169.468 19.1732 169.403 19.1732H167.448C167.382 19.1732 167.35 19.2058 167.35 19.271V24.6089C167.35 24.6741 167.324 24.7328 167.272 24.7849C167.232 24.824 167.18 24.8436 167.115 24.8436H164.827C164.762 24.8436 164.704 24.824 164.651 24.7849C164.612 24.7328 164.593 24.6741 164.593 24.6089V11.3911C164.593 11.3259 164.612 11.2738 164.651 11.2346C164.704 11.1825 164.762 11.1564 164.827 11.1564H167.115C167.18 11.1564 167.232 11.1825 167.272 11.2346C167.324 11.2738 167.35 11.3259 167.35 11.3911V16.7095C167.35 16.7747 167.382 16.8073 167.448 16.8073H169.403C169.468 16.8073 169.501 16.7747 169.501 16.7095V11.3911Z" fill="white"/>
<path d="M160.908 24.8436C160.751 24.8436 160.667 24.7719 160.654 24.6285L160.341 22.7514C160.341 22.6862 160.302 22.6536 160.223 22.6536H157.74C157.662 22.6536 157.623 22.6862 157.623 22.7514L157.31 24.6285C157.297 24.7719 157.212 24.8436 157.056 24.8436H154.768C154.599 24.8436 154.533 24.7589 154.573 24.5894L157.447 11.3715C157.473 11.2281 157.558 11.1564 157.701 11.1564H160.341C160.484 11.1564 160.569 11.2281 160.595 11.3715L163.45 24.5894L163.469 24.6676C163.469 24.7849 163.397 24.8436 163.254 24.8436H160.908ZM158.014 20.4246C158.014 20.4898 158.04 20.5224 158.092 20.5224H159.852C159.917 20.5224 159.943 20.4898 159.93 20.4246L159.011 15.0866C158.998 15.0475 158.978 15.0279 158.952 15.0279C158.926 15.0279 158.907 15.0475 158.894 15.0866L158.014 20.4246Z" fill="white"/>
<path d="M147.438 24.8436C147.294 24.8436 147.203 24.7784 147.164 24.6481L145.658 19.2514C145.632 19.1993 145.6 19.1732 145.561 19.1732H144.896C144.831 19.1732 144.798 19.2058 144.798 19.271V24.6089C144.798 24.6741 144.772 24.7328 144.72 24.7849C144.681 24.824 144.629 24.8436 144.563 24.8436H142.276C142.21 24.8436 142.152 24.824 142.1 24.7849C142.061 24.7328 142.041 24.6741 142.041 24.6089V11.3911C142.041 11.3259 142.061 11.2738 142.1 11.2346C142.152 11.1825 142.21 11.1564 142.276 11.1564H146.225C146.942 11.1564 147.581 11.3324 148.142 11.6844C148.702 12.0233 149.132 12.5056 149.432 13.1313C149.745 13.757 149.901 14.4739 149.901 15.2821C149.901 16.0512 149.751 16.7291 149.452 17.3157C149.165 17.9022 148.761 18.3585 148.239 18.6844C148.213 18.6974 148.194 18.717 148.181 18.743C148.168 18.7561 148.168 18.7756 148.181 18.8017L149.98 24.5698L149.999 24.6481C149.999 24.7784 149.927 24.8436 149.784 24.8436H147.438ZM144.896 13.5224C144.831 13.5224 144.798 13.5549 144.798 13.6201V16.9637C144.798 17.0289 144.831 17.0615 144.896 17.0615H145.776C146.18 17.0615 146.506 16.905 146.753 16.5922C147.014 16.2663 147.144 15.8361 147.144 15.3017C147.144 14.7542 147.014 14.324 146.753 14.0112C146.506 13.6853 146.18 13.5224 145.776 13.5224H144.896Z" fill="white"/>
<path d="M138.357 24.8436C138.201 24.8436 138.116 24.7719 138.103 24.6285L137.79 22.7514C137.79 22.6862 137.751 22.6536 137.673 22.6536H135.189C135.111 22.6536 135.072 22.6862 135.072 22.7514L134.759 24.6285C134.746 24.7719 134.661 24.8436 134.505 24.8436H132.217C132.048 24.8436 131.983 24.7589 132.022 24.5894L134.896 11.3715C134.922 11.2281 135.007 11.1564 135.15 11.1564H137.79C137.933 11.1564 138.018 11.2281 138.044 11.3715L140.899 24.5894L140.918 24.6676C140.918 24.7849 140.847 24.8436 140.703 24.8436H138.357ZM135.463 20.4246C135.463 20.4898 135.489 20.5224 135.541 20.5224H137.301C137.366 20.5224 137.392 20.4898 137.379 20.4246L136.46 15.0866C136.447 15.0475 136.428 15.0279 136.402 15.0279C136.376 15.0279 136.356 15.0475 136.343 15.0866L135.463 20.4246Z" fill="white"/>
<path d="M128.705 24.8436C128.562 24.8436 128.471 24.7784 128.432 24.6481L126.926 19.2514C126.9 19.1993 126.867 19.1732 126.828 19.1732H126.163C126.098 19.1732 126.066 19.2058 126.066 19.271V24.6089C126.066 24.6741 126.04 24.7328 125.987 24.7849C125.948 24.824 125.896 24.8436 125.831 24.8436H123.543C123.478 24.8436 123.419 24.824 123.367 24.7849C123.328 24.7328 123.309 24.6741 123.309 24.6089V11.3911C123.309 11.3259 123.328 11.2738 123.367 11.2346C123.419 11.1825 123.478 11.1564 123.543 11.1564H127.493C128.21 11.1564 128.849 11.3324 129.409 11.6844C129.97 12.0233 130.4 12.5056 130.7 13.1313C131.013 13.757 131.169 14.4739 131.169 15.2821C131.169 16.0512 131.019 16.7291 130.719 17.3157C130.432 17.9022 130.028 18.3585 129.507 18.6844C129.481 18.6974 129.461 18.717 129.448 18.743C129.435 18.7561 129.435 18.7756 129.448 18.8017L131.247 24.5698L131.267 24.6481C131.267 24.7784 131.195 24.8436 131.052 24.8436H128.705ZM126.163 13.5224C126.098 13.5224 126.066 13.5549 126.066 13.6201V16.9637C126.066 17.0289 126.098 17.0615 126.163 17.0615H127.043C127.447 17.0615 127.773 16.905 128.021 16.5922C128.282 16.2663 128.412 15.8361 128.412 15.3017C128.412 14.7542 128.282 14.324 128.021 14.0112C127.773 13.6853 127.447 13.5224 127.043 13.5224H126.163Z" fill="white"/>
<path d="M118.385 11.1369C119.101 11.1369 119.74 11.3129 120.301 11.6648C120.861 12.0168 121.291 12.5121 121.591 13.1509C121.904 13.7766 122.061 14.4935 122.061 15.3017C122.061 16.514 121.735 17.4851 121.083 18.2151C120.431 18.9451 119.577 19.3101 118.521 19.3101H117.055C116.99 19.3101 116.957 19.3427 116.957 19.4079V24.609C116.957 24.6741 116.931 24.7328 116.879 24.7849C116.84 24.8241 116.788 24.8436 116.723 24.8436H114.435C114.37 24.8436 114.311 24.8241 114.259 24.7849C114.22 24.7328 114.2 24.6741 114.2 24.609V11.3715C114.2 11.3064 114.22 11.2542 114.259 11.2151C114.311 11.163 114.37 11.1369 114.435 11.1369H118.385ZM117.915 17.1592C118.332 17.1592 118.665 17.0028 118.912 16.69C119.173 16.3641 119.304 15.9209 119.304 15.3604C119.304 14.7868 119.173 14.3371 118.912 14.0112C118.665 13.6853 118.332 13.5224 117.915 13.5224H117.055C116.99 13.5224 116.957 13.555 116.957 13.6201V17.0615C116.957 17.1267 116.99 17.1592 117.055 17.1592H117.915Z" fill="white"/>
<path d="M109.765 11.3129C109.817 11.2086 109.915 11.1564 110.058 11.1564H112.326C112.391 11.1564 112.444 11.1825 112.483 11.2346C112.535 11.2738 112.561 11.3259 112.561 11.3911V24.6089C112.561 24.6741 112.535 24.7328 112.483 24.7849C112.444 24.824 112.391 24.8436 112.326 24.8436H110.039C109.973 24.8436 109.915 24.824 109.863 24.7849C109.824 24.7328 109.804 24.6741 109.804 24.6089V15.8296C109.804 15.7775 109.791 15.7514 109.765 15.7514C109.739 15.7514 109.713 15.771 109.687 15.8101L108.162 18.5084C108.096 18.6127 108.044 18.6648 108.005 18.6648C107.966 18.6648 107.914 18.6127 107.849 18.5084L106.324 15.8101C106.297 15.771 106.271 15.7514 106.245 15.7514C106.219 15.7514 106.206 15.7775 106.206 15.8296V24.6089C106.206 24.6741 106.18 24.7328 106.128 24.7849C106.089 24.824 106.037 24.8436 105.972 24.8436H103.684C103.619 24.8436 103.56 24.824 103.508 24.7849C103.469 24.7328 103.449 24.6741 103.449 24.6089V11.3911C103.449 11.3259 103.469 11.2738 103.508 11.2346C103.56 11.1825 103.619 11.1564 103.684 11.1564H105.932C106.063 11.1564 106.161 11.2086 106.226 11.3129L107.966 14.4218C108.005 14.4739 108.044 14.4739 108.083 14.4218L109.765 11.3129Z" fill="white"/>
<path d="M98.02 25C96.8208 25 95.8627 24.648 95.1457 23.9441C94.4288 23.2402 94.0703 22.3017 94.0703 21.1285V14.8715C94.0703 13.6983 94.4288 12.7598 95.1457 12.0559C95.8627 11.352 96.8208 11 98.02 11C99.2193 11 100.177 11.352 100.894 12.0559C101.624 12.7598 101.989 13.6983 101.989 14.8715V21.1285C101.989 22.3017 101.624 23.2402 100.894 23.9441C100.177 24.648 99.2193 25 98.02 25ZM98.02 22.6341C98.385 22.6341 98.6783 22.5102 98.8999 22.2626C99.1215 22.0019 99.2323 21.6629 99.2323 21.2458V14.7542C99.2323 14.3371 99.1215 14.0047 98.8999 13.757C98.6783 13.4963 98.385 13.3659 98.02 13.3659C97.655 13.3659 97.3617 13.4963 97.1401 13.757C96.9316 14.0047 96.8273 14.3371 96.8273 14.7542V21.2458C96.8273 21.6629 96.9316 22.0019 97.1401 22.2626C97.3617 22.5102 97.655 22.6341 98.02 22.6341Z" fill="white"/>
<path d="M88.8911 25C87.7179 25 86.7728 24.6546 86.0559 23.9637C85.352 23.2598 85 22.3212 85 21.148V14.8128C85 13.6527 85.352 12.7272 86.0559 12.0363C86.7728 11.3454 87.7179 11 88.8911 11C90.0773 11 91.0223 11.3454 91.7263 12.0363C92.4432 12.7272 92.8017 13.6527 92.8017 14.8128V15.0279C92.8017 15.0931 92.7756 15.1518 92.7235 15.2039C92.6844 15.243 92.6322 15.2626 92.567 15.2626L90.2793 15.3603C90.1229 15.3603 90.0447 15.2886 90.0447 15.1453V14.6369C90.0447 14.2588 89.9404 13.9525 89.7318 13.7179C89.5233 13.4832 89.243 13.3659 88.8911 13.3659C88.5521 13.3659 88.2784 13.4832 88.0698 13.7179C87.8613 13.9525 87.757 14.2588 87.757 14.6369V21.3827C87.757 21.7607 87.8613 22.067 88.0698 22.3017C88.2784 22.5233 88.5521 22.6341 88.8911 22.6341C89.243 22.6341 89.5233 22.5233 89.7318 22.3017C89.9404 22.067 90.0447 21.7607 90.0447 21.3827V20.8547C90.0447 20.7896 90.0642 20.7374 90.1034 20.6983C90.1555 20.6462 90.2142 20.6201 90.2793 20.6201L92.567 20.7179C92.6322 20.7179 92.6844 20.7439 92.7235 20.7961C92.7756 20.8352 92.8017 20.8873 92.8017 20.9525V21.148C92.8017 22.3212 92.4432 23.2598 91.7263 23.9637C91.0093 24.6546 90.0642 25 88.8911 25Z" fill="white"/>
</svg>
