<svg width="154" height="39" viewBox="0 0 154 39" fill="none" xmlns="http://www.w3.org/2000/svg">
<path d="M154 10.0548L154 28.0724C154 28.5942 153.787 29.1161 153.397 29.4988L145.202 37.5357C144.812 37.9184 144.315 38.1272 143.748 38.1272L10 38.1272C4.47716 38.1272 -2.4181e-06 33.65 -2.02123e-06 28.1272L-7.18602e-07 10C-3.21729e-07 4.47715 4.47715 -3.91405e-07 10 -8.74228e-07L143.748 -2.78256e-05C144.28 -2.78721e-05 144.812 0.208731 145.202 0.591441L153.432 8.66314C153.787 9.01106 154 9.53294 154 10.0548Z" fill="white"/>
</svg>
