<svg width="25" height="25" viewBox="0 0 25 25" fill="none" xmlns="http://www.w3.org/2000/svg">
<circle cx="12.381" cy="12.3444" r="12.2834" fill="#1C9BD8"/>
<path d="M10.8928 16.4761C11.0902 16.4761 11.2796 16.3937 11.4192 16.2471C11.5588 16.1005 11.6372 15.9017 11.6372 15.6944V11.0044C11.6372 10.7971 11.5588 10.5982 11.4192 10.4517C11.2796 10.3051 11.0902 10.2227 10.8928 10.2227C10.6953 10.2227 10.506 10.3051 10.3664 10.4517C10.2268 10.5982 10.1483 10.7971 10.1483 11.0044V15.6944C10.1483 15.9017 10.2268 16.1005 10.3664 16.2471C10.506 16.3937 10.6953 16.4761 10.8928 16.4761ZM18.3372 7.09604H15.3594V6.31437C15.3594 5.69243 15.1242 5.09597 14.7053 4.6562C14.2865 4.21642 13.7184 3.96936 13.1261 3.96936H11.6372C11.0449 3.96936 10.4768 4.21642 10.058 4.6562C9.63917 5.09597 9.40387 5.69243 9.40387 6.31437V7.09604H6.42609C6.22865 7.09604 6.03929 7.17839 5.89968 7.32498C5.76007 7.47157 5.68164 7.67039 5.68164 7.87771C5.68164 8.08502 5.76007 8.28384 5.89968 8.43043C6.03929 8.57702 6.22865 8.65937 6.42609 8.65937H7.17053V17.2577C7.17053 17.8797 7.40583 18.4761 7.82466 18.9159C8.2435 19.3557 8.81156 19.6027 9.40387 19.6027H15.3594C15.9518 19.6027 16.5198 19.3557 16.9387 18.9159C17.3575 18.4761 17.5928 17.8797 17.5928 17.2577V8.65937H18.3372C18.5347 8.65937 18.724 8.57702 18.8636 8.43043C19.0033 8.28384 19.0817 8.08502 19.0817 7.87771C19.0817 7.67039 19.0033 7.47157 18.8636 7.32498C18.724 7.17839 18.5347 7.09604 18.3372 7.09604ZM10.8928 6.31437C10.8928 6.10706 10.9712 5.90824 11.1108 5.76164C11.2504 5.61505 11.4398 5.5327 11.6372 5.5327H13.1261C13.3235 5.5327 13.5129 5.61505 13.6525 5.76164C13.7921 5.90824 13.8706 6.10706 13.8706 6.31437V7.09604H10.8928V6.31437ZM16.1039 17.2577C16.1039 17.465 16.0255 17.6639 15.8859 17.8105C15.7462 17.9571 15.5569 18.0394 15.3594 18.0394H9.40387C9.20643 18.0394 9.01708 17.9571 8.87747 17.8105C8.73786 17.6639 8.65943 17.465 8.65943 17.2577V8.65937H16.1039V17.2577ZM13.8706 16.4761C14.068 16.4761 14.2573 16.3937 14.397 16.2471C14.5366 16.1005 14.615 15.9017 14.615 15.6944V11.0044C14.615 10.7971 14.5366 10.5982 14.397 10.4517C14.2573 10.3051 14.068 10.2227 13.8706 10.2227C13.6731 10.2227 13.4838 10.3051 13.3442 10.4517C13.2045 10.5982 13.1261 10.7971 13.1261 11.0044V15.6944C13.1261 15.9017 13.2045 16.1005 13.3442 16.2471C13.4838 16.3937 13.6731 16.4761 13.8706 16.4761Z" fill="white"/>
</svg>
