<svg width="82" height="28" viewBox="0 0 82 28" fill="none" xmlns="http://www.w3.org/2000/svg">
<path d="M66.1961 21.9135L62.2385 27.267H57.748L61.7056 21.9135L59.6759 16.5662H64.1664L66.1961 21.9135Z" fill="#1C9BD8"/>
<path d="M74.0786 21.9135L69.8572 27.267H65.0674L69.2888 21.9135L67.1238 16.5662H71.9136L74.0786 21.9135Z" fill="#1C9BD8"/>
<path d="M58.8726 21.9135L54.6478 27.267H49.8613L54.0798 21.9135L51.9163 16.5662H56.7027L58.8726 21.9135Z" fill="#1C9BD8"/>
<path d="M81.4021 21.9135L77.4414 27.267H72.9541L76.9089 21.9135L74.8806 16.5662H79.3679L81.4021 21.9135Z" fill="#1C9BD8"/>
<path d="M44.4879 27.5192C43.6113 27.5192 42.9163 27.2894 42.4031 26.8296C41.9007 26.3592 41.6494 25.7391 41.6494 24.9694C41.6494 24.8731 41.6601 24.7288 41.6815 24.5364L41.7296 24.0392C41.7403 23.9858 41.767 23.943 41.8098 23.9109C41.8525 23.8682 41.9007 23.8468 41.9541 23.8468H44.1191C44.2367 23.8468 44.2955 23.9109 44.2955 24.0392L44.2474 24.4081L44.2313 24.5684C44.2313 24.7716 44.2795 24.9373 44.3757 25.0656C44.4826 25.1832 44.6162 25.242 44.7766 25.242C44.9797 25.242 45.1508 25.1618 45.2898 25.0014C45.4395 24.8304 45.5143 24.6112 45.5143 24.3439C45.5143 24.1408 45.4288 23.943 45.2577 23.7506C45.0973 23.5581 44.7819 23.2695 44.3115 22.8846C43.8625 22.5211 43.5043 22.2057 43.2371 21.9384C42.9698 21.6711 42.7346 21.345 42.5314 20.9602C42.339 20.5646 42.2428 20.1156 42.2428 19.6131C42.2428 18.9181 42.3978 18.298 42.7078 17.7528C43.0179 17.2075 43.4455 16.7852 43.9908 16.4859C44.536 16.1865 45.1508 16.0368 45.835 16.0368C46.701 16.0368 47.3906 16.2827 47.9038 16.7745C48.417 17.2556 48.6735 17.9025 48.6735 18.715C48.6735 18.8112 48.6629 18.9662 48.6415 19.1801L48.5934 19.565C48.5827 19.6184 48.5559 19.6665 48.5132 19.7093C48.4704 19.7414 48.4223 19.7574 48.3689 19.7574H46.2199C46.1023 19.7574 46.0435 19.6932 46.0435 19.565L46.1077 19.1159C46.129 18.8807 46.0863 18.6883 45.9794 18.5386C45.8831 18.3889 45.7388 18.3141 45.5464 18.3141C45.3432 18.3141 45.1668 18.405 45.0172 18.5867C44.8782 18.7685 44.8087 18.9983 44.8087 19.2763C44.8087 19.5008 44.8889 19.72 45.0492 19.9338C45.2203 20.1369 45.525 20.4203 45.9633 20.7838C46.5086 21.2435 46.9148 21.6177 47.1821 21.9063C47.4601 22.1843 47.6793 22.489 47.8396 22.8204C48.0107 23.1412 48.0962 23.51 48.0962 23.927C48.0962 24.0125 48.0855 24.1622 48.0641 24.376C47.9465 25.3382 47.5563 26.1026 46.8935 26.6693C46.2413 27.2359 45.4395 27.5192 44.4879 27.5192Z" fill="white"/>
<path d="M38.6861 27.3909C38.5685 27.3909 38.5097 27.3321 38.5097 27.2145L38.4776 25.8193C38.4883 25.7979 38.483 25.7819 38.4616 25.7712C38.4402 25.7498 38.4188 25.7391 38.3974 25.7391H36.7136C36.6494 25.7391 36.6174 25.7659 36.6174 25.8193L36.2645 27.2145C36.2325 27.3321 36.1576 27.3909 36.04 27.3909H33.8269C33.6987 27.3909 33.6559 27.3214 33.6987 27.1825L37.2749 16.3416C37.3069 16.224 37.3818 16.1651 37.4994 16.1651H40.0332C40.1615 16.1651 40.2257 16.224 40.2257 16.3416L41.1237 27.1825V27.2306C41.1237 27.3375 41.0649 27.3909 40.9473 27.3909H38.6861ZM37.2268 23.6062C37.2268 23.6597 37.2428 23.6864 37.2749 23.6864H38.3173C38.3707 23.6864 38.3974 23.6597 38.3974 23.6062L38.2852 19.9498C38.2852 19.9071 38.2745 19.8857 38.2531 19.8857C38.2317 19.8857 38.2104 19.9071 38.189 19.9498L37.2268 23.6062ZM37.9324 15.1869C37.8255 15.1869 37.772 15.1548 37.772 15.0907C37.772 15.0479 37.7881 15.0052 37.8201 14.9624L38.9267 13.3587C38.9801 13.2732 39.0603 13.2304 39.1672 13.2304H40.8992C40.9954 13.2304 41.0435 13.2625 41.0435 13.3266C41.0435 13.3801 41.0221 13.4282 40.9794 13.471L39.5681 15.0746C39.504 15.1495 39.4238 15.1869 39.3276 15.1869H37.9324Z" fill="white"/>
<path d="M31.7421 16.2935C31.7849 16.208 31.865 16.1652 31.9826 16.1652H34.1476C34.2011 16.1652 34.2438 16.1866 34.2759 16.2294C34.308 16.2614 34.3187 16.3042 34.308 16.3577L32.9769 27.1986C32.9662 27.252 32.9395 27.3001 32.8967 27.3429C32.8647 27.375 32.8219 27.391 32.7684 27.391H30.5554C30.5019 27.391 30.4591 27.375 30.4271 27.3429C30.395 27.3001 30.3843 27.252 30.395 27.1986L31.245 20.3188C31.2556 20.276 31.245 20.2546 31.2129 20.2546C31.1915 20.2439 31.1701 20.2546 31.1487 20.2867L29.8177 22.2432C29.7749 22.3287 29.7428 22.3715 29.7215 22.3715C29.6894 22.3715 29.6573 22.3287 29.6252 22.2432L28.7753 20.2867C28.7539 20.2546 28.7325 20.2386 28.7111 20.2386C28.7004 20.2386 28.6897 20.26 28.6791 20.3027L27.8291 27.1986C27.8184 27.252 27.7917 27.3001 27.7489 27.3429C27.7168 27.375 27.6741 27.391 27.6206 27.391H25.4075C25.3541 27.391 25.3113 27.375 25.2792 27.3429C25.2472 27.3001 25.2365 27.252 25.2472 27.1986L26.5782 16.3577C26.5889 16.3042 26.6103 16.2614 26.6424 16.2294C26.6851 16.1866 26.7333 16.1652 26.7867 16.1652H28.9677C29.0639 16.1652 29.1388 16.208 29.1922 16.2935L30.1384 18.6188C30.1705 18.6616 30.2026 18.6616 30.2346 18.6188L31.7421 16.2935Z" fill="white"/>
<path d="M18.9424 27.391C18.8248 27.391 18.7607 27.3375 18.75 27.2306L18.2207 22.9809C18.2101 22.9381 18.1833 22.9167 18.1406 22.9167H17.916C17.8733 22.9167 17.8412 22.9434 17.8198 22.9969L17.3066 27.1986C17.296 27.252 17.2692 27.3001 17.2265 27.3429C17.1944 27.375 17.1516 27.391 17.0982 27.391H14.8851C14.8316 27.391 14.7889 27.375 14.7568 27.3429C14.7247 27.3001 14.714 27.252 14.7247 27.1986L16.0558 16.3577C16.0665 16.3042 16.0878 16.2614 16.1199 16.2294C16.1627 16.1866 16.2108 16.1652 16.2642 16.1652H19.6159C20.4392 16.1652 21.086 16.4271 21.5564 16.951C22.0375 17.4749 22.2781 18.1752 22.2781 19.0518C22.2781 19.3084 22.2674 19.5062 22.246 19.6452C22.1712 20.2439 21.9947 20.7838 21.7168 21.2649C21.4495 21.7353 21.1074 22.1149 20.6904 22.4035C20.669 22.4142 20.653 22.4303 20.6423 22.4517C20.6316 22.4623 20.6316 22.4784 20.6423 22.4998L21.396 27.1665V27.1986C21.396 27.3269 21.3372 27.391 21.2196 27.391H18.9424ZM18.4613 18.4424C18.4185 18.4424 18.3865 18.4692 18.3651 18.5226L18.0924 20.7999C18.0924 20.8533 18.1138 20.88 18.1566 20.88H18.5896C18.9103 20.88 19.1723 20.7517 19.3754 20.4952C19.5785 20.2279 19.6801 19.8644 19.6801 19.4047C19.6801 19.0946 19.6106 18.8594 19.4716 18.699C19.3326 18.528 19.1402 18.4424 18.8943 18.4424H18.4613Z" fill="white"/>
<path d="M14.9376 18.25C14.9269 18.3035 14.9002 18.3516 14.8574 18.3943C14.8253 18.4264 14.7826 18.4424 14.7291 18.4424H11.6019C11.5592 18.4424 11.5271 18.4692 11.5057 18.5226L11.2651 20.5433C11.2651 20.5967 11.2865 20.6235 11.3293 20.6235H13.0452C13.0987 20.6235 13.1415 20.6448 13.1735 20.6876C13.2056 20.7197 13.2163 20.7624 13.2056 20.8159L12.9651 22.7243C12.9651 22.7777 12.9437 22.8258 12.9009 22.8686C12.8581 22.9007 12.81 22.9167 12.7566 22.9167H11.0567C11.0139 22.9167 10.9818 22.9434 10.9604 22.9969L10.7199 25.0336C10.6985 25.087 10.7199 25.1138 10.784 25.1138H13.9112C13.9647 25.1138 14.0074 25.1351 14.0395 25.1779C14.0716 25.21 14.0823 25.2528 14.0716 25.3062L13.8471 27.1986C13.8364 27.252 13.8097 27.3001 13.7669 27.3429C13.7241 27.375 13.676 27.391 13.6226 27.391H8.02571C7.97225 27.391 7.92948 27.375 7.89741 27.3429C7.86534 27.3001 7.85465 27.252 7.86534 27.1986L9.1964 16.3577C9.20709 16.3042 9.22847 16.2614 9.26054 16.2294C9.30331 16.1866 9.35142 16.1652 9.40487 16.1652H15.0017C15.1193 16.1652 15.1781 16.2294 15.1781 16.3577L14.9376 18.25Z" fill="white"/>
<path d="M2.13656 27.391C2.0831 27.391 2.04034 27.375 2.00826 27.3429C1.97619 27.3108 1.96015 27.2681 1.96015 27.2146L1.07812 16.3737C1.07812 16.2347 1.14227 16.1652 1.27057 16.1652H3.67609C3.7937 16.1652 3.8525 16.224 3.8525 16.3416L3.96476 22.7403C3.96476 22.7831 3.97545 22.8045 3.99683 22.8045C4.0289 22.7938 4.04494 22.7724 4.04494 22.7403L5.66466 16.3416C5.69673 16.224 5.77157 16.1652 5.88918 16.1652H8.23056C8.35885 16.1652 8.40162 16.2347 8.35885 16.3737L4.81471 27.2146C4.78263 27.3322 4.7078 27.391 4.59019 27.391H2.13656Z" fill="white"/>
<path d="M76.2271 11.3541C76.1095 11.3541 76.0507 11.2953 76.0507 11.1777L76.0186 9.78253C76.0293 9.76115 76.024 9.74512 76.0026 9.73442C75.9812 9.71304 75.9598 9.70235 75.9385 9.70235H74.2546C74.1904 9.70235 74.1584 9.72908 74.1584 9.78253L73.8056 11.1777C73.7735 11.2953 73.6987 11.3541 73.581 11.3541H71.368C71.2397 11.3541 71.1969 11.2847 71.2397 11.1457L74.8159 0.304763C74.848 0.187159 74.9228 0.128357 75.0404 0.128357H77.5742C77.7025 0.128357 77.7667 0.187159 77.7667 0.304763L78.6647 11.1457V11.1938C78.6647 11.3007 78.6059 11.3541 78.4883 11.3541H76.2271ZM74.7678 7.56945C74.7678 7.62291 74.7838 7.64964 74.8159 7.64964H75.8583C75.9117 7.64964 75.9385 7.62291 75.9385 7.56945L75.8262 3.91305C75.8262 3.87029 75.8155 3.8489 75.7941 3.8489C75.7728 3.8489 75.7514 3.87029 75.73 3.91305L74.7678 7.56945Z" fill="white"/>
<path d="M68.2432 11.3541C68.1256 11.3541 68.0614 11.3007 68.0507 11.1938L67.5215 6.94401C67.5108 6.90124 67.4841 6.87986 67.4413 6.87986H67.2168C67.1741 6.87986 67.142 6.90659 67.1206 6.96004L66.6074 11.1617C66.5967 11.2152 66.57 11.2633 66.5272 11.306C66.4952 11.3381 66.4524 11.3541 66.3989 11.3541H64.1859C64.1324 11.3541 64.0896 11.3381 64.0576 11.306C64.0255 11.2633 64.0148 11.2152 64.0255 11.1617L65.3566 0.320792C65.3672 0.267336 65.3886 0.224571 65.4207 0.192497C65.4635 0.149732 65.5116 0.128349 65.565 0.128349H68.9167C69.74 0.128349 70.3868 0.390285 70.8572 0.914155C71.3383 1.43802 71.5788 2.1383 71.5788 3.01498C71.5788 3.27157 71.5682 3.46936 71.5468 3.60834C71.4719 4.20705 71.2955 4.74696 71.0176 5.22807C70.7503 5.69848 70.4082 6.07802 69.9912 6.36668C69.9698 6.37737 69.9538 6.39341 69.9431 6.41479C69.9324 6.42548 69.9324 6.44152 69.9431 6.4629L70.6968 11.1296V11.1617C70.6968 11.29 70.638 11.3541 70.5204 11.3541H68.2432ZM67.7621 2.40558C67.7193 2.40558 67.6872 2.43231 67.6659 2.48577L67.3932 4.763C67.3932 4.81645 67.4146 4.84318 67.4574 4.84318H67.8904C68.2111 4.84318 68.473 4.71489 68.6762 4.4583C68.8793 4.19102 68.9809 3.82751 68.9809 3.36779C68.9809 3.05775 68.9114 2.82254 68.7724 2.66217C68.6334 2.49111 68.441 2.40558 68.1951 2.40558H67.7621Z" fill="white"/>
<path d="M60.7994 11.3541C60.6818 11.3541 60.623 11.2953 60.623 11.1777L60.5909 9.78253C60.6016 9.76114 60.5963 9.74511 60.5749 9.73442C60.5535 9.71303 60.5321 9.70234 60.5107 9.70234H58.8269C58.7627 9.70234 58.7306 9.72907 58.7306 9.78253L58.3778 11.1777C58.3458 11.2953 58.2709 11.3541 58.1533 11.3541H55.9402C55.8119 11.3541 55.7692 11.2846 55.8119 11.1457L59.3882 0.304755C59.4202 0.187151 59.4951 0.128349 59.6127 0.128349H62.1465C62.2748 0.128349 62.3389 0.187151 62.3389 0.304755L63.237 11.1457V11.1938C63.237 11.3007 63.1782 11.3541 63.0606 11.3541H60.7994ZM59.34 7.56944C59.34 7.6229 59.3561 7.64963 59.3882 7.64963H60.4305C60.484 7.64963 60.5107 7.6229 60.5107 7.56944L60.3985 3.91304C60.3985 3.87028 60.3878 3.8489 60.3664 3.8489C60.345 3.8489 60.3236 3.87028 60.3022 3.91304L59.34 7.56944Z" fill="white"/>
<path d="M54.2267 0.128349C55.0392 0.128349 55.6861 0.39563 56.1672 0.930191C56.6483 1.45406 56.8888 2.15968 56.8888 3.04706C56.8888 3.30364 56.8781 3.50143 56.8568 3.64042C56.7285 4.65608 56.3543 5.47396 55.7342 6.09405C55.1248 6.70345 54.3817 7.00815 53.5051 7.00815H52.4947C52.452 7.00815 52.4199 7.03488 52.3985 7.08834L51.9014 11.1617C51.8907 11.2152 51.864 11.2633 51.8212 11.306C51.7891 11.3381 51.7463 11.3541 51.6929 11.3541H49.4798C49.4264 11.3541 49.3836 11.3381 49.3515 11.306C49.3194 11.2633 49.3087 11.2152 49.3194 11.1617L50.6505 0.320792C50.6612 0.267336 50.6826 0.224571 50.7146 0.192497C50.7574 0.149732 50.8055 0.128349 50.859 0.128349H54.2267ZM53.1843 4.95544C53.5051 4.95544 53.767 4.8218 53.9701 4.55452C54.1733 4.27655 54.2748 3.89166 54.2748 3.39987C54.2748 3.07913 54.2053 2.83323 54.0663 2.66217C53.9274 2.49111 53.7349 2.40558 53.489 2.40558H53.056C53.0026 2.40558 52.9758 2.43231 52.9758 2.48577L52.6711 4.87526C52.6711 4.92871 52.6925 4.95544 52.7353 4.95544H53.1843Z" fill="white"/>
<path d="M43.0084 11.3541C42.8908 11.3541 42.832 11.2953 42.832 11.1777L42.7999 9.78253C42.8106 9.76114 42.8052 9.74511 42.7839 9.73442C42.7625 9.71303 42.7411 9.70234 42.7197 9.70234H41.0358C40.9717 9.70234 40.9396 9.72907 40.9396 9.78253L40.5868 11.1777C40.5547 11.2953 40.4799 11.3541 40.3623 11.3541H38.1492C38.0209 11.3541 37.9782 11.2846 38.0209 11.1457L41.5971 0.304755C41.6292 0.187151 41.704 0.128349 41.8217 0.128349H44.3555C44.4838 0.128349 44.5479 0.187151 44.5479 0.304755L45.446 11.1457V11.1938C45.446 11.3007 45.3872 11.3541 45.2696 11.3541H43.0084ZM41.549 7.56944C41.549 7.6229 41.5651 7.64963 41.5971 7.64963H42.6395C42.693 7.64963 42.7197 7.6229 42.7197 7.56944L42.6075 3.91304C42.6075 3.87028 42.5968 3.8489 42.5754 3.8489C42.554 3.8489 42.5326 3.87028 42.5112 3.91304L41.549 7.56944Z" fill="white"/>
<path d="M31.682 11.3541C31.6285 11.3541 31.5857 11.3381 31.5537 11.306C31.5216 11.2633 31.5109 11.2152 31.5216 11.1617L31.7621 9.20521C31.7621 9.16244 31.7728 9.11968 31.7942 9.07691C31.8156 9.02346 31.8316 8.98604 31.8423 8.96466L35.7874 2.50181C35.7981 2.46974 35.7981 2.44835 35.7874 2.43766C35.7767 2.41628 35.7607 2.40559 35.7393 2.40559H32.7725C32.719 2.40559 32.6762 2.38955 32.6442 2.35748C32.6121 2.31471 32.6014 2.2666 32.6121 2.21315L32.8526 0.3208C32.8526 0.267344 32.874 0.224578 32.9168 0.192504C32.9596 0.149739 33.0077 0.128357 33.0611 0.128357H38.658C38.7114 0.128357 38.7542 0.149739 38.7863 0.192504C38.8184 0.224578 38.829 0.267344 38.8184 0.3208L38.5778 2.27729C38.5671 2.35213 38.535 2.43232 38.4816 2.51785L34.5205 8.98069C34.4884 9.04484 34.5044 9.07691 34.5686 9.07691H37.5514C37.669 9.07691 37.7278 9.14106 37.7278 9.26936L37.4873 11.1617C37.4766 11.2152 37.4499 11.2633 37.4071 11.306C37.375 11.3381 37.3323 11.3541 37.2788 11.3541H31.682Z" fill="white"/>
<path d="M28.3226 11.3541C28.2691 11.3541 28.2264 11.3381 28.1943 11.306C28.1622 11.2633 28.1515 11.2152 28.1622 11.1617L29.4933 0.3208C29.504 0.267344 29.5253 0.224578 29.5574 0.192504C29.6002 0.149739 29.6483 0.128357 29.7018 0.128357H31.9148C31.9683 0.128357 32.0111 0.149739 32.0431 0.192504C32.0752 0.224578 32.0859 0.267344 32.0752 0.3208L30.7441 11.1617C30.7335 11.2152 30.7067 11.2633 30.664 11.306C30.6319 11.3381 30.5891 11.3541 30.5357 11.3541H28.3226Z" fill="white"/>
<path d="M21.5404 11.3541C21.4869 11.3541 21.4441 11.3381 21.4121 11.306C21.38 11.2633 21.3693 11.2152 21.38 11.1617L22.711 0.320792C22.7217 0.267336 22.7431 0.224571 22.7752 0.192497C22.818 0.149732 22.8661 0.128349 22.9195 0.128349H25.1326C25.1861 0.128349 25.2288 0.149732 25.2609 0.192497C25.293 0.224571 25.3037 0.267336 25.293 0.320792L24.2345 8.99672C24.2132 9.05018 24.2345 9.07691 24.2987 9.07691H27.474C27.5274 9.07691 27.5702 9.09829 27.6023 9.14105C27.6344 9.17313 27.645 9.21589 27.6344 9.26935L27.3938 11.1617C27.3938 11.2152 27.3724 11.2633 27.3297 11.306C27.2869 11.3381 27.2388 11.3541 27.1853 11.3541H21.5404Z" fill="white"/>
<path d="M17.3014 11.4824C16.4247 11.4824 15.7298 11.2525 15.2166 10.7928C14.7141 10.3224 14.4629 9.70229 14.4629 8.93252C14.4629 8.8363 14.4736 8.69197 14.495 8.49952L14.5431 8.00238C14.5538 7.94893 14.5805 7.90616 14.6233 7.87409C14.666 7.83132 14.7141 7.80994 14.7676 7.80994H16.9326C17.0502 7.80994 17.109 7.87409 17.109 8.00238L17.0609 8.37123L17.0448 8.5316C17.0448 8.73473 17.0929 8.90044 17.1892 9.02874C17.2961 9.14634 17.4297 9.20514 17.5901 9.20514C17.7932 9.20514 17.9643 9.12496 18.1033 8.96459C18.2529 8.79353 18.3278 8.57436 18.3278 8.30708C18.3278 8.10395 18.2422 7.90616 18.0712 7.71372C17.9108 7.52128 17.5954 7.23261 17.125 6.84773C16.676 6.48423 16.3178 6.16884 16.0505 5.90156C15.7833 5.63428 15.5481 5.30819 15.3449 4.92331C15.1525 4.52773 15.0563 4.0787 15.0563 3.57621C15.0563 2.88128 15.2113 2.26119 15.5213 1.71594C15.8314 1.17069 16.259 0.748386 16.8043 0.449031C17.3495 0.149677 17.9643 0 18.6485 0C19.5145 0 20.2041 0.245898 20.7173 0.737694C21.2304 1.2188 21.487 1.86562 21.487 2.67815C21.487 2.77437 21.4763 2.9294 21.455 3.14322L21.4068 3.5281C21.3962 3.58156 21.3694 3.62967 21.3267 3.67244C21.2839 3.70451 21.2358 3.72055 21.1823 3.72055H19.0334C18.9158 3.72055 18.857 3.6564 18.857 3.5281L18.9211 3.07907C18.9425 2.84387 18.8997 2.65142 18.7928 2.50175C18.6966 2.35207 18.5523 2.27723 18.3598 2.27723C18.1567 2.27723 17.9803 2.36811 17.8306 2.54986C17.6916 2.73161 17.6221 2.96147 17.6221 3.23944C17.6221 3.46396 17.7023 3.68313 17.8627 3.89695C18.0338 4.10008 18.3385 4.3834 18.7768 4.7469C19.3221 5.20663 19.7283 5.58082 19.9956 5.86948C20.2736 6.14745 20.4927 6.45215 20.6531 6.78358C20.8242 7.10432 20.9097 7.47317 20.9097 7.89012C20.9097 7.97565 20.899 8.12533 20.8776 8.33916C20.76 9.30137 20.3698 10.0658 19.7069 10.6324C19.0548 11.1991 18.2529 11.4824 17.3014 11.4824Z" fill="white"/>
<path d="M14.5157 2.21315C14.505 2.2666 14.4783 2.31471 14.4355 2.35748C14.4035 2.38955 14.3607 2.40559 14.3072 2.40559H11.18C11.1373 2.40559 11.1052 2.43232 11.0838 2.48577L10.8433 4.50642C10.8433 4.55987 10.8647 4.5866 10.9074 4.5866H12.6234C12.6768 4.5866 12.7196 4.60798 12.7517 4.65075C12.7837 4.68282 12.7944 4.72558 12.7837 4.77904L12.5432 6.68743C12.5432 6.74088 12.5218 6.78899 12.479 6.83176C12.4363 6.86383 12.3882 6.87987 12.3347 6.87987H10.6348C10.592 6.87987 10.56 6.9066 10.5386 6.96005L10.298 8.99673C10.2766 9.05019 10.298 9.07691 10.3622 9.07691H13.4894C13.5428 9.07691 13.5856 9.0983 13.6176 9.14106C13.6497 9.17314 13.6604 9.2159 13.6497 9.26936L13.4252 11.1617C13.4145 11.2152 13.3878 11.2633 13.345 11.306C13.3023 11.3381 13.2541 11.3541 13.2007 11.3541H7.60383C7.55038 11.3541 7.50761 11.3381 7.47554 11.306C7.44346 11.2633 7.43277 11.2152 7.44346 11.1617L8.77452 0.3208C8.78521 0.267344 8.80659 0.224578 8.83867 0.192504C8.88143 0.149739 8.92954 0.128357 8.983 0.128357H14.5799C14.6975 0.128357 14.7563 0.192505 14.7563 0.3208L14.5157 2.21315Z" fill="white"/>
<path d="M0.164378 11.3541C0.110921 11.3541 0.0681566 11.3381 0.0360829 11.306C0.0040092 11.2633 -0.00668202 11.2152 0.00400921 11.1617L1.33507 0.3208C1.34576 0.267344 1.36714 0.224578 1.39921 0.192504C1.44198 0.149739 1.49009 0.128357 1.54355 0.128357H4.51036C5.42981 0.128357 6.15146 0.36891 6.67533 0.850015C7.19921 1.33112 7.46114 1.98863 7.46114 2.82255C7.46114 2.91877 7.45045 3.07379 7.42907 3.28762L6.81967 8.19489C6.70206 9.14641 6.30649 9.91083 5.63294 10.4882C4.97008 11.0655 4.13617 11.3541 3.13119 11.3541H0.164378ZM2.85857 8.99673C2.83718 9.05019 2.85857 9.07691 2.92271 9.07691L3.35571 9.06088C3.58022 9.05019 3.77801 8.95397 3.94907 8.77221C4.12013 8.57977 4.22704 8.32853 4.26981 8.01848L4.81506 3.46402C4.82575 3.41056 4.8311 3.33573 4.8311 3.2395C4.8311 2.98291 4.76695 2.77978 4.63866 2.6301C4.52105 2.48043 4.36068 2.40559 4.15755 2.40559H3.74059C3.69783 2.40559 3.66575 2.43232 3.64437 2.48577L2.85857 8.99673Z" fill="white"/>
</svg>
