<svg width="32" height="23" viewBox="0 0 32 23" fill="none" xmlns="http://www.w3.org/2000/svg">
<path d="M32 11.075C32 10.4875 31.7528 9.925 31.3234 9.5125L22.0853 0.65C21.6559 0.2375 21.0704 0 20.4589 0H11.5281C10.9166 0 10.3311 0.2375 9.9017 0.65L0.663583 9.525C0.247217 9.925 0 10.4875 0 11.075V11.9125C0 12.5 0.247217 13.0625 0.676594 13.475L9.9017 22.35C10.3311 22.7625 10.9166 23 11.5281 23H20.4719C21.0834 23 21.6689 22.7625 22.0983 22.35L31.3234 13.475C31.7528 13.0625 32 12.5 32 11.9125V11.075Z" fill="#4BBF2E"/>
</svg>
