<svg width="23" height="23" viewBox="0 0 23 23" fill="none" xmlns="http://www.w3.org/2000/svg">
<path d="M9.27441 0.508789C9.45242 0.478959 9.58772 0.522573 9.71973 0.632812C9.87833 0.765321 9.96233 0.932921 9.96191 1.1875V1.18848C9.96191 1.36143 9.91475 1.50354 9.82324 1.63086C9.74412 1.74084 9.64049 1.81178 9.48438 1.8457L9.58398 2.30859L9.58301 2.30566L9.4834 1.8457L9.47754 1.84766C7.23681 2.36253 5.39463 3.52077 3.96777 5.31348C2.54002 7.10734 1.8252 9.1759 1.8252 11.5C1.8252 13.8241 2.54002 15.8927 3.96777 17.6865C5.39463 19.4792 7.23681 20.6375 9.47754 21.1523L9.48438 21.1543C9.64049 21.1882 9.74412 21.2592 9.82324 21.3691C9.91475 21.4965 9.96191 21.6386 9.96191 21.8115C9.96183 22.0669 9.87798 22.2356 9.71973 22.3682C9.58878 22.4778 9.45332 22.5212 9.27441 22.4912L9.17773 22.4697L8.70703 22.3516C6.37728 21.721 4.4571 20.4513 2.93359 18.5332C1.3093 16.4882 0.499256 14.15 0.5 11.5C0.500772 8.84999 1.31108 6.51177 2.93457 4.4668C4.55874 2.42104 6.63459 1.11207 9.17773 0.530273L9.27441 0.508789ZM17.2314 19.75C17.3819 19.7725 17.5118 19.8372 17.6318 19.959L17.6328 19.96C17.805 20.1342 17.8615 20.3063 17.8398 20.5098C17.8175 20.7189 17.7266 20.8771 17.5381 21.0107C17.0024 21.3461 16.4441 21.6354 15.8623 21.8779C15.2755 22.1226 14.6757 22.3202 14.0625 22.4707L14.0527 22.4736C13.8343 22.5317 13.6792 22.4937 13.5293 22.3682C13.371 22.2355 13.2869 22.0667 13.2861 21.8115C13.2861 21.6385 13.3333 21.4965 13.4248 21.3691C13.504 21.2591 13.6075 21.1882 13.7637 21.1543L13.7676 21.1533C14.3189 21.0295 14.8558 20.8588 15.377 20.6416C15.8999 20.4237 16.3972 20.1598 16.8682 19.8496L16.8789 19.8418L16.8896 19.835C16.9961 19.7567 17.1001 19.7304 17.2314 19.75ZM21.8242 13.2041C22.071 13.2042 22.2356 13.2863 22.3672 13.4473C22.4776 13.5824 22.5214 13.7234 22.4912 13.9072L22.4736 13.9883L22.4707 13.998C22.3217 14.6195 22.1261 15.2275 21.8838 15.8213C21.6443 16.4082 21.3591 16.9712 21.0283 17.5107C20.8935 17.7063 20.7372 17.7962 20.5352 17.8184C20.3407 17.8396 20.1727 17.7854 19.999 17.6104C19.8782 17.4879 19.8127 17.3548 19.79 17.2002C19.7701 17.0641 19.7968 16.9542 19.876 16.8438L19.8838 16.834L19.8906 16.8242C20.199 16.3462 20.4603 15.8371 20.6758 15.2988C20.8897 14.7644 21.0573 14.2191 21.1787 13.6631L21.1797 13.6602C21.2137 13.4998 21.2827 13.4044 21.3809 13.3369C21.5065 13.2507 21.6491 13.2048 21.8242 13.2041ZM11.5957 6.125C11.795 6.12452 11.9419 6.18669 12.0684 6.31445C12.195 6.44249 12.2578 6.59297 12.2568 6.79785V14.0381L13.1123 13.1738L15.2627 11C15.4015 10.8596 15.555 10.796 15.75 10.7959C15.9452 10.7959 16.0984 10.8596 16.2373 11C16.373 11.1371 16.4333 11.2887 16.4277 11.4863C16.4234 11.6413 16.3831 11.7714 16.3027 11.8877L16.209 12L12.0527 16.2012C11.9422 16.3128 11.8032 16.376 11.5947 16.376C11.4383 16.376 11.3211 16.3403 11.2256 16.2754L11.1367 16.2012L6.92383 11.9131L6.92285 11.9121C6.78397 11.7717 6.72716 11.6239 6.73242 11.4414C6.73799 11.2492 6.80546 11.0898 6.95215 10.9414C7.0952 10.7968 7.24438 10.736 7.42383 10.7363C7.55976 10.7367 7.67842 10.7712 7.78906 10.8486L7.89844 10.9414L10.0742 13.1709L10.9326 14.0498V6.7998C10.9326 6.59139 10.997 6.44142 11.1221 6.31543C11.2478 6.18879 11.3946 6.12555 11.5957 6.125ZM20.5352 5.18164C20.7038 5.20005 20.8454 5.2713 20.9717 5.43555L21.0244 5.51172C21.357 6.05425 21.6433 6.62048 21.8838 7.20996C22.126 7.80372 22.3217 8.41069 22.4707 9.03125L22.4736 9.04102C22.5324 9.2669 22.493 9.42901 22.3672 9.58301C22.2358 9.74373 22.0716 9.82564 21.8252 9.8252H21.8242C21.6567 9.8252 21.5185 9.77928 21.3936 9.6875C21.2855 9.60809 21.214 9.50181 21.1797 9.33984L21.1787 9.33594C21.0564 8.77955 20.8884 8.23831 20.6738 7.71289C20.4585 7.18574 20.197 6.68312 19.8906 6.20605L19.8877 6.20117L19.8311 6.09961C19.7861 5.99909 19.7751 5.90236 19.79 5.80078C19.8128 5.64598 19.8785 5.51224 20 5.38867C20.1724 5.21447 20.3396 5.16031 20.5352 5.18164ZM13.9736 0.508789L14.0527 0.526367L14.0625 0.529297C14.6764 0.67977 15.2765 0.877444 15.8633 1.12207C16.4453 1.36473 17.004 1.65368 17.5391 1.98926H17.54C17.7551 2.12998 17.8467 2.2906 17.8682 2.49121C17.8872 2.66931 17.8471 2.82292 17.7217 2.97461L17.6621 3.04004C17.5408 3.16266 17.4103 3.22754 17.2607 3.25C17.1314 3.26939 17.0089 3.24523 16.8721 3.15332L16.8682 3.15137L16.5098 2.92676C16.1464 2.71088 15.7688 2.52097 15.377 2.35742C14.8561 2.14004 14.319 1.96977 13.7666 1.84668L13.7637 1.8457C13.6075 1.8118 13.504 1.74088 13.4248 1.63086C13.3333 1.50352 13.2861 1.36147 13.2861 1.18848C13.2862 0.933593 13.3704 0.765562 13.5293 0.632812C13.6615 0.522414 13.7965 0.47903 13.9736 0.508789Z" fill="#313131" stroke="black"/>
</svg>
