<svg width="23" height="23" viewBox="0 0 23 23" fill="none" xmlns="http://www.w3.org/2000/svg">
<path d="M9.06667 22.9568C6.41254 22.3497 4.2377 20.9788 2.54215 18.8441C0.84661 16.7094 -0.000774398 14.2614 5.31016e-07 11.5C0.00077546 8.73862 0.848548 6.29058 2.54332 4.1559C4.23809 2.02121 6.41254 0.650313 9.06667 0.0432006C9.43476 -0.0547207 9.75945 0.0138241 10.0408 0.248835C10.3221 0.483847 10.4623 0.797195 10.4615 1.18888C10.4615 1.46306 10.384 1.70786 10.2291 1.92329C10.0741 2.13872 9.86097 2.27581 9.58974 2.33456C7.45869 2.82417 5.7151 3.92089 4.35897 5.62472C3.00285 7.32855 2.32479 9.28698 2.32479 11.5C2.32479 13.713 3.00285 15.6715 4.35897 17.3753C5.7151 19.0791 7.45869 20.1758 9.58974 20.6654C9.86097 20.7242 10.0741 20.8613 10.2291 21.0767C10.384 21.2921 10.4615 21.5369 10.4615 21.8111C10.4615 22.2028 10.3213 22.5162 10.0408 22.7512C9.76023 22.9862 9.43553 23.0547 9.06667 22.9568ZM14.1812 22.9568C13.8131 23.0547 13.4888 22.9862 13.2083 22.7512C12.9277 22.5162 12.7871 22.2028 12.7863 21.8111C12.7863 21.5369 12.8638 21.2921 13.0188 21.0767C13.1738 20.8613 13.3869 20.7242 13.6581 20.6654C14.1812 20.5479 14.6899 20.3862 15.1843 20.1801C15.6787 19.9741 16.1484 19.7246 16.5932 19.4316C16.8063 19.275 17.0438 19.2162 17.3057 19.2554C17.5676 19.2945 17.7951 19.412 17.988 19.6079C18.2593 19.8821 18.3755 20.2005 18.3368 20.5632C18.298 20.9259 18.1236 21.2146 17.8137 21.4292C17.2519 21.7817 16.6656 22.0853 16.055 22.3399C15.4443 22.5945 14.8197 22.8001 14.1812 22.9568ZM19.6444 17.9628C19.4507 17.767 19.3345 17.537 19.2957 17.2731C19.257 17.0091 19.3151 16.769 19.4701 16.5527C19.7607 16.1023 20.0079 15.6225 20.2117 15.1133C20.4155 14.6041 20.5751 14.0851 20.6906 13.5563C20.7487 13.2822 20.8843 13.0718 21.0974 12.9253C21.3105 12.7789 21.5527 12.7052 21.8239 12.7044C22.2114 12.7044 22.5214 12.8466 22.7538 13.131C22.9863 13.4153 23.0541 13.7432 22.9573 14.1145C22.8023 14.7608 22.5989 15.3926 22.347 16.0099C22.0952 16.6272 21.7949 17.2194 21.4462 17.7866C21.233 18.0999 20.9475 18.2762 20.5895 18.3153C20.2315 18.3545 19.9164 18.237 19.6444 17.9628ZM21.8239 10.3249C21.5527 10.3249 21.3105 10.2466 21.0974 10.0899C20.8843 9.93326 20.7487 9.71783 20.6906 9.44365C20.5744 8.91488 20.4143 8.40098 20.2105 7.90198C20.0067 7.40297 19.7599 6.92786 19.4701 6.47663C19.3151 6.24162 19.257 5.99212 19.2957 5.72812C19.3345 5.46413 19.4507 5.23382 19.6444 5.03719C19.9157 4.76301 20.2307 4.6455 20.5895 4.68467C20.9483 4.72384 21.2338 4.90989 21.4462 5.24283C21.7949 5.81077 22.0952 6.40339 22.347 7.02068C22.5989 7.63798 22.8023 8.26938 22.9573 8.91488C23.0541 9.28698 22.9863 9.61521 22.7538 9.89957C22.5214 10.1839 22.2114 10.3257 21.8239 10.3249ZM16.5932 3.56837C16.1476 3.27461 15.678 3.02471 15.1843 2.81868C14.6907 2.61266 14.182 2.45128 13.6581 2.33456C13.3869 2.27581 13.1738 2.13872 13.0188 1.92329C12.8638 1.70786 12.7863 1.46306 12.7863 1.18888C12.7863 0.797195 12.927 0.483847 13.2083 0.248835C13.4896 0.0138241 13.8139 -0.0547207 14.1812 0.0432006C14.8205 0.199875 15.4455 0.40551 16.0561 0.660105C16.6668 0.914701 17.2526 1.21826 17.8137 1.57077C18.143 1.7862 18.3271 2.07526 18.3658 2.43797C18.4046 2.80067 18.2883 3.11871 18.0171 3.39211C17.8234 3.58795 17.5959 3.70546 17.3348 3.74463C17.0736 3.7838 16.8264 3.72504 16.5932 3.56837ZM12.7573 12.8219L14.9077 10.6481C15.1402 10.4131 15.4211 10.2956 15.7504 10.2956C16.0798 10.2956 16.3607 10.4131 16.5932 10.6481C16.8256 10.8831 16.9372 11.1671 16.9279 11.5C16.9186 11.8329 16.7974 12.1169 16.5641 12.3519L12.4085 16.5527C12.1954 16.7682 11.9242 16.8759 11.5949 16.8759C11.2655 16.8759 10.9943 16.7682 10.7812 16.5527L6.56752 12.2638C6.33504 12.0288 6.22345 11.7499 6.23275 11.4271C6.24205 11.1044 6.36333 10.8251 6.59658 10.5893C6.82983 10.3535 7.1061 10.236 7.42537 10.2368C7.74464 10.2376 8.02051 10.3551 8.25299 10.5893L10.4325 12.8219V6.79977C10.4325 6.46684 10.5441 6.18796 10.7672 5.96313C10.9904 5.73831 11.2663 5.6255 11.5949 5.62472C11.9234 5.62393 12.1997 5.73674 12.4237 5.96313C12.6476 6.18953 12.7588 6.46841 12.7573 6.79977V12.8219Z" fill="#313131"/>
</svg>
