<svg width="41" height="40" viewBox="0 0 41 40" fill="none" xmlns="http://www.w3.org/2000/svg">
<path d="M32.9856 10.7697C32.9856 10.7697 32.9856 10.7697 32.9856 10.6093L32.8683 10.3086C32.8275 10.2448 32.7818 10.1845 32.7315 10.1282C32.6792 10.0433 32.6204 9.96287 32.5556 9.88761L32.3797 9.74728L32.067 9.5869L17.4088 0.304733C17.0982 0.105592 16.7393 0 16.373 0C16.0067 0 15.6477 0.105592 15.3371 0.304733L0.796178 9.5869L0.62028 9.74728L0.444381 9.88761C0.379594 9.96287 0.320774 10.0433 0.268483 10.1282C0.218238 10.1845 0.172487 10.2448 0.131673 10.3086L0.014407 10.6093C0.014407 10.6093 0.014407 10.6093 0.014407 10.7697C-0.00480232 10.9429 -0.00480232 11.1178 0.014407 11.291V28.8128C0.0137423 29.1535 0.0977362 29.4888 0.258459 29.7869C0.419181 30.0851 0.65133 30.3363 0.932988 30.5169L15.5912 39.799C15.6814 39.8562 15.7806 39.8969 15.8844 39.9193C15.8844 39.9193 15.9821 39.9193 16.0407 39.9193C16.3714 40.0269 16.7264 40.0269 17.057 39.9193C17.057 39.9193 17.1547 39.9193 17.2134 39.9193C17.3171 39.8969 17.4163 39.8562 17.5065 39.799L32.067 30.5169C32.3487 30.3363 32.5808 30.0851 32.7415 29.7869C32.9023 29.4888 32.9863 29.1535 32.9856 28.8128V11.291C33.0048 11.1178 33.0048 10.9429 32.9856 10.7697ZM14.4772 34.5064L3.72782 27.6901V14.8996L14.4772 21.6958V34.5064ZM16.4316 18.2275L5.4868 11.291L16.4316 4.37445L27.3764 11.291L16.4316 18.2275ZM29.1354 27.6901L18.386 34.5064V21.6958L29.1354 14.8996V27.6901Z" fill="#313131"/>
<circle cx="29" cy="28" r="11" fill="white"/>
<path d="M29 40C22.4 40 17 34.6 17 28C17 21.4 22.4 16 29 16C35.6 16 41 21.4 41 28C41 34.6 35.6 40 29 40ZM29 18C23.5 18 19 22.5 19 28C19 33.5 23.5 38 29 38C34.5 38 39 33.5 39 28C39 22.5 34.5 18 29 18Z" fill="#4BBF2E"/>
<path d="M27 33C26.7 33 26.5 32.88 26.3 32.64L23.3 29.04C22.9 28.56 22.9 27.84 23.3 27.36C23.7 26.88 24.3 26.88 24.7 27.36L27.7 30.96C28.1 31.44 28.1 32.16 27.7 32.64C27.5 32.88 27.3 33 27 33Z" fill="#4BBF2E"/>
<path d="M27.125 33C26.7875 33 26.5625 32.8875 26.3375 32.6625C25.8875 32.2125 25.8875 31.5375 26.3375 31.0875L33.0875 24.3375C33.5375 23.8875 34.2125 23.8875 34.6625 24.3375C35.1125 24.7875 35.1125 25.4625 34.6625 25.9125L27.9125 32.6625C27.6875 32.8875 27.4625 33 27.125 33Z" fill="#4BBF2E"/>
</svg>
