<svg width="41" height="40" viewBox="0 0 41 40" fill="none" xmlns="http://www.w3.org/2000/svg">
<path d="M32.9856 10.7697C32.9856 10.7697 32.9856 10.7697 32.9856 10.6093L32.8683 10.3086C32.8275 10.2448 32.7818 10.1845 32.7315 10.1282C32.6792 10.0433 32.6204 9.96287 32.5556 9.88761L32.3797 9.74728L32.067 9.5869L17.4088 0.304733C17.0982 0.105592 16.7393 0 16.373 0C16.0067 0 15.6477 0.105592 15.3371 0.304733L0.796178 9.5869L0.62028 9.74728L0.444381 9.88761C0.379594 9.96287 0.320774 10.0433 0.268483 10.1282C0.218238 10.1845 0.172487 10.2448 0.131673 10.3086L0.014407 10.6093C0.014407 10.6093 0.014407 10.6093 0.014407 10.7697C-0.00480232 10.9429 -0.00480232 11.1178 0.014407 11.291V28.8128C0.0137423 29.1535 0.0977362 29.4888 0.258459 29.7869C0.419181 30.0851 0.65133 30.3363 0.932988 30.5169L15.5912 39.799C15.6814 39.8562 15.7806 39.8969 15.8844 39.9193C15.8844 39.9193 15.9821 39.9193 16.0407 39.9193C16.3714 40.0269 16.7264 40.0269 17.057 39.9193C17.057 39.9193 17.1547 39.9193 17.2134 39.9193C17.3171 39.8969 17.4163 39.8562 17.5065 39.799L32.067 30.5169C32.3487 30.3363 32.5808 30.0851 32.7415 29.7869C32.9023 29.4888 32.9863 29.1535 32.9856 28.8128V11.291C33.0048 11.1178 33.0048 10.9429 32.9856 10.7697ZM14.4772 34.5064L3.72782 27.6901V14.8996L14.4772 21.6958V34.5064ZM16.4316 18.2275L5.4868 11.291L16.4316 4.37445L27.3764 11.291L16.4316 18.2275ZM29.1354 27.6901L18.386 34.5064V21.6958L29.1354 14.8996V27.6901Z" fill="#313131"/>
<path d="M28.386 20.5C29.0224 20.5 29.5002 20.977 29.5003 21.6133L29.5002 28C29.5002 28.0172 29.4987 28.0341 29.4983 28.0508L33.0004 34C33.1803 34.2623 33.2497 34.5042 33.1879 34.8359C33.1262 35.1675 32.9744 35.3679 32.7123 35.5479C32.1876 35.9079 31.5236 35.7845 31.1635 35.2598L27.4856 29.0557C27.3086 28.7978 27.2733 28.3516 27.2733 28.3516C27.2586 28.2767 27.2727 28.0806 27.2727 28L27.2727 21.6133C27.2728 20.9771 27.7498 20.5001 28.386 20.5Z" fill="#D97B00"/>
<path d="M18.3691 38.9918L28.8651 19.369L39.8174 38.9918H18.3691Z" fill="white"/>
<path d="M39.9544 39.8589H18.0456C17.6473 39.8589 17.3485 39.6598 17.1494 39.361C16.9502 39.0622 16.9502 38.6639 17.1494 38.3651L28.1037 18.4481C28.5021 17.8506 29.4979 17.8506 29.8963 18.4481L40.8506 38.3651C41.0498 38.6639 41.0498 39.0622 40.8506 39.361C40.6515 39.6598 40.3527 39.8589 39.9544 39.8589ZM19.7386 37.8672H38.2614L29 21.0373L19.7386 37.8672Z" fill="#FFDA00"/>
<path d="M28.9998 32.8879C28.4022 32.8879 28.0039 32.4896 28.0039 31.8921V26.9128C28.0039 26.3153 28.4022 25.917 28.9998 25.917C29.5973 25.917 29.9956 26.3153 29.9956 26.9128V31.8921C29.9956 32.4896 29.5973 32.8879 28.9998 32.8879Z" fill="#FFDA00"/>
<path d="M28.9998 35.8755C29.5497 35.8755 29.9956 35.4296 29.9956 34.8796C29.9956 34.3296 29.5497 33.8838 28.9998 33.8838C28.4498 33.8838 28.0039 34.3296 28.0039 34.8796C28.0039 35.4296 28.4498 35.8755 28.9998 35.8755Z" fill="#FFDA00"/>
<path d="M28.9996 36.3734C28.203 36.3734 27.5059 35.6763 27.5059 34.8796C27.5059 34.083 28.203 33.3859 28.9996 33.3859C29.7963 33.3859 30.4934 34.083 30.4934 34.8796C30.4934 35.6763 29.7963 36.3734 28.9996 36.3734ZM28.9996 34.3817C28.7009 34.3817 28.5017 34.5809 28.5017 34.8796C28.5017 35.1784 28.7009 35.3776 28.9996 35.3776C29.2984 35.3776 29.4976 35.1784 29.4976 34.8796C29.4976 34.5809 29.2984 34.3817 28.9996 34.3817Z" fill="#FFDA00"/>
</svg>
