<svg width="41" height="40" viewBox="0 0 41 40" fill="none" xmlns="http://www.w3.org/2000/svg">
<path d="M32.9856 10.7697C32.9856 10.7697 32.9856 10.7697 32.9856 10.6093L32.8683 10.3086C32.8275 10.2448 32.7818 10.1845 32.7315 10.1282C32.6792 10.0433 32.6204 9.96287 32.5556 9.88761L32.3797 9.74728L32.067 9.5869L17.4088 0.304733C17.0982 0.105592 16.7393 0 16.373 0C16.0067 0 15.6477 0.105592 15.3371 0.304733L0.796178 9.5869L0.62028 9.74728L0.444381 9.88761C0.379594 9.96287 0.320774 10.0433 0.268483 10.1282C0.218238 10.1845 0.172487 10.2448 0.131673 10.3086L0.014407 10.6093C0.014407 10.6093 0.014407 10.6093 0.014407 10.7697C-0.00480232 10.9429 -0.00480232 11.1178 0.014407 11.291V28.8128C0.0137423 29.1535 0.0977362 29.4888 0.258459 29.7869C0.419181 30.0851 0.65133 30.3363 0.932988 30.5169L15.5912 39.799C15.6814 39.8562 15.7806 39.8969 15.8844 39.9193C15.8844 39.9193 15.9821 39.9193 16.0407 39.9193C16.3714 40.0269 16.7264 40.0269 17.057 39.9193C17.057 39.9193 17.1547 39.9193 17.2134 39.9193C17.3171 39.8969 17.4163 39.8562 17.5065 39.799L32.067 30.5169C32.3487 30.3363 32.5808 30.0851 32.7415 29.7869C32.9023 29.4888 32.9863 29.1535 32.9856 28.8128V11.291C33.0048 11.1178 33.0048 10.9429 32.9856 10.7697ZM14.4772 34.5064L3.72782 27.6901V14.8996L14.4772 21.6958V34.5064ZM16.4316 18.2275L5.4868 11.291L16.4316 4.37445L27.3764 11.291L16.4316 18.2275ZM29.1354 27.6901L18.386 34.5064V21.6958L29.1354 14.8996V27.6901Z" fill="#313131"/>
<path d="M30.1474 36.131C29.2745 36.131 28.5107 35.3672 28.5107 34.4943C28.5107 33.6214 29.2745 32.8577 30.1474 32.8577C31.0203 32.8577 31.7841 33.6214 31.7841 34.4943C31.7841 35.3672 31.0203 36.131 30.1474 36.131ZM30.1474 33.9488C29.8201 33.9488 29.6019 34.167 29.6019 34.4943C29.6019 34.8217 29.8201 35.0399 30.1474 35.0399C30.4748 35.0399 30.693 34.8217 30.693 34.4943C30.693 34.167 30.4748 33.9488 30.1474 33.9488Z" fill="#D12222"/>
<circle cx="29" cy="28" r="11" fill="white"/>
<g clip-path="url(#clip0_1734_125)">
<path d="M30.3617 28L33.7229 24.6458C34.0993 24.2696 34.0993 23.6583 33.7229 23.2821C33.3466 22.906 32.735 22.906 32.3586 23.2821L29.0026 26.6364L25.6466 23.2821C25.2703 22.906 24.6587 22.906 24.2823 23.2821C23.9059 23.6583 23.9059 24.2696 24.2823 24.6458L27.6383 28L24.2823 31.3542C23.9059 31.7304 23.9059 32.3417 24.2823 32.7179C24.4705 32.906 24.7162 33 24.9618 33C25.2075 33 25.4532 32.906 25.6414 32.7179L28.9974 29.3636L32.3534 32.7179C32.5416 32.906 32.7872 33 33.0329 33C33.2786 33 33.5243 32.906 33.7125 32.7179C34.0889 32.3417 34.0889 31.7304 33.7125 31.3542L30.3617 28Z" fill="#D12222"/>
</g>
<path d="M29 40C22.4 40 17 34.6 17 28C17 21.4 22.4 16 29 16C35.6 16 41 21.4 41 28C41 34.6 35.6 40 29 40ZM29 18C23.5 18 19 22.5 19 28C19 33.5 23.5 38 29 38C34.5 38 39 33.5 39 28C39 22.5 34.5 18 29 18Z" fill="#D12222"/>
<defs>
<clipPath id="clip0_1734_125">
<rect width="10" height="10" fill="white" transform="translate(24 23)"/>
</clipPath>
</defs>
</svg>
