<svg width="24" height="24" viewBox="0 0 24 24" fill="none" xmlns="http://www.w3.org/2000/svg">
<path d="M2.55371 21.0526C1.76219 21.0526 1.02031 20.7105 0.53418 20.0721C0.191563 19.6235 0.00424974 19.0931 2.21204e-07 18.5223L1.74803e-06 1.05749C1.77308e-06 0.770949 0.116739 0.517882 0.303713 0.3114C0.429968 0.173628 0.596291 0.0899603 0.772463 0.0447981C0.776813 0.0435049 0.780821 0.0411303 0.785158 0.0399153C0.860104 0.0185587 0.941887 0.00825334 1.02539 0.00573565C1.02987 0.00548197 1.03459 0.00399424 1.03906 0.00378252C1.04749 0.00337626 1.05597 0.00485445 1.06445 0.00475909C1.07942 0.00483729 1.09437 0.00505473 1.10938 0.00573565C1.12625 0.00659015 1.14314 0.00767543 1.16016 0.00964191C1.31332 0.0235675 1.46441 0.0676845 1.58496 0.145384C1.70753 0.223337 1.83056 0.302784 1.95313 0.380736C2.65081 0.827181 3.3468 1.27555 4.04395 1.72253C4.86407 1.19737 5.68259 0.670319 6.50293 0.145385C6.80624 -0.0483696 7.24849 -0.0484268 7.55176 0.145385C7.67411 0.223204 7.7966 0.302915 7.91895 0.380736C8.61671 0.827231 9.31352 1.2755 10.0107 1.72253C10.8307 1.1975 11.6486 0.670202 12.4688 0.145385C12.7721 -0.0484549 13.2152 -0.0484549 13.5186 0.145385C13.6409 0.223207 13.7634 0.302917 13.8857 0.380737C14.5836 0.82727 15.2803 1.27546 15.9775 1.72253C16.7975 1.1975 17.6154 0.670202 18.4355 0.145386C18.7471 -0.0547391 19.1728 -0.0399323 19.4844 0.145386C19.8002 0.332905 20 0.684719 20 1.05554L20 18.4169C20 18.9372 19.8937 19.4723 19.5967 19.9042C19.2227 20.4456 18.6701 20.8905 17.9971 20.9979C17.8143 21.0274 17.6291 21.0526 17.4443 21.0526L2.55371 21.0526ZM17.5391 18.952C17.5769 18.9432 17.6143 18.9335 17.6514 18.9218C17.686 18.9029 17.7199 18.8835 17.7529 18.8622C17.7773 18.839 17.8013 18.8156 17.8242 18.7909C17.8455 18.7569 17.8649 18.7219 17.8838 18.6864C17.8959 18.6472 17.906 18.6075 17.915 18.5673C17.9156 18.5481 17.916 18.5289 17.916 18.5096L17.916 2.97058C17.4428 3.27435 16.9689 3.57754 16.4951 3.88074C16.1918 4.07447 15.7496 4.07447 15.4463 3.88074C15.3237 3.80278 15.2007 3.72237 15.0781 3.64441C14.381 3.1983 13.6849 2.75121 12.9883 2.30456C12.1681 2.82974 11.3487 3.35578 10.5283 3.88074C10.225 4.07438 9.78271 4.07451 9.47949 3.88074C9.35699 3.80282 9.23481 3.72232 9.11231 3.64441C8.41497 3.19819 7.71828 2.75133 7.02149 2.30456C6.20147 2.82966 5.38274 3.35587 4.5625 3.88074C4.25919 4.07458 3.81601 4.07458 3.5127 3.88074C3.3902 3.80282 3.268 3.72232 3.14551 3.64441C2.78919 3.4164 2.43306 3.18826 2.07715 2.95984L2.07715 18.1073C2.07714 18.2588 2.0722 18.4138 2.0791 18.5663C2.08803 18.6061 2.09737 18.6455 2.10938 18.6844C2.12857 18.7208 2.14816 18.7564 2.16992 18.7909C2.1917 18.8144 2.21414 18.8371 2.2373 18.8593C2.27319 18.8824 2.31011 18.9034 2.34766 18.9237C2.38331 18.9348 2.41955 18.9436 2.45605 18.952C2.4747 18.9526 2.49328 18.954 2.51172 18.954L17.1377 18.954C17.2704 18.954 17.4052 18.9582 17.5391 18.952ZM5.22461 10.5175C4.94926 10.5175 4.70626 10.4002 4.50781 10.2118C4.30932 10.0212 4.22407 9.73981 4.21192 9.4696C4.19994 9.20789 4.3317 8.91052 4.50781 8.72839C4.69213 8.53999 4.96545 8.42273 5.22461 8.42273L14.7764 8.42273C15.0517 8.42273 15.2947 8.54004 15.4932 8.72839C15.6915 8.9189 15.7768 9.19954 15.7891 9.4696C15.8012 9.73143 15.6694 10.0296 15.4932 10.2118C15.3089 10.4001 15.0355 10.5175 14.7764 10.5175L5.22461 10.5175ZM5.22461 15.787C4.94915 15.787 4.70631 15.6698 4.50781 15.4813C4.30934 15.2907 4.22407 15.0103 4.21191 14.7401C4.19977 14.4783 4.33162 14.1811 4.50781 13.9989C4.69213 13.8104 4.96535 13.6932 5.22461 13.6932L14.7764 13.6932C15.0518 13.6932 15.2947 13.8125 15.4932 13.9989C15.6917 14.1895 15.7769 14.4699 15.7891 14.7401C15.8012 15.0019 15.6694 15.2991 15.4932 15.4813C15.3089 15.6698 15.0356 15.787 14.7764 15.787L5.22461 15.787Z" fill="#313131"/>
<circle cx="18" cy="18" r="5" fill="#F8F8F8"/>
<path d="M16.628 12.1105C17.7433 11.8886 18.8997 12.0025 19.9503 12.4376C21.001 12.8728 21.8995 13.6102 22.5314 14.5558C23.1631 15.5013 23.5001 16.6129 23.5001 17.7501C23.4983 19.2744 22.8923 20.7357 21.8146 21.8136C20.7366 22.8915 19.2746 23.4983 17.7501 23.5001C16.613 23.5001 15.5013 23.1631 14.5558 22.5314C13.6102 21.8995 12.8728 21.001 12.4376 19.9503C12.0025 18.8997 11.8886 17.7433 12.1105 16.628C12.3324 15.5128 12.8806 14.4888 13.6847 13.6847C14.4887 12.8806 15.5128 12.3324 16.628 12.1105ZM17.7501 13.6427C16.938 13.6427 16.1442 13.8839 15.4689 14.3351C14.7934 14.7864 14.267 15.4283 13.9562 16.1788C13.6454 16.9292 13.5633 17.7552 13.7218 18.5519C13.8803 19.3484 14.2716 20.0801 14.8458 20.6544C15.4202 21.2288 16.1526 21.62 16.9493 21.7784C17.7459 21.9368 18.572 21.8558 19.3224 21.545C20.0727 21.2342 20.7139 20.7075 21.1652 20.0323C21.6165 19.3569 21.8575 18.5624 21.8575 17.7501C21.8563 16.6614 21.4231 15.6177 20.6534 14.8478C19.8835 14.0778 18.839 13.644 17.7501 13.6427ZM18.9122 15.7677C19.13 15.7677 19.3393 15.8539 19.4933 16.0079C19.6472 16.1619 19.7335 16.3712 19.7335 16.589C19.7334 16.8065 19.647 17.0151 19.4933 17.1691L18.9122 17.7501L19.4933 18.3312C19.6079 18.4459 19.6862 18.592 19.7179 18.7511C19.7496 18.9103 19.7331 19.0757 19.671 19.2257C19.6089 19.3758 19.5033 19.5046 19.3683 19.5948C19.2333 19.685 19.0745 19.7335 18.9122 19.7335C18.8044 19.7336 18.6974 19.7123 18.5978 19.671C18.4981 19.6297 18.4073 19.5687 18.3312 19.4923L17.7501 18.9112L17.17 19.4923C17.0939 19.5687 17.0031 19.6297 16.9034 19.671C16.8038 19.7123 16.6968 19.7336 16.589 19.7335C16.4267 19.7335 16.2679 19.685 16.1329 19.5948C15.9979 19.5046 15.8924 19.3758 15.8302 19.2257C15.7681 19.0757 15.7517 18.9103 15.7833 18.7511C15.815 18.592 15.8933 18.4459 16.0079 18.3312L16.589 17.7501L16.0079 17.1691C15.8542 17.0152 15.7678 16.8065 15.7677 16.589C15.7677 16.3713 15.8541 16.1619 16.0079 16.0079C16.1619 15.8539 16.3712 15.7677 16.589 15.7677C16.8068 15.7677 17.016 15.8539 17.17 16.0079L17.7501 16.588L18.3312 16.0079C18.4852 15.8539 18.6944 15.7677 18.9122 15.7677Z" fill="#313131"/>
</svg>
