<svg width="17" height="16" viewBox="0 0 17 16" fill="none" xmlns="http://www.w3.org/2000/svg">
<path d="M15.0539 1.72253C14.1954 0.836028 13.0574 0.29496 11.8455 0.197059C10.6335 0.099158 9.42755 0.450879 8.44536 1.18869C7.41493 0.399307 6.13236 0.0413628 4.85594 0.186939C3.57952 0.332515 2.40406 0.970798 1.56628 1.97325C0.728489 2.97571 0.290603 4.26787 0.340798 5.58953C0.390993 6.91119 0.92554 8.16418 1.83679 9.09617L6.86611 14.2844C7.28726 14.7113 7.85447 14.9506 8.44536 14.9506C9.03626 14.9506 9.60347 14.7113 10.0246 14.2844L15.0539 9.09617C15.9995 8.1163 16.5303 6.79088 16.5303 5.40935C16.5303 4.02781 15.9995 2.7024 15.0539 1.72253ZM13.912 7.94508L8.8827 13.125C8.82546 13.1845 8.75735 13.2317 8.68228 13.264C8.60722 13.2962 8.52669 13.3128 8.44536 13.3128C8.36403 13.3128 8.28351 13.2962 8.20844 13.264C8.13338 13.2317 8.06526 13.1845 8.00803 13.125L2.97872 7.92006C2.34358 7.25138 1.98793 6.35313 1.98793 5.41769C1.98793 4.48225 2.34358 3.584 2.97872 2.91532C3.62593 2.25719 4.49883 1.88816 5.40834 1.88816C6.31785 1.88816 7.19074 2.25719 7.83796 2.91532C7.91325 2.9935 8.00282 3.05556 8.10151 3.0979C8.2002 3.14025 8.30606 3.16205 8.41297 3.16205C8.51988 3.16205 8.62574 3.14025 8.72443 3.0979C8.82312 3.05556 8.91269 2.9935 8.98798 2.91532C9.63519 2.25719 10.5081 1.88816 11.4176 1.88816C12.3271 1.88816 13.2 2.25719 13.8472 2.91532C14.4911 3.57524 14.8584 4.46862 14.8705 5.40408C14.8826 6.33955 14.5386 7.2427 13.912 7.92006V7.94508Z" fill="#1C9BD8" stroke="#1C9BD8" stroke-width="0.2"/>
</svg>
