<svg width="16" height="14" viewBox="0 0 16 14" fill="none" xmlns="http://www.w3.org/2000/svg">
<path d="M14.2649 1.89764C13.4859 1.09319 12.4532 0.602209 11.3535 0.51337C10.2537 0.424531 9.15933 0.743696 8.26806 1.41321C7.333 0.696897 6.16915 0.372086 5.01089 0.504187C3.85262 0.636288 2.78596 1.21549 2.02572 2.12515C1.26549 3.03482 0.868132 4.20737 0.91368 5.4067C0.959229 6.60602 1.4443 7.74303 2.2712 8.58875L6.83499 13.2968C7.21715 13.6841 7.73186 13.9012 8.26806 13.9012C8.80426 13.9012 9.31897 13.6841 9.70113 13.2968L14.2649 8.58875C15.123 7.69958 15.6046 6.49685 15.6046 5.24319C15.6046 3.98954 15.123 2.78681 14.2649 1.89764ZM13.2287 7.54421L8.66491 12.2446C8.61298 12.2987 8.55117 12.3415 8.48305 12.3708C8.41494 12.4 8.34186 12.4151 8.26806 12.4151C8.19426 12.4151 8.12119 12.4 8.05307 12.3708C7.98495 12.3415 7.92314 12.2987 7.87121 12.2446L3.30742 7.5215C2.73108 6.91472 2.40834 6.09962 2.40834 5.25076C2.40834 4.40191 2.73108 3.58681 3.30742 2.98002C3.89473 2.38281 4.68683 2.04794 5.51215 2.04794C6.33747 2.04794 7.12957 2.38281 7.71688 2.98002C7.7852 3.05097 7.86648 3.10728 7.95604 3.1457C8.04559 3.18413 8.14165 3.20392 8.23866 3.20392C8.33568 3.20392 8.43174 3.18413 8.52129 3.1457C8.61085 3.10728 8.69213 3.05097 8.76045 2.98002C9.34776 2.38281 10.1399 2.04794 10.9652 2.04794C11.7905 2.04794 12.5826 2.38281 13.1699 2.98002C13.7542 3.57885 14.0875 4.38954 14.0985 5.23841C14.1095 6.08729 13.7973 6.90684 13.2287 7.5215V7.54421Z" fill="#1C9BD8" stroke="#1C9BD8" stroke-width="0.2"/>
</svg>
