<svg width="24" height="22" viewBox="0 0 24 22" fill="none" xmlns="http://www.w3.org/2000/svg">
<path d="M6.50781 0.0456543C8.32193 -0.161087 10.1437 0.339999 11.6172 1.44409C13.0205 0.412537 14.7336 -0.0785583 16.4551 0.0603027C18.2007 0.201317 19.8394 0.980581 21.0752 2.25562C22.4364 3.66524 23.2001 5.5721 23.2002 7.55835C23.2001 9.54459 22.4364 11.4505 21.0752 12.8601L13.9326 20.2244L13.9316 20.2253C13.315 20.8499 12.4836 21.2 11.6172 21.2C10.7509 21.1998 9.91926 20.8498 9.30273 20.2253V20.2244L2.15918 12.8601C0.847792 11.5193 0.0780649 9.71704 0.00585938 7.81714C-0.0661501 5.91724 0.563854 4.05878 1.76953 2.61694C2.97556 1.17489 4.66906 0.255314 6.50781 0.0456543ZM15.8389 2.65991C14.5745 2.66003 13.3597 3.1734 12.459 4.08862C12.3431 4.20855 12.2048 4.30368 12.0527 4.3689C11.9003 4.4342 11.7366 4.46851 11.5713 4.46851C11.406 4.46845 11.2422 4.4342 11.0898 4.3689C10.938 4.30369 10.7993 4.20843 10.6836 4.08862L10.5107 3.92163C9.63054 3.11126 8.48912 2.65991 7.30371 2.65991C6.03929 2.66002 4.8245 3.17339 3.92383 4.08862C3.04074 5.01857 2.54601 6.26851 2.5459 7.57007C2.54597 8.87225 3.04193 10.1224 3.92578 11.0525H3.9248L11.0684 18.4392V18.4402C11.1403 18.5149 11.2264 18.5746 11.3203 18.615C11.4143 18.6553 11.5155 18.6755 11.6172 18.6755C11.7189 18.6755 11.82 18.6553 11.9141 18.615C12.0081 18.5746 12.094 18.515 12.166 18.4402L12.167 18.4392L19.2822 11.116V11.0828L19.3086 11.0535C20.1807 10.1112 20.6604 8.85394 20.6436 7.55151C20.6265 6.24955 20.1145 5.00641 19.2188 4.08862L19.0459 3.92163C18.1657 3.11126 17.0243 2.65991 15.8389 2.65991Z" fill="#313131"/>
</svg>
