<svg width="113" height="24" viewBox="0 0 113 24" fill="none" xmlns="http://www.w3.org/2000/svg">
<path d="M12 1H101C107.075 1 112 5.92487 112 12C112 18.0751 107.075 23 101 23H12C5.92487 23 1 18.0751 1 12C1 5.92487 5.92487 1 12 1Z" stroke="#313131" stroke-width="2"/>
<path d="M12 1H101C107.075 1 112 5.92487 112 12C112 18.0751 107.075 23 101 23H12C5.92487 23 1 18.0751 1 12C1 5.92487 5.92487 1 12 1Z" stroke="#313131" stroke-width="2"/>
<path d="M33.22 17.112C32.4267 17.112 31.7873 16.874 31.302 16.398C30.826 15.9127 30.588 15.2733 30.588 14.48V9.706C30.588 8.90333 30.826 8.26867 31.302 7.802C31.7873 7.326 32.4267 7.088 33.22 7.088C34.0227 7.088 34.6667 7.326 35.152 7.802C35.6373 8.26867 35.88 8.90333 35.88 9.706V9.874C35.88 9.92067 35.8613 9.96267 35.824 10C35.796 10.0373 35.7587 10.056 35.712 10.056L34.41 10.112C34.298 10.112 34.242 10.056 34.242 9.944V9.594C34.242 9.26733 34.1487 9.00133 33.962 8.796C33.7753 8.59067 33.528 8.488 33.22 8.488C32.9213 8.488 32.6787 8.59067 32.492 8.796C32.3053 9.00133 32.212 9.26733 32.212 9.594V14.606C32.212 14.9327 32.3053 15.1987 32.492 15.404C32.6787 15.6093 32.9213 15.712 33.22 15.712C33.528 15.712 33.7753 15.6093 33.962 15.404C34.1487 15.1987 34.242 14.9327 34.242 14.606V14.256C34.242 14.2093 34.256 14.172 34.284 14.144C34.3213 14.1067 34.3633 14.088 34.41 14.088L35.712 14.144C35.7587 14.144 35.796 14.1627 35.824 14.2C35.8613 14.228 35.88 14.2653 35.88 14.312V14.48C35.88 15.2733 35.6373 15.9127 35.152 16.398C34.6667 16.874 34.0227 17.112 33.22 17.112ZM41.0211 17C40.9091 17 40.8484 16.9487 40.8391 16.846L40.5731 15.376C40.5731 15.3293 40.5451 15.306 40.4891 15.306H38.4451C38.3891 15.306 38.3611 15.3293 38.3611 15.376L38.0951 16.846C38.0857 16.9487 38.0251 17 37.9131 17H36.6391C36.5084 17 36.4571 16.9393 36.4851 16.818L38.5571 7.354C38.5757 7.25133 38.6364 7.2 38.7391 7.2H40.2231C40.3257 7.2 40.3864 7.25133 40.4051 7.354L42.4771 16.818V16.874C42.4771 16.958 42.4257 17 42.3231 17H41.0211ZM38.6131 13.962C38.6037 14.0087 38.6271 14.032 38.6831 14.032H40.2371C40.2931 14.032 40.3164 14.0087 40.3071 13.962L39.4951 9.538C39.4857 9.51 39.4717 9.496 39.4531 9.496C39.4344 9.496 39.4204 9.51 39.4111 9.538L38.6131 13.962ZM47.6355 7.2C47.6822 7.2 47.7195 7.21867 47.7475 7.256C47.7848 7.284 47.8035 7.32133 47.8035 7.368V8.432C47.8035 8.47867 47.7848 8.52067 47.7475 8.558C47.7195 8.586 47.6822 8.6 47.6355 8.6H45.8575C45.8108 8.6 45.7875 8.62333 45.7875 8.67V16.832C45.7875 16.8787 45.7688 16.9207 45.7315 16.958C45.7035 16.986 45.6662 17 45.6195 17H44.3315C44.2848 17 44.2428 16.986 44.2055 16.958C44.1775 16.9207 44.1635 16.8787 44.1635 16.832V8.67C44.1635 8.62333 44.1402 8.6 44.0935 8.6H42.4135C42.3668 8.6 42.3248 8.586 42.2875 8.558C42.2595 8.52067 42.2455 8.47867 42.2455 8.432V7.368C42.2455 7.32133 42.2595 7.284 42.2875 7.256C42.3248 7.21867 42.3668 7.2 42.4135 7.2H47.6355ZM53.8256 8.432C53.8256 8.47867 53.8069 8.52067 53.7696 8.558C53.7416 8.586 53.7043 8.6 53.6576 8.6H50.6336C50.5869 8.6 50.5636 8.62333 50.5636 8.67V11.316C50.5636 11.3627 50.5869 11.386 50.6336 11.386H52.4256C52.4723 11.386 52.5096 11.4047 52.5376 11.442C52.5749 11.47 52.5936 11.5073 52.5936 11.554V12.632C52.5936 12.6787 52.5749 12.7207 52.5376 12.758C52.5096 12.786 52.4723 12.8 52.4256 12.8H50.6336C50.5869 12.8 50.5636 12.8233 50.5636 12.87V15.53C50.5636 15.5767 50.5869 15.6 50.6336 15.6H53.6576C53.7043 15.6 53.7416 15.6187 53.7696 15.656C53.8069 15.684 53.8256 15.7213 53.8256 15.768V16.832C53.8256 16.8787 53.8069 16.9207 53.7696 16.958C53.7416 16.986 53.7043 17 53.6576 17H49.1076C49.0609 17 49.0189 16.986 48.9816 16.958C48.9536 16.9207 48.9396 16.8787 48.9396 16.832V7.368C48.9396 7.32133 48.9536 7.284 48.9816 7.256C49.0189 7.21867 49.0609 7.2 49.1076 7.2H53.6576C53.7043 7.2 53.7416 7.21867 53.7696 7.256C53.8069 7.284 53.8256 7.32133 53.8256 7.368V8.432ZM57.4876 17.112C56.6942 17.112 56.0549 16.8833 55.5696 16.426C55.0936 15.9593 54.8556 15.3433 54.8556 14.578V9.622C54.8556 8.85667 55.0936 8.24533 55.5696 7.788C56.0549 7.32133 56.6942 7.088 57.4876 7.088C58.2809 7.088 58.9202 7.32133 59.4056 7.788C59.9002 8.24533 60.1476 8.86133 60.1476 9.636V10.182C60.1476 10.2287 60.1289 10.2707 60.0916 10.308C60.0636 10.336 60.0262 10.35 59.9796 10.35H58.6916C58.6449 10.35 58.6029 10.336 58.5656 10.308C58.5376 10.2707 58.5236 10.2287 58.5236 10.182V9.608C58.5236 9.272 58.4256 9.00133 58.2296 8.796C58.0429 8.59067 57.7956 8.488 57.4876 8.488C57.1796 8.488 56.9322 8.59067 56.7456 8.796C56.5589 9.00133 56.4656 9.272 56.4656 9.608V14.592C56.4656 14.928 56.5589 15.1987 56.7456 15.404C56.9322 15.6093 57.1796 15.712 57.4876 15.712C57.7956 15.712 58.0429 15.6093 58.2296 15.404C58.4256 15.1987 58.5236 14.928 58.5236 14.592V13.248C58.5236 13.2013 58.5002 13.178 58.4536 13.178H57.5996C57.5529 13.178 57.5109 13.164 57.4736 13.136C57.4456 13.0987 57.4316 13.0567 57.4316 13.01V11.988C57.4316 11.9413 57.4456 11.904 57.4736 11.876C57.5109 11.8387 57.5529 11.82 57.5996 11.82H59.9796C60.0262 11.82 60.0636 11.8387 60.0916 11.876C60.1289 11.904 60.1476 11.9413 60.1476 11.988V14.578C60.1476 15.3433 59.9002 15.9593 59.4056 16.426C58.9202 16.8833 58.2809 17.112 57.4876 17.112ZM63.9964 17.112C63.1937 17.112 62.545 16.8693 62.0504 16.384C61.565 15.8987 61.3224 15.2547 61.3224 14.452V9.748C61.3224 8.94533 61.565 8.30133 62.0504 7.816C62.545 7.33067 63.1937 7.088 63.9964 7.088C64.799 7.088 65.4477 7.33067 65.9424 7.816C66.437 8.30133 66.6844 8.94533 66.6844 9.748V14.452C66.6844 15.2547 66.437 15.8987 65.9424 16.384C65.4477 16.8693 64.799 17.112 63.9964 17.112ZM63.9964 15.712C64.3137 15.712 64.5704 15.6047 64.7664 15.39C64.9624 15.166 65.0604 14.8767 65.0604 14.522V9.678C65.0604 9.32333 64.9624 9.03867 64.7664 8.824C64.5704 8.6 64.3137 8.488 63.9964 8.488C63.679 8.488 63.4224 8.6 63.2264 8.824C63.0397 9.03867 62.9464 9.32333 62.9464 9.678V14.522C62.9464 14.8767 63.0397 15.166 63.2264 15.39C63.4224 15.6047 63.679 15.712 63.9964 15.712ZM71.9035 17C71.8102 17 71.7495 16.9533 71.7215 16.86L70.5315 12.842C70.5129 12.8047 70.4895 12.786 70.4615 12.786H69.7195C69.6729 12.786 69.6495 12.8093 69.6495 12.856V16.832C69.6495 16.8787 69.6309 16.9207 69.5935 16.958C69.5655 16.986 69.5282 17 69.4815 17H68.1935C68.1469 17 68.1049 16.986 68.0675 16.958C68.0395 16.9207 68.0255 16.8787 68.0255 16.832V7.368C68.0255 7.32133 68.0395 7.284 68.0675 7.256C68.1049 7.21867 68.1469 7.2 68.1935 7.2H70.8255C71.3202 7.2 71.7542 7.32133 72.1275 7.564C72.5102 7.79733 72.8042 8.13333 73.0095 8.572C73.2242 9.00133 73.3315 9.496 73.3315 10.056C73.3315 10.6347 73.2195 11.134 72.9955 11.554C72.7715 11.974 72.4589 12.2913 72.0575 12.506C72.0202 12.5153 72.0062 12.5433 72.0155 12.59L73.3875 16.804C73.3969 16.8227 73.4015 16.846 73.4015 16.874C73.4015 16.958 73.3502 17 73.2475 17H71.9035ZM69.7195 8.6C69.6729 8.6 69.6495 8.62333 69.6495 8.67V11.456C69.6495 11.5027 69.6729 11.526 69.7195 11.526H70.5735C70.9095 11.526 71.1802 11.3953 71.3855 11.134C71.6002 10.8727 71.7075 10.518 71.7075 10.07C71.7075 9.622 71.6002 9.26733 71.3855 9.006C71.1802 8.73533 70.9095 8.6 70.5735 8.6H69.7195ZM74.6467 17C74.6 17 74.558 16.986 74.5207 16.958C74.4927 16.9207 74.4787 16.8787 74.4787 16.832V7.368C74.4787 7.32133 74.4927 7.284 74.5207 7.256C74.558 7.21867 74.6 7.2 74.6467 7.2H75.9347C75.9813 7.2 76.0187 7.21867 76.0467 7.256C76.084 7.284 76.1027 7.32133 76.1027 7.368V16.832C76.1027 16.8787 76.084 16.9207 76.0467 16.958C76.0187 16.986 75.9813 17 75.9347 17H74.6467ZM74.6467 6.304C74.5813 6.304 74.5347 6.28533 74.5067 6.248C74.4787 6.21067 74.4833 6.164 74.5207 6.108L75.3467 4.666C75.384 4.59133 75.454 4.554 75.5567 4.554H76.5647C76.6393 4.554 76.686 4.57733 76.7047 4.624C76.7233 4.66133 76.714 4.708 76.6767 4.764L75.6407 6.206C75.594 6.27133 75.5287 6.304 75.4447 6.304H74.6467ZM81.5855 17C81.4735 17 81.4128 16.9487 81.4035 16.846L81.1375 15.376C81.1375 15.3293 81.1095 15.306 81.0535 15.306H79.0095C78.9535 15.306 78.9255 15.3293 78.9255 15.376L78.6595 16.846C78.6502 16.9487 78.5895 17 78.4775 17H77.2035C77.0728 17 77.0215 16.9393 77.0495 16.818L79.1215 7.354C79.1402 7.25133 79.2008 7.2 79.3035 7.2H80.7875C80.8902 7.2 80.9508 7.25133 80.9695 7.354L83.0415 16.818V16.874C83.0415 16.958 82.9902 17 82.8875 17H81.5855ZM79.1775 13.962C79.1682 14.0087 79.1915 14.032 79.2475 14.032H80.8015C80.8575 14.032 80.8808 14.0087 80.8715 13.962L80.0595 9.538C80.0502 9.51 80.0362 9.496 80.0175 9.496C79.9988 9.496 79.9848 9.51 79.9755 9.538L79.1775 13.962Z" fill="#313131"/>
<path d="M102.033 9.97508C102.359 9.63014 102.908 9.63027 103.234 9.97508C103.534 10.2934 103.535 10.7913 103.235 11.1098L98.967 15.6352C98.5665 16.0601 97.891 16.0601 97.4905 15.6352L93.2248 11.1089C92.9252 10.7906 92.9249 10.2932 93.2248 9.97508C93.5506 9.6297 94.1002 9.62976 94.426 9.97508L98.2297 14.0093L102.033 9.97508Z" fill="#313131"/>
<path d="M21.2 6.22351H12.8C12.3226 6.22351 11.8648 6.41328 11.5272 6.75108C11.1896 7.08888 11 7.54703 11 8.02475V8.72723C10.9999 8.97517 11.051 9.22045 11.15 9.44773V9.48375C11.2348 9.67647 11.3548 9.8516 11.504 10.0001L15.2 13.6746V17.6313C15.1998 17.7334 15.2256 17.8338 15.2749 17.9231C15.3243 18.0124 15.3955 18.0876 15.482 18.1417C15.5775 18.2009 15.6877 18.2321 15.8 18.2318C15.8939 18.2312 15.9864 18.2086 16.07 18.1657L18.47 16.9649C18.5689 16.915 18.6522 16.8387 18.7104 16.7443C18.7687 16.65 18.7997 16.5414 18.8 16.4305V13.6746L22.472 10.0001C22.6212 9.8516 22.7412 9.67647 22.826 9.48375V9.44773C22.9333 9.22223 22.9925 8.97687 23 8.72723V8.02475C23 7.54703 22.8104 7.08888 22.4728 6.75108C22.1352 6.41328 21.6774 6.22351 21.2 6.22351ZM17.774 13.0022C17.7184 13.0583 17.6744 13.1248 17.6445 13.198C17.6147 13.2711 17.5995 13.3494 17.6 13.4285V16.0583L16.4 16.6587V13.4285C16.4005 13.3494 16.3853 13.2711 16.3555 13.198C16.3256 13.1248 16.2816 13.0583 16.226 13.0022L13.046 9.82599H20.954L17.774 13.0022ZM21.8 8.62516H12.2V8.02475C12.2 7.86551 12.2632 7.71279 12.3757 7.60019C12.4883 7.48759 12.6409 7.42434 12.8 7.42434H21.2C21.3591 7.42434 21.5117 7.48759 21.6243 7.60019C21.7368 7.71279 21.8 7.86551 21.8 8.02475V8.62516Z" fill="#313131"/>
</svg>
