<svg width="100" height="24" viewBox="0 0 100 24" fill="none" xmlns="http://www.w3.org/2000/svg">
<path d="M12 1H87.5C93.5751 1 98.5 5.92487 98.5 12C98.5 18.0751 93.5751 23 87.5 23H12C5.92487 23 1 18.0751 1 12C1 5.92487 5.92487 1 12 1Z" stroke="#313131" stroke-width="2"/>
<path d="M35.152 7.312C35.1987 7.23733 35.2687 7.2 35.362 7.2H36.65C36.6967 7.2 36.734 7.21867 36.762 7.256C36.7993 7.284 36.818 7.32133 36.818 7.368V16.832C36.818 16.8787 36.7993 16.9207 36.762 16.958C36.734 16.986 36.6967 17 36.65 17H35.362C35.3153 17 35.2733 16.986 35.236 16.958C35.208 16.9207 35.194 16.8787 35.194 16.832V10.224C35.194 10.1867 35.1847 10.168 35.166 10.168C35.1473 10.168 35.1287 10.182 35.11 10.21L33.892 12.422C33.8453 12.4967 33.8033 12.534 33.766 12.534C33.7287 12.534 33.6867 12.4967 33.64 12.422L32.422 10.21C32.4033 10.182 32.3847 10.168 32.366 10.168C32.3473 10.168 32.338 10.1867 32.338 10.224V16.832C32.338 16.8787 32.3193 16.9207 32.282 16.958C32.254 16.986 32.2167 17 32.17 17H30.882C30.8353 17 30.7933 16.986 30.756 16.958C30.728 16.9207 30.714 16.8787 30.714 16.832V7.368C30.714 7.32133 30.728 7.284 30.756 7.256C30.7933 7.21867 30.8353 7.2 30.882 7.2H32.17C32.2633 7.2 32.3333 7.23733 32.38 7.312L33.738 9.706C33.766 9.74333 33.794 9.74333 33.822 9.706L35.152 7.312ZM42.2652 17C42.1532 17 42.0925 16.9487 42.0832 16.846L41.8172 15.376C41.8172 15.3293 41.7892 15.306 41.7332 15.306H39.6892C39.6332 15.306 39.6052 15.3293 39.6052 15.376L39.3392 16.846C39.3299 16.9487 39.2692 17 39.1572 17H37.8832C37.7525 17 37.7012 16.9393 37.7292 16.818L39.8012 7.354C39.8199 7.25133 39.8805 7.2 39.9832 7.2H41.4672C41.5699 7.2 41.6305 7.25133 41.6492 7.354L43.7212 16.818V16.874C43.7212 16.958 43.6699 17 43.5672 17H42.2652ZM39.8572 13.962C39.8479 14.0087 39.8712 14.032 39.9272 14.032H41.4812C41.5372 14.032 41.5605 14.0087 41.5512 13.962L40.7392 9.538C40.7299 9.51 40.7159 9.496 40.6972 9.496C40.6785 9.496 40.6645 9.51 40.6552 9.538L39.8572 13.962ZM48.552 17C48.4586 17 48.398 16.9533 48.37 16.86L47.18 12.842C47.1613 12.8047 47.138 12.786 47.11 12.786H46.368C46.3213 12.786 46.298 12.8093 46.298 12.856V16.832C46.298 16.8787 46.2793 16.9207 46.242 16.958C46.214 16.986 46.1766 17 46.13 17H44.842C44.7953 17 44.7533 16.986 44.716 16.958C44.688 16.9207 44.674 16.8787 44.674 16.832V7.368C44.674 7.32133 44.688 7.284 44.716 7.256C44.7533 7.21867 44.7953 7.2 44.842 7.2H47.474C47.9686 7.2 48.4026 7.32133 48.776 7.564C49.1586 7.79733 49.4526 8.13333 49.658 8.572C49.8726 9.00133 49.98 9.496 49.98 10.056C49.98 10.6347 49.868 11.134 49.644 11.554C49.42 11.974 49.1073 12.2913 48.706 12.506C48.6686 12.5153 48.6546 12.5433 48.664 12.59L50.036 16.804C50.0453 16.8227 50.05 16.846 50.05 16.874C50.05 16.958 49.9986 17 49.896 17H48.552ZM46.368 8.6C46.3213 8.6 46.298 8.62333 46.298 8.67V11.456C46.298 11.5027 46.3213 11.526 46.368 11.526H47.222C47.558 11.526 47.8286 11.3953 48.034 11.134C48.2486 10.8727 48.356 10.518 48.356 10.07C48.356 9.622 48.2486 9.26733 48.034 9.006C47.8286 8.73533 47.558 8.6 47.222 8.6H46.368ZM53.5911 17.112C52.7978 17.112 52.1584 16.874 51.6731 16.398C51.1971 15.9127 50.9591 15.2733 50.9591 14.48V9.706C50.9591 8.90333 51.1971 8.26867 51.6731 7.802C52.1584 7.326 52.7978 7.088 53.5911 7.088C54.3938 7.088 55.0378 7.326 55.5231 7.802C56.0084 8.26867 56.2511 8.90333 56.2511 9.706V9.874C56.2511 9.92067 56.2324 9.96267 56.1951 10C56.1671 10.0373 56.1298 10.056 56.0831 10.056L54.7811 10.112C54.6691 10.112 54.6131 10.056 54.6131 9.944V9.594C54.6131 9.26733 54.5198 9.00133 54.3331 8.796C54.1464 8.59067 53.8991 8.488 53.5911 8.488C53.2924 8.488 53.0498 8.59067 52.8631 8.796C52.6764 9.00133 52.5831 9.26733 52.5831 9.594V14.606C52.5831 14.9327 52.6764 15.1987 52.8631 15.404C53.0498 15.6093 53.2924 15.712 53.5911 15.712C53.8991 15.712 54.1464 15.6093 54.3331 15.404C54.5198 15.1987 54.6131 14.9327 54.6131 14.606V14.256C54.6131 14.2093 54.6271 14.172 54.6551 14.144C54.6924 14.1067 54.7344 14.088 54.7811 14.088L56.0831 14.144C56.1298 14.144 56.1671 14.1627 56.1951 14.2C56.2324 14.228 56.2511 14.2653 56.2511 14.312V14.48C56.2511 15.2733 56.0084 15.9127 55.5231 16.398C55.0378 16.874 54.3938 17.112 53.5911 17.112ZM61.3922 17C61.2802 17 61.2195 16.9487 61.2102 16.846L60.9442 15.376C60.9442 15.3293 60.9162 15.306 60.8602 15.306H58.8162C58.7602 15.306 58.7322 15.3293 58.7322 15.376L58.4662 16.846C58.4568 16.9487 58.3962 17 58.2842 17H57.0102C56.8795 17 56.8282 16.9393 56.8562 16.818L58.9282 7.354C58.9468 7.25133 59.0075 7.2 59.1102 7.2H60.5942C60.6968 7.2 60.7575 7.25133 60.7762 7.354L62.8482 16.818V16.874C62.8482 16.958 62.7968 17 62.6942 17H61.3922ZM58.9842 13.962C58.9748 14.0087 58.9982 14.032 59.0542 14.032H60.6082C60.6642 14.032 60.6875 14.0087 60.6782 13.962L59.8662 9.538C59.8568 9.51 59.8428 9.496 59.8242 9.496C59.8055 9.496 59.7915 9.51 59.7822 9.538L58.9842 13.962ZM65.7828 17.112C65.0081 17.112 64.3828 16.8787 63.9068 16.412C63.4308 15.9453 63.1928 15.334 63.1928 14.578V14.214C63.1928 14.1673 63.2068 14.13 63.2348 14.102C63.2721 14.0647 63.3141 14.046 63.3608 14.046H64.6348C64.6815 14.046 64.7188 14.0647 64.7468 14.102C64.7841 14.13 64.8028 14.1673 64.8028 14.214V14.494C64.8028 14.858 64.8915 15.152 65.0688 15.376C65.2555 15.6 65.4935 15.712 65.7828 15.712C66.0721 15.712 66.3101 15.6093 66.4968 15.404C66.6835 15.1893 66.7768 14.9093 66.7768 14.564C66.7768 14.3213 66.7255 14.1113 66.6228 13.934C66.5201 13.7567 66.3755 13.5887 66.1888 13.43C66.0021 13.2713 65.7035 13.0427 65.2928 12.744C64.8261 12.408 64.4481 12.1093 64.1588 11.848C63.8788 11.5867 63.6408 11.274 63.4448 10.91C63.2581 10.5367 63.1648 10.1073 63.1648 9.622C63.1648 8.84733 63.3981 8.23133 63.8648 7.774C64.3315 7.31667 64.9475 7.088 65.7128 7.088C66.4875 7.088 67.1128 7.33067 67.5888 7.816C68.0648 8.292 68.3028 8.92667 68.3028 9.72V10.056C68.3028 10.1027 68.2841 10.1447 68.2468 10.182C68.2188 10.21 68.1815 10.224 68.1348 10.224H66.8748C66.8281 10.224 66.7861 10.21 66.7488 10.182C66.7208 10.1447 66.7068 10.1027 66.7068 10.056V9.692C66.7068 9.328 66.6135 9.03867 66.4268 8.824C66.2495 8.6 66.0115 8.488 65.7128 8.488C65.4328 8.488 65.2041 8.59067 65.0268 8.796C64.8495 8.992 64.7608 9.26733 64.7608 9.622C64.7608 9.958 64.8541 10.2427 65.0408 10.476C65.2368 10.7093 65.6148 11.0313 66.1748 11.442C66.7441 11.862 67.1735 12.2073 67.4628 12.478C67.7521 12.7393 67.9761 13.0287 68.1348 13.346C68.2935 13.6633 68.3728 14.0413 68.3728 14.48C68.3728 15.2733 68.1348 15.9127 67.6588 16.398C67.1828 16.874 66.5575 17.112 65.7828 17.112Z" fill="#313131"/>
<path d="M87.0344 9.97477C87.3601 9.6299 87.9086 9.62998 88.2346 9.97477C88.5349 10.2931 88.5356 10.791 88.2355 11.1095L83.968 15.6349C83.5674 16.0598 82.8919 16.0598 82.4914 15.6349L78.2258 11.1086C77.9262 10.7903 77.9259 10.2929 78.2258 9.97477C78.5515 9.62948 79.1012 9.62953 79.427 9.97477L83.2307 14.0099L87.0344 9.97477Z" fill="#313131"/>
<path d="M20.0359 18.2318H12.8072C12.3279 18.2318 11.8682 18.0412 11.5293 17.7021C11.1904 17.3629 11 16.903 11 16.4233V10.3953C11 9.91567 11.1904 9.4557 11.5293 9.11655C11.8682 8.77741 12.3279 8.58688 12.8072 8.58688H13.4096C13.4197 8.07609 13.5917 7.58171 13.9008 7.17507C14.2098 6.76842 14.64 6.47052 15.1292 6.32433C15.6184 6.17814 16.1413 6.19122 16.6226 6.36168C17.1039 6.53214 17.5186 6.85118 17.807 7.27277C18.0772 7.65805 18.2242 8.11625 18.2287 8.58688H20.0359C20.1956 8.58688 20.3488 8.65039 20.4618 8.76344C20.5748 8.87649 20.6383 9.02981 20.6383 9.18969V10.9981C21.1487 11.0082 21.6427 11.1804 22.0491 11.4896C22.4555 11.7989 22.7532 12.2294 22.8992 12.7189C23.0453 13.2084 23.0323 13.7317 22.8619 14.2134C22.6916 14.695 22.3728 15.11 21.9515 15.3986C21.5665 15.6689 21.1086 15.816 20.6383 15.8205V17.629C20.6383 17.7888 20.5748 17.9422 20.4618 18.0552C20.3488 18.1683 20.1956 18.2318 20.0359 18.2318ZM12.8072 9.79249C12.6474 9.79249 12.4942 9.856 12.3812 9.96905C12.2682 10.0821 12.2048 10.2354 12.2048 10.3953V16.4233C12.2048 16.5832 12.2682 16.7365 12.3812 16.8496C12.4942 16.9626 12.6474 17.0262 12.8072 17.0262H19.4335V15.1092C19.433 15.0126 19.4557 14.9172 19.4997 14.8312C19.5437 14.7452 19.6078 14.671 19.6865 14.6149C19.7649 14.559 19.8556 14.5226 19.951 14.509C20.0464 14.4953 20.1437 14.5048 20.2347 14.5366C20.4063 14.6067 20.5933 14.6307 20.7771 14.6064C20.9609 14.5821 21.1352 14.5102 21.2828 14.3979C21.4297 14.3083 21.5557 14.1882 21.6523 14.0457C21.749 13.9033 21.814 13.7418 21.843 13.5721C21.8663 13.4009 21.8525 13.2268 21.8026 13.0614C21.7527 12.896 21.6679 12.7433 21.5539 12.6136C21.3997 12.4262 21.1898 12.293 20.9546 12.2333C20.7195 12.1737 20.4715 12.1908 20.2467 12.2821C20.1557 12.3138 20.0585 12.3233 19.9631 12.3097C19.8677 12.296 19.777 12.2597 19.6985 12.2037C19.6198 12.1477 19.5558 12.0735 19.5117 11.9875C19.4677 11.9014 19.445 11.8061 19.4455 11.7094V9.79249H17.5179C17.4189 9.79811 17.32 9.77918 17.2301 9.73738C17.1401 9.69559 17.0619 9.63223 17.0023 9.55291C16.9427 9.4736 16.9036 9.3808 16.8885 9.28273C16.8733 9.18467 16.8826 9.08438 16.9155 8.99076C16.9855 8.81897 17.0096 8.63186 16.9853 8.44792C16.961 8.26398 16.8892 8.08956 16.7769 7.94188C16.688 7.79067 16.5662 7.66143 16.4206 7.56374C16.2749 7.46604 16.1092 7.40238 15.9356 7.37749C15.7621 7.35259 15.5851 7.3671 15.4179 7.41993C15.2507 7.47276 15.0976 7.56256 14.9698 7.68267C14.8511 7.80047 14.7582 7.94169 14.697 8.09736C14.6358 8.25303 14.6077 8.41974 14.6143 8.58688C14.6157 8.72515 14.6423 8.862 14.6927 8.99076C14.7245 9.08192 14.734 9.17939 14.7203 9.27499C14.7067 9.37058 14.6703 9.46149 14.6142 9.54007C14.5581 9.61865 14.484 9.68259 14.398 9.72652C14.3121 9.77045 14.2169 9.79307 14.1204 9.79249H12.8072Z" fill="#313131"/>
</svg>
