<svg width="25" height="22" viewBox="0 0 25 22" fill="none" xmlns="http://www.w3.org/2000/svg">
<path d="M25 11.4007V10.5993C25 10.0439 24.7743 9.50662 24.3604 9.10596L15.5944 0.619206C15.19 0.227649 14.6351 0 14.0519 0H1.63657C0.733634 0 0 0.710265 0 1.58444V2.78642C0 3.6606 0.733634 4.37086 1.63657 4.37086H12.1896C12.7634 4.37086 13.3183 4.5894 13.7321 4.99007L19.4695 10.5447C19.7235 10.7906 19.7235 11.2003 19.4695 11.4553L13.7321 17.0099C13.3277 17.4015 12.7728 17.6291 12.1896 17.6291H1.64597C0.74304 17.6291 0.00940471 18.3394 0.00940471 19.2136V20.4156C0.00940471 21.2897 0.74304 22 1.64597 22H14.0613C14.6351 22 15.19 21.7815 15.6038 21.3808L24.3698 12.894C24.7743 12.4934 25 11.9652 25 11.4007Z" fill="#1C9BD8"/>
</svg>
