<svg width="25" height="22" viewBox="0 0 25 22" fill="none" xmlns="http://www.w3.org/2000/svg">
<path d="M1.63672 0.5H14.0518C14.5057 0.5 14.9363 0.677682 15.2471 0.978516L24.0127 9.46484C24.3303 9.77234 24.5 10.181 24.5 10.5996V11.4004C24.5 11.7744 24.37 12.1288 24.1279 12.4189L24.0176 12.5391L15.2559 21.0215C14.9377 21.3295 14.5087 21.4999 14.0615 21.5H1.64551C1.00373 21.4998 0.510022 20.9986 0.509766 20.416V19.2139C0.509766 18.6311 1.00356 18.1291 1.64551 18.1289H12.1895C12.9018 18.1289 13.5819 17.8514 14.0801 17.3691L19.8174 11.8145L19.8242 11.8086C20.2689 11.3622 20.2778 10.6314 19.8174 10.1855L14.0801 4.63086C13.5706 4.13762 12.8897 3.87109 12.1895 3.87109H1.63672C0.994546 3.87109 0.5 3.36903 0.5 2.78613V1.58398C0.500256 1.00128 0.994712 0.5 1.63672 0.5Z" fill="#313131" stroke="black"/>
</svg>
