<svg width="173" height="299" viewBox="0 0 173 299" fill="none" xmlns="http://www.w3.org/2000/svg">
<path d="M173 17.2069L173 281.793C173 282.686 172.638 283.579 171.973 284.234L158.018 297.988C157.353 298.643 156.507 299 155.541 299L0 299C2.98512e-05 287.092 4.95695e-06 11.9079 3.48083e-05 6.10352e-05L155.541 -1.35978e-05C156.447 -1.3677e-05 157.353 0.35723 158.018 1.01216L172.033 14.8253C172.638 15.4207 173 16.3138 173 17.2069Z" fill="white"/>
<path d="M20 273.448C20 266.425 25.6933 260.731 32.7164 260.731H149.284C156.307 260.731 162 266.425 162 273.448C162 280.471 156.307 286.164 149.284 286.164H32.7164C25.6933 286.164 20 280.471 20 273.448Z" fill="#1C9BD8"/>
<path d="M50.4158 278.851C50.2984 278.851 50.2291 278.792 50.2078 278.675L47.9198 267.859L47.9038 267.795C47.9038 267.699 47.9624 267.651 48.0798 267.651H50.1438C50.2718 267.651 50.3411 267.709 50.3518 267.827L51.4558 274.867C51.4664 274.909 51.4824 274.931 51.5038 274.931C51.5251 274.931 51.5411 274.909 51.5518 274.867L52.6238 267.827C52.6344 267.709 52.7038 267.651 52.8318 267.651H54.8318C54.9704 267.651 55.0238 267.72 54.9918 267.859L52.6878 278.675C52.6664 278.792 52.5971 278.851 52.4798 278.851H50.4158ZM61.9403 269.395C61.9403 269.448 61.9189 269.496 61.8763 269.539C61.8443 269.571 61.8016 269.587 61.7483 269.587H58.4043C58.3509 269.587 58.3243 269.613 58.3243 269.667V272.195C58.3243 272.248 58.3509 272.275 58.4043 272.275H60.3243C60.3776 272.275 60.4203 272.296 60.4523 272.339C60.4949 272.371 60.5163 272.413 60.5163 272.467V274.019C60.5163 274.072 60.4949 274.12 60.4523 274.163C60.4203 274.195 60.3776 274.211 60.3243 274.211H58.4043C58.3509 274.211 58.3243 274.237 58.3243 274.291V276.835C58.3243 276.888 58.3509 276.915 58.4043 276.915H61.7483C61.8016 276.915 61.8443 276.936 61.8763 276.979C61.9189 277.011 61.9403 277.053 61.9403 277.107V278.659C61.9403 278.712 61.9189 278.76 61.8763 278.803C61.8443 278.835 61.8016 278.851 61.7483 278.851H56.2603C56.2069 278.851 56.1589 278.835 56.1163 278.803C56.0843 278.76 56.0683 278.712 56.0683 278.659V267.843C56.0683 267.789 56.0843 267.747 56.1163 267.715C56.1589 267.672 56.2069 267.651 56.2603 267.651H61.7483C61.8016 267.651 61.8443 267.672 61.8763 267.715C61.9189 267.747 61.9403 267.789 61.9403 267.843V269.395ZM67.4999 278.851C67.3825 278.851 67.3079 278.797 67.2759 278.691L66.0439 274.275C66.0225 274.232 65.9959 274.211 65.9639 274.211H65.4199C65.3665 274.211 65.3399 274.237 65.3399 274.291V278.659C65.3399 278.712 65.3185 278.76 65.2759 278.803C65.2439 278.835 65.2012 278.851 65.1479 278.851H63.2759C63.2225 278.851 63.1745 278.835 63.1319 278.803C63.0999 278.76 63.0839 278.712 63.0839 278.659V267.843C63.0839 267.789 63.0999 267.747 63.1319 267.715C63.1745 267.672 63.2225 267.651 63.2759 267.651H66.5079C67.0945 267.651 67.6172 267.795 68.0759 268.083C68.5345 268.36 68.8865 268.755 69.1319 269.267C69.3879 269.779 69.5159 270.365 69.5159 271.027C69.5159 271.656 69.3932 272.211 69.1479 272.691C68.9132 273.171 68.5825 273.544 68.1559 273.811C68.1345 273.821 68.1185 273.837 68.1079 273.859C68.0972 273.869 68.0972 273.885 68.1079 273.907L69.5799 278.627L69.5959 278.691C69.5959 278.797 69.5372 278.851 69.4199 278.851H67.4999ZM65.4199 269.587C65.3665 269.587 65.3399 269.613 65.3399 269.667V272.403C65.3399 272.456 65.3665 272.483 65.4199 272.483H66.1399C66.4705 272.483 66.7372 272.355 66.9399 272.099C67.1532 271.832 67.2599 271.48 67.2599 271.043C67.2599 270.595 67.1532 270.243 66.9399 269.987C66.7372 269.72 66.4705 269.587 66.1399 269.587H65.4199ZM76.8423 278.979C75.8823 278.979 75.1089 278.707 74.5223 278.163C73.9463 277.608 73.6583 276.872 73.6583 275.955V270.547C73.6583 269.629 73.9463 268.899 74.5223 268.355C75.1089 267.8 75.8823 267.523 76.8423 267.523C77.8023 267.523 78.5756 267.8 79.1623 268.355C79.7489 268.909 80.0423 269.645 80.0423 270.563V271.171C80.0423 271.224 80.0209 271.272 79.9783 271.315C79.9463 271.347 79.9036 271.363 79.8503 271.363H77.9783C77.9249 271.363 77.8769 271.347 77.8343 271.315C77.8023 271.272 77.7863 271.224 77.7863 271.171V270.531C77.7863 270.211 77.7009 269.955 77.5303 269.763C77.3596 269.56 77.1303 269.459 76.8423 269.459C76.5649 269.459 76.3409 269.56 76.1703 269.763C75.9996 269.955 75.9143 270.211 75.9143 270.531V275.971C75.9143 276.291 75.9996 276.552 76.1703 276.755C76.3409 276.947 76.5649 277.043 76.8423 277.043C77.1303 277.043 77.3596 276.947 77.5303 276.755C77.7009 276.552 77.7863 276.291 77.7863 275.971V274.691C77.7863 274.637 77.7596 274.611 77.7063 274.611H77.0023C76.9489 274.611 76.9009 274.595 76.8583 274.563C76.8263 274.52 76.8103 274.472 76.8103 274.419V272.995C76.8103 272.941 76.8263 272.899 76.8583 272.867C76.9009 272.824 76.9489 272.803 77.0023 272.803H79.8503C79.9036 272.803 79.9463 272.824 79.9783 272.867C80.0209 272.899 80.0423 272.941 80.0423 272.995V275.955C80.0423 276.872 79.7489 277.608 79.1623 278.163C78.5756 278.707 77.8023 278.979 76.8423 278.979ZM85.703 278.851C85.5857 278.851 85.511 278.797 85.479 278.691L84.247 274.275C84.2257 274.232 84.199 274.211 84.167 274.211H83.623C83.5697 274.211 83.543 274.237 83.543 274.291V278.659C83.543 278.712 83.5217 278.76 83.479 278.803C83.447 278.835 83.4043 278.851 83.351 278.851H81.479C81.4257 278.851 81.3777 278.835 81.335 278.803C81.303 278.76 81.287 278.712 81.287 278.659V267.843C81.287 267.789 81.303 267.747 81.335 267.715C81.3777 267.672 81.4257 267.651 81.479 267.651H84.711C85.2977 267.651 85.8203 267.795 86.279 268.083C86.7377 268.36 87.0897 268.755 87.335 269.267C87.591 269.779 87.719 270.365 87.719 271.027C87.719 271.656 87.5963 272.211 87.351 272.691C87.1163 273.171 86.7857 273.544 86.359 273.811C86.3377 273.821 86.3217 273.837 86.311 273.859C86.3003 273.869 86.3003 273.885 86.311 273.907L87.783 278.627L87.799 278.691C87.799 278.797 87.7403 278.851 87.623 278.851H85.703ZM83.623 269.587C83.5697 269.587 83.543 269.613 83.543 269.667V272.403C83.543 272.456 83.5697 272.483 83.623 272.483H84.343C84.6737 272.483 84.9403 272.355 85.143 272.099C85.3563 271.832 85.463 271.48 85.463 271.043C85.463 270.595 85.3563 270.243 85.143 269.987C84.9403 269.72 84.6737 269.587 84.343 269.587H83.623ZM93.6004 278.851C93.4724 278.851 93.403 278.792 93.3924 278.675L93.1364 277.139C93.1364 277.085 93.1044 277.059 93.0404 277.059H91.0084C90.9444 277.059 90.9124 277.085 90.9124 277.139L90.6564 278.675C90.6457 278.792 90.5764 278.851 90.4484 278.851H88.5764C88.4377 278.851 88.3844 278.781 88.4164 278.643L90.7684 267.827C90.7897 267.709 90.859 267.651 90.9764 267.651H93.1364C93.2537 267.651 93.323 267.709 93.3444 267.827L95.6804 278.643L95.6964 278.707C95.6964 278.803 95.6377 278.851 95.5204 278.851H93.6004ZM91.2324 275.235C91.2324 275.288 91.2537 275.315 91.2964 275.315H92.7364C92.7897 275.315 92.811 275.288 92.8004 275.235L92.0484 270.867C92.0377 270.835 92.0217 270.819 92.0004 270.819C91.979 270.819 91.963 270.835 91.9524 270.867L91.2324 275.235ZM91.1844 266.659C91.1097 266.659 91.0564 266.637 91.0244 266.595C90.9924 266.552 90.9977 266.499 91.0404 266.435L91.9844 264.803C92.027 264.717 92.107 264.675 92.2244 264.675H93.7124C93.819 264.675 93.8724 264.712 93.8724 264.787C93.8724 264.819 93.8564 264.861 93.8244 264.915L92.5924 266.547C92.5284 266.621 92.4537 266.659 92.3684 266.659H91.1844ZM102.471 269.395C102.471 269.448 102.45 269.496 102.407 269.539C102.375 269.571 102.332 269.587 102.279 269.587H98.9511C98.8978 269.587 98.8711 269.613 98.8711 269.667V272.195C98.8711 272.248 98.8978 272.275 98.9511 272.275H100.855C100.908 272.275 100.951 272.296 100.983 272.339C101.026 272.371 101.047 272.413 101.047 272.467V274.019C101.047 274.072 101.026 274.12 100.983 274.163C100.951 274.195 100.908 274.211 100.855 274.211H98.9511C98.8978 274.211 98.8711 274.237 98.8711 274.291V278.659C98.8711 278.712 98.8498 278.76 98.8071 278.803C98.7751 278.835 98.7325 278.851 98.6791 278.851H96.8071C96.7538 278.851 96.7058 278.835 96.6631 278.803C96.6311 278.76 96.6151 278.712 96.6151 278.659V267.843C96.6151 267.789 96.6311 267.747 96.6631 267.715C96.7058 267.672 96.7538 267.651 96.8071 267.651H102.279C102.332 267.651 102.375 267.672 102.407 267.715C102.45 267.747 102.471 267.789 102.471 267.843V269.395ZM103.542 278.851C103.488 278.851 103.44 278.835 103.398 278.803C103.366 278.76 103.35 278.712 103.35 278.659V267.843C103.35 267.789 103.366 267.747 103.398 267.715C103.44 267.672 103.488 267.651 103.542 267.651H105.414C105.467 267.651 105.51 267.672 105.542 267.715C105.584 267.747 105.606 267.789 105.606 267.843V278.659C105.606 278.712 105.584 278.76 105.542 278.803C105.51 278.835 105.467 278.851 105.414 278.851H103.542ZM110.061 278.979C109.101 278.979 108.328 278.696 107.741 278.131C107.165 277.555 106.877 276.787 106.877 275.827V270.643C106.877 269.693 107.165 268.936 107.741 268.371C108.328 267.805 109.101 267.523 110.061 267.523C111.032 267.523 111.805 267.805 112.381 268.371C112.968 268.936 113.261 269.693 113.261 270.643V270.819C113.261 270.872 113.24 270.92 113.197 270.963C113.165 270.995 113.122 271.011 113.069 271.011L111.197 271.091C111.069 271.091 111.005 271.032 111.005 270.915V270.499C111.005 270.189 110.92 269.939 110.749 269.747C110.578 269.555 110.349 269.459 110.061 269.459C109.784 269.459 109.56 269.555 109.389 269.747C109.218 269.939 109.133 270.189 109.133 270.499V276.019C109.133 276.328 109.218 276.579 109.389 276.771C109.56 276.952 109.784 277.043 110.061 277.043C110.349 277.043 110.578 276.952 110.749 276.771C110.92 276.579 111.005 276.328 111.005 276.019V275.587C111.005 275.533 111.021 275.491 111.053 275.459C111.096 275.416 111.144 275.395 111.197 275.395L113.069 275.475C113.122 275.475 113.165 275.496 113.197 275.539C113.24 275.571 113.261 275.613 113.261 275.667V275.827C113.261 276.787 112.968 277.555 112.381 278.131C111.794 278.696 111.021 278.979 110.061 278.979ZM117.531 278.979C116.55 278.979 115.766 278.691 115.179 278.115C114.592 277.539 114.299 276.771 114.299 275.811V270.691C114.299 269.731 114.592 268.963 115.179 268.387C115.766 267.811 116.55 267.523 117.531 267.523C118.512 267.523 119.296 267.811 119.883 268.387C120.48 268.963 120.779 269.731 120.779 270.691V275.811C120.779 276.771 120.48 277.539 119.883 278.115C119.296 278.691 118.512 278.979 117.531 278.979ZM117.531 277.043C117.83 277.043 118.07 276.941 118.251 276.739C118.432 276.525 118.523 276.248 118.523 275.907V270.595C118.523 270.253 118.432 269.981 118.251 269.779C118.07 269.565 117.83 269.459 117.531 269.459C117.232 269.459 116.992 269.565 116.811 269.779C116.64 269.981 116.555 270.253 116.555 270.595V275.907C116.555 276.248 116.64 276.525 116.811 276.739C116.992 276.941 117.232 277.043 117.531 277.043ZM124.901 278.979C124.283 278.979 123.739 278.856 123.269 278.611C122.8 278.365 122.437 278.024 122.181 277.587C121.925 277.139 121.797 276.627 121.797 276.051V275.587C121.797 275.533 121.813 275.491 121.845 275.459C121.888 275.416 121.936 275.395 121.989 275.395H123.829C123.883 275.395 123.925 275.416 123.957 275.459C124 275.491 124.021 275.533 124.021 275.587V275.939C124.021 276.269 124.107 276.536 124.277 276.739C124.448 276.941 124.661 277.043 124.917 277.043C125.173 277.043 125.387 276.947 125.557 276.755C125.728 276.563 125.813 276.312 125.813 276.003C125.813 275.683 125.707 275.411 125.493 275.187C125.28 274.952 124.864 274.611 124.245 274.163C123.712 273.779 123.28 273.437 122.949 273.139C122.619 272.84 122.336 272.472 122.101 272.035C121.867 271.597 121.749 271.091 121.749 270.515C121.749 269.608 122.032 268.883 122.597 268.339C123.163 267.795 123.909 267.523 124.837 267.523C125.776 267.523 126.528 267.805 127.093 268.371C127.669 268.936 127.957 269.677 127.957 270.595V270.979C127.957 271.032 127.936 271.08 127.893 271.123C127.861 271.155 127.819 271.171 127.765 271.171H125.925C125.872 271.171 125.824 271.155 125.781 271.123C125.749 271.08 125.733 271.032 125.733 270.979V270.547C125.733 270.216 125.648 269.955 125.477 269.763C125.317 269.56 125.104 269.459 124.837 269.459C124.581 269.459 124.373 269.555 124.213 269.747C124.053 269.928 123.973 270.184 123.973 270.515C123.973 270.835 124.075 271.117 124.277 271.363C124.48 271.608 124.88 271.949 125.477 272.387C126.139 272.877 126.635 273.277 126.965 273.587C127.307 273.885 127.568 274.221 127.749 274.595C127.941 274.957 128.037 275.395 128.037 275.907C128.037 276.845 127.749 277.592 127.173 278.147C126.597 278.701 125.84 278.979 124.901 278.979Z" fill="white"/>
<path d="M71 127L71.9048 126.574L70.8996 124.438L70.0646 126.646L71 127ZM91 169.5L90.0952 169.926L91.0047 171.858L91.9065 169.922L91 169.5ZM142 60L132.544 66.6274L143.012 71.5026L142 60ZM26 246L26.9354 246.354L71.9354 127.354L71 127L70.0646 126.646L25.0646 245.646L26 246ZM71 127L70.0952 127.426L90.0952 169.926L91 169.5L91.9048 169.074L71.9048 126.574L71 127ZM91 169.5L91.9065 169.922L139.107 68.5807L138.2 68.1585L137.294 67.7363L90.0935 169.078L91 169.5Z" fill="#D50000"/>
<path d="M20 109H32" stroke="#313131"/>
<path d="M20 177H32" stroke="#313131"/>
<path d="M89 240L89 252" stroke="#313131"/>
<path d="M26 44.5L20.2265 54.5H31.7735L26 44.5ZM26 246H25V247H26V246ZM159 246L149 240.227V251.773L159 246ZM26 53.5H25V246H26H27V53.5H26ZM26 246V247H150V246V245H26V246Z" fill="#313131"/>
<path d="M26.291 31.216C24.671 31.216 23.366 30.757 22.376 29.839C21.404 28.903 20.918 27.661 20.918 26.113V16.987C20.918 15.439 21.404 14.206 22.376 13.288C23.366 12.352 24.671 11.884 26.291 11.884C27.911 11.884 29.216 12.352 30.206 13.288C31.196 14.224 31.691 15.466 31.691 17.014V18.04C31.691 18.13 31.655 18.211 31.583 18.283C31.529 18.337 31.457 18.364 31.367 18.364H28.208C28.118 18.364 28.037 18.337 27.965 18.283C27.911 18.211 27.884 18.13 27.884 18.04V16.96C27.884 16.42 27.74 15.988 27.452 15.664C27.164 15.322 26.777 15.151 26.291 15.151C25.823 15.151 25.445 15.322 25.157 15.664C24.869 15.988 24.725 16.42 24.725 16.96V26.14C24.725 26.68 24.869 27.121 25.157 27.463C25.445 27.787 25.823 27.949 26.291 27.949C26.777 27.949 27.164 27.787 27.452 27.463C27.74 27.121 27.884 26.68 27.884 26.14V23.98C27.884 23.89 27.839 23.845 27.749 23.845H26.561C26.471 23.845 26.39 23.818 26.318 23.764C26.264 23.692 26.237 23.611 26.237 23.521V21.118C26.237 21.028 26.264 20.956 26.318 20.902C26.39 20.83 26.471 20.794 26.561 20.794H31.367C31.457 20.794 31.529 20.83 31.583 20.902C31.655 20.956 31.691 21.028 31.691 21.118V26.113C31.691 27.661 31.196 28.903 30.206 29.839C29.216 30.757 27.911 31.216 26.291 31.216ZM41.2435 31C41.0455 31 40.9195 30.91 40.8655 30.73L38.7865 23.278C38.7505 23.206 38.7055 23.17 38.6515 23.17H37.7335C37.6435 23.17 37.5985 23.215 37.5985 23.305V30.676C37.5985 30.766 37.5625 30.847 37.4905 30.919C37.4365 30.973 37.3645 31 37.2745 31H34.1155C34.0255 31 33.9445 30.973 33.8725 30.919C33.8185 30.847 33.7915 30.766 33.7915 30.676V12.424C33.7915 12.334 33.8185 12.262 33.8725 12.208C33.9445 12.136 34.0255 12.1 34.1155 12.1H39.5695C40.5595 12.1 41.4415 12.343 42.2155 12.829C42.9895 13.297 43.5835 13.963 43.9975 14.827C44.4295 15.691 44.6455 16.681 44.6455 17.797C44.6455 18.859 44.4385 19.795 44.0245 20.605C43.6285 21.415 43.0705 22.045 42.3505 22.495C42.3145 22.513 42.2875 22.54 42.2695 22.576C42.2515 22.594 42.2515 22.621 42.2695 22.657L44.7535 30.622L44.7805 30.73C44.7805 30.91 44.6815 31 44.4835 31H41.2435ZM37.7335 15.367C37.6435 15.367 37.5985 15.412 37.5985 15.502V20.119C37.5985 20.209 37.6435 20.254 37.7335 20.254H38.9485C39.5065 20.254 39.9565 20.038 40.2985 19.606C40.6585 19.156 40.8385 18.562 40.8385 17.824C40.8385 17.068 40.6585 16.474 40.2985 16.042C39.9565 15.592 39.5065 15.367 38.9485 15.367H37.7335ZM54.5703 31C54.3543 31 54.2373 30.901 54.2193 30.703L53.7873 28.111C53.7873 28.021 53.7333 27.976 53.6253 27.976H50.1963C50.0883 27.976 50.0343 28.021 50.0343 28.111L49.6023 30.703C49.5843 30.901 49.4673 31 49.2513 31H46.0923C45.8583 31 45.7683 30.883 45.8223 30.649L49.7913 12.397C49.8273 12.199 49.9443 12.1 50.1423 12.1H53.7873C53.9853 12.1 54.1023 12.199 54.1383 12.397L58.0803 30.649L58.1073 30.757C58.1073 30.919 58.0083 31 57.8103 31H54.5703ZM50.5743 24.898C50.5743 24.988 50.6103 25.033 50.6823 25.033H53.1123C53.2023 25.033 53.2383 24.988 53.2203 24.898L51.9513 17.527C51.9333 17.473 51.9063 17.446 51.8703 17.446C51.8343 17.446 51.8073 17.473 51.7893 17.527L50.5743 24.898ZM50.4933 10.426C50.3673 10.426 50.2773 10.39 50.2233 10.318C50.1693 10.246 50.1783 10.156 50.2503 10.048L51.8433 7.294C51.9153 7.15 52.0503 7.078 52.2483 7.078H54.7593C54.9393 7.078 55.0293 7.141 55.0293 7.267C55.0293 7.321 55.0023 7.393 54.9483 7.483L52.8693 10.237C52.7613 10.363 52.6353 10.426 52.4913 10.426H50.4933ZM69.5397 15.043C69.5397 15.133 69.5037 15.214 69.4317 15.286C69.3777 15.34 69.3057 15.367 69.2157 15.367H63.5997C63.5097 15.367 63.4647 15.412 63.4647 15.502V19.768C63.4647 19.858 63.5097 19.903 63.5997 19.903H66.8127C66.9027 19.903 66.9747 19.939 67.0287 20.011C67.1007 20.065 67.1367 20.137 67.1367 20.227V22.846C67.1367 22.936 67.1007 23.017 67.0287 23.089C66.9747 23.143 66.9027 23.17 66.8127 23.17H63.5997C63.5097 23.17 63.4647 23.215 63.4647 23.305V30.676C63.4647 30.766 63.4287 30.847 63.3567 30.919C63.3027 30.973 63.2307 31 63.1407 31H59.9817C59.8917 31 59.8107 30.973 59.7387 30.919C59.6847 30.847 59.6577 30.766 59.6577 30.676V12.424C59.6577 12.334 59.6847 12.262 59.7387 12.208C59.8107 12.136 59.8917 12.1 59.9817 12.1H69.2157C69.3057 12.1 69.3777 12.136 69.4317 12.208C69.5037 12.262 69.5397 12.334 69.5397 12.424V15.043ZM71.346 31C71.256 31 71.175 30.973 71.103 30.919C71.049 30.847 71.022 30.766 71.022 30.676V12.424C71.022 12.334 71.049 12.262 71.103 12.208C71.175 12.136 71.256 12.1 71.346 12.1H74.505C74.595 12.1 74.667 12.136 74.721 12.208C74.793 12.262 74.829 12.334 74.829 12.424V30.676C74.829 30.766 74.793 30.847 74.721 30.919C74.667 30.973 74.595 31 74.505 31H71.346ZM82.3476 31.216C80.7276 31.216 79.4226 30.739 78.4326 29.785C77.4606 28.813 76.9746 27.517 76.9746 25.897V17.149C76.9746 15.547 77.4606 14.269 78.4326 13.315C79.4226 12.361 80.7276 11.884 82.3476 11.884C83.9856 11.884 85.2906 12.361 86.2626 13.315C87.2526 14.269 87.7476 15.547 87.7476 17.149V17.446C87.7476 17.536 87.7116 17.617 87.6396 17.689C87.5856 17.743 87.5136 17.77 87.4236 17.77L84.2646 17.905C84.0486 17.905 83.9406 17.806 83.9406 17.608V16.906C83.9406 16.384 83.7966 15.961 83.5086 15.637C83.2206 15.313 82.8336 15.151 82.3476 15.151C81.8796 15.151 81.5016 15.313 81.2136 15.637C80.9256 15.961 80.7816 16.384 80.7816 16.906V26.221C80.7816 26.743 80.9256 27.166 81.2136 27.49C81.5016 27.796 81.8796 27.949 82.3476 27.949C82.8336 27.949 83.2206 27.796 83.5086 27.49C83.7966 27.166 83.9406 26.743 83.9406 26.221V25.492C83.9406 25.402 83.9676 25.33 84.0216 25.276C84.0936 25.204 84.1746 25.168 84.2646 25.168L87.4236 25.303C87.5136 25.303 87.5856 25.339 87.6396 25.411C87.7116 25.465 87.7476 25.537 87.7476 25.627V25.897C87.7476 27.517 87.2526 28.813 86.2626 29.785C85.2726 30.739 83.9676 31.216 82.3476 31.216ZM94.9531 31.216C93.2971 31.216 91.9741 30.73 90.9841 29.758C89.9941 28.786 89.4991 27.49 89.4991 25.87V17.23C89.4991 15.61 89.9941 14.314 90.9841 13.342C91.9741 12.37 93.2971 11.884 94.9531 11.884C96.6091 11.884 97.9321 12.37 98.9221 13.342C99.9301 14.314 100.434 15.61 100.434 17.23V25.87C100.434 27.49 99.9301 28.786 98.9221 29.758C97.9321 30.73 96.6091 31.216 94.9531 31.216ZM94.9531 27.949C95.4571 27.949 95.8621 27.778 96.1681 27.436C96.4741 27.076 96.6271 26.608 96.6271 26.032V17.068C96.6271 16.492 96.4741 16.033 96.1681 15.691C95.8621 15.331 95.4571 15.151 94.9531 15.151C94.4491 15.151 94.0441 15.331 93.7381 15.691C93.4501 16.033 93.3061 16.492 93.3061 17.068V26.032C93.3061 26.608 93.4501 27.076 93.7381 27.436C94.0441 27.778 94.4491 27.949 94.9531 27.949ZM107.391 31.216C106.347 31.216 105.429 31.009 104.637 30.595C103.845 30.181 103.233 29.605 102.801 28.867C102.369 28.111 102.153 27.247 102.153 26.275V25.492C102.153 25.402 102.18 25.33 102.234 25.276C102.306 25.204 102.387 25.168 102.477 25.168H105.582C105.672 25.168 105.744 25.204 105.798 25.276C105.87 25.33 105.906 25.402 105.906 25.492V26.086C105.906 26.644 106.05 27.094 106.338 27.436C106.626 27.778 106.986 27.949 107.418 27.949C107.85 27.949 108.21 27.787 108.498 27.463C108.786 27.139 108.93 26.716 108.93 26.194C108.93 25.654 108.75 25.195 108.39 24.817C108.03 24.421 107.328 23.845 106.284 23.089C105.384 22.441 104.655 21.865 104.097 21.361C103.539 20.857 103.062 20.236 102.666 19.498C102.27 18.76 102.072 17.905 102.072 16.933C102.072 15.403 102.549 14.179 103.503 13.261C104.457 12.343 105.717 11.884 107.283 11.884C108.867 11.884 110.136 12.361 111.09 13.315C112.062 14.269 112.548 15.52 112.548 17.068V17.716C112.548 17.806 112.512 17.887 112.44 17.959C112.386 18.013 112.314 18.04 112.224 18.04H109.119C109.029 18.04 108.948 18.013 108.876 17.959C108.822 17.887 108.795 17.806 108.795 17.716V16.987C108.795 16.429 108.651 15.988 108.363 15.664C108.093 15.322 107.733 15.151 107.283 15.151C106.851 15.151 106.5 15.313 106.23 15.637C105.96 15.943 105.825 16.375 105.825 16.933C105.825 17.473 105.996 17.95 106.338 18.364C106.68 18.778 107.355 19.354 108.363 20.092C109.479 20.92 110.316 21.595 110.874 22.117C111.45 22.621 111.891 23.188 112.197 23.818C112.521 24.43 112.683 25.168 112.683 26.032C112.683 27.616 112.197 28.876 111.225 29.812C110.253 30.748 108.975 31.216 107.391 31.216Z" fill="#313131"/>
</svg>
