<svg width="22" height="25" viewBox="0 0 22 25" fill="none" xmlns="http://www.w3.org/2000/svg">
<path d="M10.7843 0C11.6685 0 12.5217 0.333408 13.1808 0.935547L20.3702 7.37402C20.7492 7.7203 21.0523 8.14451 21.2589 8.61914C21.4655 9.09389 21.5708 9.60841 21.5685 10.1279V20.8379C21.5685 21.8118 21.1899 22.7459 20.5157 23.4346C19.8416 24.1232 18.9271 24.5098 17.9737 24.5098H3.59484C2.6415 24.5097 1.72696 24.1232 1.05284 23.4346C0.3788 22.7459 0.00010972 21.8117 0.00010972 20.8379V10.1396C-0.00388365 9.61823 0.101176 9.10185 0.307727 8.625C0.514307 8.14813 0.817863 7.72168 1.19835 7.37402L8.3878 0.935547C9.04683 0.33342 9.90012 4.29558e-05 10.7843 0ZM10.7843 2.47949C10.4933 2.47953 10.2119 2.58798 9.99327 2.78418L2.80382 9.20996C2.67615 9.32459 2.57422 9.46589 2.50402 9.62402C2.43377 9.78231 2.39681 9.95414 2.39659 10.1279V20.8379C2.39659 21.1625 2.52345 21.4736 2.74816 21.7031C2.97284 21.9326 3.27709 22.0625 3.59484 22.0625H5.99132V15.9424C5.99132 14.9686 6.37008 14.0343 7.04405 13.3457C7.71816 12.6571 8.63272 12.2696 9.58605 12.2695H11.9825C12.9359 12.2695 13.8504 12.6571 14.5245 13.3457C15.1986 14.0343 15.5773 14.9685 15.5773 15.9424V22.0625H17.9737C18.2915 22.0625 18.5967 21.9327 18.8214 21.7031C19.0459 21.4736 19.172 21.1624 19.172 20.8379V10.1279C19.1718 9.95417 19.1358 9.78229 19.0655 9.62402C18.9953 9.46575 18.8926 9.32466 18.7648 9.20996L11.5753 2.78418C11.3566 2.58794 11.0754 2.47949 10.7843 2.47949ZM9.58605 14.7178C9.26849 14.7178 8.96401 14.8469 8.73937 15.0762C8.51465 15.3057 8.3878 15.6178 8.3878 15.9424V22.0625H13.1808V15.9424C13.1808 15.6178 13.0549 15.3057 12.8302 15.0762C12.6055 14.8467 12.3003 14.7178 11.9825 14.7178H9.58605Z" fill="white"/>
</svg>
