<svg width="25" height="25" viewBox="0 0 25 25" fill="none" xmlns="http://www.w3.org/2000/svg">
<path d="M9.85507 24.953C6.97015 24.2931 4.60619 22.803 2.76321 20.4827C0.920228 18.1624 -0.000841737 15.5015 5.77191e-07 12.5C0.000842891 9.4985 0.922335 6.83759 2.76447 4.51728C4.60662 2.19697 6.97015 0.706862 9.85507 0.0469572C10.2552 -0.0594791 10.6081 0.0150262 10.9139 0.270473C11.2196 0.52592 11.3721 0.866516 11.3712 1.29226C11.3712 1.59028 11.287 1.85637 11.1185 2.09053C10.9501 2.32469 10.7184 2.4737 10.4236 2.53757C8.10727 3.06975 6.21207 4.26183 4.73802 6.11382C3.26397 7.96582 2.52694 10.0945 2.52694 12.5C2.52694 14.9055 3.26397 17.0342 4.73802 18.8862C6.21207 20.7382 8.10727 21.9303 10.4236 22.4624C10.7184 22.5263 10.9501 22.6753 11.1185 22.9095C11.287 23.1436 11.3712 23.4097 11.3712 23.7077C11.3712 24.1335 11.2188 24.4741 10.9139 24.7295C10.6089 24.985 10.256 25.0595 9.85507 24.953ZM15.4143 24.953C15.0142 25.0595 14.6617 24.985 14.3568 24.7295C14.0519 24.4741 13.899 24.1335 13.8982 23.7077C13.8982 23.4097 13.9824 23.1436 14.1509 22.9095C14.3193 22.6753 14.551 22.5263 14.8458 22.4624C15.4143 22.3347 15.9673 22.1589 16.5047 21.9349C17.0421 21.711 17.5526 21.4398 18.036 21.1213C18.2677 20.951 18.5259 20.8872 18.8106 20.9298C19.0953 20.9723 19.3425 21.1 19.5522 21.3129C19.847 21.6109 19.9734 21.9571 19.9313 22.3513C19.8891 22.7456 19.6996 23.0593 19.3627 23.2926C18.752 23.6758 18.1148 24.0058 17.4511 24.2825C16.7873 24.5592 16.1084 24.7827 15.4143 24.953ZM21.3527 19.5248C21.1421 19.3119 21.0157 19.062 20.9736 18.7751C20.9315 18.4881 20.9947 18.2271 21.1631 17.9921C21.479 17.5025 21.7477 16.981 21.9692 16.4275C22.1908 15.874 22.3643 15.3099 22.4898 14.7352C22.553 14.4371 22.7004 14.2085 22.932 14.0493C23.1636 13.8901 23.4269 13.81 23.7217 13.8092C24.1428 13.8092 24.4797 13.9637 24.7324 14.2728C24.9851 14.5819 25.0588 14.9382 24.9535 15.3418C24.7851 16.0443 24.564 16.7311 24.2902 17.402C24.0165 18.073 23.6901 18.7167 23.311 19.3332C23.0794 19.6738 22.769 19.8654 22.3799 19.908C21.9907 19.9505 21.6483 19.8228 21.3527 19.5248ZM23.7217 11.2228C23.4269 11.2228 23.1636 11.1376 22.932 10.9673C22.7004 10.797 22.553 10.5629 22.4898 10.2648C22.3634 9.69008 22.1895 9.13151 21.968 8.58911C21.7464 8.04671 21.4782 7.53028 21.1631 7.03982C20.9947 6.78437 20.9315 6.51317 20.9736 6.22622C21.0157 5.93927 21.1421 5.68893 21.3527 5.47521C21.6475 5.17719 21.9899 5.04946 22.3799 5.09204C22.7698 5.13461 23.0802 5.33684 23.311 5.69872C23.6901 6.31605 24.0165 6.9602 24.2902 7.63118C24.564 8.30215 24.7851 8.98845 24.9535 9.69008C25.0588 10.0945 24.9851 10.4513 24.7324 10.7604C24.4797 11.0695 24.1428 11.2236 23.7217 11.2228ZM18.036 3.87866C17.5517 3.55935 17.0413 3.28773 16.5047 3.06379C15.9682 2.83984 15.4152 2.66444 14.8458 2.53757C14.551 2.4737 14.3193 2.32469 14.1509 2.09053C13.9824 1.85637 13.8982 1.59028 13.8982 1.29226C13.8982 0.866516 14.0511 0.52592 14.3568 0.270473C14.6626 0.0150262 15.0151 -0.0594791 15.4143 0.0469572C16.1093 0.217255 16.7886 0.440772 17.4523 0.717506C18.1161 0.99424 18.7529 1.32419 19.3627 1.70736C19.7207 1.94152 19.9207 2.25572 19.9628 2.64996C20.005 3.0442 19.8786 3.38991 19.5838 3.68708C19.3732 3.89995 19.126 4.02767 18.8421 4.07025C18.5583 4.11282 18.2896 4.04896 18.036 3.87866ZM13.8666 13.9369L16.204 11.574C16.4567 11.3186 16.762 11.1908 17.12 11.1908C17.478 11.1908 17.7833 11.3186 18.036 11.574C18.2887 11.8295 18.41 12.1381 18.3999 12.5C18.3898 12.8619 18.258 13.1705 18.0045 13.426L13.4876 17.9921C13.2559 18.2263 12.9611 18.3434 12.6031 18.3434C12.2451 18.3434 11.9503 18.2263 11.7187 17.9921L7.13861 13.3302C6.88592 13.0748 6.76462 12.7716 6.77473 12.4208C6.78484 12.07 6.91666 11.7664 7.1702 11.5101C7.42373 11.2538 7.72402 11.1261 8.07105 11.127C8.41808 11.1278 8.71795 11.2555 8.97064 11.5101L11.3397 13.9369V7.39106C11.3397 7.02918 11.4609 6.72605 11.7035 6.48167C11.9461 6.23729 12.246 6.11468 12.6031 6.11382C12.9603 6.11297 13.2605 6.23559 13.504 6.48167C13.7474 6.72775 13.8683 7.03088 13.8666 7.39106V13.9369Z" fill="#313131"/>
</svg>
