<svg width="23" height="23" viewBox="0 0 23 23" fill="none" xmlns="http://www.w3.org/2000/svg">
<path d="M10.35 6.75C10.35 6.19772 10.7977 5.75 11.35 5.75H11.65C12.2023 5.75 12.65 6.19772 12.65 6.75V7.05C12.65 7.60228 12.2023 8.05 11.65 8.05H11.35C10.7977 8.05 10.35 7.60228 10.35 7.05V6.75ZM10.35 11.35C10.35 10.7977 10.7977 10.35 11.35 10.35H11.65C12.2023 10.35 12.65 10.7977 12.65 11.35V16.25C12.65 16.8023 12.2023 17.25 11.65 17.25H11.35C10.7977 17.25 10.35 16.8023 10.35 16.25V11.35ZM11.5 0C5.152 0 0 5.152 0 11.5C0 17.848 5.152 23 11.5 23C17.848 23 23 17.848 23 11.5C23 5.152 17.848 0 11.5 0ZM11.5 20.7C6.4285 20.7 2.3 16.5715 2.3 11.5C2.3 6.4285 6.4285 2.3 11.5 2.3C16.5715 2.3 20.7 6.4285 20.7 11.5C20.7 16.5715 16.5715 20.7 11.5 20.7Z" fill="#313131"/>
</svg>
