<svg width="172" height="49" viewBox="0 0 172 49" fill="none" xmlns="http://www.w3.org/2000/svg">
<path d="M29.4728 22.9206H35.9168L33.5829 29.927H27.139L29.4728 22.9206ZM42.0302 4.54688L38.3952 15.4388H31.9513L35.5863 4.54688H27.4901L23.855 15.4388H19.1666L22.2647 6.1383H14.2097L11.1117 15.4388H6.48529L3.98617 22.9413H8.61262L0 48.7761H42.6498L45.149 41.2737H10.554L16.6676 22.9413H21.3559L16.5229 37.4295H39.0974L43.9304 22.9413H51.2625L53.7615 15.4388H46.4295L50.0645 4.54688H42.0302Z" fill="white"/>
<path d="M102.878 43.8779V48.9416H106.203V48.1148H103.849V43.8779H102.878Z" fill="white"/>
<path d="M108.644 45.4078H107.797V48.9396H108.644V45.4078Z" fill="white"/>
<path d="M108.644 43.8779H107.797V44.6008H108.644V43.8779Z" fill="white"/>
<path d="M112.503 46.0478H111.635V48.9413H110.789V46.0478H110.293V45.4071H110.789V45.0971C110.789 44.2497 110.995 43.8983 111.925 43.8983H112.482V44.539H112.234C111.656 44.5184 111.656 44.7457 111.656 45.2004V45.4071H112.524V46.0478H112.503Z" fill="white"/>
<path d="M116.424 46.7912C116.424 46.0683 116.321 46.0064 115.619 46.0064C114.875 46.0064 114.834 46.1716 114.834 46.7912H116.424ZM117.271 47.8239C117.271 48.9392 116.631 48.9805 115.619 48.9805C114.256 48.9805 113.987 48.5468 113.987 47.1836C113.987 45.9237 114.194 45.3661 115.619 45.3661C117.065 45.3661 117.271 45.7998 117.271 47.3282H114.855C114.855 48.0924 114.875 48.3402 115.64 48.3402C116.115 48.3402 116.445 48.3402 116.445 47.8239H117.271Z" fill="white"/>
<path d="M118.718 45.4062H119.172V44.6007H120.019V45.4062H121.382V46.0465H120.019V47.864C120.019 48.1944 120.019 48.339 120.391 48.339C120.866 48.339 120.824 47.9673 120.824 47.5955H121.568C121.589 48.6695 121.32 48.9999 120.391 48.9999C119.461 48.9999 119.172 48.7934 119.172 47.8846V46.0671H118.718V45.4062Z" fill="white"/>
<path d="M123.161 48.9416H124.008V45.4074H123.161V48.9416ZM123.161 44.6013H124.008V43.8779H123.161V44.6013Z" fill="white"/>
<path d="M126.793 45.4074V45.9237H126.814C127 45.4694 127.475 45.3661 127.929 45.3661C128.383 45.3661 128.879 45.49 128.982 45.9857H129.003C129.168 45.49 129.643 45.3661 130.118 45.3661C131.027 45.3661 131.337 45.6759 131.337 46.5433V48.9392H130.49V46.626C130.469 46.1716 130.366 46.0064 129.891 46.0064C129.21 46.0064 129.065 46.3162 129.065 46.9358V48.9392H128.218V46.626C128.198 46.1716 128.094 46.0064 127.619 46.0064C126.938 46.0064 126.793 46.3162 126.793 46.9358V48.9392H125.946V45.4074H126.793Z" fill="white"/>
<path d="M135.677 46.7912C135.677 46.0683 135.574 46.0064 134.872 46.0064C134.128 46.0064 134.087 46.1716 134.087 46.7912H135.677ZM136.524 47.8239C136.524 48.9392 135.884 48.9805 134.872 48.9805C133.509 48.9805 133.24 48.5468 133.24 47.1836C133.24 45.9237 133.447 45.3661 134.872 45.3661C136.318 45.3661 136.524 45.7998 136.524 47.3282H134.087C134.087 48.0924 134.108 48.3402 134.872 48.3402C135.347 48.3402 135.677 48.3402 135.677 47.8239H136.524Z" fill="white"/>
<path d="M141.519 45.4062H141.973V44.6007H142.82V45.4062H144.183V46.0465H142.82V47.864C142.82 48.1944 142.82 48.339 143.191 48.339C143.667 48.339 143.625 47.9673 143.625 47.5955H144.369C144.389 48.6695 144.121 48.9999 143.191 48.9999C142.262 48.9999 141.973 48.7934 141.973 47.8846V46.0671H141.519V45.4062Z" fill="white"/>
<path d="M146.723 47.1836C146.723 48.1337 146.785 48.3402 147.528 48.3402C148.293 48.3402 148.334 48.1337 148.334 47.1836C148.334 46.2335 148.272 46.0064 147.528 46.0064C146.785 46.0064 146.723 46.2335 146.723 47.1836ZM149.201 47.1836C149.201 48.5468 149.015 48.9805 147.528 48.9805C146.041 48.9805 145.855 48.5468 145.855 47.1836C145.855 45.7998 146.041 45.3661 147.528 45.3661C149.015 45.3661 149.201 45.7998 149.201 47.1836Z" fill="white"/>
<path d="M151.823 47.1839C151.823 48.1339 151.884 48.3405 152.628 48.3405C153.372 48.3405 153.434 48.1339 153.434 47.1839C153.434 46.2338 153.372 46.0066 152.628 46.0066C151.884 46.0066 151.823 46.2338 151.823 47.1839ZM154.301 47.1839C154.301 48.547 154.115 48.9807 152.628 48.9807C151.141 48.9807 150.955 48.547 150.955 47.1839C150.955 45.8001 151.141 45.3663 152.628 45.3663C154.115 45.3663 154.301 45.8001 154.301 47.1839Z" fill="white"/>
<path d="M157.048 43.8779H156.201V48.9416H157.048V43.8779Z" fill="white"/>
<path d="M91.7858 24.6777H78.4848L78.175 24.2023L78.4642 23.3136L79.1044 22.8382H97.0112L99.4483 15.4805H78.3196L72.1855 20.0894L69.7484 27.4472L72.8051 32.0354H86.1061L86.4365 32.5108L86.1267 33.3995L85.5071 33.8749H67.6003L65.1426 41.2326H86.2919L92.4054 36.6444L94.8632 29.2866L91.7858 24.6777Z" fill="white"/>
<path d="M120.489 24.6776H107.188L106.858 24.2022L107.167 23.3135L107.808 22.8381H125.694L128.151 15.4803H107.023L100.889 20.0893L98.4308 27.4471L101.508 32.0353H114.809L115.119 32.5107L114.83 33.3994L114.19 33.8748H96.2828L93.8457 41.2325H114.974L121.109 36.6443L123.546 29.2865L120.489 24.6776Z" fill="white"/>
<path d="M132.721 33.8748L133.32 32.0353H146.187L148.645 24.6776H135.777L136.397 22.8381H154.779L157.216 15.4803H131.481L122.91 41.2325H148.645L151.102 33.8748H132.721Z" fill="white"/>
<path d="M74.6625 4.54736H74.0223H73.3614H72.432H71.771H71.1101H67.3099H66.6696H66.0087H65.0793H64.4183H63.7574L57.9537 21.9291L51.3652 41.7289H53.6165H60.0191H62.2703L68.074 24.3265L74.6625 4.54736Z" fill="white"/>
<path d="M169.525 14.86H163.102H160.85L160.045 17.3178H170.95L171.776 14.86H169.525Z" fill="white"/>
<path d="M159.282 19.5721L159.055 20.2749L158.084 23.2097L151.867 41.8521H154.118H160.542H162.772L168.597 24.4084L168.7 24.0571L169.361 22.073L170.476 18.7454L170.517 18.6421H159.592L159.282 19.5721Z" fill="white"/>
<path d="M50.3936 44.6427L49.0098 48.7528H100.396V44.6427H50.3936Z" fill="white"/>
<path d="M65.0185 0L64.9979 0.103268L68.7774 0.289151L64.8532 0.536996L64.8326 0.598957L68.6123 0.805493H68.5709H68.5916L64.6674 1.05334L64.6467 1.15661L68.447 1.40445L64.4815 1.63164L64.4608 1.6936L68.3024 1.90014L64.3163 2.12733L64.2956 2.2306L68.0959 2.47844L64.1304 2.70563L64.1097 2.76759L67.9513 2.97413L63.9652 3.20132L63.9238 3.3459H75.2008L75.3247 2.95348L75.4486 2.58171L76.0682 0.764186L76.1921 0.371766L76.3367 0H65.0185Z" fill="white"/>
<path d="M64.5635 1.03259V1.07405L64.6671 1.05332L64.6879 1.03259H64.5635Z" fill="white"/>
<path d="M161.287 46.357C161.287 45.9439 161.059 45.9439 160.626 45.9439C160.171 45.9439 159.882 45.9439 159.882 46.3983C159.882 46.7494 159.985 46.7494 160.708 46.7907C161.534 46.832 162.257 46.7701 162.257 47.906C162.257 48.8561 161.514 48.9387 160.626 48.9387C159.676 48.9387 159.035 48.9387 159.035 47.8028H159.882C159.903 48.3191 160.006 48.3604 160.626 48.3604C161.121 48.3604 161.41 48.3811 161.41 47.8854C161.41 47.5756 161.39 47.431 160.543 47.4103C159.262 47.3897 159.015 47.2245 159.015 46.3157C159.015 45.3656 159.717 45.345 160.605 45.345C161.287 45.345 162.113 45.3656 162.113 46.3363H161.287V46.357Z" fill="white"/>
</svg>
