<svg width="376" height="108" viewBox="0 0 376 108" fill="none" xmlns="http://www.w3.org/2000/svg">
<path d="M64.5129 50.1709H78.618L73.5094 65.5072H59.4043L64.5129 50.1709ZM91.9997 9.9527L84.043 33.7941H69.938L77.8946 9.9527H60.1728L52.2161 33.7941H41.9537L48.735 13.4362H31.1036L24.3223 33.7941H14.1956L8.7253 50.2161H18.8521L0 106.766H93.356L98.8263 90.3438H23.1017L36.4835 50.2161H46.7459L36.167 81.9292H85.5801L96.159 50.2161H112.208L117.678 33.7941H101.629L109.586 9.9527H91.9997Z" fill="#00AE42"/>
<path d="M225.188 96.0441V107.128H232.467V105.318H227.313V96.0441H225.188Z" fill="white"/>
<path d="M237.809 99.393H235.955V107.124H237.809V99.393Z" fill="white"/>
<path d="M237.809 96.0441H235.955V97.6264H237.809V96.0441Z" fill="white"/>
<path d="M246.256 100.794H244.358V107.127H242.504V100.794H241.419V99.3912H242.504V98.7126C242.504 96.8578 242.956 96.0887 244.99 96.0887H246.211V97.4911H245.669C244.403 97.4459 244.403 97.9435 244.403 98.9388V99.3912H246.302V100.794H246.256Z" fill="white"/>
<path d="M254.841 102.421C254.841 100.839 254.615 100.703 253.078 100.703C251.451 100.703 251.36 101.065 251.36 102.421H254.841ZM256.695 104.681C256.695 107.123 255.294 107.213 253.078 107.213C250.095 107.213 249.507 106.264 249.507 103.28C249.507 100.522 249.959 99.3015 253.078 99.3015C256.243 99.3015 256.695 100.251 256.695 103.596H251.406C251.406 105.269 251.451 105.812 253.124 105.812C254.163 105.812 254.887 105.812 254.887 104.681H256.695Z" fill="white"/>
<path d="M259.86 99.3895H260.855V97.6263H262.709V99.3895H265.692V100.791H262.709V104.769C262.709 105.493 262.709 105.809 263.522 105.809C264.562 105.809 264.472 104.995 264.472 104.182H266.099C266.144 106.532 265.557 107.256 263.522 107.256C261.488 107.256 260.855 106.804 260.855 104.815V100.836H259.86V99.3895Z" fill="white"/>
<path d="M269.587 107.128H271.441V99.3918H269.587V107.128ZM269.587 97.6275H271.441V96.0441H269.587V97.6275Z" fill="white"/>
<path d="M277.536 99.3921V100.522H277.581C277.988 99.5277 279.028 99.3017 280.023 99.3017C281.017 99.3017 282.102 99.5729 282.328 100.658H282.374C282.735 99.5729 283.775 99.3017 284.815 99.3017C286.804 99.3017 287.482 99.9798 287.482 101.879V107.123H285.629V102.059C285.583 101.065 285.357 100.703 284.318 100.703C282.826 100.703 282.509 101.381 282.509 102.738V107.123H280.656V102.059C280.61 101.065 280.384 100.703 279.345 100.703C277.853 100.703 277.536 101.381 277.536 102.738V107.123H275.683V99.3921H277.536Z" fill="white"/>
<path d="M296.983 102.421C296.983 100.839 296.757 100.703 295.22 100.703C293.592 100.703 293.502 101.065 293.502 102.421H296.983ZM298.837 104.682C298.837 107.123 297.435 107.213 295.22 107.213C292.236 107.213 291.648 106.264 291.648 103.28C291.648 100.522 292.1 99.3017 295.22 99.3017C298.384 99.3017 298.837 100.251 298.837 103.597H293.502C293.502 105.269 293.547 105.812 295.22 105.812C296.26 105.812 296.983 105.812 296.983 104.682H298.837Z" fill="white"/>
<path d="M309.769 99.3895H310.763V97.6263H312.617V99.3895H315.6V100.791H312.617V104.769C312.617 105.493 312.617 105.809 313.43 105.809C314.47 105.809 314.38 104.995 314.38 104.182H316.007C316.052 106.532 315.465 107.256 313.43 107.256C311.396 107.256 310.763 106.804 310.763 104.815V100.836H309.769V99.3895Z" fill="white"/>
<path d="M321.159 103.28C321.159 105.36 321.295 105.812 322.923 105.812C324.595 105.812 324.686 105.36 324.686 103.28C324.686 101.2 324.55 100.703 322.923 100.703C321.295 100.703 321.159 101.2 321.159 103.28ZM326.585 103.28C326.585 106.264 326.178 107.213 322.923 107.213C319.668 107.213 319.261 106.264 319.261 103.28C319.261 100.251 319.668 99.3017 322.923 99.3017C326.178 99.3017 326.585 100.251 326.585 103.28Z" fill="white"/>
<path d="M332.323 103.28C332.323 105.36 332.458 105.812 334.086 105.812C335.713 105.812 335.849 105.36 335.849 103.28C335.849 101.201 335.713 100.704 334.086 100.704C332.458 100.704 332.323 101.201 332.323 103.28ZM337.748 103.28C337.748 106.264 337.341 107.214 334.086 107.214C330.831 107.214 330.424 106.264 330.424 103.28C330.424 100.252 330.831 99.3021 334.086 99.3021C337.341 99.3021 337.748 100.252 337.748 103.28Z" fill="white"/>
<path d="M343.762 96.0441H341.908V107.128H343.762V96.0441Z" fill="white"/>
<path d="M200.91 54.0169H171.796L171.117 52.9764L171.75 51.0311L173.152 49.9906H212.348L217.682 33.8852H171.434L158.007 43.9737L152.672 60.079L159.363 70.1223H188.478L189.201 71.1628L188.523 73.1081L187.167 74.1486H147.971L142.591 90.254H188.884L202.266 80.2107L207.646 64.1054L200.91 54.0169Z" fill="white"/>
<path d="M263.738 54.0166H234.624L233.9 52.9761L234.579 51.0308L235.98 49.9903H275.131L280.511 33.8849H234.262L220.835 43.9734L215.455 60.0787L222.191 70.122H251.306L251.984 71.1625L251.351 73.1078L249.95 74.1483H210.754L205.419 90.2537H251.667L265.094 80.2104L270.429 64.1051L263.738 54.0166Z" fill="white"/>
<path d="M290.511 74.1483L291.822 70.122H319.987L325.367 54.0166H297.202L298.558 49.9903H338.794L344.129 33.8849H287.799L269.037 90.2537H325.367L330.747 74.1483H290.511Z" fill="white"/>
<path d="M163.427 9.95361H162.026H160.579H158.545H157.098H155.651H147.333H145.931H144.485H142.45H141.004H139.557L126.853 48.0003L112.432 91.34H117.359H131.374H136.302L149.005 53.2481L163.427 9.95361Z" fill="white"/>
<path d="M371.072 32.527H357.012H352.084L350.321 37.9069H374.192L376 32.527H371.072Z" fill="white"/>
<path d="M348.651 42.8413L348.154 44.3795L346.029 50.8035L332.421 91.6098H337.349H351.409H356.291L369.04 53.4274L369.266 52.6584L370.713 48.3154L373.154 41.0317L373.244 40.8055H349.329L348.651 42.8413Z" fill="white"/>
<path d="M110.306 97.7181L107.277 106.715H219.757V97.7181H110.306Z" fill="white"/>
<path d="M142.318 0L142.273 0.226043L150.546 0.632922L141.956 1.17543L141.911 1.31105L150.184 1.76314H150.094H150.139L141.549 2.30564L141.504 2.53169L149.823 3.07419L141.143 3.57149L141.097 3.70711L149.506 4.1592L140.781 4.6565L140.736 4.88254L149.054 5.42504L140.374 5.92234L140.329 6.05797L148.738 6.51005L140.012 7.00735L139.922 7.32381H164.606L164.877 6.46484L165.148 5.65109L166.505 1.67272L166.776 0.813757L167.092 0H142.318Z" fill="white"/>
<path d="M141.322 2.26019V2.35061L141.548 2.3054L141.594 2.26019H141.322Z" fill="white"/>
<path d="M353.038 101.471C353.038 100.566 352.541 100.566 351.592 100.566C350.597 100.566 349.964 100.566 349.964 101.561C349.964 102.33 350.19 102.33 351.773 102.42C353.581 102.51 355.163 102.375 355.163 104.861C355.163 106.941 353.536 107.122 351.592 107.122C349.512 107.122 348.111 107.122 348.111 104.635H349.964C350.009 105.765 350.235 105.856 351.592 105.856C352.677 105.856 353.31 105.901 353.31 104.816C353.31 104.138 353.264 103.821 351.411 103.776C348.608 103.731 348.065 103.369 348.065 101.38C348.065 99.3006 349.603 99.2554 351.546 99.2554C353.038 99.2554 354.847 99.3006 354.847 101.425H353.038V101.471Z" fill="white"/>
</svg>
