<svg width="80" height="29" viewBox="0 0 80 29" fill="none" xmlns="http://www.w3.org/2000/svg">
<path d="M80 13.7635L80 14.7908C80 15.4913 79.7183 16.1918 79.2019 16.7055L68.3568 27.4929C67.8404 28.0065 67.1831 28.2867 66.4319 28.2867L2.93952e-06 28.2867C2.61305e-05 18.9469 -1.81381e-05 9.60721 5.053e-06 0.267494L66.4319 0.267586C67.1361 0.267586 67.8404 0.547773 68.3568 1.06146L79.2488 11.8955C79.7183 12.3625 80 13.063 80 13.7635Z" fill="#00AE42"/>
<path d="M17.6084 13.7616H19.7092L18.9483 16.0458H16.8475L17.6084 13.7616ZM21.7022 7.77161L20.5172 11.3225H18.4164L19.6015 7.77161H16.962L15.7769 11.3225H14.2485L15.2585 8.29043H12.6325L11.6225 11.3225H10.1143L9.29953 13.7684H10.8078L8 22.1908H21.9042L22.719 19.7449H11.4407L13.4338 13.7684H14.9622L13.3866 18.4916H20.7461L22.3217 13.7684H24.712L25.5268 11.3225H23.1364L24.3215 7.77161H21.7022Z" fill="white"/>
<path d="M41.5391 20.594V22.2448H42.6231V21.9753H41.8555V20.594H41.5391Z" fill="white"/>
<path d="M43.4186 21.0927H43.1426V22.244H43.4186V21.0927Z" fill="white"/>
<path d="M43.4186 20.594H43.1426V20.8297H43.4186V20.594Z" fill="white"/>
<path d="M44.6765 21.3013H44.3937V22.2446H44.1177V21.3013H43.9561V21.0925H44.1177V20.9914C44.1177 20.7151 44.185 20.6006 44.488 20.6006H44.6698V20.8095H44.589C44.4005 20.8027 44.4005 20.8768 44.4005 21.0251V21.0925H44.6833V21.3013H44.6765Z" fill="white"/>
<path d="M45.9557 21.5437C45.9557 21.308 45.922 21.2878 45.6931 21.2878C45.4507 21.2878 45.4372 21.3417 45.4372 21.5437H45.9557ZM46.2317 21.8804C46.2317 22.244 46.023 22.2574 45.6931 22.2574C45.2487 22.2574 45.1611 22.116 45.1611 21.6716C45.1611 21.2609 45.2285 21.0791 45.6931 21.0791C46.1644 21.0791 46.2317 21.2205 46.2317 21.7188H45.4439C45.4439 21.9679 45.4507 22.0487 45.6998 22.0487C45.8547 22.0487 45.9624 22.0487 45.9624 21.8804H46.2317Z" fill="white"/>
<path d="M46.7031 21.0922H46.8513V20.8296H47.1273V21.0922H47.5717V21.3009H47.1273V21.8934C47.1273 22.0012 47.1273 22.0483 47.2485 22.0483C47.4034 22.0483 47.3899 21.9271 47.3899 21.8059H47.6323C47.6391 22.156 47.5515 22.2638 47.2485 22.2638C46.9455 22.2638 46.8513 22.1964 46.8513 21.9002V21.3077H46.7031V21.0922Z" fill="white"/>
<path d="M48.1514 22.2448H48.4274V21.0926H48.1514V22.2448ZM48.1514 20.8298H48.4274V20.594H48.1514V20.8298Z" fill="white"/>
<path d="M49.3356 21.0926V21.2609H49.3424C49.403 21.1128 49.5578 21.0791 49.706 21.0791C49.8541 21.0791 50.0157 21.1195 50.0494 21.2811H50.0561C50.11 21.1195 50.2648 21.0791 50.4197 21.0791C50.716 21.0791 50.817 21.1801 50.817 21.4629V22.244H50.5409V21.4898C50.5342 21.3417 50.5005 21.2878 50.3456 21.2878C50.1234 21.2878 50.0763 21.3888 50.0763 21.5908V22.244H49.8002V21.4898C49.7935 21.3417 49.7598 21.2878 49.605 21.2878C49.3828 21.2878 49.3356 21.3888 49.3356 21.5908V22.244H49.0596V21.0926H49.3356Z" fill="white"/>
<path d="M52.232 21.5437C52.232 21.308 52.1984 21.2878 51.9694 21.2878C51.727 21.2878 51.7136 21.3417 51.7136 21.5437H52.232ZM52.5081 21.8804C52.5081 22.244 52.2994 22.2574 51.9694 22.2574C51.525 22.2574 51.4375 22.116 51.4375 21.6716C51.4375 21.2609 51.5048 21.0791 51.9694 21.0791C52.4408 21.0791 52.5081 21.2205 52.5081 21.7188H51.7136C51.7136 21.9679 51.7203 22.0487 51.9694 22.0487C52.1243 22.0487 52.232 22.0487 52.232 21.8804H52.5081Z" fill="white"/>
<path d="M54.1357 21.0922H54.2839V20.8296H54.5599V21.0922H55.0043V21.3009H54.5599V21.8934C54.5599 22.0012 54.5599 22.0483 54.6811 22.0483C54.836 22.0483 54.8225 21.9271 54.8225 21.8059H55.0649C55.0717 22.156 54.9841 22.2638 54.6811 22.2638C54.3781 22.2638 54.2839 22.1964 54.2839 21.9002V21.3077H54.1357V21.0922Z" fill="white"/>
<path d="M55.8326 21.6716C55.8326 21.9814 55.8528 22.0487 56.0952 22.0487C56.3443 22.0487 56.3578 21.9814 56.3578 21.6716C56.3578 21.3619 56.3376 21.2878 56.0952 21.2878C55.8528 21.2878 55.8326 21.3619 55.8326 21.6716ZM56.6406 21.6716C56.6406 22.116 56.58 22.2574 56.0952 22.2574C55.6104 22.2574 55.5498 22.116 55.5498 21.6716C55.5498 21.2205 55.6104 21.0791 56.0952 21.0791C56.58 21.0791 56.6406 21.2205 56.6406 21.6716Z" fill="white"/>
<path d="M57.4957 21.6716C57.4957 21.9814 57.5159 22.0487 57.7583 22.0487C58.0007 22.0487 58.0209 21.9814 58.0209 21.6716C58.0209 21.3619 58.0007 21.2878 57.7583 21.2878C57.5159 21.2878 57.4957 21.3619 57.4957 21.6716ZM58.3037 21.6716C58.3037 22.116 58.2431 22.2574 57.7583 22.2574C57.2735 22.2574 57.2129 22.116 57.2129 21.6716C57.2129 21.2205 57.2735 21.0791 57.7583 21.0791C58.2431 21.0791 58.3037 21.2205 58.3037 21.6716Z" fill="white"/>
<path d="M59.1989 20.594H58.9229V22.2448H59.1989V20.594Z" fill="white"/>
<path d="M37.9232 14.3344H33.587L33.486 14.1795L33.5803 13.8897L33.789 13.7348H39.6268L40.4213 11.3361H33.5331L31.5333 12.8386L30.7388 15.2373L31.7353 16.7331H36.0716L36.1793 16.8881L36.0783 17.1778L35.8763 17.3328H30.0386L29.2373 19.7315H36.1322L38.1252 18.2357L38.9265 15.837L37.9232 14.3344Z" fill="white"/>
<path d="M47.2807 14.3344H42.9444L42.8367 14.1795L42.9377 13.8897L43.1464 13.7348H48.9775L49.7787 11.3361H42.8906L40.8908 12.8386L40.0895 15.2373L41.0928 16.7331H45.429L45.53 16.8881L45.4357 17.1778L45.227 17.3328H39.3893L38.5947 19.7315H45.4829L47.4827 18.2357L48.2772 15.837L47.2807 14.3344Z" fill="white"/>
<path d="M51.2676 17.3328L51.4629 16.7331H55.6577L56.459 14.3344H52.2642L52.4662 13.7348H58.4588L59.2533 11.3361H50.8637L48.0693 19.7315H56.459L57.2603 17.3328H51.2676Z" fill="white"/>
<path d="M32.3403 7.77173H32.1315H31.9161H31.6131H31.3976H31.1821H29.9432H29.7345H29.519H29.216H29.0006H28.7851L26.893 13.4383L24.7451 19.8932H25.479H27.5664H28.3003L30.1923 14.2199L32.3403 7.77173Z" fill="white"/>
<path d="M63.2664 11.1338H61.1723H60.4384L60.1758 11.9351H63.731L64.0003 11.1338H63.2664Z" fill="white"/>
<path d="M59.927 12.67L59.853 12.8991L59.5365 13.8559L57.5098 19.9335H58.2437H60.3377H61.0649L62.9637 14.2467L62.9974 14.1322L63.2129 13.4853L63.5765 12.4005L63.5899 12.3668H60.028L59.927 12.67Z" fill="white"/>
<path d="M24.4287 20.8433L23.9775 22.1832H40.73V20.8433H24.4287Z" fill="white"/>
<path d="M29.1967 6.28931L29.19 6.32297L30.4222 6.38357L29.1428 6.46437L29.1361 6.48457L30.3683 6.5519H30.3548H30.3616L29.0822 6.6327L29.0755 6.66637L30.3144 6.74717L29.0217 6.82124L29.0149 6.84144L30.2673 6.90877L28.9678 6.98284L28.961 7.0165L30.2 7.0973L28.9072 7.17137L28.9005 7.19157L30.1528 7.2589L28.8533 7.33297L28.8398 7.3801H32.5162L32.5566 7.25217L32.597 7.13097L32.799 6.53844L32.8394 6.41051L32.8866 6.28931H29.1967Z" fill="white"/>
<path d="M29.0479 6.62598V6.63944L29.0815 6.63271L29.0883 6.62598H29.0479Z" fill="white"/>
<path d="M60.5805 21.4022C60.5805 21.2675 60.5064 21.2675 60.365 21.2675C60.2169 21.2675 60.1226 21.2675 60.1226 21.4157C60.1226 21.5301 60.1563 21.5301 60.392 21.5436C60.6613 21.5571 60.897 21.5369 60.897 21.9072C60.897 22.2169 60.6546 22.2439 60.365 22.2439C60.0553 22.2439 59.8466 22.2439 59.8466 21.8735H60.1226C60.1294 22.0419 60.163 22.0553 60.365 22.0553C60.5266 22.0553 60.6209 22.0621 60.6209 21.9005C60.6209 21.7995 60.6142 21.7523 60.3381 21.7456C59.9206 21.7389 59.8398 21.685 59.8398 21.3887C59.8398 21.079 60.0688 21.0723 60.3583 21.0723C60.5805 21.0723 60.8498 21.079 60.8498 21.3955H60.5805V21.4022Z" fill="white"/>
</svg>
