<svg width="103" height="36" viewBox="0 0 103 36" fill="none" xmlns="http://www.w3.org/2000/svg">
<path d="M103 17.3401L103 18.6601C103 19.56 102.637 20.46 101.972 21.12L88.0094 34.98C87.3445 35.64 86.4982 36 85.5311 36L3.78464e-06 35.9999C3.36452e-05 23.9999 -2.33485e-05 12 6.51228e-06 7.62939e-06L85.5311 0.000126032C86.4378 0.000125953 87.3445 0.360119 88.0094 1.02011L102.033 14.9401C102.637 15.5401 103 16.4401 103 17.3401Z" fill="#00AE42"/>
<path d="M22.6706 17.3736H25.3754L24.3958 20.3145H21.691L22.6706 17.3736ZM27.9414 9.6615L26.4157 14.2333H23.7109L25.2367 9.6615H21.8384L20.3126 14.2333H18.3447L19.6451 10.3295H16.2642L14.9638 14.2333H13.0219L11.9729 17.3823H13.9148L10.2998 28.2261H28.2015L29.2505 25.0771H14.7297L17.2958 17.3823H19.2637L17.2351 23.4635H26.7104L28.739 17.3823H31.8165L32.8655 14.2333H29.788L31.3137 9.6615H27.9414Z" fill="white"/>
<path d="M53.4814 26.1702V28.2956H54.8772V27.9486H53.8889V26.1702H53.4814Z" fill="white"/>
<path d="M55.9013 26.8124H55.5459V28.2948H55.9013V26.8124Z" fill="white"/>
<path d="M55.9013 26.1702H55.5459V26.4736H55.9013V26.1702Z" fill="white"/>
<path d="M57.5214 27.0809H57.1572V28.2954H56.8018V27.0809H56.5938V26.812H56.8018V26.6819C56.8018 26.3262 56.8885 26.1787 57.2786 26.1787H57.5127V26.4476H57.4087C57.1659 26.439 57.1659 26.5344 57.1659 26.7252V26.812H57.53V27.0809H57.5214Z" fill="white"/>
<path d="M59.1675 27.393C59.1675 27.0895 59.1241 27.0635 58.8294 27.0635C58.5173 27.0635 58.5 27.1329 58.5 27.393H59.1675ZM59.5229 27.8264C59.5229 28.2946 59.2542 28.3119 58.8294 28.3119C58.2572 28.3119 58.1445 28.1298 58.1445 27.5577C58.1445 27.0289 58.2312 26.7948 58.8294 26.7948C59.4362 26.7948 59.5229 26.9769 59.5229 27.6184H58.5086C58.5086 27.9391 58.5173 28.0432 58.8381 28.0432C59.0374 28.0432 59.1761 28.0432 59.1761 27.8264H59.5229Z" fill="white"/>
<path d="M60.1299 26.8117H60.3206V26.4736H60.676V26.8117H61.2482V27.0804H60.676V27.8433C60.676 27.982 60.676 28.0427 60.8321 28.0427C61.0315 28.0427 61.0141 27.8866 61.0141 27.7306H61.3262C61.3349 28.1814 61.2222 28.3201 60.8321 28.3201C60.442 28.3201 60.3206 28.2334 60.3206 27.852V27.0891H60.1299V26.8117Z" fill="white"/>
<path d="M61.9951 28.2956H62.3506V26.8121H61.9951V28.2956ZM61.9951 26.4738H62.3506V26.1702H61.9951V26.4738Z" fill="white"/>
<path d="M63.5195 26.8121V27.0289H63.5282C63.6062 26.8381 63.8056 26.7948 63.9963 26.7948C64.187 26.7948 64.3951 26.8468 64.4384 27.0549H64.4471C64.5164 26.8468 64.7158 26.7948 64.9152 26.7948C65.2967 26.7948 65.4267 26.9248 65.4267 27.2889V28.2946H65.0713V27.3236C65.0626 27.1329 65.0193 27.0635 64.8199 27.0635C64.5338 27.0635 64.4731 27.1936 64.4731 27.4537V28.2946H64.1177V27.3236C64.109 27.1329 64.0657 27.0635 63.8663 27.0635C63.5802 27.0635 63.5195 27.1936 63.5195 27.4537V28.2946H63.1641V26.8121H63.5195Z" fill="white"/>
<path d="M67.2485 27.393C67.2485 27.0895 67.2052 27.0635 66.9104 27.0635C66.5983 27.0635 66.581 27.1329 66.581 27.393H67.2485ZM67.604 27.8264C67.604 28.2946 67.3352 28.3119 66.9104 28.3119C66.3383 28.3119 66.2256 28.1298 66.2256 27.5577C66.2256 27.0289 66.3123 26.7948 66.9104 26.7948C67.5173 26.7948 67.604 26.9769 67.604 27.6184H66.581C66.581 27.9391 66.5897 28.0432 66.9104 28.0432C67.1098 28.0432 67.2485 28.0432 67.2485 27.8264H67.604Z" fill="white"/>
<path d="M69.7002 26.8117H69.8909V26.4736H70.2463V26.8117H70.8185V27.0804H70.2463V27.8433C70.2463 27.982 70.2463 28.0427 70.4024 28.0427C70.6018 28.0427 70.5844 27.8866 70.5844 27.7306H70.8965C70.9052 28.1814 70.7925 28.3201 70.4024 28.3201C70.0123 28.3201 69.8909 28.2334 69.8909 27.852V27.0891H69.7002V26.8117Z" fill="white"/>
<path d="M71.8846 27.5577C71.8846 27.9565 71.9106 28.0432 72.2227 28.0432C72.5434 28.0432 72.5608 27.9565 72.5608 27.5577C72.5608 27.1589 72.5348 27.0635 72.2227 27.0635C71.9106 27.0635 71.8846 27.1589 71.8846 27.5577ZM72.9249 27.5577C72.9249 28.1298 72.8469 28.3119 72.2227 28.3119C71.5985 28.3119 71.5205 28.1298 71.5205 27.5577C71.5205 26.9769 71.5985 26.7948 72.2227 26.7948C72.8469 26.7948 72.9249 26.9769 72.9249 27.5577Z" fill="white"/>
<path d="M74.0252 27.5578C74.0252 27.9566 74.0512 28.0433 74.3633 28.0433C74.6754 28.0433 74.7014 27.9566 74.7014 27.5578C74.7014 27.159 74.6754 27.0637 74.3633 27.0637C74.0512 27.0637 74.0252 27.159 74.0252 27.5578ZM75.0655 27.5578C75.0655 28.13 74.9875 28.312 74.3633 28.312C73.7391 28.312 73.6611 28.13 73.6611 27.5578C73.6611 26.977 73.7391 26.7949 74.3633 26.7949C74.9875 26.7949 75.0655 26.977 75.0655 27.5578Z" fill="white"/>
<path d="M76.2187 26.1702H75.8633V28.2956H76.2187V26.1702Z" fill="white"/>
<path d="M48.8257 18.1111H43.2428L43.1128 17.9116L43.2342 17.5386L43.5029 17.3391H51.019L52.042 14.2507H43.1735L40.5987 16.1853L39.5758 19.2736L40.8588 21.1995H46.4417L46.5804 21.399L46.4504 21.772L46.1903 21.9715H38.6742L37.6426 25.0599H46.5197L49.0858 23.134L50.1174 20.0457L48.8257 18.1111Z" fill="white"/>
<path d="M60.8736 18.1111H55.2907L55.152 17.9116L55.282 17.5385L55.5507 17.339H63.0582L64.0898 14.2507H55.2213L52.6466 16.1852L51.615 19.2735L52.9067 21.1994H58.4896L58.6196 21.3989L58.4982 21.772L58.2295 21.9715H50.7134L49.6904 25.0598H58.5589L61.1337 23.1339L62.1566 20.0456L60.8736 18.1111Z" fill="white"/>
<path d="M66.0075 21.9715L66.2589 21.1994H71.6597L72.6914 18.1111H67.2905L67.5506 17.339H75.2661L76.289 14.2507H65.4873L61.8896 25.0598H72.6914L73.723 21.9715H66.0075Z" fill="white"/>
<path d="M41.6381 9.66168H41.3694H41.092H40.7019H40.4244H40.147H38.5519H38.2832H38.0058H37.6157H37.3382H37.0608L34.6248 16.9574L31.8594 25.2681H32.8043H35.4917H36.4366L38.8727 17.9637L41.6381 9.66168Z" fill="white"/>
<path d="M81.4557 13.9903H78.7596H77.8146L77.4766 15.0219H82.0539L82.4006 13.9903H81.4557Z" fill="white"/>
<path d="M77.1562 15.9681L77.0608 16.2631L76.6534 17.4949L74.0439 25.3199H74.9889H77.685H78.6212L81.0659 17.9981L81.1093 17.8506L81.3867 17.0178L81.8548 15.6211L81.8722 15.5778H77.2862L77.1562 15.9681Z" fill="white"/>
<path d="M31.4519 26.4912L30.8711 28.2164H52.4398V26.4912H31.4519Z" fill="white"/>
<path d="M37.5903 7.75299L37.5817 7.79634L39.1681 7.87436L37.521 7.97839L37.5123 8.00439L39.0988 8.09109H39.0814H39.0901L37.443 8.19512L37.4343 8.23846L39.0294 8.34249L37.3649 8.43785L37.3563 8.46386L38.9687 8.55055L37.2956 8.64591L37.2869 8.68925L38.882 8.79328L37.2176 8.88864L37.2089 8.91465L38.8213 9.00134L37.1482 9.0967L37.1309 9.15739H41.8642L41.9162 8.99267L41.9682 8.83663L42.2283 8.07375L42.2803 7.90903L42.341 7.75299H37.5903Z" fill="white"/>
<path d="M37.3994 8.1864V8.20374L37.4428 8.19507L37.4514 8.1864H37.3994Z" fill="white"/>
<path d="M77.9975 27.2107C77.9975 27.0374 77.9022 27.0374 77.7201 27.0374C77.5294 27.0374 77.408 27.0374 77.408 27.2281C77.408 27.3754 77.4514 27.3754 77.7548 27.3928C78.1016 27.4101 78.405 27.3841 78.405 27.8609C78.405 28.2597 78.0929 28.2944 77.7201 28.2944C77.3214 28.2944 77.0526 28.2944 77.0526 27.8176H77.408C77.4167 28.0343 77.4601 28.0516 77.7201 28.0516C77.9282 28.0516 78.0495 28.0603 78.0495 27.8523C78.0495 27.7222 78.0409 27.6615 77.6855 27.6529C77.148 27.6442 77.0439 27.5748 77.0439 27.1934C77.0439 26.7946 77.3387 26.7859 77.7115 26.7859C77.9975 26.7859 78.3443 26.7946 78.3443 27.2021H77.9975V27.2107Z" fill="white"/>
</svg>
