<svg width="32" height="27" viewBox="0 0 32 27" fill="none" xmlns="http://www.w3.org/2000/svg">
<path d="M32 13.9917V13.0083C32 12.3266 31.7111 11.6672 31.1813 11.1755L19.9609 0.759934C19.4432 0.279388 18.7329 0 17.9865 0H2.09481C0.939051 0 0 0.871689 0 1.94454V3.4197C0 4.49255 0.939051 5.36424 2.09481 5.36424H15.6027C16.3371 5.36424 17.0474 5.63245 17.5771 6.12417L24.921 12.9412C25.246 13.243 25.246 13.7459 24.921 14.0588L17.5771 20.8758C17.0594 21.3564 16.3491 21.6358 15.6027 21.6358H2.10685C0.951091 21.6358 0.012038 22.5075 0.012038 23.5803V25.0555C0.012038 26.1283 0.951091 27 2.10685 27H17.9985C18.7329 27 19.4432 26.7318 19.9729 26.2401L31.1934 15.8245C31.7111 15.3328 32 14.6846 32 13.9917Z" fill="#1C9BD8"/>
</svg>
