<svg width="32" height="28" viewBox="0 0 32 28" fill="none" xmlns="http://www.w3.org/2000/svg">
<path d="M32 14.5099V13.4901C32 12.7831 31.7111 12.0993 31.1813 11.5894L19.9609 0.78808C19.4432 0.289735 18.7329 0 17.9865 0H2.09481C0.939051 0 0 0.903974 0 2.01656V3.54636C0 4.65894 0.939051 5.56291 2.09481 5.56291H15.6027C16.3371 5.56291 17.0474 5.84106 17.5771 6.35099L24.921 13.4205C25.246 13.7334 25.246 14.255 24.921 14.5795L17.5771 21.649C17.0594 22.1473 16.3491 22.4371 15.6027 22.4371H2.10685C0.951091 22.4371 0.012038 23.3411 0.012038 24.4536V25.9834C0.012038 27.096 0.951091 28 2.10685 28H17.9985C18.7329 28 19.4432 27.7219 19.9729 27.2119L31.1934 16.4106C31.7111 15.9007 32 15.2285 32 14.5099Z" fill="#313131"/>
</svg>
