<svg width="181" height="36" viewBox="0 0 181 36" fill="none" xmlns="http://www.w3.org/2000/svg">
<path d="M0 13.2467V12.3088C0 11.6641 0.255928 11.0389 0.72841 10.57L10.6702 0.7229C11.123 0.253992 11.753 0 12.4027 0H26.4984C27.5221 0 28.3489 0.820589 28.3489 1.83656V3.24328C28.3489 4.25925 27.5221 5.07984 26.4984 5.07984H14.5288C13.8792 5.07984 13.2492 5.33383 12.7767 5.80274L6.26039 12.2502C5.96509 12.5433 5.96509 13.0122 6.26039 13.3053L12.7767 19.7723C13.2492 20.2412 13.8595 20.4952 14.5288 20.4952H26.4984C27.5221 20.4952 28.3489 21.3158 28.3489 22.3318V23.7385C28.3489 24.7544 27.5221 25.575 26.4984 25.575H12.4027C11.753 25.575 11.123 25.321 10.6505 24.8521L0.72841 14.9855C0.255928 14.5166 0 13.8914 0 13.2467Z" fill="#545454"/>
<path d="M42.1107 23.4845V22.5466C42.1107 21.9019 41.8547 21.2767 41.3823 20.8078L31.4404 10.9412C30.968 10.4723 30.3577 10.2183 29.6883 10.2183H15.6123C14.5886 10.2183 13.7617 11.0389 13.7617 12.0548V13.4811C13.7617 14.497 14.5886 15.3176 15.6123 15.3176H27.5818C28.2315 15.3176 28.8615 15.5716 29.334 16.0405L35.8503 22.5076C36.1456 22.8006 36.1456 23.2695 35.8503 23.5626L29.334 30.0101C28.8615 30.479 28.2512 30.733 27.5818 30.733H15.6123C14.5886 30.733 13.7617 31.5536 13.7617 32.5695V33.9763C13.7617 34.9922 14.5886 35.8128 15.6123 35.8128H29.708C30.3577 35.8128 30.9876 35.5588 31.4601 35.0899L41.4019 25.2233C41.8547 24.774 42.1107 24.1487 42.1107 23.4845Z" fill="#0998D5"/>
<path d="M116.702 11.3124C117.726 11.3124 118.691 11.8008 119.636 12.7386C120.305 13.5983 120.64 14.4384 120.64 15.2981V15.6107C120.64 15.8647 120.6 16.1773 120.522 16.5876C121.388 16.9588 122.077 17.6231 122.549 18.5805C122.825 19.2057 122.943 19.7918 122.943 20.3584C122.943 21.9214 122.175 23.1718 120.6 24.0901C119.99 24.3637 119.36 24.5004 118.71 24.5004H105.973C105.934 24.5004 105.914 24.4809 105.914 24.4418V11.371C105.914 11.3319 105.934 11.3124 105.973 11.3124H116.702ZM109.359 16.1773H116.25C116.899 16.1773 117.214 15.9233 117.214 15.4349C117.136 14.9855 116.88 14.751 116.506 14.751H109.359V16.1773ZM109.359 21.0618H118.553C119.045 21.0618 119.321 20.925 119.419 20.6319C119.459 20.5733 119.478 20.4952 119.478 20.3975V20.3584C119.478 19.9676 119.262 19.7136 118.829 19.6355H109.359V21.0618Z" fill="#0998D5"/>
<path d="M62.8002 11.3124C62.8396 11.3124 62.8593 11.3319 62.8593 11.371V14.6924C62.8593 14.7315 62.8396 14.751 62.8002 14.751H51.3229C50.9488 14.751 50.7126 14.9855 50.6141 15.4544C50.6141 15.9624 50.9488 16.1773 51.6182 16.1773H60.2016C61.4222 16.1773 62.5049 16.783 63.4696 17.9748C63.9618 18.7172 64.198 19.5378 64.198 20.3779C64.198 21.6479 63.6271 22.7616 62.5246 23.6603C61.7568 24.2269 60.9103 24.5004 59.9653 24.5004H48.8423C48.8029 24.5004 48.7833 24.4809 48.7833 24.4418V21.1204C48.8029 21.0813 48.8226 21.0618 48.8423 21.0618H59.8078C60.2606 21.0618 60.5559 20.9445 60.6741 20.6515C60.7134 20.5733 60.7331 20.4561 60.7528 20.3584C60.6741 19.8504 60.4378 19.6355 60.0638 19.6355H51.5C49.6495 19.6355 48.3305 18.7563 47.4642 17.037C47.2674 16.529 47.1689 16.0015 47.1689 15.4349C47.1689 14.1258 47.7399 13.0122 48.9211 12.0939C49.6692 11.5664 50.4369 11.3319 51.185 11.3319H62.8002V11.3124Z" fill="#545454"/>
<path d="M78.2155 13.696C78.2155 13.7351 80.3416 16.9783 84.5349 23.4844C84.9287 24.0706 85.1255 24.3832 85.1255 24.4223H81.0897C80.9519 24.2855 80.4991 23.6017 79.7707 22.4294H68.9627C68.9036 22.4489 68.5296 23.0546 67.8012 24.1878C67.7027 24.3636 67.624 24.4418 67.5846 24.4418H63.5882L63.5488 24.4223C69.0414 15.8451 71.8566 11.4882 71.9748 11.3319H76.6208C76.6602 11.3514 77.1918 12.1525 78.2155 13.696ZM77.5264 18.9907C75.7349 16.2164 74.8097 14.8292 74.7703 14.7901H73.8647C73.8056 14.8292 72.9 16.2554 71.1282 18.9907H77.5264Z" fill="#545454"/>
<path d="M90.697 11.3319C90.7364 11.3514 90.756 11.371 90.756 11.3905V21.0227H103.71C103.749 21.0227 103.769 21.0422 103.769 21.0618V24.4027C103.769 24.4223 103.749 24.4418 103.71 24.4418H87.3305C87.2912 24.4418 87.2715 24.4223 87.2715 24.4027V11.3905C87.2715 11.3514 87.2912 11.3319 87.3305 11.3319H90.697Z" fill="#545454"/>
<path d="M139.775 12.172C141.232 12.9731 142.256 14.1454 142.886 15.767C143.102 16.4899 143.22 17.1542 143.22 17.7599V17.9943C143.22 19.7723 142.512 21.3353 141.074 22.7029C139.755 23.8752 138.279 24.4418 136.665 24.4418H129.951C127.766 24.4418 125.935 23.4844 124.478 21.5502C123.73 20.3584 123.376 19.147 123.376 17.8966C123.376 15.7475 124.341 13.95 126.25 12.4846C127.353 11.7227 128.75 11.3319 130.483 11.3319H135.916C137.669 11.3319 138.948 11.625 139.775 12.172ZM126.841 17.9162C126.841 18.8735 127.235 19.6941 128.061 20.3779C128.573 20.7882 129.341 21.0227 130.365 21.0227H136.192C137.334 21.0227 138.161 20.7491 138.712 20.2021C139.401 19.5573 139.736 18.7563 139.736 17.838C139.736 16.8611 139.283 16.0015 138.358 15.3176C137.806 14.9659 137.235 14.7706 136.665 14.7706H129.932C128.691 14.7706 127.746 15.3958 127.097 16.6462C126.92 17.0565 126.841 17.4668 126.841 17.838V17.9162Z" fill="#0998D5"/>
<path d="M146.804 11.3319C146.902 11.3319 148.556 12.3674 151.726 14.4384L154.029 15.8647C158.458 13.0903 160.88 11.5859 161.274 11.3514H163.4C163.439 11.371 163.439 11.3905 163.439 11.4101V24.4027C163.439 24.4223 163.439 24.4418 163.4 24.4418H160.053C160.014 24.4418 159.994 24.4223 159.994 24.4027V16.1968C159.462 16.529 157.474 17.7599 154.029 19.9286C153.852 19.8504 151.883 18.6 148.123 16.1968V24.4027C148.123 24.4223 148.103 24.4418 148.084 24.4418H144.717C144.697 24.4418 144.678 24.4223 144.678 24.4027V11.3905C144.678 11.3514 144.697 11.3319 144.717 11.3319H146.804Z" fill="#0998D5"/>
<path d="M175.074 22.6637C175.271 22.4683 175.409 22.2534 175.468 21.9994C175.527 21.765 175.488 21.5696 175.37 21.3938C175.251 21.2179 175.035 21.1398 174.7 21.1398H172.81L171.354 24.3635H172.397L172.988 23.0545H173.047C173.125 23.0545 173.204 23.074 173.263 23.1131C173.322 23.1522 173.362 23.3085 173.421 23.6015C173.48 23.8751 173.519 24.1291 173.558 24.3635H174.641C174.523 23.6211 174.385 23.1717 174.208 23.0154C174.582 22.9763 174.877 22.8591 175.074 22.6637ZM173.46 22.4683H173.263L173.558 21.8041H174.09C174.287 21.8041 174.385 21.8236 174.444 21.8822C174.484 21.9213 174.503 21.9994 174.484 22.0776C174.464 22.1362 174.425 22.2144 174.366 22.273C174.307 22.3511 174.228 22.3902 174.11 22.4293C174.011 22.4488 173.795 22.4683 173.46 22.4683Z" fill="#545454"/>
<path d="M179.996 23.4845L179.603 24.3832H180.587L181 23.4845H179.996Z" fill="#545454"/>
<path d="M174.937 24.3832H175.921L176.334 23.4845H175.35L174.937 24.3832Z" fill="#545454"/>
<path d="M169.365 22.527C169.227 22.4488 169.05 22.3511 168.814 22.2534C168.637 22.1753 168.519 22.1167 168.479 22.0776C168.44 22.0385 168.42 21.9799 168.44 21.9213C168.46 21.8432 168.499 21.7845 168.578 21.7455C168.657 21.6869 168.755 21.6673 168.873 21.6673C169.168 21.6673 169.306 21.8041 169.267 22.0971L170.251 22.0385C170.35 21.4133 169.936 21.0812 169.031 21.0812C168.755 21.0812 168.499 21.1203 168.263 21.1984C168.046 21.2766 167.849 21.3938 167.712 21.5501C167.574 21.7064 167.475 21.8627 167.436 22.0581C167.397 22.2534 167.416 22.4293 167.515 22.5856C167.613 22.7224 167.889 22.8787 168.342 23.0545C168.538 23.1326 168.657 23.1913 168.696 23.2499C168.735 23.3085 168.755 23.3671 168.735 23.4257C168.716 23.5039 168.657 23.6016 168.558 23.6602C168.46 23.7383 168.322 23.7579 168.164 23.7579C168.007 23.7579 167.889 23.7188 167.81 23.6406C167.731 23.5625 167.731 23.4062 167.771 23.2108L166.786 23.2694L166.767 23.3476C166.688 23.6602 166.747 23.9142 166.924 24.1095C167.101 24.3049 167.456 24.4026 167.987 24.4026C168.361 24.4026 168.657 24.344 168.893 24.2463C169.129 24.1486 169.306 24.0119 169.464 23.836C169.602 23.6797 169.7 23.5039 169.739 23.3085C169.779 23.1131 169.779 22.9373 169.7 22.8005C169.602 22.7224 169.503 22.6051 169.365 22.527Z" fill="#545454"/>
<path d="M169.759 24.3832H170.763L171.157 23.4845H170.172L169.759 24.3832Z" fill="#545454"/>
<path d="M179.051 21.1594H178.008L176.551 24.3832H179.228L179.583 23.6017H177.929L179.051 21.1594Z" fill="#545454"/>
<path d="M169.719 12.0353C169.601 11.8008 169.404 11.625 169.188 11.5078C168.952 11.3905 168.715 11.3319 168.479 11.3319C168.243 11.3319 168.007 11.3905 167.77 11.5078C167.534 11.625 167.357 11.8008 167.239 12.0353C167.101 12.2697 167.042 12.5042 167.042 12.7582C167.042 13.0122 167.101 13.2466 167.239 13.4615C167.357 13.696 167.534 13.8718 167.77 13.9891C168.007 14.1063 168.243 14.1844 168.479 14.1844C168.735 14.1844 168.971 14.1258 169.188 13.9891C169.424 13.8718 169.601 13.696 169.719 13.4615C169.838 13.2271 169.916 12.9926 169.916 12.7582C169.916 12.5042 169.838 12.2697 169.719 12.0353ZM169.523 13.3443C169.424 13.5397 169.267 13.6764 169.089 13.7741C168.893 13.8718 168.696 13.9304 168.499 13.9304C168.302 13.9304 168.085 13.8718 167.908 13.7741C167.711 13.6764 167.574 13.5201 167.455 13.3443C167.357 13.1489 167.298 12.9536 167.298 12.7582C167.298 12.5433 167.357 12.3479 167.455 12.172C167.554 11.9767 167.711 11.8399 167.908 11.7422C168.105 11.6445 168.302 11.5859 168.499 11.5859C168.696 11.5859 168.893 11.6445 169.089 11.7422C169.286 11.8399 169.424 11.9962 169.542 12.172C169.641 12.3674 169.7 12.5628 169.7 12.7582C169.68 12.9536 169.621 13.1489 169.523 13.3443Z" fill="#545454"/>
<path d="M168.735 12.934C168.695 12.8949 168.656 12.8754 168.597 12.8559C168.735 12.8363 168.833 12.7973 168.912 12.7191C168.991 12.641 169.03 12.5433 169.03 12.426C169.03 12.3479 169.01 12.2697 168.951 12.2111C168.912 12.133 168.833 12.0939 168.754 12.0548C168.676 12.0157 168.538 12.0157 168.361 12.0157H167.829V13.5397H168.085V12.8949H168.223C168.302 12.8949 168.38 12.9145 168.42 12.9536C168.479 12.9926 168.577 13.1294 168.676 13.3052L168.813 13.5397H169.109L168.912 13.2466C168.873 13.0903 168.794 12.9926 168.735 12.934ZM168.4 12.68H168.105V12.2111H168.38C168.498 12.2111 168.577 12.2111 168.636 12.2307C168.676 12.2502 168.715 12.2697 168.735 12.3088C168.754 12.3479 168.774 12.387 168.774 12.426C168.774 12.5042 168.754 12.5628 168.695 12.6019C168.636 12.6605 168.538 12.68 168.4 12.68Z" fill="#545454"/>
</svg>
