<svg width="213" height="48" viewBox="0 0 213 48" fill="none" xmlns="http://www.w3.org/2000/svg">
<path d="M132.947 47.0356V39.6902H134.727C136.264 39.6902 136.971 40.2878 136.971 41.8564C136.971 43.4251 136.264 44.0227 134.727 44.0227H134.191V47.0356H132.947ZM134.191 42.9769H134.679C135.483 42.9769 135.727 42.7279 135.727 41.8564C135.727 40.985 135.483 40.736 134.679 40.736H134.191V42.9769Z" fill="white"/>
<path d="M137.923 41.4582C137.923 40.4124 138.532 39.5658 139.825 39.5658C141.117 39.5658 141.727 40.4124 141.727 41.4582V45.2429C141.727 46.2887 141.117 47.1353 139.825 47.1353C138.532 47.1353 137.923 46.2887 137.923 45.2429V41.4582ZM139.167 45.218C139.167 45.7658 139.337 46.0397 139.825 46.0397C140.313 46.0397 140.483 45.7658 140.483 45.218V41.4831C140.483 40.9353 140.313 40.6614 139.825 40.6614C139.337 40.6614 139.167 40.9353 139.167 41.4831V45.218Z" fill="white"/>
<path d="M145.066 39.6658H146.09L146.919 44.3469H146.944L147.627 39.6658H148.773L147.505 47.0111H146.48L145.578 42.1557H145.554L144.725 47.0111H143.676L142.311 39.6658H143.457L144.213 44.3469H144.237L145.066 39.6658Z" fill="white"/>
<path d="M149.553 47.0356V39.6902H152.869V40.7858H150.796V42.6781H152.381V43.7737H150.796V45.94H153.015V47.0356H149.553Z" fill="white"/>
<path d="M155.235 47.0356H153.991V39.6902H155.723C157.113 39.6902 157.82 40.2878 157.82 41.8564C157.82 43.0267 157.381 43.5247 156.942 43.699L157.99 47.0356H156.722L155.844 43.9978C155.674 44.0227 155.43 44.0227 155.21 44.0227V47.0356H155.235ZM155.235 42.9769H155.674C156.332 42.9769 156.6 42.7279 156.6 41.8564C156.6 40.985 156.357 40.736 155.674 40.736H155.235V42.9769Z" fill="white"/>
<path d="M163.427 47.0356H162.184V43.9729L160.696 39.6902H161.94L162.818 42.4789H162.842L163.671 39.6902H164.939L163.452 43.9729V47.0356H163.427Z" fill="white"/>
<path d="M165.623 41.4582C165.623 40.4124 166.233 39.5658 167.525 39.5658C168.817 39.5658 169.427 40.4124 169.427 41.4582V45.2429C169.427 46.2887 168.817 47.1353 167.525 47.1353C166.233 47.1353 165.623 46.2887 165.623 45.2429V41.4582ZM166.842 45.218C166.842 45.7658 167.013 46.0397 167.501 46.0397C167.988 46.0397 168.159 45.7658 168.159 45.218V41.4831C168.159 40.9353 167.988 40.6614 167.501 40.6614C167.013 40.6614 166.842 40.9353 166.842 41.4831V45.218Z" fill="white"/>
<path d="M170.599 39.6658H171.842V45.2184C171.842 45.7662 172.062 46.0152 172.501 46.0152C172.94 46.0152 173.159 45.7413 173.159 45.2184V39.6658H174.403V45.1686C174.403 46.4385 173.671 47.1107 172.501 47.1107C171.33 47.1107 170.599 46.4136 170.599 45.1686V39.6658Z" fill="white"/>
<path d="M176.816 47.0356H175.572V39.6902H177.304C178.694 39.6902 179.401 40.2878 179.401 41.8564C179.401 43.0267 178.962 43.5247 178.523 43.699L179.571 47.0356H178.303L177.426 43.9978C177.255 44.0227 177.011 44.0227 176.792 44.0227V47.0356H176.816ZM176.816 42.9769H177.255C177.913 42.9769 178.157 42.7279 178.157 41.8564C178.157 40.985 177.913 40.736 177.255 40.736H176.816V42.9769Z" fill="white"/>
<path d="M182.766 47.0356V39.6902H183.912L185.424 43.8982H185.448V39.6902H186.57V47.0356H185.497L183.912 42.454H183.887V47.0356H182.766Z" fill="white"/>
<path d="M187.766 47.0356V39.6902H191.082V40.7858H188.985V42.6781H190.57V43.7737H188.985V45.94H191.204V47.0356H187.766Z" fill="white"/>
<path d="M192.18 47.0356V39.6902H195.496V40.7858H193.423V42.6781H195.008V43.7737H193.423V45.94H195.642V47.0356H192.18Z" fill="white"/>
<path d="M196.616 39.6658H198.445C199.713 39.6658 200.396 40.3879 200.396 41.8818V44.7951C200.396 46.314 199.713 47.0111 198.445 47.0111H196.616V39.6658ZM197.835 45.9903H198.274C198.933 45.9903 199.152 45.7413 199.152 44.9694V41.7573C199.152 40.9854 198.933 40.7365 198.274 40.7365H197.835V45.9903Z" fill="white"/>
<path d="M203.835 41.4831C203.786 40.8606 203.445 40.6614 203.176 40.6614C202.786 40.6614 202.567 40.9353 202.567 41.3835C202.567 42.6284 205.078 43.226 205.078 45.218C205.078 46.4381 204.274 47.1104 203.128 47.1104C201.982 47.1104 201.323 46.1642 201.274 45.0686L202.445 44.8943C202.494 45.6413 202.786 46.0148 203.176 46.0148C203.615 46.0148 203.884 45.7907 203.884 45.3425C203.884 43.8983 201.372 43.4999 201.372 41.3835C201.372 40.2132 202.079 39.5658 203.274 39.5658C204.274 39.5658 204.883 40.3128 204.981 41.3337L203.835 41.4831Z" fill="white"/>
<path d="M34.9439 0.0248997L31.6763 7.27068H24.7265C23.7999 7.27068 23.0683 7.46987 22.5319 7.89317C21.9954 8.31646 21.7271 8.86425 21.7271 9.56144C21.7271 10.5823 22.922 11.3791 25.3118 11.9767C25.7995 12.1012 26.1896 12.2008 26.4335 12.2755C28.1404 12.7237 29.4816 13.645 30.4326 15.0144C31.3837 16.3839 31.8714 18.0771 31.8714 20.0691C31.8714 21.563 31.5543 23.057 30.9447 24.551C30.3351 26.045 29.506 27.3148 28.4574 28.3855C27.482 29.3317 26.4822 30.1036 25.4337 30.751C24.3851 31.3735 23.1415 31.9462 21.7028 32.4192C21.0931 32.6184 20.1177 32.7678 18.8009 32.8674C17.4841 32.967 15.9235 33.0168 14.119 33.0168H0L3.21884 25.7711H13.8995C15.4602 25.7711 16.6794 25.6715 17.5817 25.4972C18.4595 25.3229 19.1911 25.0241 19.7519 24.6257C20.4835 24.0779 21.0444 23.4554 21.4589 22.7582C21.8491 22.061 22.0685 21.3389 22.0685 20.6169C22.0685 19.4715 21.1663 18.6249 19.3374 18.0273C18.9472 17.9028 18.6302 17.8032 18.3864 17.7036C16.3868 16.9815 14.9481 16.0851 14.0946 14.9646C13.2411 13.8691 12.8266 12.3502 12.8266 10.4578C12.8266 7.39518 13.7532 4.90522 15.6065 2.93815C17.4597 0.995983 19.8495 0 22.7757 0H34.9439V0.0248997Z" fill="white"/>
<path d="M68.8882 0.0249023L54.2084 33.0417H44.9176L50.9408 19.5462H46.0394L39.9918 33.0417H30.6523L45.3322 0.0249023H54.6717L49.2582 12.3004H54.1596L59.5975 0.049802H68.8882V0.0249023Z" fill="white"/>
<path d="M84.4949 0.0249023L69.8151 33.0417H60.4756L75.1554 0.0249023H84.4949Z" fill="white"/>
<path d="M84.787 12.3004H94.1265L84.9333 33.0417H75.6426L84.787 12.3004ZM112.684 7.29558H87.0792L90.2493 0.0498047H121.194C122.633 0.0498047 123.754 0.373499 124.584 1.02089C125.413 1.66828 125.803 2.56466 125.803 3.71004C125.803 3.98394 125.754 4.30763 125.656 4.65623C125.559 5.00482 125.437 5.37831 125.242 5.77671L113.098 33.0666H103.759L114.244 9.51164C114.269 9.43694 114.317 9.33735 114.342 9.21285C114.366 9.08835 114.391 8.98875 114.391 8.88915C114.391 8.44096 114.22 8.09237 113.903 7.76867C113.586 7.44498 113.171 7.29558 112.684 7.29558ZM98.9791 12.3004H108.172L99.0035 33.0417H89.8103L98.9791 12.3004Z" fill="white"/>
<path d="M155.991 0.0248997L143.457 28.2112C142.653 30.0289 141.653 31.2739 140.458 31.9711C139.263 32.6682 137.385 33.0168 134.825 33.0168H124.364C122.949 33.0168 121.828 32.6931 120.999 32.0458C120.169 31.3984 119.779 30.5269 119.779 29.4313C119.779 29.1076 119.828 28.759 119.901 28.4104C119.999 28.0618 120.121 27.6883 120.291 27.3148L132.435 0H141.775L131.435 23.306C131.362 23.4554 131.289 23.6297 131.265 23.804C131.216 23.9783 131.216 24.1526 131.216 24.3518C131.216 24.8 131.387 25.1486 131.728 25.3976C132.069 25.6466 132.581 25.7462 133.215 25.7462C133.874 25.7462 134.435 25.5719 134.947 25.2233C135.435 24.8747 135.849 24.3518 136.166 23.6546L146.676 0H155.991V0.0248997Z" fill="white"/>
<path d="M166.721 21.4883C166.77 21.3887 166.794 21.2891 166.819 21.1646C166.843 21.0401 166.843 20.9405 166.843 20.816C166.843 20.3928 166.672 20.0193 166.355 19.7205C166.038 19.4217 165.624 19.2723 165.112 19.2723H162.771L156.552 33.0168H147.213L156.382 12.4996H170.818L172.134 9.36224C172.183 9.23775 172.208 9.13815 172.232 9.01365C172.256 8.88915 172.256 8.76465 172.256 8.64016C172.256 8.21686 172.11 7.86827 171.793 7.59437C171.476 7.32048 171.062 7.17108 170.574 7.17108H158.747L161.917 0.0249023H178.865C180.303 0.0249023 181.425 0.348597 182.23 0.995986C183.035 1.64337 183.449 2.53976 183.449 3.68514C183.449 3.98393 183.4 4.30763 183.327 4.63132C183.23 4.97992 183.108 5.32851 182.937 5.72691L177.987 16.9317C177.548 17.8779 177.012 18.5502 176.377 18.9237C175.743 19.3221 174.866 19.5213 173.72 19.5213H173.403C173.963 19.8699 174.378 20.3181 174.671 20.7911C174.939 21.2891 175.085 21.8369 175.085 22.4594C175.085 22.7582 175.036 23.0819 174.939 23.4554C174.841 23.8289 174.695 24.2024 174.524 24.5759L170.769 33.0168H161.673L166.721 21.4883Z" fill="white"/>
<path d="M193.129 0.0249023H208.492C209.614 0.0249023 210.492 0.323697 211.126 0.921287C211.76 1.51888 212.101 2.34056 212.101 3.38635C212.101 3.66024 212.077 3.93414 212.052 4.15823C212.028 4.40723 211.979 4.63132 211.906 4.85542L203.883 32.9919H173.036L189.886 12.2506H199.518L189.472 25.7462H196.421L201.567 8.93895C201.567 8.91405 201.567 8.88915 201.591 8.86425C201.64 8.64016 201.664 8.46586 201.664 8.31646C201.664 7.99277 201.542 7.71887 201.298 7.51967C201.055 7.32048 200.738 7.22088 200.347 7.22088H189.959L193.129 0.0249023Z" fill="white"/>
<path d="M130.24 42.4039H1.95029L1.16992 44.7694H129.606L130.24 42.4039Z" fill="url(#paint0_linear_1691_5)"/>
<defs>
<linearGradient id="paint0_linear_1691_5" x1="-3.97612" y1="43.5906" x2="122.534" y2="43.5906" gradientUnits="userSpaceOnUse">
<stop stop-opacity="0"/>
<stop offset="0.0622099" stop-color="white" stop-opacity="0.06"/>
<stop offset="0.1597" stop-color="white" stop-opacity="0.16"/>
<stop offset="0.262" stop-color="white" stop-opacity="0.26"/>
<stop offset="0.367" stop-color="white" stop-opacity="0.37"/>
<stop offset="0.4755" stop-color="white" stop-opacity="0.48"/>
<stop offset="0.5884" stop-color="white" stop-opacity="0.59"/>
<stop offset="0.7079" stop-color="white" stop-opacity="0.71"/>
<stop offset="0.8383" stop-color="white" stop-opacity="0.84"/>
<stop offset="1" stop-color="#F4F4F4"/>
</linearGradient>
</defs>
</svg>
