<svg width="21" height="25" viewBox="0 0 21 25" fill="none" xmlns="http://www.w3.org/2000/svg">
<path d="M13.3618 4.80892C13.969 4.20171 14.9532 4.20171 15.5604 4.80892L19.4521 8.70058C21.5165 10.7651 21.5165 14.1121 19.4521 16.1766L15.5604 20.0682C14.9532 20.6754 13.969 20.6754 13.3618 20.0682C12.7545 19.461 12.7545 18.4768 13.3618 17.8696L17.1644 14.0669H8.70816C7.84945 14.0669 7.15333 13.3708 7.15332 12.5121C7.15332 11.6533 7.84945 10.9572 8.70816 10.9572H17.3084C17.2903 10.9378 17.2723 10.9181 17.2534 10.8992L13.3618 7.00756L13.3065 6.94956C12.7551 6.3392 12.7735 5.39713 13.3618 4.80892Z" fill="#CE3535"/>
<path d="M0 15.8594V9.01808C0 4.03754 4.03754 0 9.01808 0H9.64002C10.4987 0 11.1949 0.696126 11.1949 1.55484C11.1949 2.41356 10.4987 3.10968 9.64002 3.10968H9.01808C5.75497 3.10968 3.10968 5.75497 3.10968 9.01808V15.8594C3.10968 19.1225 5.75497 21.7678 9.01808 21.7678H9.64002C10.4987 21.7678 11.1949 22.4639 11.1949 23.3226C11.1949 24.1813 10.4987 24.8775 9.64002 24.8775H9.01808C4.03754 24.8775 0 20.8399 0 15.8594Z" fill="#CE3535"/>
</svg>
