<svg width="31" height="31" viewBox="0 0 31 31" fill="none" xmlns="http://www.w3.org/2000/svg">
<circle cx="15.5" cy="15.5" r="15.5" fill="#1C9BD8"/>
<path d="M14.2926 23.6191C14.0713 23.6191 13.8902 23.5481 13.7493 23.4062C13.6085 23.244 13.5381 23.0616 13.5381 22.8589V17.2941H8.1656C7.94426 17.2941 7.75311 17.2232 7.59214 17.0813C7.45128 16.9394 7.38086 16.7569 7.38086 16.5339V14.3141C7.38086 14.0911 7.45128 13.9087 7.59214 13.7667C7.75311 13.6046 7.94426 13.5235 8.1656 13.5235H13.5381V8.14119C13.5381 7.9182 13.6085 7.73575 13.7493 7.59384C13.8902 7.45193 14.0713 7.38098 14.2926 7.38098H16.7676C16.9688 7.38098 17.1398 7.45193 17.2807 7.59384C17.4416 7.73575 17.5221 7.9182 17.5221 8.14119V13.5235H22.8644C23.0857 13.5235 23.2668 13.6046 23.4077 13.7667C23.5485 13.9087 23.619 14.0911 23.619 14.3141V16.5339C23.619 16.7569 23.5485 16.9394 23.4077 17.0813C23.2668 17.2232 23.0857 17.2941 22.8644 17.2941H17.5221V22.8589C17.5221 23.0616 17.4416 23.244 17.2807 23.4062C17.1398 23.5481 16.9688 23.6191 16.7676 23.6191H14.2926Z" fill="white"/>
</svg>
