<svg width="53" height="24" viewBox="0 0 53 24" fill="none" xmlns="http://www.w3.org/2000/svg">
<path d="M12.5 0.999878H41C47.0751 0.999886 52 5.92479 52 11.9999C52 18.075 47.0751 22.9999 41 22.9999H12.5C6.42487 22.9999 1.5 18.075 1.5 11.9999C1.50002 5.92476 6.42488 0.999878 12.5 0.999878Z" stroke="#313131" stroke-width="2"/>
<path d="M28.652 7.312C28.6987 7.23733 28.7687 7.2 28.862 7.2H30.15C30.1967 7.2 30.234 7.21867 30.262 7.256C30.2993 7.284 30.318 7.32133 30.318 7.368V16.832C30.318 16.8787 30.2993 16.9207 30.262 16.958C30.234 16.986 30.1967 17 30.15 17H28.862C28.8153 17 28.7733 16.986 28.736 16.958C28.708 16.9207 28.694 16.8787 28.694 16.832V10.224C28.694 10.1867 28.6847 10.168 28.666 10.168C28.6473 10.168 28.6287 10.182 28.61 10.21L27.392 12.422C27.3453 12.4967 27.3033 12.534 27.266 12.534C27.2287 12.534 27.1867 12.4967 27.14 12.422L25.922 10.21C25.9033 10.182 25.8847 10.168 25.866 10.168C25.8473 10.168 25.838 10.1867 25.838 10.224V16.832C25.838 16.8787 25.8193 16.9207 25.782 16.958C25.754 16.986 25.7167 17 25.67 17H24.382C24.3353 17 24.2933 16.986 24.256 16.958C24.228 16.9207 24.214 16.8787 24.214 16.832V7.368C24.214 7.32133 24.228 7.284 24.256 7.256C24.2933 7.21867 24.3353 7.2 24.382 7.2H25.67C25.7633 7.2 25.8333 7.23733 25.88 7.312L27.238 9.706C27.266 9.74333 27.294 9.74333 27.322 9.706L28.652 7.312ZM35.7652 17C35.6532 17 35.5925 16.9487 35.5832 16.846L35.3172 15.376C35.3172 15.3293 35.2892 15.306 35.2332 15.306H33.1892C33.1332 15.306 33.1052 15.3293 33.1052 15.376L32.8392 16.846C32.8299 16.9487 32.7692 17 32.6572 17H31.3832C31.2525 17 31.2012 16.9393 31.2292 16.818L33.3012 7.354C33.3199 7.25133 33.3805 7.2 33.4832 7.2H34.9672C35.0699 7.2 35.1305 7.25133 35.1492 7.354L37.2212 16.818V16.874C37.2212 16.958 37.1699 17 37.0672 17H35.7652ZM33.3572 13.962C33.3479 14.0087 33.3712 14.032 33.4272 14.032H34.9812C35.0372 14.032 35.0605 14.0087 35.0512 13.962L34.2392 9.538C34.2299 9.51 34.2159 9.496 34.1972 9.496C34.1785 9.496 34.1645 9.51 34.1552 9.538L33.3572 13.962ZM33.5812 6.304C33.5159 6.304 33.4692 6.28533 33.4412 6.248C33.4132 6.21067 33.4179 6.164 33.4552 6.108L34.2812 4.666C34.3185 4.59133 34.3885 4.554 34.4912 4.554H35.4992C35.5739 4.554 35.6205 4.57733 35.6392 4.624C35.6579 4.66133 35.6485 4.708 35.6112 4.764L34.5752 6.206C34.5285 6.27133 34.4632 6.304 34.3792 6.304H33.5812ZM40.1558 17.112C39.3812 17.112 38.7558 16.8787 38.2798 16.412C37.8038 15.9453 37.5658 15.334 37.5658 14.578V14.214C37.5658 14.1673 37.5798 14.13 37.6078 14.102C37.6452 14.0647 37.6872 14.046 37.7338 14.046H39.0078C39.0545 14.046 39.0918 14.0647 39.1198 14.102C39.1572 14.13 39.1758 14.1673 39.1758 14.214V14.494C39.1758 14.858 39.2645 15.152 39.4418 15.376C39.6285 15.6 39.8665 15.712 40.1558 15.712C40.4452 15.712 40.6832 15.6093 40.8698 15.404C41.0565 15.1893 41.1498 14.9093 41.1498 14.564C41.1498 14.3213 41.0985 14.1113 40.9958 13.934C40.8932 13.7567 40.7485 13.5887 40.5618 13.43C40.3752 13.2713 40.0765 13.0427 39.6658 12.744C39.1992 12.408 38.8212 12.1093 38.5318 11.848C38.2518 11.5867 38.0138 11.274 37.8178 10.91C37.6312 10.5367 37.5378 10.1073 37.5378 9.622C37.5378 8.84733 37.7712 8.23133 38.2378 7.774C38.7045 7.31667 39.3205 7.088 40.0858 7.088C40.8605 7.088 41.4858 7.33067 41.9618 7.816C42.4378 8.292 42.6758 8.92667 42.6758 9.72V10.056C42.6758 10.1027 42.6572 10.1447 42.6198 10.182C42.5918 10.21 42.5545 10.224 42.5078 10.224H41.2478C41.2012 10.224 41.1592 10.21 41.1218 10.182C41.0938 10.1447 41.0798 10.1027 41.0798 10.056V9.692C41.0798 9.328 40.9865 9.03867 40.7998 8.824C40.6225 8.6 40.3845 8.488 40.0858 8.488C39.8058 8.488 39.5772 8.59067 39.3998 8.796C39.2225 8.992 39.1338 9.26733 39.1338 9.622C39.1338 9.958 39.2272 10.2427 39.4138 10.476C39.6098 10.7093 39.9878 11.0313 40.5478 11.442C41.1172 11.862 41.5465 12.2073 41.8358 12.478C42.1252 12.7393 42.3492 13.0287 42.5078 13.346C42.6665 13.6633 42.7458 14.0413 42.7458 14.48C42.7458 15.2733 42.5078 15.9127 42.0318 16.398C41.5558 16.874 40.9305 17.112 40.1558 17.112Z" fill="#313131"/>
<path d="M17.2202 10.4741C17.2979 10.4741 17.3601 10.5052 17.4067 10.5674C17.4689 10.614 17.5 10.6762 17.5 10.7539V12.2461C17.5 12.3238 17.4689 12.3938 17.4067 12.456C17.3601 12.5026 17.2979 12.5259 17.2202 12.5259H14.1425C14.0648 12.5259 14.0259 12.5648 14.0259 12.6425V15.7202C14.0259 15.7979 13.9948 15.8679 13.9326 15.9301C13.886 15.9767 13.8238 16 13.7461 16H12.2539C12.1762 16 12.1062 15.9767 12.044 15.9301C11.9974 15.8679 11.9741 15.7979 11.9741 15.7202V12.6425C11.9741 12.5648 11.9352 12.5259 11.8575 12.5259H8.77979C8.70207 12.5259 8.63212 12.5026 8.56995 12.456C8.52332 12.3938 8.5 12.3238 8.5 12.2461V10.7539C8.5 10.6762 8.52332 10.614 8.56995 10.5674C8.63212 10.5052 8.70207 10.4741 8.77979 10.4741H11.8575C11.9352 10.4741 11.9741 10.4352 11.9741 10.3575V7.27979C11.9741 7.20207 11.9974 7.1399 12.044 7.09326C12.1062 7.03109 12.1762 7 12.2539 7H13.7461C13.8238 7 13.886 7.03109 13.9326 7.09326C13.9948 7.1399 14.0259 7.20207 14.0259 7.27979V10.3575C14.0259 10.4352 14.0648 10.4741 14.1425 10.4741H17.2202Z" fill="#313131"/>
</svg>
