<svg width="20" height="22" viewBox="0 0 20 22" fill="none" xmlns="http://www.w3.org/2000/svg">
<path d="M17.4473 0C18.2387 7.67617e-05 18.9807 0.341189 19.4668 0.979492C19.8095 1.42817 19.9958 1.95943 20 2.53027V19.9951C20 20.2816 19.8842 20.5347 19.6973 20.7412C19.5709 20.8792 19.4039 20.9626 19.2275 21.0078C19.2232 21.0091 19.2192 21.0115 19.2148 21.0127C19.1401 21.034 19.0588 21.0443 18.9756 21.0469C18.971 21.0471 18.9665 21.0486 18.9619 21.0488C18.9536 21.0492 18.9449 21.0477 18.9365 21.0479C18.9212 21.0478 18.906 21.0476 18.8906 21.0469C18.8747 21.0461 18.8588 21.0457 18.8428 21.0439C18.6887 21.0303 18.5363 20.9854 18.415 20.9072C18.2927 20.8294 18.1702 20.7497 18.0479 20.6719C17.3501 20.2254 16.6533 19.7771 15.9561 19.3301C15.1361 19.8551 14.3182 20.3824 13.498 20.9072C13.1947 21.1011 12.7516 21.1011 12.4482 20.9072C12.3259 20.8294 12.2034 20.7497 12.0811 20.6719C11.3833 20.2254 10.6865 19.7771 9.98926 19.3301C9.16932 19.8551 8.3514 20.3824 7.53125 20.9072C7.228 21.101 6.78573 21.1009 6.48242 20.9072C6.3599 20.8293 6.23678 20.7498 6.11426 20.6719C5.41663 20.2255 4.72053 19.777 4.02344 19.3301C3.20327 19.8553 2.38484 20.3823 1.56445 20.9072C1.25284 21.1074 0.827246 21.0926 0.515625 20.9072C0.199846 20.7197 0 20.3679 0 19.9971V2.63574C3.40256e-05 2.1154 0.106287 1.58029 0.40332 1.14844C0.777268 0.606978 1.32985 0.162138 2.00293 0.0546875C2.18574 0.025193 2.37078 0 2.55566 0H17.4473ZM2.46094 2.10059C2.4228 2.10953 2.38499 2.11898 2.34766 2.13086C2.31367 2.14938 2.28044 2.16858 2.24805 2.18945C2.22363 2.21258 2.19965 2.23606 2.17676 2.26074C2.1548 2.29574 2.13458 2.33161 2.11523 2.36816C2.10322 2.40732 2.09388 2.44713 2.08496 2.4873C2.0844 2.50586 2.08399 2.52441 2.08398 2.54297V18.082C2.55729 17.7782 3.03101 17.4751 3.50488 17.1719C3.80811 16.9781 4.2504 16.9782 4.55371 17.1719C4.67628 17.2498 4.7993 17.3302 4.92188 17.4082C5.61903 17.8543 6.3151 18.3014 7.01172 18.748C7.83193 18.2228 8.65125 17.6969 9.47168 17.1719C9.77496 16.9781 10.2172 16.9781 10.5205 17.1719C10.6431 17.2498 10.7661 17.3302 10.8887 17.4082C11.5858 17.8543 12.2819 18.3014 12.9785 18.748C13.7987 18.2229 14.6181 17.6968 15.4385 17.1719C15.7418 16.9782 16.1841 16.9781 16.4873 17.1719C16.6098 17.2498 16.732 17.3303 16.8545 17.4082C17.2108 17.6362 17.567 17.8644 17.9229 18.0928V2.94531C17.9229 2.79377 17.9278 2.63884 17.9209 2.48633C17.9118 2.44581 17.9019 2.40584 17.8896 2.36621C17.8711 2.33121 17.852 2.29701 17.8311 2.26367C17.8082 2.23894 17.7851 2.21459 17.7607 2.19141C17.7262 2.16918 17.6904 2.14945 17.6543 2.12988C17.618 2.11849 17.5812 2.10921 17.5439 2.10059C17.5254 2.09998 17.5066 2.09863 17.4883 2.09863H2.86328C2.73037 2.09863 2.59505 2.09443 2.46094 2.10059ZM14.7754 10.5352C15.0507 10.5352 15.2938 10.6525 15.4922 10.8408C15.6906 11.0313 15.7759 11.312 15.7881 11.582C15.8002 11.8439 15.6684 12.142 15.4922 12.3242C15.3079 12.5125 15.0345 12.6299 14.7754 12.6299H5.22363C4.94828 12.6299 4.70528 12.5126 4.50684 12.3242C4.30834 12.1336 4.22309 11.8522 4.21094 11.582C4.19897 11.3203 4.33073 11.0229 4.50684 10.8408C4.69113 10.6524 4.96447 10.5352 5.22363 10.5352H14.7754ZM14.7754 5.26465C15.0508 5.26465 15.2937 5.38281 15.4922 5.57129C15.6907 5.7619 15.7759 6.04229 15.7881 6.3125C15.8002 6.57432 15.6684 6.87149 15.4922 7.05371C15.3079 7.24216 15.0346 7.35938 14.7754 7.35938H5.22363C4.9482 7.35936 4.70531 7.24012 4.50684 7.05371C4.30838 6.86312 4.2231 6.58267 4.21094 6.3125C4.19879 6.05072 4.33068 5.75353 4.50684 5.57129C4.69114 5.38279 4.96439 5.26467 5.22363 5.26465H14.7754Z" fill="#313131"/>
</svg>
