<svg width="141" height="68" viewBox="0 0 141 68" fill="none" xmlns="http://www.w3.org/2000/svg">
<path d="M118.177 18.6595H99.3301L97.2693 31.0243H85.5041C85.9537 31.9985 86.216 33.1225 86.216 34.3215C86.216 34.6213 86.216 34.8836 86.1785 35.1833C86.1411 35.4831 86.1036 35.7454 86.0661 36.0451C85.8038 37.5439 85.2793 38.8553 84.5299 39.9419C83.6681 41.1409 82.5815 42.0776 81.1952 42.6771C79.9962 43.2391 78.5723 43.5014 76.9986 43.5014C75.6123 43.5014 0 43.3516 0 43.3516L2.1732 30.9868H0L3.3722 12.1774H0.524565L2.24814 2.47295H109.409L111.582 0L118.851 0L119.451 2.47295H120.95L118.177 18.6595Z" fill="white"/>
<path d="M6.70661 14.9125L7.86815 8.46781H5.02051L5.3952 6.25714H13.8632L13.4885 8.46781H10.6408L9.47931 14.9499H6.70661V14.9125Z" fill="#313131"/>
<path d="M17.6099 15.0624C16.7481 15.0624 15.9987 14.95 15.3617 14.6877C14.7248 14.4254 14.2751 14.0507 13.9379 13.5261C13.6382 13.0016 13.4883 12.3646 13.4883 11.5778C13.4883 11.3904 13.4883 11.2031 13.5257 11.0157C13.5632 10.8284 13.5632 10.641 13.6007 10.4162C13.7506 9.44203 14.0878 8.65518 14.4999 8.01821C14.9496 7.38124 15.5116 6.89414 16.261 6.55692C17.0104 6.2197 17.8721 6.06982 18.9213 6.06982C19.8205 6.06982 20.5699 6.18223 21.1694 6.44451C21.8064 6.7068 22.256 7.08148 22.5932 7.60605C22.9305 8.13061 23.0803 8.76759 23.0803 9.55443C23.0803 9.70431 23.0803 9.89165 23.0429 10.079C23.0429 10.2663 23.0054 10.4537 22.9679 10.641C22.7806 11.6152 22.4808 12.4021 22.0312 13.039C21.5816 13.676 20.9821 14.1631 20.2327 14.5003C19.5582 14.9125 18.659 15.0624 17.6099 15.0624ZM17.8721 13.0016C18.1719 13.0016 18.4342 12.9641 18.6965 12.8517C18.9587 12.7393 19.1461 12.6269 19.3334 12.4395C19.5208 12.2522 19.6707 12.0649 19.7831 11.8026C19.8955 11.5403 20.0079 11.278 20.0453 10.9783C20.0828 10.716 20.1203 10.5286 20.1578 10.3788C20.1952 10.2289 20.1952 10.1165 20.2327 10.0041C20.2327 9.92912 20.2702 9.85419 20.2702 9.77925C20.2702 9.70431 20.2702 9.66684 20.2702 9.62937C20.2702 9.32962 20.1952 9.06734 20.0828 8.84252C19.9704 8.61771 19.7831 8.43037 19.5582 8.31796C19.3334 8.20555 19.0337 8.13061 18.6965 8.13061C18.3967 8.13061 18.1344 8.16808 17.8721 8.28049C17.6099 8.3929 17.4225 8.5053 17.2352 8.69265C17.0478 8.87999 16.898 9.06734 16.7855 9.32962C16.6731 9.5919 16.5607 9.85419 16.5233 10.1539C16.4858 10.4162 16.4483 10.6036 16.4109 10.7534C16.3734 10.9033 16.3734 11.0157 16.3359 11.1281C16.3359 11.2031 16.2985 11.278 16.2985 11.3529C16.2985 11.3904 16.2985 11.4653 16.2985 11.5028C16.2985 11.8026 16.3359 12.0649 16.4483 12.2897C16.5607 12.5145 16.7106 12.7018 16.9354 12.8142C17.1602 12.9266 17.5349 13.0016 17.8721 13.0016Z" fill="#313131"/>
<path d="M27.9522 15.0624C26.6408 15.0624 25.6666 14.7626 24.9921 14.2006C24.3177 13.6385 23.9805 12.7768 23.9805 11.6527C23.9805 11.4653 23.9805 11.278 24.0179 11.0532C24.0554 10.8658 24.0554 10.641 24.0929 10.4162C24.2428 9.44203 24.58 8.65518 24.9921 8.01821C25.4043 7.38124 26.0038 6.89414 26.6782 6.55692C27.3901 6.2197 28.177 6.06982 29.1137 6.06982C29.9006 6.06982 30.575 6.18223 31.1745 6.40704C31.7365 6.63186 32.1862 6.96908 32.5234 7.38124C32.8231 7.79339 32.973 8.35543 32.973 8.9924C32.973 9.10481 32.973 9.25468 32.9355 9.36709C32.9355 9.51697 32.8981 9.62937 32.8606 9.77925H30.2003C30.2003 9.70431 30.2378 9.62937 30.2378 9.55443C30.2378 9.4795 30.2378 9.40456 30.2378 9.36709C30.2378 9.10481 30.2003 8.87999 30.0879 8.73012C29.9755 8.54277 29.8631 8.3929 29.6757 8.31796C29.4884 8.24302 29.2636 8.16808 28.9638 8.16808C28.6641 8.16808 28.4018 8.20555 28.177 8.31796C27.9522 8.43037 27.7648 8.54277 27.615 8.73012C27.4651 8.91746 27.3152 9.10481 27.2028 9.36709C27.0904 9.62937 27.0155 9.89165 26.978 10.1914C26.9405 10.4537 26.903 10.6785 26.8656 10.8284C26.8281 10.9783 26.8281 11.1281 26.7906 11.2031C26.7906 11.3155 26.7532 11.3904 26.7532 11.4279C26.7532 11.5028 26.7532 11.5403 26.7532 11.5778C26.7532 11.84 26.7906 12.1023 26.903 12.3271C26.978 12.5519 27.1279 12.7018 27.3527 12.8142C27.54 12.9266 27.8023 13.0016 28.1021 13.0016C28.4767 13.0016 28.7765 12.9266 29.0388 12.8142C29.3011 12.7018 29.5259 12.5145 29.6757 12.2522C29.8256 12.0274 29.938 11.7276 30.013 11.3904H32.5983C32.4484 12.1773 32.1862 12.8517 31.8115 13.4137C31.4368 13.9758 30.9122 14.3879 30.2378 14.6502C29.6757 14.95 28.8889 15.0624 27.9522 15.0624Z" fill="#313131"/>
<path d="M32.4854 14.9125L37.2064 6.21976H40.4662L42.0774 14.9125H39.2298L39.0799 13.6761H36.0074L35.4079 14.9125H32.4854ZM36.9067 11.7652H38.8176L38.6677 10.3788C38.6677 10.2289 38.6303 10.0791 38.6303 9.96665C38.6303 9.81677 38.5928 9.6669 38.5553 9.55449C38.5179 9.40462 38.5178 9.29221 38.4804 9.14233C38.4804 8.99246 38.4429 8.84258 38.4429 8.73017H38.4054C38.3305 8.91752 38.2181 9.10486 38.1432 9.29221C38.0682 9.47955 37.9558 9.6669 37.8809 9.85424C37.8059 10.0416 37.6935 10.2289 37.6186 10.4163L36.9067 11.7652Z" fill="#313131"/>
<path d="M47.3611 14.9125L47.9606 11.5403L45.4502 6.21976H48.5226L49.7217 9.14233H49.7591L51.9323 6.21976H55.0797L50.7333 11.5403L50.1338 14.9125H47.3611Z" fill="#313131"/>
<path d="M60.4746 15.0624C59.1632 15.0624 58.189 14.7626 57.5146 14.2006C56.8401 13.6385 56.5029 12.7768 56.5029 11.6527C56.5029 11.4653 56.5029 11.278 56.5404 11.0532C56.5779 10.8658 56.5779 10.641 56.6153 10.4162C56.7652 9.44203 57.1024 8.65518 57.5146 8.01821C57.9267 7.38124 58.5263 6.89414 59.2007 6.55692C59.9126 6.2197 60.6994 6.06982 61.6362 6.06982C62.423 6.06982 63.0975 6.18223 63.697 6.40704C64.259 6.63186 64.7086 6.96908 65.0458 7.38124C65.3456 7.79339 65.4955 8.35543 65.4955 8.9924C65.4955 9.10481 65.4955 9.25468 65.458 9.36709C65.458 9.51697 65.4205 9.62937 65.3831 9.77925H62.7228C62.7228 9.70431 62.7602 9.62937 62.7602 9.55443C62.7602 9.4795 62.7602 9.40456 62.7602 9.36709C62.7602 9.10481 62.7228 8.87999 62.6104 8.73012C62.498 8.54277 62.3856 8.3929 62.1982 8.31796C62.0109 8.24302 61.786 8.16808 61.4863 8.16808C61.1865 8.16808 60.9243 8.20555 60.6994 8.31796C60.4746 8.43037 60.2873 8.54277 60.1374 8.73012C59.9875 8.91746 59.8377 9.10481 59.7253 9.36709C59.6128 9.62937 59.5379 9.89165 59.5004 10.1914C59.463 10.4537 59.4255 10.6785 59.388 10.8284C59.3506 10.9783 59.3506 11.1281 59.3131 11.2031C59.3131 11.3155 59.2756 11.3904 59.2756 11.4279C59.2756 11.5028 59.2756 11.5403 59.2756 11.5778C59.2756 11.84 59.3131 12.1023 59.4255 12.3271C59.5004 12.5519 59.6503 12.7018 59.8751 12.8142C60.0625 12.9266 60.3248 13.0016 60.6245 13.0016C60.9992 13.0016 61.299 12.9266 61.5612 12.8142C61.8235 12.7018 62.0483 12.5145 62.1982 12.2522C62.3481 12.0274 62.4605 11.7276 62.5354 11.3904H65.1208C64.9709 12.1773 64.7086 12.8517 64.3339 13.4137C63.9592 13.9758 63.4347 14.3879 62.7602 14.6502C62.1607 14.95 61.3739 15.0624 60.4746 15.0624Z" fill="#313131"/>
<path d="M70.4794 15.0626C69.6176 15.0626 68.8682 14.9502 68.2312 14.6879C67.5943 14.4256 67.1446 14.0509 66.8074 13.5263C66.4702 13.0018 66.3203 12.3648 66.3203 11.6154C66.3203 11.4281 66.3203 11.2407 66.3578 11.0534C66.3953 10.866 66.3953 10.6787 66.4327 10.4539C66.5826 9.47969 66.9198 8.69284 67.332 8.05587C67.7816 7.4189 68.3436 6.9318 69.093 6.59458C69.8424 6.25736 70.7042 6.10748 71.7533 6.10748C72.6526 6.10748 73.4019 6.21989 74.0014 6.48217C74.6384 6.74445 75.088 7.11914 75.4253 7.64371C75.7625 8.16827 75.9124 8.80525 75.9124 9.59209C75.9124 9.74197 75.9124 9.92931 75.8749 10.1167C75.8749 10.304 75.8374 10.4913 75.8 10.6787C75.6126 11.6529 75.3129 12.4397 74.8632 13.0767C74.4136 13.7137 73.8141 14.2008 73.0647 14.538C72.3903 14.9127 71.491 15.0626 70.4794 15.0626ZM70.7042 13.0018C71.0039 13.0018 71.2662 12.9643 71.5285 12.8519C71.7908 12.7395 71.9781 12.6271 72.1655 12.4397C72.3528 12.2524 72.5027 12.065 72.6151 11.8028C72.7275 11.5405 72.8399 11.2782 72.8774 10.9784C72.9148 10.7162 72.9523 10.5288 72.9898 10.3789C73.0273 10.2291 73.0273 10.1167 73.0647 10.0043C73.0647 9.92931 73.1022 9.85438 73.1022 9.77944C73.1022 9.7045 73.1022 9.66703 73.1022 9.62956C73.1022 9.32981 73.0273 9.06753 72.9148 8.84272C72.8024 8.6179 72.6151 8.43056 72.3903 8.31815C72.1655 8.20574 71.8657 8.13081 71.5285 8.13081C71.2287 8.13081 70.9665 8.16827 70.7042 8.28068C70.4419 8.39309 70.2545 8.50549 70.0672 8.69284C69.8799 8.88018 69.73 9.06753 69.6176 9.32981C69.5052 9.59209 69.3928 9.85438 69.3553 10.1541C69.3178 10.4164 69.2804 10.6038 69.2429 10.7536C69.2054 10.9035 69.2054 11.0159 69.168 11.1283C69.168 11.2033 69.1305 11.2782 69.1305 11.3531C69.1305 11.3906 69.1305 11.4655 69.1305 11.503C69.1305 11.8028 69.1679 12.065 69.2804 12.2899C69.3928 12.5147 69.5426 12.702 69.7675 12.8144C69.9923 12.9268 70.367 13.0018 70.7042 13.0018Z" fill="#313131"/>
<path d="M76.5859 14.9125L78.1222 6.21976H80.4827L82.6184 9.55449C82.6934 9.70437 82.8058 9.81677 82.9182 10.0041C83.0306 10.154 83.1055 10.3039 83.1805 10.4537C83.2554 10.6036 83.3303 10.716 83.4053 10.8659L83.4802 10.8284C83.4802 10.6786 83.5177 10.5287 83.5552 10.3788C83.5926 10.2664 83.5926 10.1165 83.6301 9.96665L84.2671 6.25723H86.815L85.2787 14.95H82.9557L80.5576 11.3155C80.4827 11.2031 80.4078 11.0532 80.2954 10.9034C80.183 10.7535 80.108 10.5662 80.0331 10.4537H79.9581C79.9581 10.6411 79.9207 10.8284 79.8832 10.9783C79.8457 11.1282 79.8457 11.2781 79.8083 11.353L79.1713 14.95H76.5859V14.9125Z" fill="#313131"/>
<path d="M91.4989 15.0626C90.6371 15.0626 89.8877 14.9502 89.2508 14.6879C88.6138 14.4256 88.1642 14.0509 87.8269 13.5263C87.4897 13.0018 87.3398 12.3648 87.3398 11.6154C87.3398 11.4281 87.3398 11.2407 87.3773 11.0534C87.4148 10.866 87.4148 10.6787 87.4522 10.4539C87.6021 9.47969 87.9393 8.69284 88.3515 8.05587C88.8011 7.4189 89.3632 6.9318 90.1125 6.59458C90.8619 6.25736 91.7237 6.10748 92.7728 6.10748C93.6721 6.10748 94.4215 6.21989 95.021 6.48217C95.6579 6.74445 96.1076 7.11914 96.4448 7.64371C96.782 8.16827 96.9319 8.80525 96.9319 9.59209C96.9319 9.74197 96.9319 9.92931 96.8944 10.1167C96.8944 10.304 96.8569 10.4913 96.8195 10.6787C96.6321 11.6529 96.3324 12.4397 95.8828 13.0767C95.4331 13.7137 94.8336 14.2008 94.0843 14.538C93.4098 14.9127 92.548 15.0626 91.4989 15.0626ZM91.7612 13.0018C92.0609 13.0018 92.3232 12.9643 92.5855 12.8519C92.8478 12.7395 93.0351 12.6271 93.2225 12.4397C93.4098 12.2524 93.5597 12.065 93.6721 11.8028C93.7845 11.5405 93.8969 11.2782 93.9344 10.9784C93.9718 10.7162 94.0093 10.5288 94.0468 10.3789C94.0842 10.2291 94.0842 10.1167 94.1217 10.0043C94.1217 9.92931 94.1592 9.85438 94.1592 9.77944C94.1592 9.7045 94.1592 9.66703 94.1592 9.62956C94.1592 9.32981 94.0842 9.06753 93.9718 8.84272C93.8594 8.6179 93.6721 8.43056 93.4473 8.31815C93.2225 8.20574 92.9227 8.13081 92.5855 8.13081C92.2857 8.13081 92.0235 8.16827 91.7612 8.28068C91.4989 8.39309 91.3115 8.50549 91.1242 8.69284C90.9369 8.88018 90.787 9.06753 90.6746 9.32981C90.5622 9.59209 90.4498 9.85438 90.4123 10.1541C90.3748 10.4164 90.3374 10.6038 90.2999 10.7536C90.2624 10.9035 90.2624 11.0159 90.225 11.1283C90.225 11.2033 90.1875 11.2782 90.1875 11.3531C90.1875 11.3906 90.1875 11.4655 90.1875 11.503C90.1875 11.8028 90.225 12.065 90.3374 12.2899C90.4498 12.5147 90.5996 12.702 90.8244 12.8144C91.0493 12.9268 91.3865 13.0018 91.7612 13.0018Z" fill="#313131"/>
<path d="M101.842 15.0624C100.53 15.0624 99.5562 14.7626 98.8818 14.2006C98.2073 13.6385 97.8701 12.7768 97.8701 11.6527C97.8701 11.4653 97.8701 11.278 97.9076 11.0532C97.945 10.8658 97.9451 10.641 97.9825 10.4162C98.1324 9.44203 98.4696 8.65518 98.8818 8.01821C99.2939 7.38124 99.8934 6.89414 100.568 6.55692C101.28 6.2197 102.067 6.06982 103.003 6.06982C103.79 6.06982 104.465 6.18223 105.064 6.40704C105.626 6.63186 106.076 6.96908 106.413 7.38124C106.713 7.79339 106.863 8.35543 106.863 8.9924C106.863 9.10481 106.863 9.25468 106.825 9.36709C106.825 9.51697 106.788 9.62937 106.75 9.77925H104.165C104.165 9.70431 104.202 9.62937 104.202 9.55443C104.202 9.4795 104.202 9.40456 104.202 9.36709C104.202 9.10481 104.165 8.87999 104.052 8.73012C103.94 8.54277 103.828 8.3929 103.64 8.31796C103.453 8.24302 103.228 8.16808 102.928 8.16808C102.629 8.16808 102.366 8.20555 102.142 8.31796C101.917 8.43037 101.729 8.54277 101.58 8.73012C101.43 8.91746 101.28 9.10481 101.167 9.36709C101.055 9.62937 100.98 9.89165 100.943 10.1914C100.905 10.4537 100.868 10.6785 100.83 10.8284C100.793 10.9783 100.793 11.1281 100.755 11.2031C100.755 11.3155 100.718 11.3904 100.718 11.4279C100.718 11.5028 100.718 11.5403 100.718 11.5778C100.718 11.84 100.755 12.1023 100.868 12.3271C100.943 12.5519 101.092 12.7018 101.317 12.8142C101.505 12.9266 101.767 13.0016 102.067 13.0016C102.441 13.0016 102.741 12.9266 103.003 12.8142C103.266 12.7018 103.49 12.5145 103.64 12.2522C103.79 12.0274 103.903 11.7276 103.978 11.3904H106.563C106.413 12.1773 106.151 12.8517 105.776 13.4137C105.401 13.9758 104.877 14.3879 104.202 14.6502C103.565 14.95 102.779 15.0624 101.842 15.0624Z" fill="#313131"/>
<path d="M107.424 14.9125L108.96 6.21971H116.491L116.117 8.31798H111.396L111.171 9.51698H115.217L114.88 11.5028H110.833L110.609 12.8142H115.405L115.03 14.9125H107.424ZM111.808 5.43287L113.269 3.74677H115.892V3.78423L113.569 5.3954H111.808V5.43287Z" fill="#313131"/>
<path d="M4.45801 27.2772L5.99423 18.5844H9.74113L10.0034 21.6569C10.0034 21.7693 10.0409 21.9192 10.0409 22.1815C10.0783 22.4437 10.0783 22.706 10.1158 22.9683C10.1533 23.2681 10.1533 23.4929 10.1533 23.7552H10.2282C10.3406 23.5303 10.4156 23.3055 10.528 23.0432C10.6404 22.8184 10.7153 22.5936 10.8277 22.3688C10.9401 22.144 11.0151 21.9192 11.1275 21.6569L12.4764 18.5844H16.3731L14.8369 27.2772H12.1766L12.7386 24.1298C12.8136 23.7926 12.851 23.4554 12.926 23.1182C13.0009 22.781 13.0759 22.4063 13.1508 22.1065C13.2257 21.8068 13.3007 21.507 13.3756 21.2447H13.3007C13.2632 21.3197 13.2257 21.4695 13.1508 21.582C13.1133 21.7318 13.0384 21.8442 13.0009 21.9941C12.9635 22.144 12.8885 22.2564 12.851 22.3688L10.6029 27.2398H8.39225L7.98009 22.3688C7.98009 22.1815 7.94262 21.9941 7.94262 21.8068C7.90515 21.6194 7.90515 21.4321 7.86768 21.2447H7.79274C7.79274 21.507 7.75527 21.8442 7.75527 22.1815C7.7178 22.5187 7.7178 22.8559 7.68034 23.1931C7.64287 23.5303 7.6054 23.8301 7.56793 24.1298L7.0059 27.2772H4.45801Z" fill="#313131"/>
<path d="M15.9248 27.2772L20.6459 18.5844H23.9057L25.5169 27.2772H22.6692L22.5193 26.0407H19.4469L18.8474 27.2772H15.9248ZM20.3836 24.1298H22.2945L22.1072 22.7435C22.1072 22.5936 22.0697 22.4437 22.0697 22.3313C22.0697 22.1814 22.0322 22.0316 21.9948 21.9191C21.9573 21.7693 21.9573 21.6569 21.9198 21.507C21.9198 21.3571 21.8824 21.2072 21.8824 21.0948H21.8449C21.77 21.2822 21.6576 21.4695 21.5826 21.6569C21.5077 21.8442 21.3953 22.0316 21.3203 22.2189C21.2454 22.4062 21.133 22.5936 21.058 22.7809L20.3836 24.1298ZM21.2829 17.7976L22.7442 16.1115H25.367V16.1489L23.0439 17.7601H21.2829V17.7976Z" fill="#313131"/>
<path d="M30.6124 27.4272C30.0504 27.4272 29.4884 27.3897 29.0013 27.3148C28.5142 27.2399 28.0645 27.1275 27.6899 26.9401C27.3152 26.7902 27.0529 26.528 26.8281 26.2282C26.6033 25.9284 26.5283 25.5538 26.5283 25.1041C26.5283 24.9917 26.5283 24.8418 26.5283 24.7294C26.5283 24.5796 26.5658 24.4672 26.6033 24.3173H29.2261C29.1886 24.3922 29.1886 24.4672 29.1511 24.5046C29.1137 24.5421 29.1511 24.617 29.1511 24.692C29.1511 24.8793 29.1886 25.0292 29.301 25.1416C29.4134 25.254 29.5633 25.3289 29.7506 25.3664C29.938 25.4039 30.1628 25.4414 30.4251 25.4414C30.5375 25.4414 30.6874 25.4414 30.8372 25.4039C30.9871 25.3664 31.137 25.3664 31.2869 25.3289C31.4367 25.2915 31.5492 25.2165 31.6241 25.1416C31.699 25.0667 31.774 24.9168 31.774 24.7669C31.774 24.617 31.699 24.5046 31.5866 24.4297C31.4742 24.3548 31.3243 24.2798 31.0995 24.2049C30.8747 24.1299 30.6874 24.0925 30.4251 24.0175C30.1628 23.9801 29.9005 23.9051 29.6382 23.8302C29.3385 23.7552 29.0387 23.6803 28.7765 23.5679C28.4767 23.4555 28.2144 23.3431 27.9896 23.1557C27.7648 23.0059 27.5774 22.7811 27.4276 22.5188C27.2777 22.2565 27.2028 21.9567 27.2028 21.5821C27.2028 20.9825 27.3152 20.4955 27.5774 20.1208C27.8397 19.7086 28.1395 19.4089 28.5516 19.1466C28.9638 18.8843 29.4134 18.7344 29.9005 18.622C30.3876 18.5096 30.9122 18.4347 31.3993 18.4347C31.9238 18.4347 32.4109 18.4721 32.8606 18.5845C33.3102 18.6595 33.6849 18.8094 34.0221 18.9967C34.3593 19.184 34.6216 19.4089 34.809 19.7086C34.9963 20.0084 35.0712 20.3081 35.0712 20.7203C35.0712 20.7952 35.0712 20.8701 35.0712 20.9451C35.0712 21.02 35.0338 21.1324 35.0338 21.2823H32.4109C32.4109 21.2074 32.4109 21.1699 32.4109 21.1324C32.4109 21.095 32.4109 21.0575 32.4109 21.02C32.4109 20.8327 32.336 20.6453 32.1861 20.5329C32.0363 20.383 31.774 20.3081 31.4367 20.3081C31.1745 20.3081 30.9122 20.3456 30.7248 20.4205C30.5375 20.4955 30.3876 20.5704 30.3127 20.6453C30.2377 20.7577 30.1628 20.8327 30.1628 20.9451C30.1628 21.0575 30.2003 21.1324 30.2752 21.2074C30.3502 21.2823 30.4251 21.3572 30.575 21.4322C30.6874 21.5071 30.8372 21.5446 31.0246 21.5821C31.2119 21.6195 31.3993 21.657 31.5866 21.7319C31.9238 21.8069 32.2611 21.8818 32.6358 21.9942C33.0104 22.1066 33.3477 22.219 33.6474 22.4064C33.9846 22.5562 34.2095 22.7811 34.4343 23.0808C34.6216 23.3431 34.734 23.7178 34.734 24.1299C34.734 24.692 34.6216 25.1416 34.3968 25.5912C34.172 26.0034 33.8722 26.3406 33.4975 26.6404C33.1229 26.9401 32.6732 27.1275 32.1861 27.2773C31.6616 27.3523 31.137 27.4272 30.6124 27.4272Z" fill="#313131"/>
<path d="M37.9561 27.2773L39.4923 18.5845H43.1268C44.4382 18.5845 45.4124 18.8467 46.1243 19.4088C46.7987 19.9333 47.1734 20.7951 47.1734 21.9192C47.1734 22.1065 47.1734 22.2939 47.1359 22.4812C47.1359 22.6686 47.0985 22.8559 47.061 23.0807C46.9111 24.0549 46.5739 24.8418 46.1617 25.4413C45.7121 26.0782 45.1501 26.5279 44.4756 26.8276C43.7637 27.1274 42.9769 27.2773 42.0027 27.2773H37.9561ZM41.1409 25.2165H42.0776C42.3774 25.2165 42.6771 25.179 42.902 25.1041C43.1268 25.0291 43.3516 24.8792 43.5015 24.7294C43.6513 24.5795 43.8012 24.3547 43.9136 24.1299C44.026 23.905 44.101 23.6428 44.1384 23.343C44.2134 23.0058 44.2508 22.781 44.2508 22.6311C44.2508 22.4812 44.2883 22.3314 44.2883 22.2564C44.2883 22.1815 44.2883 22.1065 44.2883 22.0691C44.2883 21.7693 44.2508 21.5445 44.1384 21.3197C44.026 21.1323 43.8761 20.9825 43.6513 20.8701C43.4265 20.7577 43.1642 20.7202 42.827 20.7202H41.8903L41.1409 25.2165Z" fill="#313131"/>
<path d="M47.7734 27.2773L49.3097 18.5845H56.8409L56.4662 20.6827H51.7451L51.5203 21.8817H55.567L55.2298 23.8676H51.1831L50.9583 25.179H55.7543L55.3796 27.2773H47.7734Z" fill="#313131"/>
<path d="M59.1641 27.2772L60.7003 18.5844H68.2315L67.8569 20.6827H63.1358L62.911 21.8817H66.9576L66.6204 23.8676H62.5737L62.3489 25.179H67.1449L66.7703 27.2772H59.1641Z" fill="#313131"/>
<path d="M72.3146 27.4272C71.7525 27.4272 71.1905 27.3897 70.7034 27.3148C70.2163 27.2399 69.7667 27.1275 69.392 26.9401C69.0173 26.7902 68.755 26.528 68.5302 26.2282C68.3054 25.9284 68.2305 25.5538 68.2305 25.1041C68.2305 24.9917 68.2305 24.8418 68.2305 24.7294C68.2305 24.5796 68.2679 24.4672 68.3054 24.3173H70.9282C70.8908 24.3922 70.8908 24.4672 70.8533 24.5046C70.8158 24.5421 70.8533 24.617 70.8533 24.692C70.8533 24.8793 70.8908 25.0292 71.0032 25.1416C71.1156 25.254 71.2654 25.3289 71.4528 25.3664C71.6401 25.4039 71.865 25.4414 72.1272 25.4414C72.2396 25.4414 72.3895 25.4414 72.5394 25.4039C72.6893 25.3664 72.8391 25.3664 72.989 25.3289C73.1389 25.2915 73.2513 25.2165 73.3262 25.1416C73.4012 25.0667 73.4761 24.9168 73.4761 24.7669C73.4761 24.617 73.4012 24.5046 73.2888 24.4297C73.1764 24.3548 73.0265 24.2798 72.8017 24.2049C72.5769 24.1299 72.3895 24.0925 72.1272 24.0175C71.865 23.9801 71.6027 23.9051 71.3404 23.8302C71.0406 23.7552 70.7409 23.6803 70.4786 23.5679C70.1789 23.4555 69.9166 23.3431 69.6918 23.1557C69.4669 23.0059 69.2796 22.7811 69.1297 22.5188C68.9798 22.2565 68.9049 21.9567 68.9049 21.5821C68.9049 20.9825 69.0173 20.4955 69.2796 20.1208C69.5419 19.7086 69.8416 19.4089 70.2538 19.1466C70.6659 18.8843 71.1156 18.7344 71.6027 18.622C72.0898 18.5096 72.6143 18.4347 73.1014 18.4347C73.626 18.4347 74.1131 18.4721 74.5627 18.5845C75.0123 18.6595 75.387 18.8094 75.7243 18.9967C76.0615 19.184 76.3238 19.4089 76.5111 19.7086C76.6984 20.0084 76.7734 20.3081 76.7734 20.7203C76.7734 20.7952 76.7734 20.8701 76.7734 20.9451C76.7734 21.02 76.7359 21.1324 76.7359 21.2823H74.1131C74.1131 21.2074 74.1131 21.1699 74.1131 21.1324C74.1131 21.095 74.1131 21.0575 74.1131 21.02C74.1131 20.8327 74.0381 20.6453 73.8883 20.5329C73.7384 20.383 73.4761 20.3081 73.1389 20.3081C72.8766 20.3081 72.6143 20.3456 72.427 20.4205C72.2396 20.4955 72.0898 20.5704 72.0148 20.6453C71.9399 20.7577 71.865 20.8327 71.865 20.9451C71.865 21.0575 71.9024 21.1324 71.9774 21.2074C72.0523 21.2823 72.1272 21.3572 72.2771 21.4322C72.3895 21.5071 72.5394 21.5446 72.7267 21.5821C72.9141 21.6195 73.1014 21.657 73.2888 21.7319C73.626 21.8069 73.9632 21.8818 74.3379 21.9942C74.7126 22.1066 75.0498 22.219 75.3496 22.4064C75.6868 22.5562 75.9116 22.7811 76.1364 23.0808C76.3238 23.3431 76.4362 23.7178 76.4362 24.1299C76.4362 24.692 76.3238 25.1416 76.0989 25.5912C75.8741 26.0034 75.5744 26.3406 75.1997 26.6404C74.825 26.9401 74.3754 27.1275 73.8883 27.2773C73.3637 27.3523 72.8766 27.4272 72.3146 27.4272Z" fill="#313131"/>
<path d="M79.6216 27.2773L80.7832 20.7951H77.9355L78.3102 18.5845H86.7782L86.4035 20.7951H83.5559L82.4318 27.2773H79.6216Z" fill="#313131"/>
<path d="M86.5166 27.2772L88.0528 18.5844H95.5841L95.2094 20.6827H90.4883L90.2635 21.8817H94.3101L93.9729 23.8676H89.9263L89.7015 25.179H94.4975L94.1228 27.2772H86.5166Z" fill="#313131"/>
<path d="M4.45801 39.6419L5.99423 30.9491H11.0151C11.5022 30.9491 11.9143 31.0615 12.289 31.2489C12.6637 31.4737 12.926 31.736 13.1133 32.1107C13.3007 32.4854 13.4131 32.8975 13.4131 33.3846C13.4131 33.8717 13.3381 34.3213 13.1883 34.7335C13.0384 35.1456 12.8136 35.5203 12.5138 35.8201C12.2141 36.1198 11.8769 36.3821 11.4647 36.5695C11.0525 36.7568 10.6029 36.8318 10.1158 36.8318H7.71781L7.23071 39.6419H4.45801ZM8.12996 34.8084H9.59125C9.81607 34.8084 10.0034 34.771 10.1533 34.6586C10.3032 34.5461 10.4156 34.4337 10.4905 34.2464C10.5654 34.0965 10.6029 33.9092 10.6029 33.6844C10.6029 33.4595 10.528 33.3097 10.4156 33.1973C10.3032 33.0849 10.0783 33.0099 9.81607 33.0099H8.46718L8.12996 34.8084Z" fill="#313131"/>
<path d="M13.6016 39.6419L15.1378 30.9491H20.4584C21.0579 30.9491 21.545 31.0616 21.9197 31.2489C22.2944 31.4362 22.5941 31.736 22.7814 32.0357C22.9688 32.373 23.0812 32.7477 23.0812 33.1598C23.0812 33.6844 23.0063 34.1715 22.8189 34.5462C22.669 34.9583 22.4442 35.2581 22.1445 35.5578C21.8447 35.8201 21.5075 36.0449 21.1328 36.2323L22.2569 39.6045H19.147L18.3226 36.7194H16.8988L16.3743 39.6419H13.6016ZM17.236 34.8084H19.072C19.2219 34.8084 19.4092 34.771 19.5591 34.6586C19.709 34.5462 19.8589 34.4338 19.9713 34.2464C20.0837 34.0965 20.1212 33.8717 20.1212 33.6469C20.1212 33.4221 20.0462 33.2347 19.9338 33.1223C19.8214 32.9725 19.6715 32.935 19.4842 32.935H17.5358L17.236 34.8084Z" fill="#313131"/>
<path d="M27.8397 39.7919C26.9779 39.7919 26.2286 39.6795 25.5916 39.4172C24.9546 39.155 24.505 38.7803 24.1678 38.2557C23.8305 37.7311 23.6807 37.0942 23.6807 36.3448C23.6807 36.1574 23.6807 35.9701 23.7181 35.7828C23.7556 35.5954 23.7556 35.4081 23.7931 35.1832C23.9429 34.2091 24.2802 33.4222 24.6923 32.7852C25.142 32.1483 25.704 31.6612 26.4534 31.3239C27.2027 30.9867 28.0645 30.8369 29.1137 30.8369C30.0129 30.8369 30.7623 30.9493 31.3618 31.2115C31.9988 31.4738 32.4484 31.8485 32.7856 32.3731C33.1228 32.8976 33.2727 33.5346 33.2727 34.3215C33.2727 34.4713 33.2727 34.6587 33.2352 34.846C33.2352 35.0334 33.1978 35.2207 33.1603 35.4081C32.973 36.3823 32.6732 37.1691 32.2236 37.8061C31.774 38.443 31.1744 38.9301 30.4251 39.2674C29.7506 39.6421 28.8514 39.7919 27.8397 39.7919ZM28.0645 37.7311C28.3643 37.7311 28.6266 37.6937 28.8888 37.5813C29.1511 37.4689 29.3385 37.3564 29.5258 37.1691C29.7132 36.9818 29.863 36.7944 29.9754 36.5321C30.0879 36.2698 30.2003 36.0076 30.2377 35.7078C30.2752 35.4455 30.3127 35.2582 30.3501 35.1083C30.3876 34.9584 30.3876 34.846 30.4251 34.7336C30.4251 34.6587 30.4625 34.5837 30.4625 34.5088C30.4625 34.4339 30.4625 34.3964 30.4625 34.3589C30.4625 34.0592 30.3876 33.7969 30.2752 33.5721C30.1628 33.3473 29.9754 33.1599 29.7506 33.0475C29.5258 32.9351 29.2261 32.8602 28.8888 32.8602C28.5891 32.8602 28.3268 32.8976 28.0645 33.01C27.8022 33.1225 27.6149 33.2349 27.4276 33.4222C27.2402 33.6096 27.0903 33.7969 26.9779 34.0592C26.8655 34.3215 26.7531 34.5837 26.7156 34.8835C26.6782 35.1458 26.6407 35.3331 26.6032 35.483C26.5658 35.6329 26.5658 35.7453 26.5283 35.8577C26.5283 35.9326 26.4908 36.0076 26.4908 36.0825C26.4908 36.12 26.4908 36.1949 26.4908 36.2324C26.4908 36.5321 26.5283 36.7944 26.6407 37.0192C26.7531 37.244 26.903 37.4314 27.1278 37.5438C27.3526 37.6562 27.7273 37.7311 28.0645 37.7311Z" fill="#313131"/>
<path d="M33.9473 39.6419L35.4835 30.9491H39.118C40.4294 30.9491 41.4036 31.2114 42.1155 31.7735C42.7899 32.298 43.1646 33.1598 43.1646 34.2839C43.1646 34.4712 43.1646 34.6586 43.1272 34.8459C43.1272 35.0333 43.0897 35.2206 43.0522 35.4454C42.9023 36.4196 42.5651 37.2065 42.153 37.806C41.7033 38.4429 41.1413 38.8926 40.4669 39.1923C39.755 39.4921 38.9681 39.6419 37.9939 39.6419H33.9473ZM37.0947 37.5811H38.0314C38.3311 37.5811 38.6309 37.5437 38.8557 37.4687C39.0805 37.3938 39.3053 37.2439 39.4552 37.094C39.6051 36.9442 39.755 36.7194 39.8674 36.4945C39.9798 36.2697 40.0547 36.0074 40.0922 35.7077C40.1671 35.3705 40.2046 35.1457 40.2046 34.9958C40.2046 34.8459 40.242 34.696 40.242 34.6211C40.242 34.5462 40.242 34.4712 40.242 34.4338C40.242 34.134 40.2046 33.9092 40.0922 33.6844C39.9798 33.497 39.8299 33.3472 39.6051 33.2347C39.3803 33.1223 39.118 33.0849 38.7808 33.0849H37.844L37.0947 37.5811Z" fill="#313131"/>
<path d="M48.1858 39.7918C46.9868 39.7918 46.0501 39.567 45.3382 39.0799C44.6638 38.5928 44.2891 37.8809 44.2891 36.9067C44.2891 36.7943 44.2891 36.6444 44.3265 36.532C44.3265 36.3821 44.364 36.2697 44.4015 36.1199L45.3007 30.9866H48.0734L47.1742 36.1199C47.1742 36.1948 47.1742 36.2697 47.1367 36.3072C47.1367 36.3821 47.1367 36.4571 47.1367 36.4945C47.1367 36.8692 47.2491 37.1315 47.4365 37.3563C47.6238 37.5811 47.961 37.6935 48.4106 37.6935C48.9352 37.6935 49.3474 37.5437 49.6471 37.2439C49.9469 36.9442 50.1717 36.5695 50.2466 36.0824L51.1459 30.9491H53.9186L52.9819 36.2697C52.832 37.0566 52.5697 37.6936 52.1575 38.2181C51.7454 38.7427 51.1833 39.1174 50.5089 39.3797C49.8719 39.6794 49.0851 39.7918 48.1858 39.7918Z" fill="#313131"/>
<path d="M58.5264 39.7919C57.215 39.7919 56.2408 39.4921 55.5663 38.9301C54.8919 38.3681 54.5547 37.5063 54.5547 36.3822C54.5547 36.1949 54.5547 36.0075 54.5922 35.7827C54.6296 35.5954 54.6296 35.3706 54.6671 35.1457C54.817 34.1715 55.1542 33.3847 55.5663 32.7477C55.9785 32.1108 56.578 31.6237 57.2524 31.2864C57.9644 30.9492 58.7512 30.7993 59.6879 30.7993C60.4748 30.7993 61.1492 30.9117 61.7487 31.1366C62.3108 31.3614 62.7604 31.6986 63.0976 32.1108C63.3973 32.5229 63.5472 33.0849 63.5472 33.7219C63.5472 33.8343 63.5472 33.9842 63.5098 34.0966C63.5098 34.2465 63.4723 34.3589 63.4348 34.5088H60.7745C60.7745 34.4338 60.812 34.3589 60.812 34.284C60.812 34.209 60.812 34.1341 60.812 34.0966C60.812 33.8343 60.7745 33.6095 60.6621 33.4596C60.5497 33.2723 60.4373 33.1224 60.25 33.0475C60.0626 32.9725 59.8378 32.8976 59.5381 32.8976C59.2383 32.8976 58.976 32.9351 58.7512 33.0475C58.5264 33.1599 58.339 33.2723 58.1892 33.4596C58.0393 33.647 57.8894 33.8343 57.777 34.0966C57.6646 34.3589 57.5897 34.6212 57.5522 34.9209C57.5147 35.1832 57.4773 35.408 57.4398 35.5579C57.4023 35.7078 57.4023 35.8576 57.3649 35.9326C57.3649 36.045 57.3274 36.1199 57.3274 36.1574C57.3274 36.2323 57.3274 36.2698 57.3274 36.3073C57.3274 36.5696 57.3649 36.8318 57.4773 37.0567C57.5522 37.2815 57.7021 37.4313 57.9269 37.5437C58.1142 37.6562 58.3765 37.7311 58.6763 37.7311C59.051 37.7311 59.3507 37.6562 59.613 37.5437C59.8753 37.4313 60.1001 37.244 60.25 36.9817C60.3998 36.7569 60.5122 36.4571 60.5872 36.1199H63.1725C63.0227 36.9068 62.7604 37.5812 62.3857 38.1433C62.011 38.7053 61.4864 39.1174 60.812 39.3797C60.2125 39.6795 59.4256 39.7919 58.5264 39.7919Z" fill="#313131"/>
<path d="M66.0582 39.6419L67.2197 33.1598H64.3721L64.7468 30.9491H73.2147L72.84 33.1598H69.9924L68.8309 39.6419H66.0582Z" fill="#313131"/>
<path d="M76.9989 39.7919C76.1371 39.7919 75.3877 39.6795 74.7508 39.4172C74.1138 39.155 73.6642 38.7803 73.3269 38.2557C72.9897 37.7311 72.8398 37.0942 72.8398 36.3448C72.8398 36.1574 72.8398 35.9701 72.8773 35.7828C72.9148 35.5954 72.9148 35.4081 72.9523 35.1832C73.1021 34.2091 73.4394 33.4222 73.8515 32.7852C74.3011 32.1483 74.8632 31.6612 75.6125 31.3239C76.3619 30.9867 77.2237 30.8369 78.2728 30.8369C79.1721 30.8369 79.9215 30.9493 80.521 31.2115C81.1579 31.4738 81.6076 31.8485 81.9448 32.3731C82.282 32.8976 82.4319 33.5346 82.4319 34.3215C82.4319 34.4713 82.4319 34.6587 82.3944 34.846C82.3944 35.0334 82.357 35.2207 82.3195 35.4081C82.1321 36.3823 81.8324 37.1691 81.3828 37.8061C80.9331 38.443 80.3336 38.9301 79.5843 39.2674C78.9098 39.6421 78.048 39.7919 76.9989 39.7919ZM77.2237 37.7311C77.5235 37.7311 77.7857 37.6937 78.048 37.5813C78.3103 37.4689 78.4977 37.3564 78.685 37.1691C78.8723 36.9818 79.0222 36.7944 79.1346 36.5321C79.247 36.2698 79.3594 36.0076 79.3969 35.7078C79.4344 35.4455 79.4718 35.2582 79.5093 35.1083C79.5468 34.9584 79.5468 34.846 79.5843 34.7336C79.5843 34.6587 79.6217 34.5837 79.6217 34.5088C79.6217 34.4339 79.6217 34.3964 79.6217 34.3589C79.6217 34.0592 79.5468 33.7969 79.4344 33.5721C79.322 33.3473 79.1346 33.1599 78.9098 33.0475C78.685 32.9351 78.3852 32.8602 78.048 32.8602C77.7483 32.8602 77.486 32.8976 77.2237 33.01C76.9614 33.1225 76.7741 33.2349 76.5867 33.4222C76.3994 33.6096 76.2495 33.7969 76.1371 34.0592C76.0247 34.3215 75.9123 34.5837 75.8748 34.8835C75.8374 35.1458 75.7999 35.3331 75.7624 35.483C75.725 35.6329 75.725 35.7453 75.6875 35.8577C75.6875 35.9326 75.65 36.0076 75.65 36.0825C75.65 36.12 75.65 36.1949 75.65 36.2324C75.65 36.5321 75.6875 36.7944 75.7999 37.0192C75.9123 37.244 76.0622 37.4314 76.287 37.5438C76.5118 37.6562 76.8865 37.7311 77.2237 37.7311Z" fill="#313131"/>
<path d="M95.9209 51.632L98.5812 47.4355L96.4829 46.0866L99.1432 41.8901L97.045 40.5412L99.7053 36.3447L97.607 35.0333L100.267 30.7993L98.169 29.4879L99.5179 27.3521L97.4197 26.0407L101.654 19.3338L108.361 23.5678L107.049 25.666L108.735 26.7526L122.074 5.73257L128.781 9.96656L122.112 20.4953L128.406 24.5045L127.095 26.6028L133.39 30.6119L132.078 32.7102L136.275 35.3705L134.964 37.4688L137.062 38.7802L126.121 56.0159L124.023 54.7045L120.051 60.9992L117.915 59.6878L115.255 63.8843L95.9209 51.632Z" fill="#313131"/>
<path d="M116.042 67.2941L92.5117 52.3815L95.172 48.185L93.0738 46.8361L95.734 42.6396L93.6358 41.3282L96.2961 37.0942L94.1978 35.7828L96.8581 31.5862L94.7599 30.2373L96.1087 28.1391L94.0105 26.7902L100.905 15.9242L109.298 21.2448L121.288 2.323L132.191 9.21728L125.522 19.746L131.817 23.7178L130.505 25.816L136.8 29.8252L135.451 31.9609L139.685 34.6212L138.336 36.7195L140.434 38.0309L126.871 59.4256L124.81 58.1142L120.801 64.409L118.702 63.0601L116.042 67.2941Z" fill="#313131"/>
<path d="M97.9824 51.1449C98.8817 49.7585 99.7435 48.3347 100.643 46.9484C99.9308 46.4987 99.2564 46.0491 98.5445 45.5995C99.4437 44.1757 100.305 42.7893 101.205 41.403C100.493 40.9533 99.8184 40.5037 99.1065 40.0541C100.006 38.6303 100.868 37.2439 101.767 35.8576C101.055 35.4079 100.38 34.9958 99.6685 34.5462C100.568 33.1223 101.43 31.736 102.329 30.3496C101.617 29.9 100.942 29.4504 100.231 29.0008C100.68 28.2889 101.13 27.6144 101.579 26.9025C100.868 26.4529 100.193 26.0033 99.4812 25.5911C100.38 24.1673 101.242 22.7809 102.141 21.3946C103.528 22.2938 104.914 23.1556 106.338 24.0549C105.888 24.7668 105.476 25.4412 105.027 26.1531C105.738 26.6028 106.413 27.0524 107.125 27.4645C105.776 29.5628 104.465 31.6611 103.116 33.7593C103.828 34.2089 104.502 34.6586 105.214 35.1082C110.984 26.0032 116.754 16.8983 122.525 7.79335C123.948 8.6926 125.335 9.55439 126.721 10.4536C122.712 16.7484 118.74 23.0432 114.731 29.3755C115.443 29.8251 116.117 30.2747 116.829 30.7243C118.59 27.9142 120.389 25.1415 122.15 22.3313C123.574 23.2305 124.96 24.0923 126.346 24.9916C124.585 27.8018 122.787 30.5745 121.026 33.3846C121.738 33.8343 122.412 34.2839 123.124 34.7335C124.435 32.6352 125.784 30.537 127.133 28.4387C128.557 29.338 129.943 30.1998 131.33 31.099C129.569 33.9092 127.77 36.6819 126.009 39.4921C126.721 39.9417 127.396 40.3913 128.107 40.8409C129.419 38.7427 130.768 36.6444 132.079 34.5462C132.791 34.9958 133.465 35.4454 134.177 35.895C133.728 36.5695 133.316 37.2814 132.866 37.9933C133.578 38.4429 134.252 38.8926 134.964 39.3047C131.854 44.2131 128.744 49.1216 125.634 54.03C124.96 53.5804 124.248 53.1682 123.536 52.7186C122.187 54.8168 120.876 56.9151 119.527 59.0134C118.815 58.5637 118.141 58.1141 117.429 57.6645C116.53 59.0883 115.668 60.4747 114.768 61.861C109.186 58.264 103.603 54.7419 97.9824 51.1449Z" fill="white"/>
</svg>
