<svg xmlns="http://www.w3.org/2000/svg" viewBox="0 0 929.24 268.04"><defs><style>.cls-1{fill:#fff;}.cls-2{fill:#201e1e;}.cls-3{fill:#fbdf39;}</style></defs><g id="Capa_2" data-name="Capa 2"><g id="FONDO"><path class="cls-1" d="M929.24,167.79c0,1.38-.09,2.86-.25,4.51-.14,1.5-3,31.27-3.93,37.34-1.42,9.5-2.08,18.4-6.19,26.06a54.77,54.77,0,0,1-16.51,18.81,69.32,69.32,0,0,1-21.79,10.33,89.24,89.24,0,0,1-23.94,3.2,156.41,156.41,0,0,1-22.31-1.49,75.28,75.28,0,0,1-20.74-5.85,42.75,42.75,0,0,1-17.77-14.8c-.29-.41-.55-.82-.82-1.23a69.59,69.59,0,0,1-22.47,15.81c-11.28,5-24.65,7.56-39.76,7.56-13,0-24.58-2.08-34.33-6.19a53.77,53.77,0,0,1-24.09-19.26,54.35,54.35,0,0,1-12.15,11.92,69.12,69.12,0,0,1-21.79,10.33c-7.61,2.12-15.65,1.52-23.94,1.52-7.9,0-52.87-.17-52.87-.17H145.87l-17-25.79-4.41,25.79H0L23.55,133.38H0L23.36,1.67H74L87.22,22.31l3.5-20.64h321l2.51,20.49L424,1.67h73.49S514.07,0,524.31,0c12.12,0,22.84,1.92,31.86,5.73a50.49,50.49,0,0,1,21,16,49.41,49.41,0,0,1,12.73-11.15,67.83,67.83,0,0,1,20.3-8.2A92.5,92.5,0,0,1,630.78,0a99.81,99.81,0,0,1,19.51,1.81,61.55,61.55,0,0,1,18.13,6.48,42,42,0,0,1,14.66,13.5,35.33,35.33,0,0,1,5,12c2.19,6.16-.28,37.76-.28,37.76,5.69.43,181.74.13,226.11,0a7.5,7.5,0,0,1,7.19,9.64l-14.82,49.67c.36.17.71.37,1.05.56a44.7,44.7,0,0,1,15.57,14.31A39.46,39.46,0,0,1,929.24,167.79Z"/><path class="cls-2" d="M21.23,115.59l17-96.12h26L87.87,56.21Q89.4,58.45,91,61t3.08,5q1.45,2.44,2.58,4.4l.7-.28c.18-1.86.39-3.51.63-5s.49-3,.77-4.68l7-41.07H134l-17,96.12H91.08L64.4,75.21c-.84-1.3-1.82-2.89-2.94-4.75s-2.09-3.54-2.93-5l-.7.14c-.19,2.05-.44,4-.77,5.87s-.58,3.26-.77,4.19l-6.84,40Z"/><path class="cls-2" d="M186.64,117.26q-20,0-31.43-8t-11.46-24.1c0-1.4.07-2.84.21-4.33s.35-3,.63-4.61l10.06-56.72h30.87l-10.05,57c-.1.74-.19,1.49-.28,2.23a16.84,16.84,0,0,0-.14,2.24,13.5,13.5,0,0,0,3.42,9.64q3.42,3.63,10.69,3.63,8.52,0,13.69-5a23.05,23.05,0,0,0,6.57-12.71l10.05-57h30.88L240,78.28q-2.23,13-9.22,21.66a42.63,42.63,0,0,1-18.09,13Q201.58,117.26,186.64,117.26Z"/><path class="cls-2" d="M254,115.59l17-96.12h83.12l-4,23.05H297.85l-2.38,13.27h44.71l-3.91,22.07H291.56l-2.65,14.67h53.23l-4.05,23.06Z"/><path class="cls-2" d="M381.11,115.59l-17-96.12h31.85l5.45,44.42c.19,1.22.42,3,.7,5.31s.58,4.8.91,7.41.63,5,.91,7.12h.56q1.67-3.35,3.21-6.63t3.14-6.64L414,63.89l21.23-44.42h32.69l-51,96.12Z"/><path class="cls-2" d="M509.65,117.26q-14.53,0-24.8-4.33A32.49,32.49,0,0,1,469.27,100Q464,91.42,464,78.7a55.64,55.64,0,0,1,.35-6.07c.23-2.1.54-4.27.91-6.5Q468,50.2,475.28,39.44a45.25,45.25,0,0,1,19.42-16.2q12.15-5.44,29.62-5.45,14.67,0,24.94,4.33a32.48,32.48,0,0,1,15.57,13q5.31,8.67,5.31,21.66,0,2.79-.28,5.87T569,68.92q-2.79,15.93-10.26,26.69a46.62,46.62,0,0,1-19.7,16.2Q526.84,117.27,509.65,117.26Zm2.65-23.05a24.76,24.76,0,0,0,9.15-1.61,21.65,21.65,0,0,0,7.2-4.54,24.54,24.54,0,0,0,5.1-7,33,33,0,0,0,2.86-9q.71-4.05,1.12-6.64c.28-1.72.49-3.09.63-4.12s.23-1.82.28-2.38.07-1.07.07-1.53a18.92,18.92,0,0,0-1.89-8.73,13.16,13.16,0,0,0-5.66-5.73,19.92,19.92,0,0,0-9.5-2,25,25,0,0,0-9.15,1.61A20.82,20.82,0,0,0,505.39,47a25.27,25.27,0,0,0-5,7,33.11,33.11,0,0,0-2.87,9l-1.11,6.78c-.28,1.73-.49,3.1-.63,4.12s-.24,1.82-.28,2.38-.07,1.07-.07,1.53a19.3,19.3,0,0,0,1.81,8.6,12.77,12.77,0,0,0,5.59,5.72A19.83,19.83,0,0,0,512.3,94.21Z"/><path class="cls-2" d="M621.69,117.26a124.56,124.56,0,0,1-17.88-1.19,51.64,51.64,0,0,1-14.32-4,22.59,22.59,0,0,1-9.5-7.82,21.84,21.84,0,0,1-3.42-12.57q0-2,.21-4.26a26.69,26.69,0,0,1,.76-4.41h29.2a6.9,6.9,0,0,0-.69,2.17,14.2,14.2,0,0,0-.14,2,6.54,6.54,0,0,0,1.81,5,9.75,9.75,0,0,0,5,2.38,37.93,37.93,0,0,0,7.27.63c1.39,0,2.93-.07,4.61-.21a23.08,23.08,0,0,0,4.82-.91,8.82,8.82,0,0,0,3.77-2.17,5.35,5.35,0,0,0,1.47-4,4.47,4.47,0,0,0-2-3.7,17.65,17.65,0,0,0-5.31-2.51c-2.23-.7-4.75-1.35-7.54-2s-5.68-1.28-8.67-2q-4.89-1.26-9.71-3a34.73,34.73,0,0,1-8.66-4.54,20.78,20.78,0,0,1-6.14-7.05,21.59,21.59,0,0,1-2.31-10.41q0-9.64,4.05-16.28A32.19,32.19,0,0,1,599.2,25.68a49.28,49.28,0,0,1,14.95-6,74.13,74.13,0,0,1,16.62-1.89,82.57,82.57,0,0,1,16.07,1.47,42.73,42.73,0,0,1,12.85,4.54,24.12,24.12,0,0,1,8.53,7.75,19.86,19.86,0,0,1,3.07,11.11c0,.74,0,1.58-.14,2.51s-.28,2.24-.56,3.91H641.67a11.82,11.82,0,0,0,.14-1.46v-1a7.36,7.36,0,0,0-2.44-5.52c-1.63-1.54-4.41-2.3-8.32-2.3a24.71,24.71,0,0,0-7.75,1,11.33,11.33,0,0,0-4.68,2.66,4.88,4.88,0,0,0-1.54,3.42,4.42,4.42,0,0,0,1.12,3.07,10.59,10.59,0,0,0,3.21,2.31,26.26,26.26,0,0,0,5,1.82q2.86.76,6.36,1.46,5.44,1.13,11.53,2.73a54.06,54.06,0,0,1,11.38,4.4A24.4,24.4,0,0,1,664.23,69a19.18,19.18,0,0,1,3.29,11.53A32.58,32.58,0,0,1,653.69,108,46.38,46.38,0,0,1,639,115,64.34,64.34,0,0,1,621.69,117.26Z"/><path class="cls-3" d="M21.23,248.4,40.07,142.14H74.2L55.36,248.4Z"/><path class="cls-3" d="M78.22,248.4,97.06,142.14h28.73l26.1,40.62q1.7,2.48,3.47,5.33t3.4,5.56c1.08,1.8,2,3.43,2.86,4.87l.77-.31q.31-3.09.7-5.48c.25-1.6.54-3.33.84-5.18l7.73-45.41h31.19L184,248.4H155.44l-29.5-44.63q-1.39-2.16-3.24-5.25c-1.24-2.06-2.32-3.92-3.25-5.56l-.77.15q-.32,3.4-.85,6.49c-.36,2.06-.64,3.6-.85,4.63l-7.57,44.17Z"/><path class="cls-3" d="M256.76,250.26q-22.09,0-34.14-10.27t-12-30.66a98.52,98.52,0,0,1,1.16-15.52,76.63,76.63,0,0,1,3.32-13.52,58.12,58.12,0,0,1,13.43-22.16,56.68,56.68,0,0,1,21-13.36,77.33,77.33,0,0,1,26.87-4.48,91.43,91.43,0,0,1,20.08,2.08,53.55,53.55,0,0,1,16.14,6.26A31.22,31.22,0,0,1,323.25,159,27.27,27.27,0,0,1,327,173.5c0,1.13,0,2.29-.15,3.47s-.26,2.39-.47,3.63H293.82a4.49,4.49,0,0,0,.16-1.16v-1.16a10.54,10.54,0,0,0-1.31-5.25,11.56,11.56,0,0,0-3.79-3.94,19.5,19.5,0,0,0-5.64-2.47,26.71,26.71,0,0,0-6.87-.85,34.12,34.12,0,0,0-10.89,1.63,24,24,0,0,0-8.49,4.86,27.78,27.78,0,0,0-6,7.72,32.36,32.36,0,0,0-3.32,10.35q-.78,4.63-1.24,7.49c-.31,1.91-.54,3.43-.7,4.56s-.25,2-.31,2.62-.07,1.19-.07,1.7a19.09,19.09,0,0,0,2.32,9.73,15.14,15.14,0,0,0,6.87,6.18,26.82,26.82,0,0,0,11.5,2.16,30.8,30.8,0,0,0,10.28-1.7,22.8,22.8,0,0,0,8.18-4.79,12,12,0,0,0,3.94-7.1l.15-.46H264.48l3.86-21.63H325l-10.5,59.31H296.91l-1.54-10.5a59.75,59.75,0,0,1-11.28,6.8,58.88,58.88,0,0,1-12.74,4.17A72.5,72.5,0,0,1,256.76,250.26Z"/><path class="cls-3" d="M335.68,248.4l18.69-106.26h65q10.8,0,17.91,3.71a25.06,25.06,0,0,1,10.58,9.81,27.09,27.09,0,0,1,3.48,13.67,44.5,44.5,0,0,1-3,17.14A35.18,35.18,0,0,1,440,198.75,45.51,45.51,0,0,1,427.57,207l13.6,41.39H403.33l-9.89-35.67h-17.3l-6.33,35.67Zm44.63-59.31h22.4a12.34,12.34,0,0,0,6.18-1.77,14.71,14.71,0,0,0,5.09-4.87,12.71,12.71,0,0,0,2-7.1,9.51,9.51,0,0,0-2.16-6.49,7.25,7.25,0,0,0-5.72-2.47H384.18Z"/><path class="cls-3" d="M455.68,248.4l18.85-106.26h91.89l-4.48,25.49H504.18l-2.63,14.67H551l-4.33,24.4H497.23l-2.93,16.22h58.84l-4.48,25.48Z"/><path class="cls-3" d="M616.46,250.26a138.33,138.33,0,0,1-19.77-1.32,57.35,57.35,0,0,1-15.83-4.4,24.94,24.94,0,0,1-10.5-8.65c-2.53-3.7-3.78-8.34-3.78-13.9,0-1.44.07-3,.23-4.71a27.69,27.69,0,0,1,.85-4.86h32.27a7.55,7.55,0,0,0-.77,2.39,17.43,17.43,0,0,0-.15,2.24,7.23,7.23,0,0,0,2,5.48,10.73,10.73,0,0,0,5.56,2.63,42.24,42.24,0,0,0,8,.69c1.54,0,3.24-.07,5.09-.23a25.64,25.64,0,0,0,5.33-1,9.74,9.74,0,0,0,4.17-2.4,5.94,5.94,0,0,0,1.63-4.4,4.94,4.94,0,0,0-2.17-4.09,19.47,19.47,0,0,0-5.87-2.78q-3.7-1.15-8.34-2.16t-9.57-2.24c-3.61-.93-7.18-2-10.74-3.32a38.48,38.48,0,0,1-9.57-5,23,23,0,0,1-6.8-7.8,23.91,23.91,0,0,1-2.55-11.51q0-10.65,4.48-18A35.43,35.43,0,0,1,591.6,149a54.49,54.49,0,0,1,16.52-6.65,82.17,82.17,0,0,1,18.38-2.08,91.57,91.57,0,0,1,17.76,1.62,47.74,47.74,0,0,1,14.21,5,26.64,26.64,0,0,1,9.42,8.57,21.84,21.84,0,0,1,3.4,12.28c0,.83,0,1.75-.15,2.78s-.31,2.47-.62,4.33h-32a12.89,12.89,0,0,0,.15-1.63v-1.15A8.08,8.08,0,0,0,636,166c-1.8-1.7-4.87-2.55-9.19-2.55a27.1,27.1,0,0,0-8.57,1.16,12.63,12.63,0,0,0-5.18,2.93,5.43,5.43,0,0,0-1.7,3.78,4.94,4.94,0,0,0,1.24,3.4,11.6,11.6,0,0,0,3.55,2.55,29.65,29.65,0,0,0,5.49,2c2.1.56,4.45,1.1,7,1.62,4,.82,8.26,1.83,12.75,3A60,60,0,0,1,654,188.79a27.13,27.13,0,0,1,9.5,8.1q3.63,5,3.63,12.75a35.91,35.91,0,0,1-15.29,30.42,51.2,51.2,0,0,1-16.22,7.65A70.72,70.72,0,0,1,616.46,250.26Z"/><path class="cls-3" d="M732.76,250.26q-16.07,0-27.42-4.79a36.07,36.07,0,0,1-17.22-14.29q-5.86-9.5-5.87-23.55a60.37,60.37,0,0,1,.39-6.72q.39-3.48,1-7.18,3.09-17.61,11.13-29.5a50,50,0,0,1,21.46-17.92q13.44-6,32.75-6,16.21,0,27.56,4.79a35.83,35.83,0,0,1,17.22,14.36q5.88,9.59,5.87,23.94,0,3.09-.3,6.49t-.93,6.95q-3.09,17.6-11.35,29.5a51.46,51.46,0,0,1-21.78,17.91Q751.76,250.26,732.76,250.26Zm2.93-25.49A27.74,27.74,0,0,0,745.81,223a24.06,24.06,0,0,0,8-5,27.25,27.25,0,0,0,5.64-7.8,36.59,36.59,0,0,0,3.17-10q.76-4.47,1.23-7.33c.31-1.91.54-3.42.7-4.56s.25-2,.31-2.62.07-1.18.07-1.7a21,21,0,0,0-2.08-9.65,14.62,14.62,0,0,0-6.26-6.34,22.07,22.07,0,0,0-10.5-2.24,27.74,27.74,0,0,0-10.12,1.78,23.15,23.15,0,0,0-7.87,5,27.87,27.87,0,0,0-5.56,7.8,36.29,36.29,0,0,0-3.17,10q-.78,4.63-1.23,7.49c-.31,1.91-.55,3.43-.7,4.56s-.26,2-.31,2.62-.08,1.19-.08,1.7a21.29,21.29,0,0,0,2,9.5,14.11,14.11,0,0,0,6.18,6.33A22,22,0,0,0,735.69,224.77Z"/><path class="cls-3" d="M856.62,250.26a138.33,138.33,0,0,1-19.77-1.32,57.35,57.35,0,0,1-15.83-4.4,24.94,24.94,0,0,1-10.5-8.65q-3.78-5.55-3.78-13.9c0-1.44.07-3,.23-4.71a28.65,28.65,0,0,1,.85-4.86H840.1a7.58,7.58,0,0,0-.78,2.39,17.43,17.43,0,0,0-.15,2.24,7.23,7.23,0,0,0,2,5.48,10.73,10.73,0,0,0,5.56,2.63,42.31,42.31,0,0,0,8,.69c1.54,0,3.24-.07,5.1-.23a25.77,25.77,0,0,0,5.33-1,9.76,9.76,0,0,0,4.16-2.4,5.94,5.94,0,0,0,1.63-4.4,4.94,4.94,0,0,0-2.17-4.09A19.36,19.36,0,0,0,863,211q-3.71-1.15-8.33-2.16c-3.09-.67-6.29-1.42-9.58-2.24-3.61-.93-7.18-2-10.74-3.32a38.48,38.48,0,0,1-9.57-5,23.15,23.15,0,0,1-6.8-7.8,24,24,0,0,1-2.54-11.51q0-10.65,4.47-18A35.52,35.52,0,0,1,831.76,149a54.49,54.49,0,0,1,16.52-6.65,82.17,82.17,0,0,1,18.38-2.08,91.5,91.5,0,0,1,17.76,1.62,47.64,47.64,0,0,1,14.21,5,26.64,26.64,0,0,1,9.42,8.57,21.84,21.84,0,0,1,3.4,12.28c0,.83-.05,1.75-.15,2.78s-.31,2.47-.62,4.33h-32a12.89,12.89,0,0,0,.15-1.63v-1.15a8.08,8.08,0,0,0-2.7-6.1c-1.8-1.7-4.87-2.55-9.19-2.55a27.1,27.1,0,0,0-8.57,1.16,12.63,12.63,0,0,0-5.18,2.93,5.42,5.42,0,0,0-1.69,3.78,4.94,4.94,0,0,0,1.23,3.4,11.6,11.6,0,0,0,3.55,2.55,29.65,29.65,0,0,0,5.49,2q3.16.84,7,1.62,6,1.23,12.75,3a59.82,59.82,0,0,1,12.58,4.87,27.13,27.13,0,0,1,9.5,8.1q3.63,5,3.63,12.75A35.91,35.91,0,0,1,892,240.06a51.2,51.2,0,0,1-16.22,7.65A70.72,70.72,0,0,1,856.62,250.26Z"/><path class="cls-2" d="M904.07,83a3.82,3.82,0,0,0-2.63-.89H884.28l-3.13,7.09H893a1.52,1.52,0,0,1,1,.3,1.05,1.05,0,0,1,.35.78,1.52,1.52,0,0,1-.07.52.45.45,0,0,1,0,.08l-6.63,16.43h-7l10-13.21-9.63,0-16.86,20.33h29.58l11.09-27.55a4.69,4.69,0,0,0,.13-.69,3.83,3.83,0,0,0,0-.75A3.15,3.15,0,0,0,904.07,83Z"/><path class="cls-2" d="M866.1,105a5.77,5.77,0,0,0,.17-1,3.51,3.51,0,0,0-.43-1.64,3.73,3.73,0,0,0-1.25-1.25h.3a5,5,0,0,0,2.64-.58,4.26,4.26,0,0,0,1.62-1.94l4.94-11a8.52,8.52,0,0,0,.39-1.08,3.19,3.19,0,0,0,.11-.95A3,3,0,0,0,873.38,83a5.23,5.23,0,0,0-3.35-1H853.08l-3.17,7h11.85a1.7,1.7,0,0,1,1.23.41,1.34,1.34,0,0,1,.46,1c0,.12,0,.26,0,.38a1.21,1.21,0,0,1-.12.35L862,94.31H847.56L838.4,114.4l9.35,0L854,100.93h2.35a2,2,0,0,1,1.23.43,1.5,1.5,0,0,1,.48,1.08c0,.11,0,.22,0,.33a1,1,0,0,1-.12.3l-5,11.31h9.1l3.75-8.27A4.7,4.7,0,0,0,866.1,105Z"/><path class="cls-2" d="M837.86,82.08l-10.51,23.15a3.77,3.77,0,0,1-1.23,1.55,3,3,0,0,1-1.69.52,2.89,2.89,0,0,1-1.51-.36,1.11,1.11,0,0,1-.5-1,1.38,1.38,0,0,1,.05-.54,1.31,1.31,0,0,1,.17-.48L833,82.08h-9.35L811.5,108.83a4.67,4.67,0,0,0-.41,1,4.57,4.57,0,0,0-.13,1,3.06,3.06,0,0,0,1.23,2.57,5.46,5.46,0,0,0,3.37.95l10.47,0a11.42,11.42,0,0,0,5.62-1.07,7.4,7.4,0,0,0,3-3.65l12.55-27.6Z"/><path class="cls-2" d="M816.86,86.58a3.26,3.26,0,0,0,.13-.91A3.18,3.18,0,0,0,815.76,83a5.48,5.48,0,0,0-3.37-1H781.47l-3.17,7.08,25.6,0a1.76,1.76,0,0,1,1.23.41,1.49,1.49,0,0,1,.46,1.08.9.9,0,0,1-.05.36,2.39,2.39,0,0,1-.1.29L795,114.4l9.35,0,12.14-26.72A6.94,6.94,0,0,0,816.86,86.58Z"/><polygon class="cls-2" points="790.19 94.07 781.04 114.4 790.24 114.4 799.37 94.07 790.19 94.07"/><polygon class="cls-2" points="775.99 94.05 766.85 114.38 776.14 114.4 785.34 94.07 775.99 94.05"/><polygon class="cls-2" points="766.34 82.08 751.7 114.38 761.03 114.38 775.69 82.08 766.34 82.08"/><polygon class="cls-2" points="750.81 82.08 745.38 94.07 740.49 94.07 745.91 82.08 736.55 82.08 721.89 114.4 731.25 114.38 737.26 101.17 742.16 101.17 736.13 114.4 745.42 114.4 760.1 82.08 750.81 82.08"/><path class="cls-2" d="M723.1,101.73a8.46,8.46,0,0,0-1.43-5,6.84,6.84,0,0,0-4-2.66c-.26-.09-.63-.17-1.11-.32-2.39-.57-3.58-1.36-3.58-2.34a1.88,1.88,0,0,1,.78-1.64,3.55,3.55,0,0,1,2.2-.62h6.95l3.26-7.09H714A9.51,9.51,0,0,0,706.79,85,10.17,10.17,0,0,0,704,92.3a7,7,0,0,0,1.27,4.44,9.08,9.08,0,0,0,4.28,2.66c.24.07.56.19.95.3,1.83.58,2.74,1.43,2.74,2.53a4.28,4.28,0,0,1-.6,2.11,5.71,5.71,0,0,1-1.69,1.82,5.38,5.38,0,0,1-2.16.86,17.25,17.25,0,0,1-3.67.26H694.49l-3.22,7.1h14.08c1.81,0,3.39-.06,4.7-.15a11.87,11.87,0,0,0,2.86-.45,16.61,16.61,0,0,0,6.79-3.93,11.56,11.56,0,0,0,2.47-3.74A11.31,11.31,0,0,0,723.1,101.73Z"/></g></g></svg>