<svg width="26" height="25" viewBox="0 0 26 25" fill="none" xmlns="http://www.w3.org/2000/svg">
<path d="M23.7292 11.2024C24.1879 10.1684 24.3912 9.06509 24.2852 8.01552L24.0329 5.50424C23.7488 2.66429 21.6495 0.565004 18.8102 0.280951L16.2977 0.0285901C14.665 -0.136325 12.919 0.417696 11.4835 1.54862L11.0686 1.88139C7.61825 4.61628 4.49485 7.74379 1.78578 11.1759C0.990551 12.1807 0.552734 13.3714 0.552734 14.53C0.552734 15.398 0.789836 16.2084 1.23294 16.864C2.87504 19.3471 4.9667 21.4388 7.44043 23.0744C8.10537 23.524 8.91586 23.7611 9.78328 23.7611C10.59 23.7611 11.4233 23.5416 12.1963 23.1334C12.7223 23.4235 13.3101 23.5926 13.9302 23.5926C14.246 23.5926 14.55 23.7188 14.7923 23.9677C15.489 24.6549 16.4028 25 17.3212 25C18.2491 25 19.1817 24.6473 19.9 23.9383C20.1136 23.7188 20.4176 23.5926 20.7334 23.5926C21.6971 23.5926 22.6009 23.2206 23.2787 22.5433C23.9548 21.8666 24.3269 20.9628 24.3269 19.9991C24.3269 19.6834 24.4531 19.3794 24.6843 19.154L24.696 19.1423C24.6978 19.1405 24.7002 19.1388 24.7019 19.137C26.0834 17.7367 26.0834 15.4584 24.6732 14.0299C24.4531 13.8157 24.3269 13.5117 24.3269 13.196C24.3269 12.4745 24.118 11.7867 23.7292 11.2024ZM8.77618 21.0761C6.56421 19.613 4.70084 17.7496 3.23128 15.5282C3.04935 15.2583 2.95662 14.922 2.95662 14.53C2.95662 13.9202 3.2172 13.2412 3.67203 12.6666C6.26666 9.37944 9.25743 6.38456 12.5669 3.76118L12.9789 3.43077C13.8199 2.76876 14.8029 2.4043 15.7231 2.4043C15.8358 2.4043 15.9473 2.40959 16.0577 2.42074L18.5701 2.6731C20.2921 2.84506 21.4688 4.02176 21.6407 5.74427L21.8931 8.25673C21.9418 8.73563 21.8837 9.24211 21.7282 9.74214C21.6822 9.72893 21.6326 9.72725 21.5856 9.71756C21.3075 9.6497 21.0239 9.60246 20.7334 9.60246C20.6917 9.60246 20.6536 9.58199 20.6124 9.57759C20.3427 9.52851 20.0843 9.44598 19.8713 9.22744C18.4709 7.84591 16.1927 7.84532 14.7642 9.2562C14.55 9.47628 14.246 9.60246 13.9302 9.60246C12.9665 9.60246 12.0627 9.97455 11.3849 10.6518C10.7088 11.3285 10.3367 12.2323 10.3367 13.196C10.3367 13.5117 10.2105 13.8157 9.96169 14.0581C8.58016 15.4584 8.58016 17.7367 9.99045 19.1652C10.2105 19.3794 10.3367 19.6834 10.3367 19.9991C10.3367 20.2274 10.3609 20.4511 10.4018 20.6704C10.4154 20.7432 10.4403 20.8121 10.4583 20.8837C10.4875 21 10.5098 21.1187 10.5503 21.231C9.88833 21.4429 9.22926 21.3818 8.77618 21.0761ZM22.9906 17.448C22.3121 18.1123 21.923 19.0413 21.923 19.9991C21.923 20.3213 21.8004 20.6218 21.5791 20.8437C21.3561 21.0661 21.0556 21.1888 20.7334 21.1888C19.7727 21.1888 18.8407 21.5802 18.1822 22.2563C17.7139 22.7188 16.9503 22.7188 16.4867 22.2622C15.8229 21.5802 14.8909 21.1888 13.9302 21.1888C13.608 21.1888 13.3075 21.0661 13.0857 20.8448C12.8633 20.6218 12.7406 20.3213 12.7406 19.9991C12.7406 19.039 12.3497 18.1076 11.673 17.448C11.21 16.979 11.21 16.2161 11.6678 15.7519C12.3497 15.0875 12.7406 14.1561 12.7406 13.196C12.7406 12.8738 12.8633 12.5733 13.0845 12.3514C13.3075 12.129 13.608 12.0063 13.9302 12.0063C14.8904 12.0063 15.8217 11.6155 16.4814 10.9388C16.7159 10.7066 17.0249 10.5911 17.3328 10.5909C17.4363 10.5909 17.5363 10.6225 17.6369 10.6485C17.6853 10.661 17.7364 10.6579 17.783 10.6764C17.9271 10.7336 18.0617 10.8193 18.1775 10.9335C18.8419 11.6155 19.7732 12.0063 20.7334 12.0063C21.0245 12.0063 21.2939 12.1055 21.5779 12.3503C21.8004 12.5733 21.923 12.8738 21.923 13.196C21.923 14.1561 22.3139 15.0875 22.9906 15.7472C23.4536 16.2161 23.4536 16.979 22.9906 17.448Z" fill="white"/>
<path d="M19.3843 14.5457C18.9148 14.0762 18.1542 14.0762 17.6847 14.5457L15.2808 16.9496C14.8113 17.4191 14.8113 18.1797 15.2808 18.6492C15.5156 18.884 15.8231 19.0014 16.1307 19.0014C16.4382 19.0014 16.7457 18.884 16.9805 18.6492L19.3843 16.2454C19.8539 15.7758 19.8539 15.0152 19.3843 14.5457Z" fill="white"/>
<path d="M15.3113 15.7789C15.9751 15.7789 16.5133 15.2408 16.5133 14.5769C16.5133 13.9131 15.9751 13.375 15.3113 13.375C14.6475 13.375 14.1094 13.9131 14.1094 14.5769C14.1094 15.2408 14.6475 15.7789 15.3113 15.7789Z" fill="white"/>
<path d="M19.3406 19.8824C20.0044 19.8824 20.5426 19.3443 20.5426 18.6805C20.5426 18.0166 20.0044 17.4785 19.3406 17.4785C18.6768 17.4785 18.1387 18.0166 18.1387 18.6805C18.1387 19.3443 18.6768 19.8824 19.3406 19.8824Z" fill="white"/>
<path d="M19.3849 6.62997C19.8543 6.16061 19.8543 5.39956 19.3849 4.9302C18.9155 4.46077 18.1544 4.46077 17.6851 4.9302C17.2156 5.39956 17.2156 6.16061 17.6851 6.62997C18.1544 7.09933 18.9155 7.09933 19.3849 6.62997Z" fill="white"/>
</svg>
