<svg width="14" height="17" viewBox="0 0 14 17" fill="none" xmlns="http://www.w3.org/2000/svg">
<path d="M7 0C5.14348 0 3.36301 0.716424 2.05025 1.99167C0.737498 3.26691 0 4.99651 0 6.79998C0 11.39 6.16875 16.5749 6.43125 16.7959C6.58974 16.9276 6.79144 17 7 17C7.20856 17 7.41026 16.9276 7.56875 16.7959C7.875 16.5749 14 11.39 14 6.79998C14 4.99651 13.2625 3.26691 11.9497 1.99167C10.637 0.716424 8.85652 0 7 0ZM7 15.0025C5.13625 13.3025 1.75 9.63897 1.75 6.79998C1.75 5.44738 2.30312 4.15018 3.28769 3.19375C4.27226 2.23731 5.60761 1.69999 7 1.69999C8.39239 1.69999 9.72775 2.23731 10.7123 3.19375C11.6969 4.15018 12.25 5.44738 12.25 6.79998C12.25 9.63897 8.86375 13.311 7 15.0025ZM7 3.39999C6.30777 3.39999 5.63108 3.59939 5.0555 3.97299C4.47993 4.34659 4.03133 4.87759 3.76642 5.49886C3.50151 6.12012 3.4322 6.80375 3.56725 7.46328C3.7023 8.12282 4.03564 8.72864 4.52513 9.20413C5.01461 9.67963 5.63825 10.0034 6.31718 10.1346C6.99612 10.2658 7.69985 10.1985 8.33939 9.94116C8.97893 9.68382 9.52556 9.24804 9.91014 8.68891C10.2947 8.12978 10.5 7.47243 10.5 6.79998C10.5 5.89824 10.1313 5.03344 9.47487 4.39582C8.8185 3.7582 7.92826 3.39999 7 3.39999ZM7 8.49997C6.65388 8.49997 6.31554 8.40027 6.02775 8.21347C5.73997 8.02667 5.51566 7.76117 5.38321 7.45054C5.25076 7.1399 5.2161 6.79809 5.28363 6.46833C5.35115 6.13856 5.51782 5.83565 5.76256 5.5979C6.00731 5.36015 6.31913 5.19824 6.65859 5.13265C6.99806 5.06705 7.34993 5.10072 7.6697 5.22939C7.98947 5.35806 8.26278 5.57595 8.45507 5.85551C8.64736 6.13507 8.75 6.46375 8.75 6.79998C8.75 7.25084 8.56563 7.68324 8.23744 8.00206C7.90925 8.32087 7.46413 8.49997 7 8.49997Z" fill="#313131"/>
</svg>
