<svg width="340" height="650" viewBox="0 0 340 650" fill="none" xmlns="http://www.w3.org/2000/svg">
<path d="M340 104.766C340 103.393 339.45 102.103 338.486 101.115L317.708 80.3904C316.744 79.4296 315.423 78.8806 314.047 78.8806H46.9526C45.5766 78.8806 44.2831 79.4296 43.2923 80.3904L22.5137 101.115C21.5504 102.103 21 103.393 21 104.766V569.73C21 571.102 21.5504 572.392 22.5137 573.381L43.2923 594.105C44.2555 595.066 45.5766 595.615 46.9526 595.615H314.047C315.423 595.615 316.717 595.066 317.708 594.105L338.486 573.381C339.45 572.42 340 571.102 340 569.73V104.766Z" fill="white"/>
<mask id="mask0_2119_125" style="mask-type:alpha" maskUnits="userSpaceOnUse" x="0" y="0" width="227" height="650">
<path d="M52.5277 218.138C51.7104 218.954 50.5662 219.443 49.4219 219.443H47.6782C47.6237 219.443 47.5693 219.443 47.5148 219.443H22.2863C21.0875 219.443 19.9977 219.933 19.1804 220.749L1.36244 238.369C0.545103 239.185 0.0546875 240.273 0.0546875 241.469V243.101C0.0546875 244.243 0.490614 245.385 1.36244 246.201L19.1804 263.822C19.9977 264.637 21.142 265.072 22.2863 265.072H47.5148C49.3674 265.072 50.8386 263.604 50.8386 261.809V259.308C50.8386 257.513 49.3674 256.044 47.5148 256.044H26.1005C24.9017 256.044 23.812 255.555 22.9946 254.739L11.334 243.21C10.7891 242.666 10.7891 241.85 11.334 241.306L22.9946 229.777C23.812 228.961 24.9562 228.471 26.1005 228.471H27.8442C27.8987 228.471 27.9531 228.471 28.0076 228.471H53.2361C54.4349 228.471 55.5247 227.982 56.342 227.166L74.16 209.545C74.9773 208.73 75.4677 207.642 75.4677 206.445V204.814C75.4677 203.672 74.9773 202.53 74.16 201.714L56.342 184.148C55.5247 183.332 54.3804 182.842 53.2361 182.842H28.0076C26.155 182.842 24.6838 184.311 24.6838 186.105V188.607C24.6838 190.402 26.155 191.87 28.0076 191.87H49.4219C50.6207 191.87 51.7104 192.36 52.5277 193.175L64.1884 204.705C64.7333 205.249 64.7333 206.065 64.1884 206.609L52.5277 218.138Z" fill="#F3F3F3"/>
<path d="M56.3963 129.273C55.5789 128.457 54.4347 128.022 53.2904 128.022H28.0619C26.2093 128.022 24.7381 129.491 24.7381 131.285V133.787C24.7381 135.582 26.2093 137.05 28.0619 137.05H49.4762C50.6749 137.05 51.7647 137.485 52.582 138.301L64.2427 149.831C64.7876 150.32 64.7876 151.19 64.2427 151.734L52.582 163.264C51.7647 164.079 50.6204 164.515 49.4762 164.515H47.6235C47.569 164.515 47.5145 164.515 47.46 164.515H22.2316C21.0328 164.515 19.943 164.95 19.1257 165.765L1.30772 183.386C0.490383 184.202 0 185.344 0 186.486V188.118C0 189.26 0.435893 190.402 1.30772 191.218L19.1257 208.838C19.943 209.654 21.0873 210.144 22.2316 210.144H47.46C49.3127 210.144 50.7839 208.675 50.7839 206.88V204.379C50.7839 202.584 49.3127 201.116 47.46 201.116H26.0458C24.8471 201.116 23.7573 200.681 22.9399 199.865L11.2793 188.335C10.7344 187.846 10.7344 186.976 11.2793 186.432L22.9399 174.902C23.7573 174.086 24.9015 173.597 26.0458 173.597H27.6805C27.7895 173.597 27.8984 173.597 28.0074 173.597H53.2359C54.4347 173.597 55.5244 173.162 56.3418 172.346L74.1597 154.725C74.9771 153.909 75.4675 152.822 75.4675 151.625V149.994C75.4675 148.852 74.9771 147.71 74.1597 146.894L56.3963 129.273Z" fill="#F3F3F3"/>
<path d="M52.5277 108.444C51.7104 109.259 50.5662 109.749 49.4219 109.749H47.6782C47.6237 109.749 47.5693 109.749 47.5148 109.749H22.2863C21.0875 109.749 19.9977 110.238 19.1804 111.054L1.36244 128.675C0.545103 129.491 0.0546875 130.578 0.0546875 131.775V133.406C0.0546875 134.548 0.490614 135.69 1.36244 136.506L19.1804 154.127C19.9977 154.943 21.142 155.378 22.2863 155.378H47.5148C49.3674 155.378 50.8386 153.909 50.8386 152.115V149.613C50.8386 147.818 49.3674 146.35 47.5148 146.35H26.1005C24.9017 146.35 23.812 145.86 22.9946 145.045L11.334 133.515C10.7891 132.971 10.7891 132.155 11.334 131.612L22.9946 120.082C23.812 119.266 24.9562 118.777 26.1005 118.777H27.8442C27.8987 118.777 27.9531 118.777 28.0076 118.777H53.2361C54.4349 118.777 55.5247 118.287 56.342 117.472L74.16 99.8508C74.9773 99.035 75.4677 97.9473 75.4677 96.7508V95.1193C75.4677 93.9772 74.9773 92.8351 74.16 92.0194L56.342 74.3986C55.5247 73.5829 54.3804 73.0934 53.2361 73.0934H28.0076C26.155 73.0934 24.6838 74.5618 24.6838 76.3565V78.8582C24.6838 80.6529 26.155 82.1213 28.0076 82.1213H49.4219C50.6207 82.1213 51.7104 82.6108 52.5277 83.4265L64.1884 94.9562C64.7333 95.5 64.7333 96.3158 64.1884 96.8596L52.5277 108.444Z" fill="#F3F3F3"/>
<path d="M0.0546875 297.921C0.0546875 299.063 0.545103 300.205 1.36244 301.021L19.1804 318.642C19.9977 319.457 21.142 319.892 22.2863 319.892H47.5148C49.3674 319.892 50.8386 318.424 50.8386 316.629V314.128C50.8386 312.333 49.3674 310.864 47.5148 310.864H26.1005C24.9017 310.864 23.812 310.375 22.9946 309.559L11.334 298.03C10.7891 297.486 10.7891 296.67 11.334 296.126L22.9946 284.597C23.812 283.781 24.9562 283.346 26.1005 283.346H27.8987C27.9532 283.346 28.0076 283.346 28.0621 283.346H53.2906C54.4894 283.346 55.5792 282.856 56.3965 282.04L74.2145 264.42C75.0318 263.604 75.5222 262.516 75.5222 261.32V259.634C75.5222 258.492 75.0318 257.35 74.2145 256.534L56.3965 238.913C55.5792 238.097 54.4349 237.608 53.2906 237.608H28.0621C26.2095 237.608 24.7383 239.076 24.7383 240.871V243.373C24.7383 245.167 26.2095 246.636 28.0621 246.636H49.4764C50.6751 246.636 51.7649 247.125 52.5823 247.941L64.2429 259.471C64.7878 260.015 64.7878 260.83 64.2429 261.374L52.5823 272.904C51.7649 273.72 50.6206 274.209 49.4764 274.209H47.6782C47.6237 274.209 47.5693 274.209 47.5148 274.209H22.2863C21.0875 274.209 19.9977 274.698 19.1804 275.514L1.36244 293.135C0.545103 293.951 0.0546875 295.038 0.0546875 296.235V297.921Z" fill="#F3F3F3"/>
<path d="M56.3965 293.842C55.5792 293.026 54.4349 292.537 53.2906 292.537H28.0621C26.2095 292.537 24.7383 294.005 24.7383 295.8V298.302C24.7383 300.096 26.2095 301.565 28.0621 301.565H49.4764C50.6751 301.565 51.7649 302 52.5823 302.87L64.2429 314.4C64.7878 314.943 64.7878 315.759 64.2429 316.303L52.5823 327.833C51.7649 328.648 50.6206 329.138 49.4764 329.138H47.8417C47.7327 329.138 47.6237 329.138 47.5148 329.138H22.2863C21.0875 329.138 19.9977 329.573 19.1804 330.443L1.36244 348.064C0.545103 348.88 0.0546875 350.022 0.0546875 351.164V352.795C0.0546875 353.937 0.545103 355.079 1.36244 355.895L19.1804 373.516C19.9977 374.332 21.142 374.821 22.2863 374.821H47.5148C49.3674 374.821 50.8386 373.353 50.8386 371.558V369.056C50.8386 367.262 49.3674 365.793 47.5148 365.793H26.1005C24.9017 365.793 23.812 365.358 22.9946 364.488L11.334 352.958C10.7891 352.415 10.7891 351.599 11.334 351.055L22.9946 339.525C23.812 338.71 24.9562 338.22 26.1005 338.22H27.7352C27.8442 338.22 27.9532 338.22 28.0621 338.22H53.2906C54.4894 338.22 55.5792 337.785 56.3965 336.915L74.2145 319.294C75.0318 318.478 75.5222 317.336 75.5222 316.194V314.563C75.5222 313.421 75.0318 312.278 74.2145 311.463L56.3965 293.842Z" fill="#F3F3F3"/>
<path d="M52.5277 602.096C51.7104 602.912 50.5662 603.401 49.4219 603.401H47.6782C47.6237 603.401 47.5693 603.401 47.5148 603.401H22.2863C21.0875 603.401 19.9977 603.891 19.1804 604.707L1.36244 622.327C0.545103 623.143 0.0546875 624.231 0.0546875 625.427V627.059C0.0546875 628.201 0.490614 629.343 1.36244 630.159L19.1804 647.779C19.9977 648.595 21.142 649.03 22.2863 649.03H47.5148C49.3674 649.03 50.8386 647.562 50.8386 645.767V643.265C50.8386 641.471 49.3674 640.002 47.5148 640.002H26.1005C24.9017 640.002 23.812 639.513 22.9946 638.697L11.334 627.168C10.7891 626.624 10.7891 625.808 11.334 625.264L22.9946 613.734C23.812 612.919 24.9562 612.429 26.1005 612.429H27.8442C27.8987 612.429 27.9531 612.429 28.0076 612.429H53.2361C54.4349 612.429 55.5247 611.94 56.342 611.124L74.16 593.503C74.9773 592.687 75.4677 591.6 75.4677 590.403V588.772C75.4677 587.63 74.9773 586.488 74.16 585.672L56.342 568.051C55.5247 567.235 54.3804 566.746 53.2361 566.746H28.0076C26.155 566.746 24.6838 568.214 24.6838 570.009V572.511C24.6838 574.305 26.155 575.774 28.0076 575.774H49.4219C50.6207 575.774 51.7104 576.263 52.5277 577.079L64.1884 588.609C64.7333 589.152 64.7333 589.968 64.1884 590.512L52.5277 602.096Z" fill="#F3F3F3"/>
<path d="M52.5277 382.707C51.7104 383.523 50.5662 384.012 49.4219 384.012H47.6782C47.6237 384.012 47.5693 384.012 47.5148 384.012H22.2863C21.0875 384.012 19.9977 384.502 19.1804 385.318L1.36244 402.938C0.545103 403.754 0.0546875 404.842 0.0546875 406.038V407.67C0.0546875 408.812 0.490614 409.954 1.36244 410.77L19.1804 428.39C19.9977 429.206 21.142 429.641 22.2863 429.641H47.5148C49.3674 429.641 50.8386 428.173 50.8386 426.378V423.876C50.8386 422.082 49.3674 420.613 47.5148 420.613H26.1005C24.9017 420.613 23.812 420.124 22.9946 419.308L11.334 407.779C10.7891 407.235 10.7891 406.419 11.334 405.875L22.9946 394.345C23.812 393.53 24.9562 393.04 26.1005 393.04H27.8442C27.8987 393.04 27.9531 393.04 28.0076 393.04H53.2361C54.4349 393.04 55.5247 392.551 56.342 391.735L74.16 374.114C74.9773 373.298 75.4677 372.211 75.4677 371.014V369.383C75.4677 368.241 74.9773 367.099 74.16 366.283L56.342 348.662C55.5247 347.846 54.3804 347.357 53.2361 347.357H28.0076C26.155 347.357 24.6838 348.825 24.6838 350.62V353.122C24.6838 354.916 26.155 356.385 28.0076 356.385H49.4219C50.6207 356.385 51.7104 356.874 52.5277 357.69L64.1884 369.22C64.7333 369.763 64.7333 370.579 64.1884 371.123L52.5277 382.707Z" fill="#F3F3F3"/>
<path d="M56.3963 513.231C55.5789 512.415 54.4347 511.98 53.2904 511.98H28.0619C26.2093 511.98 24.7381 513.448 24.7381 515.243V517.745C24.7381 519.54 26.2093 521.008 28.0619 521.008H49.4762C50.6749 521.008 51.7647 521.443 52.582 522.259L64.2427 533.788C64.7876 534.278 64.7876 535.148 64.2427 535.692L52.582 547.222C51.7647 548.037 50.6204 548.472 49.4762 548.472H47.6235C47.569 548.472 47.5145 548.472 47.46 548.472H22.2316C21.0328 548.472 19.943 548.907 19.1257 549.723L1.30772 567.344C0.490383 568.16 0 569.302 0 570.444V572.075C0 573.218 0.435893 574.36 1.30772 575.175L19.1257 592.796C19.943 593.612 21.0873 594.101 22.2316 594.101H47.46C49.3127 594.101 50.7839 592.633 50.7839 590.838V588.337C50.7839 586.542 49.3127 585.073 47.46 585.073H26.0458C24.8471 585.073 23.7573 584.638 22.9399 583.823L11.2793 572.293C10.7344 571.804 10.7344 570.933 11.2793 570.39L22.9399 558.86C23.7573 558.044 24.9015 557.555 26.0458 557.555H27.6805C27.7895 557.555 27.8984 557.555 28.0074 557.555H53.2359C54.4347 557.555 55.5244 557.12 56.3418 556.304L74.1597 538.683C74.9771 537.867 75.4675 536.78 75.4675 535.583V533.952C75.4675 532.809 74.9771 531.667 74.1597 530.852L56.3963 513.231Z" fill="#F3F3F3"/>
<path d="M52.5277 492.402C51.7104 493.217 50.5662 493.707 49.4219 493.707H47.6782C47.6237 493.707 47.5693 493.707 47.5148 493.707H22.2863C21.0875 493.707 19.9977 494.196 19.1804 495.012L1.36244 512.633C0.545103 513.448 0.0546875 514.536 0.0546875 515.733V517.364C0.0546875 518.506 0.490614 519.648 1.36244 520.464L19.1804 538.085C19.9977 538.901 21.142 539.336 22.2863 539.336H47.5148C49.3674 539.336 50.8386 537.867 50.8386 536.073V533.571C50.8386 531.776 49.3674 530.308 47.5148 530.308H26.1005C24.9017 530.308 23.812 529.818 22.9946 529.003L11.334 517.473C10.7891 516.929 10.7891 516.113 11.334 515.57L22.9946 504.04C23.812 503.224 24.9562 502.735 26.1005 502.735H27.8442C27.8987 502.735 27.9531 502.735 28.0076 502.735H53.2361C54.4349 502.735 55.5247 502.245 56.342 501.429L74.16 483.809C74.9773 482.993 75.4677 481.905 75.4677 480.709V479.077C75.4677 477.935 74.9773 476.793 74.16 475.977L56.342 458.357C55.5247 457.541 54.3804 457.051 53.2361 457.051H28.0076C26.155 457.051 24.6838 458.52 24.6838 460.314V462.816C24.6838 464.611 26.155 466.079 28.0076 466.079H49.4219C50.6207 466.079 51.7104 466.569 52.5277 467.384L64.1884 478.914C64.7333 479.458 64.7333 480.274 64.1884 480.818L52.5277 492.402Z" fill="#F3F3F3"/>
<path d="M56.3963 403.536C55.5789 402.721 54.4347 402.231 53.2904 402.231H28.0619C26.2093 402.231 24.7381 403.7 24.7381 405.494V407.996C24.7381 409.791 26.2093 411.259 28.0619 411.259H49.4762C50.6749 411.259 51.7647 411.749 52.582 412.564L64.2427 424.094C64.7876 424.638 64.7876 425.454 64.2427 425.997L52.582 437.527C51.7647 438.343 50.6204 438.832 49.4762 438.832H47.6235C47.569 438.832 47.5145 438.832 47.46 438.832H22.2316C21.0328 438.832 19.943 439.267 19.1257 440.083L1.30772 457.704C0.490383 458.52 0 459.607 0 460.804V462.435C0 463.577 0.435893 464.72 1.30772 465.535L19.1257 483.156C19.943 483.972 21.0873 484.461 22.2316 484.461H47.46C49.3127 484.461 50.7839 482.993 50.7839 481.198V478.696C50.7839 476.902 49.3127 475.433 47.46 475.433H26.0458C24.8471 475.433 23.7573 474.998 22.9399 474.183L11.2793 462.599C10.7344 462.109 10.7344 461.239 11.2793 460.695L22.9399 449.165C23.7573 448.35 24.9015 447.86 26.0458 447.86H27.6805C27.7895 447.86 27.8984 447.86 28.0074 447.86H53.2359C54.4347 447.86 55.5244 447.371 56.3418 446.555L74.1597 428.934C74.9771 428.118 75.4675 427.031 75.4675 425.834V424.203C75.4675 423.061 74.9771 421.919 74.1597 421.103L56.3963 403.536Z" fill="#F3F3F3"/>
<path d="M150.826 140.911C150.826 139.769 150.336 138.627 149.518 137.812L131.7 120.191C130.883 119.375 129.739 118.94 128.595 118.94H103.366C101.513 118.94 100.042 120.408 100.042 122.203V124.705C100.042 126.499 101.513 127.968 103.366 127.968H124.78C125.979 127.968 127.069 128.403 127.886 129.219L139.547 140.748C140.092 141.238 140.092 142.108 139.547 142.652L127.941 154.236C127.123 155.052 125.979 155.487 124.835 155.487H122.982C122.928 155.487 122.873 155.487 122.819 155.487H97.5902C96.3914 155.487 95.3016 155.922 94.4843 156.737L76.7208 174.358C75.9035 175.174 75.4131 176.316 75.4131 177.458V179.09C75.4131 180.232 75.849 181.374 76.7208 182.19L94.5388 199.81C95.3561 200.626 96.5004 201.116 97.6447 201.116H122.873C124.726 201.116 126.197 199.647 126.197 197.853V195.351C126.197 193.556 124.726 192.088 122.873 192.088H101.459C100.26 192.088 99.1704 191.653 98.353 190.837L86.6379 179.253C86.093 178.763 86.093 177.893 86.6379 177.349L98.2985 165.82C99.1159 165.004 100.26 164.515 101.404 164.515H103.039C103.148 164.515 103.257 164.515 103.366 164.515H128.595C129.793 164.515 130.883 164.079 131.7 163.264L149.518 145.643C150.336 144.827 150.826 143.739 150.826 142.543V140.911Z" fill="#F3F3F3"/>
<path d="M127.941 99.3613C127.123 100.177 125.979 100.667 124.835 100.667H123.091C123.037 100.667 122.982 100.667 122.928 100.667H97.6993C96.5006 100.667 95.4108 101.156 94.5935 101.972L76.7755 119.593C75.9582 120.408 75.4678 121.496 75.4678 122.692V124.324C75.4678 125.466 75.9037 126.608 76.7755 127.424L94.5935 145.045C95.4108 145.86 96.5551 146.296 97.6993 146.296H122.928C124.78 146.296 126.252 144.827 126.252 143.032V140.531C126.252 138.736 124.78 137.268 122.928 137.268H101.514C100.315 137.268 99.225 136.778 98.4077 135.962L86.747 124.433C86.2021 123.889 86.2021 123.073 86.747 122.529L98.4077 111C99.225 110.184 100.369 109.694 101.514 109.694H103.257C103.312 109.694 103.366 109.694 103.421 109.694H128.649C129.848 109.694 130.938 109.205 131.755 108.389L149.573 90.7685C150.39 89.9527 150.881 88.865 150.881 87.6686V86.037C150.881 84.8949 150.39 83.7528 149.573 82.9371L131.755 65.3163C130.938 64.5006 129.793 64.0111 128.649 64.0111H103.421C101.568 64.0111 100.097 65.4795 100.097 67.2742V69.7759C100.097 71.5706 101.568 73.039 103.421 73.039H124.835C126.034 73.039 127.123 73.5285 127.941 74.3443L139.602 85.8739C140.146 86.4177 140.146 87.2335 139.602 87.7773L127.941 99.3613Z" fill="#F3F3F3"/>
<path d="M131.755 10.5506C130.937 9.73483 129.793 9.24536 128.649 9.24536H103.42C101.568 9.24536 100.096 10.7138 100.096 12.5085V15.0102C100.096 16.8049 101.568 18.2733 103.42 18.2733H124.835C126.033 18.2733 127.123 18.7627 127.94 19.5785L139.601 31.1081C140.146 31.652 140.146 32.4678 139.601 33.0116L127.94 44.5412C127.123 45.357 125.979 45.8465 124.835 45.8465H122.982C122.927 45.8465 122.873 45.8465 122.818 45.8465H97.59C96.3912 45.8465 95.3014 46.2815 94.4841 47.0973L76.6662 64.718C75.8488 65.5338 75.3584 66.6215 75.3584 67.818V69.4495C75.3584 70.5916 75.7943 71.7337 76.6662 72.5495L94.4841 90.1702C95.3014 90.986 96.4457 91.4755 97.59 91.4755H122.818C124.671 91.4755 126.142 90.0071 126.142 88.2124V85.7106C126.142 83.9159 124.671 82.4475 122.818 82.4475H101.404C100.205 82.4475 99.1157 82.0125 98.2983 81.1967L86.6377 69.6671C86.0928 69.1776 86.0928 68.3074 86.6377 67.7636L98.2983 56.234C99.1157 55.4182 100.26 54.9287 101.404 54.9287H103.039C103.148 54.9287 103.257 54.9287 103.366 54.9287H128.594C129.793 54.9287 130.883 54.4393 131.7 53.6235L149.518 36.0028C150.335 35.187 150.826 34.0993 150.826 32.9028V31.2713C150.826 30.1292 150.335 28.9871 149.518 28.1713L131.755 10.5506Z" fill="#F3F3F3"/>
<path d="M75.4131 288.784C75.4131 289.926 75.9035 291.068 76.7208 291.884L94.5388 309.505C95.3561 310.321 96.5004 310.81 97.6447 310.81H122.873C124.726 310.81 126.197 309.342 126.197 307.547V305.045C126.197 303.251 124.726 301.782 122.873 301.782H101.459C100.26 301.782 99.1704 301.347 98.353 300.477L86.6923 288.947C86.1475 288.404 86.1475 287.588 86.6923 287.044L98.353 275.514C99.1704 274.698 100.315 274.209 101.459 274.209H103.148C103.257 274.209 103.312 274.209 103.421 274.209H128.649C129.848 274.209 130.938 273.774 131.755 272.904L149.573 255.283C150.39 254.467 150.881 253.325 150.881 252.183V250.552C150.881 249.409 150.39 248.267 149.573 247.452L131.755 229.831C130.938 229.015 129.793 228.526 128.649 228.526H103.421C101.568 228.526 100.097 229.994 100.097 231.789V234.29C100.097 236.085 101.568 237.554 103.421 237.554H124.835C126.034 237.554 127.123 237.989 127.941 238.859L139.601 250.388C140.146 250.932 140.146 251.748 139.601 252.292L127.941 263.821C127.123 264.637 125.979 265.127 124.835 265.127H123.146C123.037 265.127 122.982 265.127 122.873 265.127H97.6447C96.4459 265.127 95.3561 265.562 94.5388 266.432L76.7208 284.053C75.9035 284.868 75.4131 286.011 75.4131 287.153V288.784Z" fill="#F3F3F3"/>
<path d="M127.941 209.056C127.123 209.872 125.979 210.361 124.835 210.361H123.091C123.037 210.361 122.982 210.361 122.928 210.361H97.6993C96.5006 210.361 95.4108 210.85 94.5935 211.666L76.7755 229.287C75.9582 230.103 75.4678 231.19 75.4678 232.387V234.019C75.4678 235.161 75.9037 236.303 76.7755 237.118L94.5935 254.739C95.4108 255.555 96.5551 255.99 97.6993 255.99H122.928C124.78 255.99 126.252 254.522 126.252 252.727V250.225C126.252 248.431 124.78 246.962 122.928 246.962H101.514C100.315 246.962 99.225 246.473 98.4077 245.657L86.747 234.127C86.2021 233.583 86.2021 232.768 86.747 232.224L98.4077 220.694C99.225 219.878 100.369 219.389 101.514 219.389H103.257C103.312 219.389 103.366 219.389 103.421 219.389H128.649C129.848 219.389 130.938 218.9 131.755 218.084L149.573 200.463C150.39 199.647 150.881 198.56 150.881 197.363V195.731C150.881 194.589 150.39 193.447 149.573 192.632L131.755 175.011C130.938 174.195 129.793 173.706 128.649 173.706H103.421C101.568 173.706 100.097 175.174 100.097 176.969V179.47C100.097 181.265 101.568 182.733 103.421 182.733H124.835C126.034 182.733 127.123 183.223 127.941 184.039L139.602 195.568C140.146 196.112 140.146 196.928 139.602 197.472L127.941 209.056Z" fill="#F3F3F3"/>
<path d="M203.354 199.865C202.537 200.681 201.392 201.17 200.248 201.17H198.504C198.45 201.17 198.395 201.17 198.341 201.17H173.112C171.914 201.17 170.824 201.66 170.007 202.475L152.189 220.042C151.371 220.857 150.881 221.945 150.881 223.142V224.773C150.881 225.915 151.317 227.057 152.189 227.873L170.007 245.494C170.824 246.31 171.968 246.745 173.112 246.745H198.341C200.194 246.745 201.665 245.276 201.665 243.482V240.98C201.665 239.185 200.194 237.717 198.341 237.717H176.927C175.728 237.717 174.638 237.227 173.821 236.412L162.16 224.882C161.615 224.338 161.615 223.522 162.16 222.978L173.821 211.449C174.638 210.633 175.782 210.144 176.927 210.144H178.67C178.725 210.144 178.779 210.144 178.834 210.144H204.062C205.261 210.144 206.351 209.654 207.168 208.838L224.986 191.218C225.803 190.402 226.294 189.314 226.294 188.118V186.486C226.294 185.344 225.803 184.202 224.986 183.386L207.168 165.765C206.351 164.95 205.207 164.46 204.062 164.46H178.834C176.981 164.46 175.51 165.929 175.51 167.723V170.225C175.51 172.02 176.981 173.488 178.834 173.488H200.248C201.447 173.488 202.537 173.978 203.354 174.793L215.015 186.323C215.56 186.867 215.56 187.683 215.015 188.226L203.354 199.865Z" fill="#F3F3F3"/>
<path d="M207.222 111C206.405 110.184 205.261 109.749 204.117 109.749H178.888C177.035 109.749 175.564 111.217 175.564 113.012V115.514C175.564 117.308 177.035 118.777 178.888 118.777H200.302C201.501 118.777 202.591 119.212 203.408 120.028L215.069 131.557C215.614 132.047 215.614 132.917 215.069 133.461L203.408 145.045C202.591 145.861 201.447 146.296 200.302 146.296H198.45C198.395 146.296 198.341 146.296 198.286 146.296H173.058C171.859 146.296 170.769 146.731 169.952 147.546L152.134 165.167C151.317 165.983 150.826 167.125 150.826 168.267V169.899C150.826 171.041 151.262 172.183 152.134 172.999L169.952 190.619C170.769 191.435 171.913 191.925 173.058 191.925H198.286C200.139 191.925 201.61 190.456 201.61 188.661V186.16C201.61 184.365 200.139 182.897 198.286 182.897H176.872C175.673 182.897 174.583 182.462 173.766 181.646L162.105 170.116C161.561 169.627 161.561 168.757 162.105 168.213L173.766 156.683C174.583 155.867 175.728 155.378 176.872 155.378H178.507C178.616 155.378 178.725 155.378 178.834 155.378H204.062C205.261 155.378 206.351 154.943 207.168 154.127L224.986 136.506C225.803 135.691 226.294 134.603 226.294 133.406V131.775C226.294 130.633 225.803 129.491 224.986 128.675L207.222 111Z" fill="#F3F3F3"/>
<path d="M203.354 90.1704C202.537 90.9861 201.392 91.4756 200.248 91.4756H198.504C198.45 91.4756 198.395 91.4756 198.341 91.4756H173.112C171.914 91.4756 170.824 91.9651 170.007 92.7808L152.189 110.347C151.371 111.163 150.881 112.251 150.881 113.447V115.079C150.881 116.221 151.317 117.363 152.189 118.179L170.007 135.799C170.824 136.615 171.968 137.05 173.112 137.05H198.341C200.194 137.05 201.665 135.582 201.665 133.787V131.285C201.665 129.491 200.194 128.022 198.341 128.022H176.927C175.728 128.022 174.638 127.533 173.821 126.717L162.16 115.187C161.615 114.644 161.615 113.828 162.16 113.284L173.821 101.754C174.638 100.939 175.782 100.449 176.927 100.449H178.67C178.725 100.449 178.779 100.449 178.834 100.449H204.062C205.261 100.449 206.351 99.9597 207.168 99.1439L224.986 81.5231C225.803 80.7074 226.294 79.6197 226.294 78.4232V76.7917C226.294 75.6496 225.803 74.5075 224.986 73.6917L207.168 56.071C206.351 55.2552 205.207 54.7657 204.062 54.7657H178.834C176.981 54.7657 175.51 56.2341 175.51 58.0288V60.5305C175.51 62.3253 176.981 63.7936 178.834 63.7936H200.248C201.447 63.7936 202.537 64.2831 203.354 65.0989L215.015 76.6285C215.56 77.1723 215.56 77.9881 215.015 78.532L203.354 90.1704Z" fill="#F3F3F3"/>
<path d="M207.222 1.30524C206.405 0.48947 205.261 0 204.117 0H178.888C177.035 0 175.564 1.46839 175.564 3.2631V5.76481C175.564 7.55951 177.035 9.02791 178.888 9.02791H200.302C201.501 9.02791 202.591 9.51737 203.408 10.3331L215.069 21.8628C215.614 22.4066 215.614 23.2224 215.069 23.7662L203.408 35.3502C202.591 36.166 201.447 36.6555 200.302 36.6555H198.45C198.395 36.6555 198.341 36.6555 198.286 36.6555H173.058C171.859 36.6555 170.769 37.0906 169.952 37.9063L152.134 55.5271C151.317 56.3428 150.826 57.4305 150.826 58.627V60.2586C150.826 61.4006 151.262 62.5427 152.134 63.3585L169.952 80.9792C170.769 81.795 171.913 82.2845 173.058 82.2845H198.286C200.139 82.2845 201.61 80.8161 201.61 79.0214V76.4653C201.61 74.6706 200.139 73.2022 198.286 73.2022H176.872C175.673 73.2022 174.583 72.7671 173.766 71.9513L162.105 60.4217C161.561 59.9322 161.561 59.0621 162.105 58.5182L173.766 46.9886C174.583 46.1729 175.728 45.6834 176.872 45.6834H178.507C178.616 45.6834 178.725 45.6834 178.834 45.6834H204.062C205.261 45.6834 206.351 45.1939 207.168 44.3781L224.986 26.7574C225.803 25.9416 226.294 24.8539 226.294 23.6575V22.0259C226.294 20.8838 225.803 19.7417 224.986 18.926L207.222 1.30524Z" fill="#F3F3F3"/>
<path d="M150.881 279.593C150.881 280.735 151.371 281.877 152.189 282.693L170.007 300.314C170.824 301.13 171.968 301.565 173.112 301.565H198.341C200.194 301.565 201.665 300.096 201.665 298.302V295.8C201.665 294.005 200.194 292.537 198.341 292.537H176.927C175.728 292.537 174.638 292.047 173.821 291.232L162.16 279.702C161.615 279.158 161.615 278.342 162.16 277.799L173.821 266.269C174.638 265.453 175.782 265.018 176.927 265.018H178.725C178.779 265.018 178.834 265.018 178.888 265.018H204.117C205.316 265.018 206.405 264.529 207.223 263.713L225.041 246.092C225.858 245.276 226.348 244.189 226.348 242.992V241.306C226.348 240.164 225.858 239.022 225.041 238.206L207.223 220.586C206.405 219.77 205.261 219.28 204.117 219.28H178.888C177.036 219.28 175.564 220.749 175.564 222.543V225.045C175.564 226.84 177.036 228.308 178.888 228.308H200.303C201.501 228.308 202.591 228.798 203.408 229.613L215.069 241.143C215.614 241.687 215.614 242.503 215.069 243.047L203.408 254.685C202.591 255.501 201.447 255.99 200.303 255.99H198.504C198.45 255.99 198.395 255.99 198.341 255.99H173.112C171.914 255.99 170.824 256.48 170.007 257.295L152.189 274.862C151.371 275.678 150.881 276.765 150.881 277.962V279.593Z" fill="#F3F3F3"/>
<path d="M207.223 275.569C206.405 274.753 205.261 274.263 204.117 274.263H178.888C177.036 274.263 175.564 275.732 175.564 277.527V280.028C175.564 281.823 177.036 283.291 178.888 283.291H200.303C201.501 283.291 202.591 283.726 203.408 284.597L215.069 296.126C215.614 296.67 215.614 297.486 215.069 298.03L203.408 309.559C202.591 310.375 201.447 310.865 200.303 310.865H198.668C198.559 310.865 198.45 310.865 198.341 310.865H173.112C171.914 310.865 170.824 311.3 170.007 312.17L152.189 329.736C151.371 330.552 150.881 331.694 150.881 332.836V334.468C150.881 335.61 151.371 336.752 152.189 337.568L170.007 355.188C170.824 356.004 171.968 356.494 173.112 356.494H198.341C200.194 356.494 201.665 355.025 201.665 353.23V350.729C201.665 348.934 200.194 347.466 198.341 347.466H176.927C175.728 347.466 174.638 347.031 173.821 346.16L162.16 334.631C161.615 334.087 161.615 333.271 162.16 332.727L173.821 321.198C174.638 320.382 175.782 319.892 176.927 319.892H178.561C178.67 319.892 178.779 319.892 178.888 319.892H204.117C205.316 319.892 206.405 319.457 207.223 318.587L225.041 300.966C225.858 300.151 226.348 299.009 226.348 297.866V296.235C226.348 295.093 225.858 293.951 225.041 293.135L207.223 275.569Z" fill="#F3F3F3"/>
<path d="M150.826 305.426C150.826 304.284 150.336 303.142 149.519 302.326L131.755 284.76C130.938 283.944 129.793 283.454 128.649 283.454H103.421C101.568 283.454 100.097 284.923 100.097 286.718V289.219C100.097 291.014 101.568 292.482 103.421 292.482H124.835C126.034 292.482 127.123 292.917 127.941 293.788L139.602 305.317C140.146 305.861 140.146 306.677 139.602 307.221L127.941 318.75C127.123 319.566 125.979 320.056 124.835 320.056H103.421C103.366 320.056 103.257 320.056 103.203 320.056H97.6993C96.5006 320.056 95.4108 320.491 94.5935 321.361L76.7755 338.982C75.9582 339.797 75.4678 340.939 75.4678 342.082V343.713C75.4678 344.855 75.9582 345.997 76.7755 346.813L94.5935 364.434C95.4108 365.249 96.5551 365.739 97.6993 365.739H122.928C124.78 365.739 126.252 364.271 126.252 362.476V359.974C126.252 358.179 124.78 356.711 122.928 356.711H101.514C100.315 356.711 99.225 356.276 98.4077 355.406L86.747 343.876C86.2021 343.332 86.2021 342.517 86.747 341.973L98.4077 330.443C99.225 329.627 100.369 329.138 101.514 329.138H122.928C122.982 329.138 123.091 329.138 123.146 329.138H128.649C129.848 329.138 130.938 328.703 131.755 327.833L149.573 310.212C150.39 309.396 150.881 308.254 150.881 307.112V305.426H150.826Z" fill="#F3F3F3"/>
<path d="M127.941 373.625C127.123 374.441 125.979 374.93 124.835 374.93H123.091C123.037 374.93 122.982 374.93 122.928 374.93H97.6993C96.5006 374.93 95.4108 375.42 94.5935 376.235L76.7755 393.856C75.9582 394.672 75.4678 395.76 75.4678 396.956V398.588C75.4678 399.73 75.9037 400.872 76.7755 401.687L94.5935 419.308C95.4108 420.124 96.5551 420.559 97.6993 420.559H122.928C124.78 420.559 126.252 419.091 126.252 417.296V414.74C126.252 412.945 124.78 411.477 122.928 411.477H101.514C100.315 411.477 99.225 410.987 98.4077 410.172L86.747 398.642C86.2021 398.098 86.2021 397.282 86.747 396.738L98.4077 385.209C99.225 384.393 100.369 383.904 101.514 383.904H103.257C103.312 383.904 103.366 383.904 103.421 383.904H128.649C129.848 383.904 130.938 383.414 131.755 382.598L149.573 364.978C150.39 364.162 150.881 363.074 150.881 361.878V360.246C150.881 359.104 150.39 357.962 149.573 357.146L131.755 339.525C130.938 338.71 129.793 338.22 128.649 338.22H103.421C101.568 338.22 100.097 339.689 100.097 341.483V343.985C100.097 345.78 101.568 347.248 103.421 347.248H124.835C126.034 347.248 127.123 347.738 127.941 348.553L139.602 360.083C140.146 360.627 140.146 361.443 139.602 361.986L127.941 373.625Z" fill="#F3F3F3"/>
<path d="M150.826 524.869C150.826 523.727 150.335 522.585 149.518 521.769L131.7 504.149C130.883 503.333 129.738 502.898 128.594 502.898H103.366C101.513 502.898 100.042 504.366 100.042 506.161V508.663C100.042 510.457 101.513 511.926 103.366 511.926H124.78C125.979 511.926 127.068 512.361 127.886 513.177L139.546 524.706C140.091 525.196 140.091 526.066 139.546 526.61L127.886 538.139C127.068 538.955 125.924 539.39 124.78 539.39H122.927C122.873 539.39 122.818 539.39 122.764 539.39H97.5353C96.3365 539.39 95.2467 539.825 94.4294 540.641L76.6114 558.262C75.7941 559.078 75.3037 560.22 75.3037 561.362V562.993C75.3037 564.135 75.7396 565.277 76.6114 566.093L94.4294 583.714C95.2467 584.53 96.391 585.019 97.5353 585.019H122.764C124.616 585.019 126.088 583.551 126.088 581.756V579.254C126.088 577.46 124.616 575.991 122.764 575.991H101.35C100.151 575.991 99.061 575.556 98.2436 574.74L86.5829 563.211C86.038 562.721 86.038 561.851 86.5829 561.307L98.2436 549.778C99.061 548.962 100.205 548.472 101.35 548.472H102.984C103.093 548.472 103.202 548.472 103.311 548.472H128.54C129.738 548.472 130.828 548.037 131.645 547.222L149.463 529.601C150.281 528.785 150.771 527.697 150.771 526.501V524.869H150.826Z" fill="#F3F3F3"/>
<path d="M127.941 483.319C127.123 484.135 125.979 484.624 124.835 484.624H123.091C123.037 484.624 122.982 484.624 122.928 484.624H97.6993C96.5006 484.624 95.4108 485.114 94.5935 485.93L76.7755 503.55C75.9582 504.366 75.4678 505.454 75.4678 506.65V508.282C75.4678 509.424 75.9037 510.566 76.7755 511.382L94.5935 529.003C95.4108 529.818 96.5551 530.253 97.6993 530.253H122.928C124.78 530.253 126.252 528.785 126.252 526.99V524.489C126.252 522.694 124.78 521.226 122.928 521.226H101.514C100.315 521.226 99.225 520.736 98.4077 519.92L86.747 508.391C86.2021 507.847 86.2021 507.031 86.747 506.487L98.4077 494.958C99.225 494.142 100.369 493.652 101.514 493.652H103.257C103.312 493.652 103.366 493.652 103.421 493.652H128.649C129.848 493.652 130.938 493.163 131.755 492.347L149.573 474.726C150.39 473.911 150.881 472.823 150.881 471.626V469.995C150.881 468.853 150.39 467.711 149.573 466.895L131.755 449.274C130.938 448.458 129.793 447.969 128.649 447.969H103.421C101.568 447.969 100.097 449.437 100.097 451.232V453.734C100.097 455.529 101.568 456.997 103.421 456.997H124.835C126.034 456.997 127.123 457.486 127.941 458.302L139.602 469.832C140.146 470.376 140.146 471.191 139.602 471.735L127.941 483.319Z" fill="#F3F3F3"/>
<path d="M150.826 415.175C150.826 414.033 150.335 412.891 149.518 412.075L131.7 394.454C130.883 393.638 129.738 393.149 128.594 393.149H103.366C101.513 393.149 100.042 394.617 100.042 396.412V398.914C100.042 400.708 101.513 402.177 103.366 402.177H124.78C125.979 402.177 127.068 402.666 127.886 403.482L139.546 415.012C140.091 415.556 140.091 416.371 139.546 416.915L127.886 428.445C127.068 429.261 125.924 429.75 124.78 429.75H122.927C122.873 429.75 122.818 429.75 122.764 429.75H97.5353C96.3365 429.75 95.2467 430.185 94.4294 431.001L76.6114 448.622C75.7941 449.437 75.3037 450.525 75.3037 451.722V453.353C75.3037 454.495 75.7396 455.637 76.6114 456.453L94.4294 474.074C95.2467 474.89 96.391 475.379 97.5353 475.379H122.764C124.616 475.379 126.088 473.911 126.088 472.116V469.614C126.088 467.82 124.616 466.351 122.764 466.351H101.35C100.151 466.351 99.061 465.916 98.2436 465.1L86.5829 453.571C86.038 453.081 86.038 452.211 86.5829 451.667L98.2436 440.138C99.061 439.322 100.205 438.832 101.35 438.832H102.984C103.093 438.832 103.202 438.832 103.311 438.832H128.54C129.738 438.832 130.828 438.343 131.645 437.527L149.463 419.906C150.281 419.091 150.771 418.003 150.771 416.806V415.175H150.826Z" fill="#F3F3F3"/>
<path d="M98.2983 604.598C99.1157 603.782 100.26 603.293 101.404 603.293H103.148C103.202 603.293 103.257 603.293 103.311 603.293H128.54C129.739 603.293 130.828 602.803 131.646 601.987L149.464 584.367C150.281 583.551 150.771 582.463 150.771 581.267V579.635C150.771 578.493 150.281 577.351 149.464 576.535L131.646 558.914C130.828 558.099 129.684 557.609 128.54 557.609H103.311C101.459 557.609 99.9875 559.078 99.9875 560.872V563.374C99.9875 565.169 101.459 566.637 103.311 566.637H124.726C125.924 566.637 127.014 567.127 127.831 567.942L139.492 579.472C140.037 580.016 140.037 580.832 139.492 581.375L127.831 592.905C127.014 593.721 125.87 594.21 124.726 594.21H122.982C122.927 594.21 122.873 594.21 122.818 594.21H97.59C96.3912 594.21 95.3014 594.7 94.4841 595.515L76.6662 613.136C75.8488 613.952 75.3584 615.04 75.3584 616.236V617.868C75.3584 619.01 75.7943 620.152 76.6662 620.968L94.4841 638.588C95.3014 639.404 96.4457 639.839 97.59 639.839H122.818C124.671 639.839 126.142 638.371 126.142 636.576V634.074C126.142 632.28 124.671 630.811 122.818 630.811H101.404C100.205 630.811 99.1157 630.322 98.2983 629.506L86.6377 617.976C86.0928 617.433 86.0928 616.617 86.6377 616.073L98.2983 604.598Z" fill="#F3F3F3"/>
<path d="M203.354 583.823C202.537 584.638 201.392 585.128 200.248 585.128H198.504C198.45 585.128 198.395 585.128 198.341 585.128H173.112C171.914 585.128 170.824 585.617 170.007 586.433L152.189 604.054C151.371 604.87 150.881 605.957 150.881 607.154V608.785C150.881 609.927 151.317 611.07 152.189 611.885L170.007 629.506C170.824 630.322 171.968 630.757 173.112 630.757H198.341C200.194 630.757 201.665 629.288 201.665 627.494V624.992C201.665 623.197 200.194 621.729 198.341 621.729H176.927C175.728 621.729 174.638 621.239 173.821 620.424L162.16 608.894C161.615 608.35 161.615 607.534 162.16 606.991L173.821 595.461C174.638 594.645 175.782 594.156 176.927 594.156H178.67C178.725 594.156 178.779 594.156 178.834 594.156H204.062C205.261 594.156 206.351 593.666 207.168 592.851L224.986 575.23C225.803 574.414 226.294 573.326 226.294 572.13V570.498C226.294 569.356 225.803 568.214 224.986 567.398L207.168 549.778C206.351 548.962 205.207 548.472 204.062 548.472H178.834C176.981 548.472 175.51 549.941 175.51 551.736V554.237C175.51 556.032 176.981 557.5 178.834 557.5H200.248C201.447 557.5 202.537 557.99 203.354 558.806L215.015 570.335C215.56 570.879 215.56 571.695 215.015 572.239L203.354 583.823Z" fill="#F3F3F3"/>
<path d="M203.354 364.434C202.537 365.249 201.392 365.739 200.248 365.739H198.504C198.45 365.739 198.395 365.739 198.341 365.739H173.112C171.914 365.739 170.824 366.228 170.007 367.044L152.189 384.61C151.371 385.426 150.881 386.514 150.881 387.71V389.342C150.881 390.484 151.317 391.626 152.189 392.442L170.007 410.063C170.824 410.878 171.968 411.314 173.112 411.314H198.341C200.194 411.314 201.665 409.845 201.665 408.05V405.549C201.665 403.754 200.194 402.286 198.341 402.286H176.927C175.728 402.286 174.638 401.796 173.821 400.98L162.16 389.451C161.615 388.907 161.615 388.091 162.16 387.547L173.821 376.018C174.638 375.202 175.782 374.712 176.927 374.712H178.67C178.725 374.712 178.779 374.712 178.834 374.712H204.062C205.261 374.712 206.351 374.223 207.168 373.407L224.986 355.786C225.803 354.971 226.294 353.883 226.294 352.687V351.055C226.294 349.913 225.803 348.771 224.986 347.955L207.168 330.443C206.351 329.627 205.207 329.138 204.062 329.138H178.834C176.981 329.138 175.51 330.606 175.51 332.401V334.903C175.51 336.697 176.981 338.166 178.834 338.166H200.248C201.447 338.166 202.537 338.655 203.354 339.471L215.015 351.001C215.56 351.544 215.56 352.36 215.015 352.904L203.354 364.434Z" fill="#F3F3F3"/>
<path d="M207.222 494.958C206.405 494.142 205.261 493.707 204.117 493.707H178.888C177.035 493.707 175.564 495.175 175.564 496.97V499.472C175.564 501.266 177.035 502.735 178.888 502.735H200.302C201.501 502.735 202.591 503.17 203.408 503.986L215.069 515.515C215.614 516.005 215.614 516.875 215.069 517.419L203.408 528.948C202.591 529.764 201.447 530.199 200.302 530.199H198.45C198.395 530.199 198.341 530.199 198.286 530.199H173.058C171.859 530.199 170.769 530.634 169.952 531.45L152.134 549.071C151.317 549.886 150.826 551.029 150.826 552.171V553.802C150.826 554.944 151.262 556.086 152.134 556.902L169.952 574.523C170.769 575.339 171.913 575.828 173.058 575.828H198.286C200.139 575.828 201.61 574.36 201.61 572.565V570.063C201.61 568.269 200.139 566.8 198.286 566.8H176.872C175.673 566.8 174.583 566.365 173.766 565.549L162.105 554.02C161.561 553.53 161.561 552.66 162.105 552.116L173.766 540.587C174.583 539.771 175.728 539.281 176.872 539.281H178.507C178.616 539.281 178.725 539.281 178.834 539.281H204.062C205.261 539.281 206.351 538.846 207.168 538.031L224.986 520.41C225.803 519.594 226.294 518.506 226.294 517.31V515.678C226.294 514.536 225.803 513.394 224.986 512.578L207.222 494.958Z" fill="#F3F3F3"/>
<path d="M203.354 474.128C202.537 474.944 201.392 475.433 200.248 475.433H198.504C198.45 475.433 198.395 475.433 198.341 475.433H173.112C171.914 475.433 170.824 475.923 170.007 476.739L152.189 494.359C151.371 495.175 150.881 496.263 150.881 497.459V499.091C150.881 500.233 151.317 501.375 152.189 502.191L170.007 519.812C170.824 520.627 171.968 521.062 173.112 521.062H198.341C200.194 521.062 201.665 519.594 201.665 517.799V515.298C201.665 513.503 200.194 512.035 198.341 512.035H176.927C175.728 512.035 174.638 511.545 173.821 510.729L162.16 499.2C161.615 498.656 161.615 497.84 162.16 497.296L173.821 485.767C174.638 484.951 175.782 484.461 176.927 484.461H178.67C178.725 484.461 178.779 484.461 178.834 484.461H204.062C205.261 484.461 206.351 483.972 207.168 483.156L224.986 465.535C225.803 464.72 226.294 463.632 226.294 462.435V460.804C226.294 459.662 225.803 458.52 224.986 457.704L207.168 440.083C206.351 439.267 205.207 438.778 204.062 438.778H178.834C176.981 438.778 175.51 440.246 175.51 442.041V444.543C175.51 446.337 176.981 447.806 178.834 447.806H200.248C201.447 447.806 202.537 448.295 203.354 449.111L215.015 460.641C215.56 461.185 215.56 462 215.015 462.544L203.354 474.128Z" fill="#F3F3F3"/>
<path d="M207.222 385.263C206.405 384.447 205.261 383.958 204.117 383.958H178.888C177.035 383.958 175.564 385.426 175.564 387.221V389.723C175.564 391.517 177.035 392.986 178.888 392.986H200.302C201.501 392.986 202.591 393.475 203.408 394.291L215.069 405.821C215.614 406.364 215.614 407.18 215.069 407.724L203.408 419.254C202.591 420.069 201.447 420.559 200.302 420.559H198.45C198.395 420.559 198.341 420.559 198.286 420.559H173.058C171.859 420.559 170.769 420.994 169.952 421.81L152.134 439.431C151.317 440.246 150.826 441.334 150.826 442.53V444.162C150.826 445.304 151.262 446.446 152.134 447.262L169.952 464.883C170.769 465.699 171.913 466.188 173.058 466.188H198.286C200.139 466.188 201.61 464.72 201.61 462.925V460.423C201.61 458.628 200.139 457.16 198.286 457.16H176.872C175.673 457.16 174.583 456.725 173.766 455.909L162.105 444.38C161.561 443.89 161.561 443.02 162.105 442.476L173.766 430.946C174.583 430.131 175.728 429.641 176.872 429.641H178.507C178.616 429.641 178.725 429.641 178.834 429.641H204.062C205.261 429.641 206.351 429.152 207.168 428.336L224.986 410.715C225.803 409.899 226.294 408.812 226.294 407.615V405.984C226.294 404.842 225.803 403.7 224.986 402.884L207.222 385.263Z" fill="#F3F3F3"/>
</mask>
<g mask="url(#mask0_2119_125)">
<path d="M340 104.766C340 103.393 339.45 102.103 338.486 101.115L317.708 80.3904C316.744 79.4296 315.423 78.8806 314.047 78.8806H46.9526C45.5766 78.8806 44.2831 79.4296 43.2923 80.3904L22.5137 101.115C21.5504 102.103 21 103.393 21 104.766V569.505C21 570.878 21.5504 572.168 22.5137 573.156L43.2923 593.881C44.2555 594.841 45.5766 595.39 46.9526 595.39H314.047C315.423 595.39 316.717 594.841 317.708 593.881L338.486 573.156C339.45 572.195 340 570.878 340 569.505V104.766Z" fill="#F7F7F7"/>
</g>
</svg>
