<svg width="313" height="113" viewBox="0 0 313 113" fill="none" xmlns="http://www.w3.org/2000/svg">
<path d="M312.567 52.6838C312.567 55.4506 310.338 57.6793 307.572 57.6793C304.459 57.6793 301.539 58.5247 299.041 59.985C299.617 60.7151 300.117 61.4836 300.578 62.2906C302.307 65.3264 303.191 68.7464 303.191 72.5123V74.0109C303.191 76.2781 303.422 89.574 303.422 92.7634C303.422 98.6044 301.346 103.638 297.465 107.327C293.661 110.901 288.742 112.707 282.901 112.707C279.135 112.707 275.715 111.939 272.718 110.402C271.066 109.556 269.567 108.519 268.261 107.289C264.379 110.901 259.422 112.746 253.505 112.746C247.395 112.746 242.361 110.824 238.479 107.058C238.403 106.981 238.326 106.905 238.249 106.828C234.368 110.402 229.372 112.246 223.416 112.246H38.4657C36.1985 112.246 34.085 111.362 32.5094 109.787C32.3557 109.633 32.202 109.441 32.0483 109.287C28.7436 111.247 24.8624 112.246 20.4433 112.246H8.53085C6.26364 112.246 4.15014 111.362 2.57463 109.787C0.960681 108.211 0.115282 106.059 0.115282 103.83L0.115282 61.5605C0.115282 59.6776 0.730118 57.9099 1.84451 56.4497C0.653263 54.951 0 53.1065 0 51.1851L0 8.91518C0 6.64797 0.883827 4.53448 2.45934 2.95896C4.03486 1.38344 6.14836 0.499615 8.41557 0.499615H21.942C25.6694 0.499615 29.051 1.38344 32.0483 3.15109C32.1252 3.07424 32.1636 3.03581 32.2405 2.95896C33.8544 1.38344 35.9679 0.499615 38.1967 0.499615C38.1967 0.499615 254.427 6.10352e-05 258.154 6.10352e-05C261.959 6.10352e-05 265.417 0.807033 268.453 2.42098C271.45 3.99649 273.833 6.18685 275.6 8.99204C275.677 8.99204 275.754 8.99204 275.831 8.99204C278.598 8.99204 280.826 11.2208 280.826 13.9876C280.826 18.4451 282.287 22.5568 284.746 25.9C286.321 28.0519 288.32 29.858 290.625 31.2414C293.661 33.0475 297.196 34.1234 300.962 34.1234C303.729 34.1234 305.958 36.3522 305.958 39.119C305.958 41.8857 303.729 44.1145 300.962 44.1145C299.771 44.1145 298.58 44.2298 297.427 44.422C300.27 46.5354 303.767 47.8035 307.61 47.8035C310.338 47.6883 312.567 49.917 312.567 52.6838Z" fill="white"/>
<path d="M28.3207 9.79899C30.1652 10.9518 31.6254 12.5658 32.663 14.6408C33.7005 16.7159 34.2385 19.0984 34.2385 21.7883C34.2385 24.4013 33.7389 26.707 32.7782 28.7052C31.7791 30.7034 30.3958 32.2021 28.6281 33.3165C26.822 34.3924 24.7854 34.9304 22.4413 34.9304H18.3296C18.1375 34.9304 18.0222 35.0457 18.0222 35.2378V51.1083C18.0222 51.3004 17.9453 51.4925 17.7916 51.6463C17.6379 51.8 17.4842 51.8768 17.2536 51.8768H8.37694C8.18481 51.8768 7.99267 51.8 7.83896 51.6463C7.68525 51.4925 7.6084 51.3388 7.6084 51.1083V8.83831C7.6084 8.64617 7.68525 8.45404 7.83896 8.30033C7.99267 8.14662 8.14638 8.06976 8.37694 8.06976H21.9033C24.3242 8.06976 26.4762 8.64617 28.3207 9.79899ZM22.8256 25.631C23.5173 24.7856 23.8631 23.5944 23.8631 22.0189C23.8631 20.4049 23.5173 19.1368 22.8256 18.253C22.1339 17.3692 21.2501 16.9465 20.0973 16.9465H18.3296C18.1375 16.9465 18.0222 17.0617 18.0222 17.2539V26.5533C18.0222 26.7454 18.1375 26.8607 18.3296 26.8607H20.0973C21.2116 26.8991 22.1339 26.4764 22.8256 25.631Z" fill="#313131"/>
<path d="M53.6059 51.2235L49.3405 34.6614C49.3021 34.5077 49.1868 34.3924 49.0331 34.3924H48.1108C47.9187 34.3924 47.8034 34.5077 47.8034 34.6998V51.0698C47.8034 51.262 47.7266 51.4541 47.5729 51.6078C47.4192 51.7615 47.2654 51.8384 47.0349 51.8384H38.1582C37.9661 51.8384 37.7739 51.7615 37.6202 51.6078C37.4665 51.4541 37.3896 51.3004 37.3896 51.0698V8.79986C37.3896 8.60772 37.4665 8.41558 37.6202 8.26187C37.7739 8.10816 37.9276 8.03131 38.1582 8.03131H51.6077C54.0286 8.03131 56.1806 8.60772 58.0635 9.76054C59.9464 10.9134 61.4067 12.5273 62.4058 14.5639C63.4433 16.639 63.9429 18.9831 63.9429 21.5961C63.9429 23.9402 63.5202 26.0153 62.6748 27.8982C61.8294 29.7427 60.6381 31.2414 59.0626 32.3558C58.9858 32.3942 58.9089 32.4326 58.8705 32.5095C58.832 32.5863 58.832 32.6632 58.8705 32.74L64.2503 50.9545L64.3271 51.2235C64.3271 51.6462 64.0966 51.8384 63.6355 51.8384H54.4898C54.0286 51.8384 53.7212 51.6462 53.6059 51.2235ZM47.8034 17.2538V26.1305C47.8034 26.3227 47.9187 26.438 48.1108 26.438H49.8785C50.9929 26.438 51.9151 26.0153 52.5684 25.1699C53.2217 24.3245 53.5675 23.1716 53.5675 21.7114C53.5675 20.1743 53.2217 18.9831 52.5684 18.1377C51.9151 17.2923 50.9929 16.8696 49.8785 16.8696H48.1108C47.8803 16.9464 47.8034 17.0617 47.8034 17.2538Z" fill="#313131"/>
<path d="M70.5907 48.8411C68.2082 46.497 66.9785 43.346 66.9785 39.388V20.5202C66.9785 16.6007 68.1698 13.4496 70.5907 11.1056C72.9732 8.7615 76.2011 7.57025 80.2359 7.57025C84.2323 7.57025 87.4602 8.7615 89.8812 11.1056C92.3021 13.4496 93.5317 16.6007 93.5317 20.5202V39.388C93.5317 43.346 92.3021 46.497 89.8812 48.8411C87.4602 51.1852 84.2323 52.338 80.2359 52.338C76.2011 52.338 72.9732 51.1852 70.5907 48.8411ZM82.4263 42.5006C82.9643 41.8474 83.1948 40.9635 83.1948 39.8491V20.0975C83.1948 18.9831 82.9258 18.0993 82.4263 17.4461C81.8883 16.7928 81.1966 16.4854 80.2743 16.4854C79.3521 16.4854 78.6604 16.7928 78.1608 17.4461C77.6613 18.0993 77.3923 18.9831 77.3923 20.0975V39.8491C77.3923 40.9635 77.6613 41.8474 78.1608 42.5006C78.6604 43.1539 79.3521 43.4613 80.2743 43.4613C81.1582 43.4613 81.8883 43.1539 82.4263 42.5006Z" fill="#313131"/>
<path d="M97.6817 51.6463C97.528 51.4925 97.4512 51.3388 97.4512 51.1083V8.83831C97.4512 8.64617 97.528 8.45404 97.6817 8.30033C97.8354 8.14662 97.9892 8.06976 98.2197 8.06976H110.171C114.167 8.06976 117.395 9.18415 119.816 11.4514C122.237 13.7186 123.428 16.6775 123.428 20.4049V39.5417C123.428 43.2691 122.237 46.228 119.816 48.4952C117.395 50.7624 114.205 51.8768 110.171 51.8768H98.2197C97.9892 51.8384 97.797 51.7615 97.6817 51.6463ZM108.134 42.9617L109.902 42.8848C110.785 42.8464 111.516 42.4621 112.092 41.732C112.668 41.0019 112.976 40.0412 113.014 38.8116V21.0966C113.014 19.8285 112.707 18.8294 112.13 18.0993C111.554 17.3307 110.785 16.9849 109.825 16.9849H108.134C107.942 16.9849 107.827 17.1002 107.827 17.2923V42.6927C107.827 42.8848 107.942 42.9617 108.134 42.9617Z" fill="#313131"/>
<path d="M133.458 50.6856C131.498 49.5712 129.961 48.0341 128.885 46.0359C127.809 44.0377 127.271 41.732 127.271 39.0805V8.83831C127.271 8.64617 127.348 8.45404 127.502 8.30033C127.655 8.14662 127.809 8.06976 128.04 8.06976H136.916C137.108 8.06976 137.301 8.14662 137.454 8.30033C137.608 8.45404 137.685 8.60774 137.685 8.83831V40.1181C137.685 41.1172 137.915 41.9242 138.415 42.539C138.876 43.1538 139.529 43.4613 140.336 43.4613C141.143 43.4613 141.758 43.1538 142.258 42.539C142.719 41.9242 142.988 41.1172 142.988 40.1181V8.83831C142.988 8.64617 143.065 8.45404 143.218 8.30033C143.372 8.14662 143.526 8.06976 143.756 8.06976H152.633C152.825 8.06976 153.017 8.14662 153.171 8.30033C153.325 8.45404 153.402 8.60774 153.402 8.83831V39.0805C153.402 41.6936 152.864 44.0377 151.788 46.0359C150.712 48.0341 149.175 49.6096 147.215 50.6856C145.255 51.8 142.988 52.3379 140.413 52.3379C137.685 52.3379 135.418 51.8 133.458 50.6856Z" fill="#313131"/>
<path d="M160.473 48.8411C158.091 46.4971 156.899 43.3844 156.899 39.5417V20.3281C156.899 16.4085 158.091 13.2959 160.473 11.0287C162.856 8.72307 166.007 7.57025 169.965 7.57025C173.923 7.57025 177.112 8.72307 179.495 11.0287C181.877 13.3343 183.107 16.4469 183.107 20.3281V20.9045C183.107 21.0966 183.03 21.2888 182.876 21.4425C182.723 21.5962 182.569 21.6731 182.338 21.6731L173.462 22.0573C172.962 22.0573 172.693 21.7883 172.693 21.2888V19.598C172.693 18.6373 172.424 17.8688 171.924 17.3308C171.425 16.7544 170.772 16.4854 169.926 16.4854C169.119 16.4854 168.504 16.7544 168.005 17.3308C167.505 17.9072 167.236 18.6373 167.236 19.598V40.4255C167.236 41.3478 167.505 42.0779 168.005 42.6543C168.504 43.2307 169.158 43.4997 169.926 43.4997C170.772 43.4997 171.425 43.2307 171.924 42.6543C172.424 42.0779 172.693 41.3478 172.693 40.4255V38.6195C172.693 38.4273 172.77 38.2352 172.924 38.0815C173.077 37.9278 173.231 37.8509 173.462 37.8509L182.338 38.2352C182.53 38.2352 182.723 38.312 182.876 38.4658C183.03 38.6195 183.107 38.7732 183.107 39.0037V39.5801C183.107 43.4613 181.916 46.5739 179.495 48.8795C177.112 51.2236 173.923 52.3764 169.965 52.3764C166.045 52.338 162.856 51.1852 160.473 48.8411Z" fill="#313131"/>
<path d="M213.425 8.30033C213.579 8.45404 213.656 8.60774 213.656 8.83831V16.2163C213.656 16.4085 213.579 16.6006 213.425 16.7543C213.272 16.908 213.118 16.9849 212.887 16.9849H205.125C204.933 16.9849 204.818 17.1002 204.818 17.2923V51.1083C204.818 51.3004 204.741 51.4925 204.587 51.6463C204.433 51.8 204.28 51.8768 204.049 51.8768H195.172C194.98 51.8768 194.788 51.8 194.634 51.6463C194.481 51.4925 194.404 51.3388 194.404 51.1083V17.2923C194.404 17.1002 194.289 16.9849 194.096 16.9849H186.642C186.449 16.9849 186.257 16.908 186.104 16.7543C185.95 16.6006 185.873 16.4469 185.873 16.2163V8.83831C185.873 8.64617 185.95 8.45404 186.104 8.30033C186.257 8.14662 186.411 8.06976 186.642 8.06976H212.849C213.118 8.06976 213.272 8.14662 213.425 8.30033Z" fill="#313131"/>
<path d="M219.305 48.8411C216.922 46.497 215.692 43.346 215.692 39.388V20.5202C215.692 16.6007 216.884 13.4496 219.305 11.1056C221.687 8.7615 224.915 7.57025 228.95 7.57025C232.946 7.57025 236.174 8.7615 238.595 11.1056C241.016 13.4496 242.246 16.6007 242.246 20.5202V39.388C242.246 43.346 241.016 46.497 238.595 48.8411C236.174 51.1852 232.946 52.338 228.95 52.338C224.915 52.338 221.687 51.1852 219.305 48.8411ZM231.14 42.5006C231.678 41.8474 231.909 40.9635 231.909 39.8491V20.0975C231.909 18.9831 231.64 18.0993 231.14 17.4461C230.602 16.7928 229.91 16.4854 228.988 16.4854C228.066 16.4854 227.374 16.7928 226.875 17.4461C226.375 18.0993 226.106 18.9831 226.106 20.0975V39.8491C226.106 40.9635 226.375 41.8474 226.875 42.5006C227.374 43.1539 228.066 43.4613 228.988 43.4613C229.872 43.4613 230.602 43.1539 231.14 42.5006Z" fill="#313131"/>
<path d="M251.66 50.8778C249.738 49.9171 248.24 48.5337 247.202 46.766C246.126 44.9984 245.588 43.0002 245.588 40.733V38.8116C245.588 38.6195 245.665 38.4273 245.819 38.2736C245.973 38.1199 246.126 38.0431 246.357 38.0431H255.118C255.31 38.0431 255.503 38.1199 255.656 38.2736C255.81 38.4273 255.887 38.581 255.887 38.8116V40.2334C255.887 41.2325 256.117 42.0395 256.617 42.6159C257.078 43.1923 257.693 43.4997 258.461 43.4997C259.23 43.4997 259.845 43.2307 260.306 42.6543C260.767 42.0779 261.036 41.3862 261.036 40.5024C261.036 39.5417 260.652 38.6963 259.922 37.8893C259.153 37.1208 257.654 35.9296 255.426 34.2772C253.351 32.7785 251.621 31.4336 250.315 30.2423C248.97 29.0511 247.817 27.5908 246.856 25.7848C245.896 24.0171 245.435 21.942 245.435 19.6364C245.435 17.2539 245.973 15.1404 247.049 13.3343C248.124 11.4898 249.623 10.068 251.545 9.06891C253.466 8.06981 255.695 7.57025 258.192 7.57025C260.729 7.57025 262.996 8.06981 264.917 9.10734C266.839 10.1449 268.376 11.5667 269.413 13.4112C270.489 15.2557 271.027 17.4076 271.027 19.8285V21.3272C271.027 21.5193 270.95 21.7115 270.797 21.8652C270.643 22.0189 270.489 22.0957 270.259 22.0957H261.574C261.382 22.0957 261.19 22.0189 261.036 21.8652C260.882 21.7115 260.805 21.5578 260.805 21.3272V19.5596C260.805 18.6373 260.536 17.9072 260.037 17.2923C259.537 16.7159 258.923 16.4085 258.154 16.4085C257.385 16.4085 256.809 16.7159 256.348 17.2923C255.887 17.8688 255.656 18.6373 255.656 19.598C255.656 20.6355 256.002 21.5962 256.732 22.4032C257.424 23.2486 258.884 24.4398 261.036 26.0153C263.649 27.9751 265.647 29.5506 266.992 30.7803C268.337 31.9716 269.375 33.3165 270.105 34.8152C270.873 36.3138 271.219 38.0431 271.219 40.0413C271.219 43.8071 270.028 46.766 267.684 48.9948C265.34 51.2236 262.227 52.2996 258.385 52.2996C255.81 52.338 253.581 51.8769 251.66 50.8778Z" fill="#313131"/>
<path d="M7.99277 104.292C7.83906 104.138 7.76221 103.984 7.76221 103.754V61.4837C7.76221 61.2915 7.83906 61.0994 7.99277 60.9457C8.14648 60.792 8.30019 60.7151 8.53075 60.7151H20.4816C24.4781 60.7151 27.7059 61.8295 30.1269 64.0967C32.5478 66.3639 33.739 69.3228 33.739 73.0503V92.187C33.739 95.9145 32.5478 98.8734 30.1269 101.141C27.7059 103.408 24.5165 104.522 20.4816 104.522H8.53075C8.30019 104.522 8.14648 104.445 7.99277 104.292ZM18.4834 95.6455L20.2511 95.5686C21.1349 95.5302 21.865 95.1459 22.4414 94.4158C23.0178 93.6857 23.3252 92.725 23.3637 91.4953V73.742C23.3637 72.4739 23.0562 71.4747 22.4798 70.7446C21.9034 69.9761 21.1349 69.6302 20.1742 69.6302H18.4834C18.2913 69.6302 18.176 69.7455 18.176 69.9377V95.3381C18.1376 95.5302 18.2528 95.6455 18.4834 95.6455Z" fill="#1C9BD8"/>
<path d="M61.5222 69.3997C61.3684 69.5534 61.2147 69.6303 60.9842 69.6303H48.4185C48.2263 69.6303 48.111 69.7455 48.111 69.9377V77.8153C48.111 78.0074 48.2263 78.1227 48.4185 78.1227H55.2969C55.4891 78.1227 55.6812 78.1995 55.8349 78.3532C55.9886 78.5069 56.0655 78.6607 56.0655 78.8912V86.3461C56.0655 86.5382 55.9886 86.7304 55.8349 86.8841C55.6812 87.0378 55.5275 87.1147 55.2969 87.1147H48.4185C48.2263 87.1147 48.111 87.2299 48.111 87.4221V95.3765C48.111 95.5686 48.2263 95.6839 48.4185 95.6839H60.9842C61.1763 95.6839 61.3684 95.7608 61.5222 95.9145C61.6759 96.0682 61.7527 96.2219 61.7527 96.4525V103.831C61.7527 104.023 61.6759 104.215 61.5222 104.368C61.3684 104.522 61.2147 104.599 60.9842 104.599H38.4658C38.2737 104.599 38.0815 104.522 37.9278 104.368C37.7741 104.215 37.6973 104.061 37.6973 103.831V61.5605C37.6973 61.3684 37.7741 61.1763 37.9278 61.0226C38.0815 60.8688 38.2352 60.792 38.4658 60.792H60.9842C61.1763 60.792 61.3684 60.8688 61.5222 61.0226C61.6759 61.1763 61.7527 61.33 61.7527 61.5605V68.9386C61.7527 69.0538 61.6759 69.246 61.5222 69.3997Z" fill="#1C9BD8"/>
<path d="M70.8215 103.523C68.9002 102.562 67.4015 101.179 66.364 99.4114C65.288 97.6438 64.7885 95.6456 64.7885 93.3783V91.457C64.7885 91.2648 64.8653 91.0727 65.019 90.919C65.1727 90.7653 65.3265 90.6884 65.557 90.6884H74.3184C74.5106 90.6884 74.7027 90.7653 74.8564 90.919C75.0101 91.0727 75.087 91.2264 75.087 91.457V92.8788C75.087 93.8779 75.3175 94.6849 75.8171 95.2613C76.2782 95.8377 76.8931 96.1451 77.6616 96.1451C78.4301 96.1451 79.045 95.8761 79.5061 95.2997C79.9672 94.7233 80.2362 94.0316 80.2362 93.1478C80.2362 92.1871 79.852 91.3417 79.1218 90.5347C78.3533 89.7662 76.8546 88.5749 74.6258 86.9226C72.5508 85.4239 70.8215 84.079 69.515 82.8877C68.1701 81.6965 67.0173 80.2362 66.0566 78.4301C65.0959 76.6625 64.6348 74.5874 64.6348 72.2818C64.6348 69.8993 65.1727 67.7858 66.2103 65.9797C67.2862 64.1352 68.7849 62.7134 70.7063 61.7143C72.6276 60.7152 74.8564 60.2156 77.3542 60.2156C79.8904 60.2156 82.1576 60.7152 84.0789 61.7527C86.0003 62.7903 87.5374 64.2121 88.5749 66.0566C89.6509 67.9011 90.1504 70.053 90.1504 72.4739V73.9726C90.1504 74.1647 90.0736 74.3569 89.9199 74.5106C89.7662 74.6643 89.6125 74.7411 89.3819 74.7411H80.6974C80.5052 74.7411 80.3131 74.6643 80.1594 74.5106C80.0057 74.3569 79.9288 74.2032 79.9288 73.9726V72.2049C79.9288 71.2827 79.6598 70.5526 79.1603 69.9377C78.6607 69.3613 78.0459 69.0539 77.2773 69.0539C76.5088 69.0539 75.9324 69.3613 75.4712 69.9377C75.0101 70.5141 74.7796 71.2827 74.7796 72.2434C74.7796 73.2809 75.1254 74.2416 75.8555 75.0486C76.5472 75.894 78.0074 77.0852 80.1594 78.6607C82.7724 80.6205 84.7706 82.196 86.1156 83.4257C87.4605 84.6169 88.4981 85.9619 89.2282 87.4605C89.9967 88.9592 90.3426 90.6884 90.3426 92.6867C90.3426 96.4525 89.1513 99.4114 86.8073 101.64C84.4632 103.869 81.3506 104.945 77.5079 104.945C74.9717 105.022 72.7429 104.522 70.8215 103.523Z" fill="#1C9BD8"/>
<path d="M120.124 60.9457C120.277 61.0994 120.354 61.2531 120.354 61.4837V68.8617C120.354 69.0538 120.277 69.246 120.124 69.3997C119.97 69.5534 119.816 69.6302 119.586 69.6302H111.823C111.631 69.6302 111.516 69.7455 111.516 69.9377V103.754C111.516 103.946 111.439 104.138 111.285 104.292C111.132 104.445 110.978 104.522 110.747 104.522H101.871C101.679 104.522 101.486 104.445 101.333 104.292C101.179 104.138 101.102 103.984 101.102 103.754V69.9377C101.102 69.7455 100.987 69.6302 100.795 69.6302H93.3398C93.1477 69.6302 92.9556 69.5534 92.8019 69.3997C92.6481 69.246 92.5713 69.0923 92.5713 68.8617V61.4837C92.5713 61.2915 92.6481 61.0994 92.8019 60.9457C92.9556 60.792 93.1093 60.7151 93.3398 60.7151H119.547C119.816 60.7151 119.97 60.792 120.124 60.9457Z" fill="#1C9BD8"/>
<path d="M138.031 103.83L137.224 98.3738C137.224 98.1817 137.108 98.0664 136.839 98.0664H130.076C129.807 98.0664 129.692 98.1817 129.692 98.3738L128.923 103.83C128.885 104.292 128.616 104.522 128.116 104.522H119.24C118.702 104.522 118.471 104.253 118.625 103.715L127.694 61.4452C127.771 60.9841 128.04 60.7535 128.501 60.7535H138.684C139.145 60.7535 139.414 60.9841 139.491 61.4452L148.483 103.715L148.56 103.984C148.56 104.368 148.329 104.561 147.868 104.561H138.799C138.338 104.522 138.069 104.292 138.031 103.83ZM131.344 90.0735H135.533C135.687 90.0735 135.802 89.9582 135.802 89.7661L133.535 75.5096C133.496 75.3559 133.419 75.2406 133.343 75.2406C133.266 75.2406 133.189 75.3175 133.15 75.5096L131.075 89.7661C131.114 89.9582 131.191 90.0735 131.344 90.0735Z" fill="#1C9BD8"/>
<path d="M153.44 101.486C151.057 99.1424 149.866 96.0298 149.866 92.1871V72.9735C149.866 69.0539 151.057 65.9413 153.44 63.6741C155.822 61.3685 158.973 60.2156 162.931 60.2156C166.889 60.2156 170.079 61.3685 172.461 63.6741C174.844 65.9797 176.074 69.0923 176.074 72.9735V73.5499C176.074 73.742 175.997 73.9342 175.843 74.0879C175.689 74.2416 175.536 74.3184 175.305 74.3184L166.428 74.7027C165.929 74.7027 165.66 74.4337 165.66 73.9342V72.2434C165.66 71.2827 165.391 70.5141 164.891 69.9762C164.392 69.4382 163.738 69.1308 162.893 69.1308C162.086 69.1308 161.471 69.3997 160.972 69.9762C160.472 70.5526 160.203 71.2827 160.203 72.2434V93.0709C160.203 93.9932 160.472 94.7233 160.972 95.2997C161.471 95.8761 162.124 96.1451 162.893 96.1451C163.738 96.1451 164.392 95.8761 164.891 95.2997C165.391 94.7233 165.66 93.9932 165.66 93.0709V91.2649C165.66 91.0727 165.737 90.8806 165.89 90.7269C166.044 90.5732 166.198 90.4963 166.428 90.4963L175.305 90.8806C175.497 90.8806 175.689 90.9574 175.843 91.1111C175.997 91.2648 176.074 91.4186 176.074 91.6491V92.2255C176.074 96.1067 174.882 99.2193 172.461 101.525C170.079 103.869 166.889 105.022 162.931 105.022C158.973 105.022 155.784 103.831 153.44 101.486Z" fill="#1C9BD8"/>
<path d="M197.132 103.83L196.325 98.3738C196.325 98.1817 196.21 98.0664 195.941 98.0664H189.178C188.909 98.0664 188.793 98.1817 188.793 98.3738L188.025 103.83C187.987 104.292 187.718 104.522 187.218 104.522H178.341C177.803 104.522 177.573 104.253 177.726 103.715L186.795 61.4452C186.872 60.9841 187.141 60.7535 187.602 60.7535H197.785C198.247 60.7535 198.516 60.9841 198.592 61.4452L207.584 103.715L207.661 103.984C207.661 104.368 207.431 104.561 206.97 104.561H197.901C197.44 104.522 197.171 104.292 197.132 103.83ZM190.446 90.0735H194.634C194.788 90.0735 194.903 89.9582 194.903 89.7661L192.636 75.5096C192.598 75.3559 192.521 75.2406 192.444 75.2406C192.367 75.2406 192.29 75.3175 192.252 75.5096L190.177 89.7661C190.177 89.9582 190.292 90.0735 190.446 90.0735Z" fill="#1C9BD8"/>
<path d="M211.004 104.292C210.85 104.138 210.773 103.984 210.773 103.754V61.4837C210.773 61.2916 210.85 61.0994 211.004 60.9457C211.158 60.792 211.311 60.7151 211.542 60.7151H223.493C227.489 60.7151 230.717 61.8295 233.138 64.0967C235.559 66.364 236.75 69.3228 236.75 73.0503V92.1871C236.75 95.9145 235.559 98.8734 233.138 101.141C230.717 103.408 227.528 104.522 223.493 104.522H211.542C211.311 104.522 211.119 104.445 211.004 104.292ZM221.456 95.6455L223.224 95.5687C224.108 95.5302 224.838 95.146 225.414 94.4158C225.991 93.6857 226.298 92.725 226.336 91.4954V73.742C226.336 72.4739 226.029 71.4748 225.453 70.7447C224.876 69.9761 224.108 69.6303 223.147 69.6303H221.456C221.264 69.6303 221.149 69.7456 221.149 69.9377V95.3381C221.149 95.5302 221.264 95.6455 221.456 95.6455Z" fill="#1C9BD8"/>
<path d="M243.896 101.486C241.514 99.1424 240.284 95.9914 240.284 92.0334V73.1656C240.284 69.246 241.475 66.095 243.896 63.7509C246.279 61.4069 249.507 60.2156 253.542 60.2156C257.538 60.2156 260.766 61.4069 263.187 63.7509C265.608 66.095 266.837 69.246 266.837 73.1656V92.0334C266.837 95.9914 265.608 99.1424 263.187 101.486C260.766 103.831 257.538 104.983 253.542 104.983C249.507 105.022 246.279 103.831 243.896 101.486ZM255.693 95.146C256.231 94.4927 256.462 93.6089 256.462 92.4945V72.7429C256.462 71.6285 256.193 70.7447 255.693 70.0914C255.156 69.4382 254.464 69.1308 253.542 69.1308C252.619 69.1308 251.928 69.4382 251.428 70.0914C250.929 70.7447 250.66 71.6285 250.66 72.7429V92.4945C250.66 93.6089 250.929 94.4927 251.428 95.146C251.928 95.7993 252.619 96.1067 253.542 96.1067C254.464 96.1451 255.194 95.7993 255.693 95.146Z" fill="#1C9BD8"/>
<path d="M276.254 103.523C274.332 102.562 272.834 101.179 271.796 99.4114C270.72 97.6438 270.182 95.6456 270.182 93.3783V91.457C270.182 91.2648 270.259 91.0727 270.413 90.919C270.566 90.7653 270.72 90.6884 270.951 90.6884H279.712C279.904 90.6884 280.096 90.7653 280.25 90.919C280.404 91.0727 280.481 91.2264 280.481 91.457V92.8788C280.481 93.8779 280.711 94.6849 281.211 95.2613C281.672 95.8377 282.287 96.1451 283.055 96.1451C283.824 96.1451 284.439 95.8761 284.9 95.2997C285.361 94.7233 285.63 94.0316 285.63 93.1478C285.63 92.1871 285.246 91.3417 284.515 90.5347C283.747 89.7662 282.248 88.5749 280.019 86.9226C277.944 85.4239 276.215 84.079 274.909 82.8877C273.564 81.6965 272.411 80.2362 271.45 78.4301C270.489 76.6625 270.028 74.5874 270.028 72.2818C270.028 69.8993 270.566 67.7858 271.642 65.9797C272.718 64.1352 274.217 62.7134 276.138 61.7143C278.06 60.7152 280.288 60.2156 282.786 60.2156C285.322 60.2156 287.59 60.7152 289.511 61.7527C291.432 62.7903 292.969 64.2121 294.007 66.0566C295.083 67.9011 295.621 70.053 295.621 72.4739V73.9726C295.621 74.1647 295.544 74.3569 295.39 74.5106C295.237 74.6643 295.083 74.7411 294.852 74.7411H286.168C285.976 74.7411 285.784 74.6643 285.63 74.5106C285.476 74.3569 285.399 74.2032 285.399 73.9726V72.2049C285.399 71.2827 285.13 70.5526 284.631 69.9377C284.131 69.3613 283.516 69.0539 282.748 69.0539C281.979 69.0539 281.403 69.3613 280.942 69.9377C280.481 70.5141 280.25 71.2827 280.25 72.2434C280.25 73.2809 280.596 74.2416 281.326 75.0486C282.018 75.894 283.478 77.0852 285.63 78.6607C288.243 80.6205 290.241 82.196 291.586 83.4257C292.931 84.6169 293.968 85.9619 294.699 87.4605C295.467 88.9592 295.813 90.6884 295.813 92.6867C295.813 96.4525 294.622 99.4114 292.278 101.64C289.934 103.869 286.821 104.945 282.978 104.945C280.404 105.022 278.175 104.522 276.254 103.523Z" fill="#1C9BD8"/>
<path d="M300.924 38.9653C287.052 38.9653 275.793 50.2245 275.793 64.0968C275.793 50.2245 264.533 38.9653 250.661 38.9653C264.533 38.9653 275.793 27.7062 275.793 13.8339C275.793 27.7446 287.052 38.9653 300.924 38.9653Z" fill="#1C9BD8"/>
<path d="M307.571 52.6839C295.428 52.6839 285.591 62.5213 285.591 74.6643C285.591 62.5213 275.753 52.6839 263.61 52.6839C275.753 52.6839 285.591 42.8465 285.591 30.7035C285.591 42.8465 295.428 52.6839 307.571 52.6839Z" fill="#313131"/>
</svg>
