<svg xmlns="http://www.w3.org/2000/svg" viewBox="0 0 1007.77 250.07"><defs><style>.cls-1{fill:#fff;}.cls-2{fill:#fce03a;}.cls-3{fill:#201e1e;}</style></defs><g id="Capa_2" data-name="Capa 2"><g id="FONDO"><g id="Capa_2-2" data-name="Capa 2"><g id="Capa_1-2" data-name="Capa 1-2"><path class="cls-1" d="M1007.73,105.48a14,14,0,0,1-14,13h-1c-1.25-.09-2.52-.13-3.77-.13a52.64,52.64,0,0,0-16,2.46c.93.46,1.84.94,2.72,1.44a44.69,44.69,0,0,1,15.62,14.41,40.53,40.53,0,0,1,6.54,22.63,42.63,42.63,0,0,1-.24,4.52c-.14,1.41-.36,3-.7,5.07l-3,18a44.46,44.46,0,0,1,.51,6.91,52.4,52.4,0,0,1-22.1,43.6,65.3,65.3,0,0,1-20.52,9.73,81.42,81.42,0,0,1-21.9,2.94,137.36,137.36,0,0,1-19.54-1.31,70.38,70.38,0,0,1-19.33-5.48,44,44,0,0,1-12.82-8.82,66.5,66.5,0,0,1-14.37,8.68c-10.34,4.6-22.47,6.93-36.08,6.93-11.84,0-22.43-1.93-31.46-5.73a53.06,53.06,0,0,1-19.73-14,63.28,63.28,0,0,1-18,11.76c-9.85,4.3-21.25,6.49-33.87,6.49H.17l20-113.85H0L23.65,1.53H748.07S763.38,0,772.15,0c11.92,0,22.55,1.93,31.58,5.74a53.85,53.85,0,0,1,16.71,10.9,52,52,0,0,1,8-6.07A67.65,67.65,0,0,1,848.93,2.3,90.4,90.4,0,0,1,869.2,0a99.22,99.22,0,0,1,19.07,1.75,62.15,62.15,0,0,1,18.48,6.64A44.7,44.7,0,0,1,922,22.25a13.87,13.87,0,0,1,9.3-3.56h1a14,14,0,0,1,13,15c-.11,1.59-.15,3.18-.11,4.75a14,14,0,0,1,13.7-11.21h1a14,14,0,0,1,13,14.94v.09a19.83,19.83,0,0,0,18.39,21.14,14,14,0,0,1,3.7,27.2A14,14,0,0,1,1007.73,105.48Z"/><path class="cls-2" d="M27.15,111.93,42.7,24.29H93.4a25.19,25.19,0,0,1,12.8,3.13,22,22,0,0,1,8.47,8.76A26.44,26.44,0,0,1,117.73,49a38.73,38.73,0,0,1-2.36,13.57,33,33,0,0,1-6.78,11A31.48,31.48,0,0,1,98.15,81a33.31,33.31,0,0,1-13.57,2.68H60.28l-5,28.27ZM63.93,63.14H78.62a10.11,10.11,0,0,0,5.8-1.52,9.31,9.31,0,0,0,3.31-4.08,14.19,14.19,0,0,0,1.08-5.61,6.49,6.49,0,0,0-2-5.08q-2-1.76-5.92-1.76H67.16Z"/><path class="cls-2" d="M119.25,111.93l15.41-87.64h53.63q8.91,0,14.77,3.06a20.79,20.79,0,0,1,8.76,8.09,22.36,22.36,0,0,1,2.87,11.27,36.73,36.73,0,0,1-2.49,14.14A28.86,28.86,0,0,1,205.33,71a37.52,37.52,0,0,1-10.26,6.81L206.28,112H175l-8.15-29.43H152.63L147.37,112Zm36.81-48.87h18.47a10.16,10.16,0,0,0,5.09-1.47,12.18,12.18,0,0,0,4.21-4,10.52,10.52,0,0,0,1.65-5.9,7.87,7.87,0,0,0-1.75-5.35,6,6,0,0,0-4.71-2H159.25Z"/><path class="cls-2" d="M262.79,113.45q-13.23,0-22.6-3.94A29.69,29.69,0,0,1,226,97.73q-4.85-7.83-4.85-19.43a51.31,51.31,0,0,1,.33-5.54q.32-2.87.82-5.92,2.55-14.52,9.18-24.33a41.32,41.32,0,0,1,17.7-14.77q11.09-5,27-5,13.38,0,22.77,3.95a29.52,29.52,0,0,1,14.17,11.81Q318,46.42,318,58.28c0,1.7-.09,3.48-.26,5.34s-.42,3.78-.76,5.74q-2.54,14.55-9.36,24.35a42.53,42.53,0,0,1-18,14.77Q278.5,113.46,262.79,113.45Zm2.43-21A22.64,22.64,0,0,0,273.56,91a19.68,19.68,0,0,0,6.56-4.14,22.28,22.28,0,0,0,4.65-6.43,29.59,29.59,0,0,0,2.62-8.21q.66-3.69,1-6c.25-1.57.45-2.82.57-3.76s.21-1.65.25-2.16.07-1,.07-1.4a17.24,17.24,0,0,0-1.75-8,12,12,0,0,0-5.16-5.26,18.25,18.25,0,0,0-8.66-1.84,22.6,22.6,0,0,0-8.34,1.47,18.79,18.79,0,0,0-6.49,4.14,23,23,0,0,0-4.59,6.43A29.61,29.61,0,0,0,251.69,64c-.43,2.55-.76,4.61-1,6.13s-.44,2.83-.57,3.76-.21,1.66-.26,2.17-.06,1-.06,1.4a17.52,17.52,0,0,0,1.66,7.83,11.65,11.65,0,0,0,5.09,5.25,18.17,18.17,0,0,0,8.69,1.89Z"/><path class="cls-2" d="M324.45,111.93l15.4-87.64h36.72q19.76,0,30.19,8.22T417.17,57.8c0,1.75-.07,3.64-.19,5.54a47.46,47.46,0,0,1-.83,6.06q-2.55,14.52-9.23,23.94a40.69,40.69,0,0,1-17.2,14q-10.52,4.59-24.77,4.59Zm31.84-21h9.29a24.08,24.08,0,0,0,8.29-1.28A17,17,0,0,0,380,86a19.43,19.43,0,0,0,4.2-6,31.86,31.86,0,0,0,2.42-8c.59-3.24,1-5.67,1.27-7.33s.43-2.89.51-3.69a18.47,18.47,0,0,0,.13-2,15.71,15.71,0,0,0-1.6-7.38,10.51,10.51,0,0,0-4.83-4.65,19.4,19.4,0,0,0-8.47-1.6h-9.32Z"/><path class="cls-2" d="M468.11,113.45q-18.19,0-28.65-7.32T429,84.16c0-1.27.07-2.63.19-4s.32-2.76.58-4.2L439,24.29H467.1l-9.17,52c-.09.68-.18,1.37-.26,2a17.46,17.46,0,0,0-.13,2,12.16,12.16,0,0,0,3.12,8.76q3.12,3.27,9.75,3.31,7.75,0,12.48-4.58a21,21,0,0,0,6-11.59l9.17-52h28.14l-9.42,53.67q-2,11.85-8.41,19.75a38.74,38.74,0,0,1-16.49,11.78Q481.75,113.46,468.11,113.45Z"/><path class="cls-2" d="M572.3,113.45q-19.74,0-29.77-8.66T532.45,79.2a59.77,59.77,0,0,1,.32-6q.32-3.06.83-6.37,2.55-14.52,9.11-24.33a41.59,41.59,0,0,1,17.07-14.77q10.5-5,24.64-5a57.54,57.54,0,0,1,20.72,3.37A28.5,28.5,0,0,1,618.54,36q4.71,6.51,4.71,16.18c0,1.28-.06,2.62-.19,4s-.32,2.76-.57,4.2H595.61a14,14,0,0,0,.32-2.22c0-.72.06-1.39.06-2a13.67,13.67,0,0,0-1.46-6.56,10.36,10.36,0,0,0-4.28-4.27,14.85,14.85,0,0,0-7.12-1.52,19.87,19.87,0,0,0-7.88,1.46,16.56,16.56,0,0,0-5.86,4.14,22.48,22.48,0,0,0-4,6.43A36.77,36.77,0,0,0,563,64q-.66,3.94-1.09,6.43c-.3,1.66-.51,3-.64,3.94s-.21,1.76-.25,2.37-.06,1.14-.06,1.65a18,18,0,0,0,1.4,7.39,10.24,10.24,0,0,0,4.38,4.9,15,15,0,0,0,7.57,1.75,21.7,21.7,0,0,0,9.56-1.91A16.2,16.2,0,0,0,590.32,85a21.86,21.86,0,0,0,3.38-8.6h26a48.46,48.46,0,0,1-8,20.25A37.06,37.06,0,0,1,596,109.22Q586.2,113.47,572.3,113.45Z"/><polygon class="cls-2" points="648.6 111.93 660.19 46.71 631.4 46.71 635.36 24.3 720.94 24.3 717 46.71 688.34 46.71 676.75 111.93 648.6 111.93"/><path class="cls-2" d="M758.77,113.45q-13.24,0-22.61-3.94A29.71,29.71,0,0,1,722,97.73q-4.85-7.83-4.85-19.43a51.3,51.3,0,0,1,.32-5.54q.31-2.87.83-5.92,2.55-14.52,9.17-24.33a41.22,41.22,0,0,1,17.71-14.77q11.07-5,27-5,13.36,0,22.77,3.95a29.67,29.67,0,0,1,14.17,11.81q4.83,7.89,4.83,19.75c0,1.7-.08,3.51-.25,5.34s-.42,3.79-.77,5.74q-2.55,14.55-9.36,24.35a42.37,42.37,0,0,1-18,14.78Q774.44,113.46,758.77,113.45Zm2.42-21A22.69,22.69,0,0,0,769.54,91a19.68,19.68,0,0,0,6.56-4.14,22.74,22.74,0,0,0,4.65-6.43,29.92,29.92,0,0,0,2.62-8.21q.63-3.69,1-6c.26-1.57.45-2.82.58-3.76s.21-1.65.25-2.16.06-1,.06-1.4a17.24,17.24,0,0,0-1.75-8,12,12,0,0,0-5.16-5.26,18.37,18.37,0,0,0-8.66-1.84,22.6,22.6,0,0,0-8.34,1.47,19.14,19.14,0,0,0-6.48,4.16,23.35,23.35,0,0,0-4.58,6.43A30.1,30.1,0,0,0,747.69,64c-.42,2.54-.76,4.59-1,6.13s-.45,2.83-.57,3.75-.22,1.67-.25,2.18-.07,1-.07,1.4a17.64,17.64,0,0,0,1.65,7.83,11.67,11.67,0,0,0,5.1,5.25A18.29,18.29,0,0,0,761.19,92.44Z"/><path class="cls-2" d="M860.92,113.45a115.65,115.65,0,0,1-16.31-1.07,47.31,47.31,0,0,1-13-3.64,20.49,20.49,0,0,1-8.67-7.13,19.89,19.89,0,0,1-3.12-11.46c0-1.19.07-2.49.19-3.89a24.93,24.93,0,0,1,.7-4h26.62a6.48,6.48,0,0,0-.63,2,12.69,12.69,0,0,0-.13,1.85,6,6,0,0,0,1.66,4.53,8.83,8.83,0,0,0,4.58,2.16,35,35,0,0,0,6.63.57c1.27,0,2.62-.06,4.19-.19a20.29,20.29,0,0,0,4.38-.83,8,8,0,0,0,3.44-2,4.84,4.84,0,0,0,1.36-3.63A4,4,0,0,0,871,83.33,15.86,15.86,0,0,0,866.11,81q-3-1-6.87-1.75t-7.88-1.85q-4.46-1.14-8.86-2.73a31.91,31.91,0,0,1-7.88-4.14,18.86,18.86,0,0,1-5.6-6.44,19.58,19.58,0,0,1-2.1-9.48,28.38,28.38,0,0,1,3.69-14.89,29.44,29.44,0,0,1,9.8-9.8,45.05,45.05,0,0,1,13.64-5.44,67.72,67.72,0,0,1,15.15-1.75,75.85,75.85,0,0,1,14.65,1.34,39.37,39.37,0,0,1,11.72,4.13,22.21,22.21,0,0,1,7.76,7.07,18.07,18.07,0,0,1,2.81,10.13,14.51,14.51,0,0,1-.13,2.29c-.12.84-.25,2-.5,3.57H879.14c.06-.44.1-.89.12-1.34V49A6.7,6.7,0,0,0,877,44q-2.22-2.1-7.58-2.1a22.28,22.28,0,0,0-7.07,1,10.24,10.24,0,0,0-4.26,2.42,4.4,4.4,0,0,0-1.4,3.11,4.09,4.09,0,0,0,1,2.81,10.06,10.06,0,0,0,2.94,2.1A23.28,23.28,0,0,0,865.19,55c1.75.48,3.67.88,5.79,1.34q5,1,10.51,2.48a49.58,49.58,0,0,1,10.38,4,22.36,22.36,0,0,1,7.84,6.68,17.52,17.52,0,0,1,3,10.51,29.66,29.66,0,0,1-12.61,25.09,42.3,42.3,0,0,1-13.37,6.31A58.54,58.54,0,0,1,860.92,113.45Z"/><path class="cls-3" d="M27.3,225.78l15.4-87.64H79.39q19.74,0,30.18,8.22T120,171.65c0,1.75-.07,3.63-.19,5.54a45.46,45.46,0,0,1-.88,6.05q-2.55,14.52-9.23,23.95a40.71,40.71,0,0,1-17.2,14q-10.5,4.59-24.76,4.59Zm31.84-21h9.29a24.32,24.32,0,0,0,8.29-1.28,17,17,0,0,0,6.13-3.69,19.31,19.31,0,0,0,4.2-6,31.61,31.61,0,0,0,2.42-8c.59-3.23,1-5.66,1.27-7.32s.43-2.89.51-3.69a18.63,18.63,0,0,0,.13-2,15.75,15.75,0,0,0-1.6-7.39A10.56,10.56,0,0,0,85,160.75a19.4,19.4,0,0,0-8.47-1.59H67.16Z"/><polygon class="cls-3" points="126.26 225.78 141.8 138.14 217.58 138.14 213.89 159.16 166.25 159.16 164.09 171.26 204.85 171.26 201.28 191.39 160.53 191.39 158.1 204.76 206.63 204.76 202.94 225.78 126.26 225.78"/><path class="cls-3" d="M258.84,227.3a113.49,113.49,0,0,1-16.26-1.08,47.52,47.52,0,0,1-13.06-3.63,20.67,20.67,0,0,1-8.66-7.13A19.85,19.85,0,0,1,217.75,204c0-1.19.06-2.49.19-3.89a22.75,22.75,0,0,1,.7-4h26.57a6.22,6.22,0,0,0-.63,2,12.69,12.69,0,0,0-.13,1.85,6,6,0,0,0,1.65,4.52,8.92,8.92,0,0,0,4.59,2.17,35,35,0,0,0,6.62.57c1.27,0,2.67-.06,4.21-.2a20.3,20.3,0,0,0,4.37-.82,7.94,7.94,0,0,0,3.44-2,4.84,4.84,0,0,0,1.36-3.63,4,4,0,0,0-1.75-3.37,15.8,15.8,0,0,0-4.83-2.3c-2.05-.63-4.34-1.22-6.89-1.75s-5.17-1.16-7.88-1.85c-3-.76-5.93-1.67-8.85-2.73a32.07,32.07,0,0,1-7.88-4.14A19.19,19.19,0,0,1,227,178a19.72,19.72,0,0,1-2.1-9.48,28.28,28.28,0,0,1,3.7-14.89,29.16,29.16,0,0,1,9.8-9.8A45,45,0,0,1,252,138.37a67.61,67.61,0,0,1,15.13-1.75A75,75,0,0,1,281.75,138a39,39,0,0,1,11.71,4.13,22.18,22.18,0,0,1,7.78,7.07,18,18,0,0,1,2.8,10.13,22,22,0,0,1-.13,2.29c-.09.87-.25,2-.51,3.57H277.06a10,10,0,0,0,.13-1.34v-.92a6.65,6.65,0,0,0-2.23-5q-2.22-2.12-7.58-2.11a22.51,22.51,0,0,0-7.06,1,10.15,10.15,0,0,0-4.27,2.41,4.46,4.46,0,0,0-1.4,3.12,4,4,0,0,0,1,2.8,9.7,9.7,0,0,0,2.92,2.11,24.31,24.31,0,0,0,4.53,1.65c1.75.47,3.67.88,5.79,1.34q5,1,10.51,2.48a49,49,0,0,1,10.38,4,22.24,22.24,0,0,1,7.83,6.68,17.45,17.45,0,0,1,3,10.51A29.65,29.65,0,0,1,288,218.94a42.33,42.33,0,0,1-13.38,6.3A58.09,58.09,0,0,1,258.84,227.3Z"/><polygon class="cls-3" points="332.72 225.78 344.31 160.56 315.52 160.56 319.47 138.14 405.07 138.14 401.12 160.56 372.46 160.56 360.87 225.78 332.72 225.78"/><path class="cls-3" d="M383.8,225.78l47.64-87.64h32.71l16.3,87.64h-28.9L450,213.42H419.2l-5.85,12.36Zm44.7-32h19.11l-1.65-14c-.18-1.43-.34-2.88-.52-4.32s-.36-2.88-.57-4.27-.4-2.83-.58-4.27-.33-2.88-.5-4.33h-.51q-1.29,2.81-2.67,5.67T437.87,174c-.87,1.91-1.8,3.84-2.74,5.79Z"/><path class="cls-3" d="M531.29,227.3q-19.74,0-29.78-8.66T491.45,193a57.09,57.09,0,0,1,.32-6c.21-2,.49-4.16.87-6.36q2.55-14.52,9.11-24.33a41.61,41.61,0,0,1,17.07-14.78q10.51-5,24.64-5a57.35,57.35,0,0,1,20.7,3.37,29,29,0,0,1,13.44,9.87q4.7,6.49,4.71,16.17c0,1.28-.06,2.63-.19,3.95s-.32,2.77-.57,4.21H554.6a15.16,15.16,0,0,0,.32-2.23c0-.71.06-1.38.06-2a13.84,13.84,0,0,0-1.46-6.56,10.31,10.31,0,0,0-4.27-4.26,14.78,14.78,0,0,0-7.16-1.52,19.7,19.7,0,0,0-7.88,1.46,16.26,16.26,0,0,0-5.86,4.14,22.13,22.13,0,0,0-4,6.43,36.74,36.74,0,0,0-2.37,8.21c-.42,2.64-.78,4.78-1.08,6.44s-.5,3-.63,3.94-.21,1.75-.26,2.37-.06,1.13-.06,1.65a18.12,18.12,0,0,0,1.4,7.38,10.26,10.26,0,0,0,4.38,4.91,15,15,0,0,0,7.58,1.75,21.83,21.83,0,0,0,9.55-1.91,16.3,16.3,0,0,0,6.43-5.53,22.17,22.17,0,0,0,3.38-8.6h26a48.23,48.23,0,0,1-8,20.24,37.05,37.05,0,0,1-15.76,12.55Q545.18,227.32,531.29,227.3Z"/><path class="cls-3" d="M576.89,225.78l47.64-87.64h32.73l16.3,87.64h-28.9l-1.53-12.36H612.31l-5.86,12.36Zm44.66-32h19.11l-1.65-14c-.18-1.43-.34-2.88-.51-4.32s-.37-2.88-.58-4.27-.4-2.83-.57-4.27-.34-2.88-.52-4.33h-.5q-1.27,2.81-2.63,5.67T631,174c-.88,1.91-1.81,3.84-2.74,5.79Z"/><path class="cls-3" d="M684.27,225.78l15.45-87.64H736.4q19.74,0,30.19,8.22T777,171.65c0,1.78-.06,3.63-.19,5.54a47.31,47.31,0,0,1-.83,6.05q-2.57,14.52-9.24,23.95a40.68,40.68,0,0,1-17.19,14q-10.5,4.59-24.77,4.59Zm31.84-21h9.3a24.45,24.45,0,0,0,8.27-1.28,16.94,16.94,0,0,0,6.13-3.69,19.34,19.34,0,0,0,4.21-6,31.19,31.19,0,0,0,2.41-8c.6-3.23,1-5.66,1.28-7.32s.42-2.89.51-3.69a16.44,16.44,0,0,0,.12-2,15.73,15.73,0,0,0-1.58-7.39,10.53,10.53,0,0,0-4.84-4.65,19.42,19.42,0,0,0-8.47-1.59h-9.32Z"/><path class="cls-3" d="M827.81,227.3q-13.24,0-22.61-4A29.63,29.63,0,0,1,791,211.57q-4.85-7.83-4.84-19.42a51.29,51.29,0,0,1,.31-5.54c.22-1.91.49-3.88.88-5.92q2.55-14.52,9.17-24.33a41.31,41.31,0,0,1,17.71-14.78q11-5,26.95-5,13.38,0,22.77,3.95a29.52,29.52,0,0,1,14.17,11.81q4.83,7.89,4.84,19.75c0,1.7-.08,3.48-.25,5.34s-.43,3.78-.77,5.74q-2.55,14.52-9.36,24.33a42.47,42.47,0,0,1-18,14.77Q843.48,227.3,827.81,227.3Zm2.42-21a22.59,22.59,0,0,0,8.34-1.46,19.68,19.68,0,0,0,6.56-4.14,22.55,22.55,0,0,0,4.65-6.43,30.05,30.05,0,0,0,2.63-8.21c.42-2.47.76-4.48,1-6s.45-2.82.58-3.76.21-1.66.26-2.16.06-1,.06-1.41a17.3,17.3,0,0,0-1.75-8,12.11,12.11,0,0,0-5.16-5.25,18.16,18.16,0,0,0-8.66-1.84,22.89,22.89,0,0,0-8.35,1.46,19.33,19.33,0,0,0-6.5,4.14,23.35,23.35,0,0,0-4.58,6.43,29.76,29.76,0,0,0-2.62,8.22q-.66,3.82-1,6.13c-.25,1.57-.45,2.83-.57,3.75s-.21,1.67-.25,2.18a13.93,13.93,0,0,0-.06,1.4,17.64,17.64,0,0,0,1.65,7.83,11.7,11.7,0,0,0,5.09,5.25,18.22,18.22,0,0,0,8.68,1.88Z"/><path class="cls-3" d="M930,227.3a114,114,0,0,1-16.3-1.08,47.43,47.43,0,0,1-13.06-3.63,20.61,20.61,0,0,1-8.66-7.13A19.93,19.93,0,0,1,888.82,204c0-1.17.06-2.47.19-3.89a23.7,23.7,0,0,1,.7-4h26.62a6.24,6.24,0,0,0-.64,2,14.25,14.25,0,0,0-.12,1.85,6,6,0,0,0,1.65,4.52,9,9,0,0,0,4.58,2.17,35.14,35.14,0,0,0,6.63.57c1.27,0,2.63-.06,4.21-.2a20.3,20.3,0,0,0,4.37-.82,7.94,7.94,0,0,0,3.44-2,4.9,4.9,0,0,0,1.34-3.62,4.09,4.09,0,0,0-1.75-3.38,16.06,16.06,0,0,0-4.84-2.29q-3.06-1-6.88-1.75t-7.88-1.85q-4.47-1.14-8.86-2.73a32.25,32.25,0,0,1-7.88-4.14,19.05,19.05,0,0,1-5.6-6.44A19.64,19.64,0,0,1,896,168.5a28.35,28.35,0,0,1,3.7-14.89,29.19,29.19,0,0,1,9.81-9.8,44.73,44.73,0,0,1,13.63-5.48,67.22,67.22,0,0,1,15.15-1.76,75.78,75.78,0,0,1,14.65,1.34,39.05,39.05,0,0,1,11.71,4.14,22.06,22.06,0,0,1,7.77,7.07,18,18,0,0,1,2.8,10.13,15.64,15.64,0,0,1-.12,2.28c-.12.84-.25,2-.51,3.58H948.17a8.68,8.68,0,0,0,.13-1.34v-.88a6.65,6.65,0,0,0-2.23-5c-1.49-1.41-4-2.11-7.58-2.11a22.51,22.51,0,0,0-7.06,1,10.19,10.19,0,0,0-4.28,2.41,4.52,4.52,0,0,0-1.4,3.12,4.07,4.07,0,0,0,1,2.8,9.7,9.7,0,0,0,2.92,2.11,24.31,24.31,0,0,0,4.53,1.65c1.75.47,3.67.88,5.79,1.34q5,1,10.51,2.48a49,49,0,0,1,10.38,4,22.24,22.24,0,0,1,7.83,6.68,17.45,17.45,0,0,1,3,10.51,29.69,29.69,0,0,1-12.61,25.09,42.25,42.25,0,0,1-13.38,6.31A58.46,58.46,0,0,1,930,227.3Z"/></g></g><path class="cls-3" d="M930.47,33.21h0c-2.32,36.92,25.52,69.16,62.19,72h0a65.62,65.62,0,0,0-70.6,61.7h0c2.32-36.92-25.52-69.15-62.2-72h0a65.62,65.62,0,0,0,70.61-61.7Z"/><path class="cls-2" d="M958.86,41.46h0a34,34,0,0,0,31.32,35.87h0a32.93,32.93,0,0,0-35.67,30.61h0a34,34,0,0,0-31.32-35.87h0a32.94,32.94,0,0,0,35.67-30.61Z"/></g></g></svg>