<svg width="23" height="23" viewBox="0 0 23 23" fill="none" xmlns="http://www.w3.org/2000/svg">
<path d="M11.5 0C5.152 0 0 5.152 0 11.5C0 17.848 5.152 23 11.5 23C17.848 23 23 17.848 23 11.5C23 5.152 17.848 0 11.5 0ZM11.5 20.7C6.4285 20.7 2.3 16.5715 2.3 11.5C2.3 6.4285 6.4285 2.3 11.5 2.3C16.5715 2.3 20.7 6.4285 20.7 11.5C20.7 16.5715 16.5715 20.7 11.5 20.7Z" fill="#313131"/>
<path d="M11.667 5C12.1544 5.00002 12.4794 5.32516 12.4795 5.8125V6.71973C13.8767 7.04181 14.917 8.16737 14.917 9.46875C14.917 9.57683 14.9143 9.66874 14.9072 9.75195C14.9124 9.79077 14.917 9.83147 14.917 9.875C14.917 10.1187 14.8353 10.2809 14.6729 10.4434C14.5104 10.6058 14.3482 10.6875 14.1045 10.6875C13.8608 10.6875 13.6976 10.6059 13.5352 10.4434C13.5334 10.4416 13.532 10.4393 13.5303 10.4375C13.3045 10.2409 13.1779 9.91601 13.292 9.63086V9.3877C13.292 8.819 12.5606 8.25006 11.667 8.25C10.7733 8.25 10.042 8.81878 10.042 9.46875V9.71289C10.2047 10.2814 10.8547 10.6875 11.667 10.6875C11.8356 10.6875 11.9844 10.7268 12.1074 10.7979C13.4528 10.9629 14.5424 11.8699 14.8359 13.0439C14.9168 13.1253 14.917 13.2879 14.917 13.5312C14.917 14.8326 13.8766 15.9571 12.4795 16.2793V17.1875C12.4794 17.6748 12.1544 18 11.667 18C11.1796 18 10.8546 17.6748 10.8545 17.1875V16.2793C9.45724 15.9572 8.41701 14.8326 8.41699 13.5312C8.41699 13.2877 8.417 13.1252 8.49805 12.9629C8.57929 12.5567 9.0674 12.2311 9.47363 12.3936C9.87969 12.475 10.2044 12.963 10.042 13.3691V13.6123C10.042 14.1814 10.6024 14.6883 11.3418 14.8057C11.439 14.7694 11.5481 14.75 11.667 14.75C11.7855 14.75 11.8942 14.7696 11.9912 14.8057C12.7309 14.6885 13.292 14.1816 13.292 13.6123V13.3691C13.1295 12.8004 12.4794 12.3936 11.667 12.3936C11.4976 12.3936 11.348 12.3539 11.2246 12.2822C9.88002 12.1166 8.79144 11.2107 8.49805 10.0371C8.41699 9.87474 8.41699 9.7123 8.41699 9.46875C8.417 8.16728 9.45712 7.04173 10.8545 6.71973V5.8125C10.8546 5.32515 11.1796 5 11.667 5Z" fill="#313131"/>
</svg>
