<svg width="17" height="17" viewBox="0 0 17 17" fill="none" xmlns="http://www.w3.org/2000/svg">
<path d="M16.994 4.94848C16.9981 4.89473 16.9981 4.84075 16.994 4.787L15.2946 0.53752C15.2283 0.369543 15.1101 0.227084 14.9573 0.130807C14.8045 0.0345301 14.6251 -0.0105573 14.4449 0.00208513H2.5491C2.37893 0.00192035 2.21262 0.0528704 2.07173 0.148336C1.93084 0.243801 1.82185 0.379383 1.75888 0.53752L0.059479 4.787C0.0553832 4.84075 0.0553832 4.89473 0.059479 4.94848C0.0312442 4.99579 0.0111392 5.0475 0 5.10146C0.00945767 5.68894 0.170982 6.26395 0.468818 6.77038C0.766655 7.27682 1.19063 7.6974 1.6994 7.99111V16.1501C1.6994 16.3755 1.78893 16.5917 1.94828 16.7511C2.10762 16.9105 2.32375 17 2.5491 17H14.4449C14.6703 17 14.8864 16.9105 15.0458 16.7511C15.2051 16.5917 15.2946 16.3755 15.2946 16.1501V8.0251C15.8083 7.72847 16.2354 7.30254 16.5336 6.78964C16.8317 6.27674 16.9905 5.69473 16.994 5.10146C17.002 5.05078 17.002 4.99916 16.994 4.94848ZM9.34672 15.3002H7.64731V11.9006H9.34672V15.3002ZM13.5952 15.3002H11.0461V11.0507C11.0461 10.8253 10.9566 10.6092 10.7972 10.4498C10.6379 10.2904 10.4218 10.2008 10.1964 10.2008H6.79761C6.57226 10.2008 6.35613 10.2904 6.19678 10.4498C6.03743 10.6092 5.94791 10.8253 5.94791 11.0507V15.3002H3.39881V8.50104C3.88268 8.49831 4.3604 8.39227 4.80001 8.19C5.23961 7.98774 5.63097 7.69392 5.94791 7.32819C6.26686 7.68993 6.65912 7.97964 7.09862 8.17808C7.53812 8.37653 8.01481 8.47916 8.49702 8.47916C8.97922 8.47916 9.45591 8.37653 9.89541 8.17808C10.3349 7.97964 10.7272 7.68993 11.0461 7.32819C11.3631 7.69392 11.7544 7.98774 12.194 8.19C12.6336 8.39227 13.1113 8.49831 13.5952 8.50104V15.3002ZM13.5952 6.80125C13.1445 6.80125 12.7123 6.62217 12.3936 6.30339C12.0749 5.98462 11.8958 5.55227 11.8958 5.10146C11.8958 4.87605 11.8063 4.65988 11.6469 4.50049C11.4876 4.34111 11.2715 4.25156 11.0461 4.25156C10.8208 4.25156 10.6046 4.34111 10.4453 4.50049C10.2859 4.65988 10.1964 4.87605 10.1964 5.10146C10.1964 5.55227 10.0174 5.98462 9.69867 6.30339C9.37997 6.62217 8.94772 6.80125 8.49702 6.80125C8.04631 6.80125 7.61406 6.62217 7.29536 6.30339C6.97666 5.98462 6.79761 5.55227 6.79761 5.10146C6.79761 4.87605 6.70809 4.65988 6.54874 4.50049C6.38939 4.34111 6.17327 4.25156 5.94791 4.25156C5.72256 4.25156 5.50643 4.34111 5.34708 4.50049C5.18773 4.65988 5.09821 4.87605 5.09821 5.10146C5.10658 5.32468 5.07091 5.54736 4.99324 5.75679C4.91557 5.96623 4.79741 6.1583 4.64553 6.32206C4.49364 6.48582 4.31099 6.61806 4.10802 6.71121C3.90504 6.80437 3.6857 6.85662 3.46253 6.86499C3.01182 6.8819 2.57286 6.71903 2.24221 6.41221C2.07849 6.26029 1.94628 6.0776 1.85315 5.87457C1.76002 5.67155 1.70777 5.45216 1.6994 5.22894L3.1269 1.70188H13.8671L15.2946 5.22894C15.2624 5.65731 15.0693 6.05758 14.754 6.34928C14.4387 6.64098 14.0247 6.80246 13.5952 6.80125Z" fill="#313131"/>
</svg>
