<svg width="214" height="149" viewBox="0 0 214 149" fill="none" xmlns="http://www.w3.org/2000/svg">
<path d="M39.8042 42.3057V39.3298C39.8042 37.2669 40.6158 35.2717 42.1038 33.7837L73.6217 2.26577C75.0759 0.811621 77.0373 0 79.134 0H123.773C127.02 0 129.657 2.63777 129.657 5.88425V10.3482C129.657 13.5946 127.02 16.2324 123.773 16.2324H85.8299C83.767 16.2324 81.7718 17.044 80.2838 18.532L59.6551 39.1607C58.742 40.0738 58.742 41.5956 59.6551 42.5425L80.2838 63.1711C81.7379 64.6253 83.7332 65.4707 85.8299 65.4707H123.773C127.02 65.4707 129.657 68.1085 129.657 71.355V75.7513C129.657 78.9977 127.02 81.6355 123.773 81.6355H79.134C77.0711 81.6355 75.0759 80.8239 73.5879 79.3359L42.07 47.818C40.6158 46.3638 39.8042 44.3686 39.8042 42.3057Z" fill="#545454"/>
<path d="M173.282 75.0074V72.0314C173.282 69.9686 172.47 67.9733 170.982 66.4854L139.464 34.9674C138.01 33.5133 136.015 32.6678 133.918 32.6678H89.2793C86.0328 32.6678 83.395 35.3056 83.395 38.5521V43.016C83.395 46.2625 86.0328 48.9003 89.2793 48.9003H127.223C129.285 48.9003 131.281 49.7119 132.769 51.1999L153.397 71.8285C154.31 72.7416 154.31 74.2634 153.397 75.2103L132.769 95.839C131.314 97.2931 129.319 98.1386 127.223 98.1386H89.3131C86.0666 98.1386 83.4288 100.776 83.4288 104.023V108.487C83.4288 111.733 86.0666 114.371 89.3131 114.371H133.952C136.015 114.371 138.01 113.559 139.498 112.071L171.016 80.5535C172.47 79.0655 173.282 77.1041 173.282 75.0074Z" fill="#0998D5"/>
<path d="M127.46 124.618C129.354 124.618 131.112 125.497 132.837 127.222C134.054 128.811 134.697 130.367 134.697 131.956V132.531C134.697 133.004 134.629 133.579 134.46 134.323C136.05 135 137.301 136.251 138.18 138.009C138.687 139.159 138.924 140.241 138.924 141.29C138.924 144.164 137.504 146.497 134.629 148.188C133.513 148.696 132.363 148.966 131.18 148.966H107.812C107.744 148.966 107.71 148.932 107.71 148.865V124.753C107.71 124.685 107.744 124.651 107.812 124.651H127.46V124.618ZM114.001 133.613H126.614C127.798 133.613 128.373 133.14 128.373 132.226C128.204 131.381 127.764 130.941 127.054 130.941H113.967V133.613H114.001ZM114.001 142.608H130.842C131.721 142.608 132.262 142.338 132.431 141.797C132.499 141.695 132.533 141.526 132.533 141.357V141.29C132.533 140.546 132.161 140.106 131.349 139.937H114.001V142.608Z" fill="#0998D5"/>
<path d="M28.6773 124.618C28.7449 124.618 28.7787 124.651 28.7787 124.719V130.84C28.7787 130.908 28.7449 130.941 28.6773 130.941H7.60894C6.89878 130.941 6.49297 131.381 6.29006 132.26C6.29006 133.173 6.89878 133.613 8.15003 133.613H23.8752C26.1071 133.613 28.1024 134.729 29.8947 136.927C30.774 138.314 31.2474 139.802 31.2474 141.357C31.2474 143.691 30.1991 145.754 28.17 147.444C26.7497 148.493 25.1941 149 23.4694 149H3.0774C3.00976 149 2.97594 148.966 2.97594 148.899V142.778C3.00976 142.71 3.04358 142.676 3.0774 142.676H23.165C24.0104 142.676 24.5515 142.439 24.7544 141.898C24.8221 141.729 24.8559 141.56 24.9235 141.357C24.7544 140.444 24.3486 140.005 23.6385 140.005H7.9133C4.53155 140.005 2.09669 138.381 0.541081 135.202C0.202905 134.289 0 133.275 0 132.226C0 129.792 1.04834 127.763 3.17885 126.072C4.56537 125.125 5.95189 124.651 7.3384 124.651H28.6773V124.618Z" fill="#545454"/>
<path d="M56.9161 129.048C56.9161 129.115 60.8051 135.135 68.4817 147.14C69.2256 148.222 69.5638 148.797 69.5638 148.865H62.1916C61.921 148.594 61.1094 147.377 59.7567 145.179H39.9397C39.8382 145.212 39.128 146.328 37.8092 148.425C37.6063 148.729 37.5048 148.899 37.4372 148.899H30.1326L30.0649 148.865C40.1426 133.004 45.3166 124.956 45.4857 124.685H53.9739C54.0754 124.685 55.0223 126.139 56.9161 129.048ZM55.631 138.821C52.3507 133.714 50.6598 131.111 50.5922 131.043H48.9351C48.8337 131.111 47.1766 133.748 43.9301 138.821H55.631Z" fill="#545454"/>
<path d="M79.7772 124.652C79.8449 124.685 79.8787 124.719 79.8787 124.753V142.541H103.619C103.686 142.541 103.72 142.575 103.72 142.609V148.764C103.72 148.797 103.686 148.831 103.619 148.831H73.6224C73.5548 148.831 73.521 148.797 73.521 148.764V124.753C73.521 124.685 73.5548 124.652 73.6224 124.652H79.7772Z" fill="#545454"/>
<path d="M169.731 126.207C172.402 127.661 174.262 129.86 175.412 132.869C175.784 134.222 176.021 135.439 176.021 136.555V136.995C176.021 140.275 174.702 143.15 172.098 145.686C169.663 147.85 166.992 148.865 164.016 148.865H151.706C147.716 148.865 144.368 147.106 141.662 143.522C140.276 141.324 139.633 139.092 139.633 136.792C139.633 132.835 141.392 129.521 144.909 126.782C146.938 125.396 149.542 124.652 152.687 124.652H162.663C165.842 124.652 168.209 125.193 169.731 126.207ZM146.025 136.826C146.025 138.584 146.769 140.106 148.257 141.357C149.17 142.135 150.59 142.541 152.484 142.541H163.17C165.233 142.541 166.789 142.034 167.803 141.053C169.088 139.87 169.697 138.382 169.697 136.691C169.697 134.898 168.852 133.309 167.161 132.024C166.146 131.381 165.132 131.009 164.05 131.009H151.706C149.44 131.009 147.716 132.159 146.498 134.459C146.194 135.236 146.025 135.947 146.025 136.657V136.826Z" fill="#0998D5"/>
<path d="M182.583 124.652C182.786 124.652 185.762 126.579 191.578 130.401L195.805 133.005C203.922 127.898 208.352 125.125 209.096 124.652H212.985C213.052 124.685 213.052 124.719 213.052 124.753V148.764C213.052 148.797 213.052 148.831 212.985 148.831H206.864C206.796 148.831 206.762 148.797 206.762 148.764V133.613C205.815 134.222 202.129 136.488 195.839 140.512C195.535 140.343 191.916 138.043 185.018 133.613V148.764C185.018 148.797 184.984 148.831 184.95 148.831H178.795C178.761 148.831 178.728 148.797 178.728 148.764V124.753C178.728 124.685 178.761 124.652 178.795 124.652H182.583Z" fill="#0998D5"/>
</svg>
