<svg xmlns="http://www.w3.org/2000/svg" viewBox="0 0 89.05 46.06"><defs><style>.cls-1{fill:#fff;}</style></defs><g id="Capa_2" data-name="Capa 2"><g id="FONDO"><path class="cls-1" d="M33.53,0A16.81,16.81,0,0,0,21.14,5.09a17.41,17.41,0,0,0-4.81,12.38,15.43,15.43,0,0,0,1.19,6.17H10.19L0,46.06H68.13L89.05,0Zm2.28,36.49a18.78,18.78,0,0,1-3.61,1.58,13.78,13.78,0,0,1-2.8.43q-1.89.15-4.53.15H11.24l3.12-6.86h10.3a18.25,18.25,0,0,0,3.55-.26,5.26,5.26,0,0,0,2.09-.83,5.67,5.67,0,0,0,1.64-1.76,4,4,0,0,0,.58-2c0-1.08-.88-1.89-2.63-2.45l-.93-.3a9,9,0,0,1-4.15-2.58,6.79,6.79,0,0,1-1.23-4.28,9.81,9.81,0,0,1,2.68-7.12,9.21,9.21,0,0,1,6.93-2.77H49.12L46,14.27H35.13a3.41,3.41,0,0,0-2.11.59,1.88,1.88,0,0,0-.78,1.58c0,1,1.16,1.72,3.47,2.29l1.08.28a6.6,6.6,0,0,1,3.86,2.6A8,8,0,0,1,42,26.41a10.73,10.73,0,0,1-.9,4.23,11.33,11.33,0,0,1-2.4,3.62A16.47,16.47,0,0,1,35.81,36.49Zm27.81,2.16h-9l5.83-12.78H55.72L49.9,38.65h-9L55.05,7.41h9L58.84,19h4.74l5.24-11.6h9Z"/></g></g></svg>