<svg width="103" height="36" viewBox="0 0 103 36" fill="none" xmlns="http://www.w3.org/2000/svg">
<path d="M103 17.3401L103 18.6601C103 19.56 102.637 20.46 101.972 21.12L88.0094 34.98C87.3445 35.64 86.4982 36 85.5311 36L3.78464e-06 35.9999C3.36452e-05 23.9999 -2.33485e-05 12 6.51228e-06 7.62939e-06L85.5311 0.000126032C86.4378 0.000125953 87.3445 0.360119 88.0094 1.02011L102.033 14.9401C102.637 15.5401 103 16.4401 103 17.3401Z" fill="#242424"/>
<g clip-path="url(#clip0_975_1119)">
<path d="M56.6143 27.5197V24.7808H57.2626C57.8221 24.7808 58.0797 25.0036 58.0797 25.5886C58.0797 26.1735 57.8221 26.3963 57.2626 26.3963H57.0672V27.5197H56.6143ZM57.0672 26.0064H57.2448C57.5379 26.0064 57.6267 25.9135 57.6267 25.5886C57.6267 25.2636 57.5379 25.1708 57.2448 25.1708H57.0672V26.0064Z" fill="#FCE03A"/>
<path d="M58.4258 25.4493C58.4258 25.0594 58.6478 24.7437 59.1185 24.7437C59.5892 24.7437 59.8113 25.0594 59.8113 25.4493V26.8606C59.8113 27.2505 59.5892 27.5662 59.1185 27.5662C58.6478 27.5662 58.4258 27.2505 58.4258 26.8606V25.4493ZM58.8787 26.842C58.8787 27.0462 58.9409 27.1484 59.1185 27.1484C59.2962 27.1484 59.3583 27.0462 59.3583 26.842V25.4493C59.3583 25.2451 59.2962 25.1429 59.1185 25.1429C58.9409 25.1429 58.8787 25.2451 58.8787 25.4493V26.842Z" fill="#FCE03A"/>
<path d="M61.028 24.7809H61.401L61.703 26.5264H61.7119L61.9606 24.7809H62.378L61.9161 27.5198H61.5431L61.2145 25.7093H61.2056L60.9037 27.5198H60.5218L60.0244 24.7809H60.4418L60.7172 26.5264H60.726L61.028 24.7809Z" fill="#FCE03A"/>
<path d="M62.6621 27.5198V24.7809H63.87V25.1894H63.1151V25.895H63.6923V26.3035H63.1151V27.1113H63.9233V27.5198H62.6621Z" fill="#FCE03A"/>
<path d="M64.7322 27.5198H64.2793V24.7809H64.9099C65.4161 24.7809 65.6737 25.0037 65.6737 25.5886C65.6737 26.025 65.5138 26.2107 65.3539 26.2757L65.7358 27.5198H65.274L64.9543 26.3871C64.8921 26.3964 64.8033 26.3964 64.7234 26.3964V27.5198H64.7322ZM64.7322 26.0064H64.8921C65.1319 26.0064 65.2296 25.9136 65.2296 25.5886C65.2296 25.2637 65.1408 25.1708 64.8921 25.1708H64.7322V26.0064Z" fill="#FCE03A"/>
<path d="M67.7164 27.5198H67.2634V26.3778L66.7217 24.7809H67.1746L67.4944 25.8207H67.5032L67.8052 24.7809H68.267L67.7253 26.3778V27.5198H67.7164Z" fill="#FCE03A"/>
<path d="M68.5156 25.4493C68.5156 25.0594 68.7377 24.7437 69.2084 24.7437C69.6791 24.7437 69.9011 25.0594 69.9011 25.4493V26.8606C69.9011 27.2505 69.6791 27.5662 69.2084 27.5662C68.7377 27.5662 68.5156 27.2505 68.5156 26.8606V25.4493ZM68.9597 26.842C68.9597 27.0462 69.0219 27.1484 69.1995 27.1484C69.3771 27.1484 69.4393 27.0462 69.4393 26.842V25.4493C69.4393 25.2451 69.3771 25.1429 69.1995 25.1429C69.0219 25.1429 68.9597 25.2451 68.9597 25.4493V26.842Z" fill="#FCE03A"/>
<path d="M70.3271 24.7808H70.7801V26.8512C70.7801 27.0555 70.86 27.1483 71.0199 27.1483C71.1798 27.1483 71.2597 27.0462 71.2597 26.8512V24.7808H71.7126V26.8327C71.7126 27.3062 71.4462 27.5569 71.0199 27.5569C70.5936 27.5569 70.3271 27.2969 70.3271 26.8327V24.7808Z" fill="#FCE03A"/>
<path d="M72.5916 27.5197H72.1387V24.7808H72.7692C73.2755 24.7808 73.533 25.0036 73.533 25.5886C73.533 26.0249 73.3732 26.2106 73.2133 26.2756L73.5952 27.5197H73.1334L72.8137 26.387C72.7515 26.3963 72.6627 26.3963 72.5827 26.3963V27.5197H72.5916ZM72.5916 26.0064H72.7515C72.9913 26.0064 73.0801 25.9135 73.0801 25.5886C73.0801 25.2636 72.9913 25.1708 72.7515 25.1708H72.5916V26.0064Z" fill="#FCE03A"/>
<path d="M74.7588 27.5197V24.7808H75.1762L75.7269 26.3499H75.7357V24.7808H76.1443V27.5197H75.7535L75.1762 25.8114H75.1673V27.5197H74.7588Z" fill="#FCE03A"/>
<path d="M76.5791 27.5198V24.7809H77.787V25.1894H77.0232V25.895H77.6005V26.3035H77.0232V27.1113H77.8314V27.5198H76.5791Z" fill="#FCE03A"/>
<path d="M78.1875 27.5198V24.7809H79.3954V25.1894H78.6405V25.895H79.2177V26.3035H78.6405V27.1113H79.4487V27.5198H78.1875Z" fill="#FCE03A"/>
<path d="M79.8037 24.7809H80.4698C80.9316 24.7809 81.1803 25.0501 81.1803 25.6072V26.6935C81.1803 27.2598 80.9316 27.5198 80.4698 27.5198H79.8037V24.7809ZM80.2478 27.1298H80.4076C80.6474 27.1298 80.7274 27.037 80.7274 26.7492V25.5515C80.7274 25.2637 80.6474 25.1708 80.4076 25.1708H80.2478V27.1298Z" fill="#FCE03A"/>
<path d="M82.4325 25.4586C82.4148 25.2265 82.2904 25.1522 82.1927 25.1522C82.0506 25.1522 81.9707 25.2544 81.9707 25.4215C81.9707 25.8857 82.8855 26.1085 82.8855 26.8513C82.8855 27.3062 82.5924 27.5569 82.175 27.5569C81.7576 27.5569 81.5178 27.2041 81.5 26.7956L81.9263 26.7306C81.9441 27.0091 82.0506 27.1484 82.1927 27.1484C82.3526 27.1484 82.4503 27.0648 82.4503 26.8977C82.4503 26.3592 81.5355 26.2107 81.5355 25.4215C81.5355 24.9851 81.7931 24.7437 82.2283 24.7437C82.5924 24.7437 82.8144 25.0222 82.85 25.4029L82.4325 25.4586Z" fill="#FCE03A"/>
<path d="M20.9203 10.0001L19.7302 12.7018H17.1991C16.8616 12.7018 16.5951 12.7761 16.3997 12.9339C16.2043 13.0918 16.1066 13.296 16.1066 13.556C16.1066 13.9367 16.5418 14.2338 17.4122 14.4566C17.5898 14.503 17.7319 14.5401 17.8207 14.568C18.4424 14.7351 18.9309 15.0786 19.2773 15.5893C19.6237 16.0999 19.8013 16.7313 19.8013 17.474C19.8013 18.0311 19.6858 18.5881 19.4638 19.1452C19.2418 19.7023 18.9398 20.1758 18.5579 20.575C18.2026 20.9278 17.8385 21.2156 17.4566 21.457C17.0747 21.6891 16.6218 21.9027 16.0978 22.0791C15.8757 22.1534 15.5205 22.2091 15.0409 22.2462C14.5613 22.2833 13.9929 22.3019 13.3357 22.3019H8.19336L9.3657 19.6001H13.2557C13.8241 19.6001 14.2682 19.563 14.5968 19.498C14.9165 19.433 15.183 19.3216 15.3873 19.1731C15.6537 18.9688 15.858 18.7367 16.0089 18.4767C16.1511 18.2168 16.231 17.9475 16.231 17.6783C16.231 17.2512 15.9024 16.9355 15.2363 16.7127C15.0942 16.6663 14.9787 16.6291 14.8899 16.592C14.1616 16.3227 13.6376 15.9885 13.3268 15.5707C13.0159 15.1622 12.865 14.5958 12.865 13.8902C12.865 12.7482 13.2024 11.8198 13.8774 11.0863C14.5258 10.3622 15.3961 10.0001 16.4619 10.0001H20.9203Z" fill="white"/>
<path d="M33.2834 10.0001L27.9368 22.3112H24.553L26.7467 17.279H24.9616L22.759 22.3112H19.3574L24.704 10.0001H28.1056L26.1339 14.568H27.919L29.8907 10.0001H33.2834Z" fill="white"/>
<path d="M38.9669 10.0001L33.6203 22.3112H30.2188L35.5653 10.0001H38.9669Z" fill="white"/>
<path d="M39.0737 14.568H42.4752L39.127 22.3019H35.7432L39.0737 14.568ZM49.2339 12.7018H39.9085L41.0631 10.0001H52.3335C52.8575 10.0001 53.2661 10.1208 53.568 10.3622C53.87 10.6035 54.0121 10.9378 54.0121 11.3649C54.0121 11.467 53.9943 11.5877 53.9588 11.7177C53.9233 11.8477 53.8789 11.9869 53.8078 12.1355L49.3849 22.3112H45.9834L49.8023 13.5281C49.8112 13.5003 49.829 13.4631 49.8379 13.4167C49.8468 13.3703 49.8556 13.3332 49.8556 13.296C49.8556 13.1289 49.7935 12.9989 49.678 12.8782C49.5625 12.7575 49.4116 12.7018 49.2339 12.7018ZM44.2426 14.568H47.5909L44.2515 22.3019H40.9032L44.2426 14.568Z" fill="white"/>
<path d="M65.0072 10.0001L60.4422 20.51C60.1491 21.1878 59.7849 21.652 59.3497 21.912C58.9146 22.1719 58.2307 22.3019 57.2982 22.3019H53.4881C52.9729 22.3019 52.5644 22.1812 52.2624 21.9398C51.9605 21.6984 51.8184 21.3735 51.8184 20.9649C51.8184 20.8443 51.8361 20.7143 51.8628 20.5843C51.8983 20.4543 51.9427 20.315 52.0049 20.1758L56.4278 10.0001H59.8293L56.0636 18.6903C56.037 18.746 56.0104 18.811 56.0015 18.876C55.9837 18.9409 55.9837 19.0059 55.9837 19.0802C55.9837 19.2473 56.0459 19.3773 56.1702 19.4702C56.2946 19.563 56.4811 19.6001 56.712 19.6001C56.9518 19.6001 57.1561 19.5351 57.3426 19.4052C57.5202 19.2752 57.6712 19.0802 57.7866 18.8202L61.6145 10.0001L65.0072 10.0001Z" fill="white"/>
<path d="M68.9156 18.0032C68.9334 17.9661 68.9423 17.9289 68.9512 17.8825C68.96 17.8361 68.96 17.799 68.96 17.7525C68.96 17.5947 68.8979 17.4554 68.7824 17.344C68.667 17.2326 68.516 17.1769 68.3295 17.1769H67.4768L65.2121 22.3019H61.8105L65.1499 14.6515H70.4077L70.8873 13.4817C70.9051 13.4353 70.9139 13.3982 70.9228 13.3517C70.9317 13.3053 70.9317 13.2589 70.9317 13.2125C70.9317 13.0546 70.8784 12.9246 70.7629 12.8225C70.6475 12.7204 70.4965 12.6647 70.3189 12.6647H66.0114L67.166 10.0001H73.3385C73.8625 10.0001 74.2711 10.1208 74.5642 10.3622C74.8573 10.6035 75.0082 10.9378 75.0082 11.3649C75.0082 11.4763 74.9905 11.597 74.9638 11.7177C74.9283 11.8477 74.8839 11.9776 74.8217 12.1262L73.0188 16.3042C72.8589 16.657 72.6636 16.9077 72.4326 17.0469C72.2017 17.1955 71.882 17.2698 71.4646 17.2698H71.3491C71.5534 17.3997 71.7044 17.5669 71.8109 17.7433C71.9086 17.9289 71.9619 18.1332 71.9619 18.3653C71.9619 18.4767 71.9442 18.5974 71.9086 18.7367C71.8731 18.876 71.8198 19.0152 71.7577 19.1545L70.3899 22.3019H67.0772L68.9156 18.0032Z" fill="white"/>
<path d="M78.5341 10.0001H84.1293C84.5379 10.0001 84.8576 10.1115 85.0885 10.3343C85.3194 10.5571 85.4437 10.8635 85.4437 11.2535C85.4437 11.3556 85.4349 11.4577 85.426 11.5413C85.4171 11.6341 85.3993 11.7177 85.3727 11.8012L82.4507 22.2926H71.2158L77.3528 14.5587H80.861L77.2019 19.5909H79.733L81.6159 13.3424C81.6159 13.3332 81.6159 13.3239 81.6248 13.3146C81.6425 13.231 81.6514 13.166 81.6514 13.1103C81.6514 12.9896 81.607 12.8875 81.5182 12.8132C81.4294 12.739 81.3139 12.7018 81.1718 12.7018H77.3884L78.5341 10.0001Z" fill="white"/>
<path d="M55.469 26.6841H8.45996L8.61983 25.8021H55.6377L55.469 26.6841Z" fill="url(#paint0_linear_975_1119)"/>
</g>
<defs>
<linearGradient id="paint0_linear_975_1119" x1="6.57342" y1="26.2401" x2="52.8121" y2="26.2401" gradientUnits="userSpaceOnUse">
<stop stop-opacity="0"/>
<stop offset="0.0576727" stop-color="#221E08" stop-opacity="0.0576727"/>
<stop offset="0.1557" stop-color="#544B13" stop-opacity="0.1557"/>
<stop offset="0.2584" stop-color="#81731E" stop-opacity="0.2584"/>
<stop offset="0.3639" stop-color="#A79426" stop-opacity="0.3639"/>
<stop offset="0.4729" stop-color="#C6B02E" stop-opacity="0.4729"/>
<stop offset="0.5864" stop-color="#DEC533" stop-opacity="0.5864"/>
<stop offset="0.7064" stop-color="#EFD437" stop-opacity="0.7064"/>
<stop offset="0.8375" stop-color="#F9DD39" stop-opacity="0.8375"/>
<stop offset="1" stop-color="#FCE03A"/>
</linearGradient>
<clipPath id="clip0_975_1119">
<rect width="77.25" height="17.5568" fill="white" transform="translate(8.19336 10.0001)"/>
</clipPath>
</defs>
</svg>
