<svg width="88" height="29" viewBox="0 0 88 29" fill="none" xmlns="http://www.w3.org/2000/svg">
<path d="M88 13.7442L88 14.7716C88 15.472 87.7183 16.1725 87.2019 16.6862L76.3568 27.4736C75.8404 27.9873 75.1831 28.2674 74.4319 28.2674L2.93953e-06 28.2674C2.61305e-05 18.9277 -1.81381e-05 9.58802 5.05301e-06 0.248299L74.4319 0.248298C75.1361 0.248298 75.8404 0.528485 76.3568 1.04217L87.2488 11.8762C87.7183 12.3432 88 13.0437 88 13.7442Z" fill="#242424"/>
<g clip-path="url(#clip0_891_155)">
<path d="M48.3691 21.9683V19.6283H48.9231C49.4011 19.6283 49.6212 19.8187 49.6212 20.3184C49.6212 20.8181 49.4011 21.0085 48.9231 21.0085H48.7561V21.9683H48.3691ZM48.7561 20.6754H48.9079C49.1583 20.6754 49.2342 20.596 49.2342 20.3184C49.2342 20.0408 49.1583 19.9615 48.9079 19.9615H48.7561V20.6754Z" fill="#FCE03A"/>
<path d="M49.917 20.1994C49.917 19.8663 50.1067 19.5966 50.5089 19.5966C50.911 19.5966 51.1007 19.8663 51.1007 20.1994V21.4051C51.1007 21.7383 50.911 22.008 50.5089 22.008C50.1067 22.008 49.917 21.7383 49.917 21.4051V20.1994ZM50.304 21.3893C50.304 21.5638 50.3571 21.651 50.5089 21.651C50.6606 21.651 50.7137 21.5638 50.7137 21.3893V20.1994C50.7137 20.0249 50.6606 19.9376 50.5089 19.9376C50.3571 19.9376 50.304 20.0249 50.304 20.1994V21.3893Z" fill="#FCE03A"/>
<path d="M52.1406 19.6283H52.4593L52.7173 21.1196H52.7249L52.9374 19.6283H53.294L52.8994 21.9683H52.5807L52.3 20.4215H52.2924L52.0344 21.9683H51.7081L51.2832 19.6283H51.6398L51.8751 21.1196H51.8827L52.1406 19.6283Z" fill="#FCE03A"/>
<path d="M53.5361 21.9683V19.6283H54.5681V19.9773H53.9231V20.5802H54.4163V20.9292H53.9231V21.6193H54.6136V21.9683H53.5361Z" fill="#FCE03A"/>
<path d="M55.305 21.9683H54.918V19.6283H55.4567C55.8892 19.6283 56.1093 19.8187 56.1093 20.3184C56.1093 20.6912 55.9727 20.8499 55.8361 20.9054L56.1624 21.9683H55.7678L55.4947 21.0006C55.4415 21.0085 55.3657 21.0085 55.2974 21.0085V21.9683H55.305ZM55.305 20.6754H55.4415C55.6464 20.6754 55.7299 20.596 55.7299 20.3184C55.7299 20.0408 55.654 19.9615 55.4415 19.9615H55.305V20.6754Z" fill="#FCE03A"/>
<path d="M57.8538 21.9683H57.4668V20.9927L57.0039 19.6283H57.3909L57.6641 20.5167H57.6716L57.9296 19.6283H58.3242L57.8613 20.9927V21.9683H57.8538Z" fill="#FCE03A"/>
<path d="M58.5371 20.1994C58.5371 19.8663 58.7268 19.5966 59.129 19.5966C59.5311 19.5966 59.7208 19.8663 59.7208 20.1994V21.4051C59.7208 21.7383 59.5311 22.008 59.129 22.008C58.7268 22.008 58.5371 21.7383 58.5371 21.4051V20.1994ZM58.9165 21.3893C58.9165 21.5638 58.9696 21.651 59.1214 21.651C59.2731 21.651 59.3263 21.5638 59.3263 21.3893V20.1994C59.3263 20.0249 59.2731 19.9376 59.1214 19.9376C58.9696 19.9376 58.9165 20.0249 58.9165 20.1994V21.3893Z" fill="#FCE03A"/>
<path d="M60.085 19.6283H60.4719V21.3972C60.4719 21.5717 60.5402 21.651 60.6768 21.651C60.8134 21.651 60.8817 21.5638 60.8817 21.3972V19.6283H61.2687V21.3813C61.2687 21.7859 61.041 22.0001 60.6768 22.0001C60.3126 22.0001 60.085 21.778 60.085 21.3813V19.6283Z" fill="#FCE03A"/>
<path d="M62.0198 21.9683H61.6328V19.6283H62.1716C62.6041 19.6283 62.8241 19.8187 62.8241 20.3184C62.8241 20.6912 62.6875 20.8499 62.551 20.9054L62.8772 21.9683H62.4827L62.2095 21.0006C62.1564 21.0085 62.0805 21.0085 62.0122 21.0085V21.9683H62.0198ZM62.0198 20.6754H62.1564C62.3613 20.6754 62.4371 20.596 62.4371 20.3184C62.4371 20.0408 62.3613 19.9615 62.1564 19.9615H62.0198V20.6754Z" fill="#FCE03A"/>
<path d="M63.8711 21.9683V19.6283H64.2277L64.6982 20.9689H64.7058V19.6283H65.0548V21.9683H64.7209L64.2277 20.5088H64.2201V21.9683H63.8711Z" fill="#FCE03A"/>
<path d="M65.4268 21.9683V19.6283H66.4587V19.9773H65.8062V20.5802H66.2994V20.9292H65.8062V21.6193H66.4967V21.9683H65.4268Z" fill="#FCE03A"/>
<path d="M66.7998 21.9683V19.6283H67.8318V19.9773H67.1868V20.5802H67.68V20.9292H67.1868V21.6193H67.8773V21.9683H66.7998Z" fill="#FCE03A"/>
<path d="M68.1816 19.6283H68.7507C69.1453 19.6283 69.3578 19.8583 69.3578 20.3343V21.2624C69.3578 21.7462 69.1453 21.9683 68.7507 21.9683H68.1816V19.6283ZM68.561 21.6352H68.6976C68.9025 21.6352 68.9708 21.5558 68.9708 21.3099V20.2867C68.9708 20.0408 68.9025 19.9615 68.6976 19.9615H68.561V21.6352Z" fill="#FCE03A"/>
<path d="M70.4276 20.2073C70.4124 20.009 70.3062 19.9456 70.2227 19.9456C70.1013 19.9456 70.033 20.0328 70.033 20.1756C70.033 20.5722 70.8146 20.7626 70.8146 21.3972C70.8146 21.7859 70.5642 22 70.2075 22C69.8509 22 69.646 21.6986 69.6309 21.3496L69.9951 21.2941C70.0103 21.532 70.1013 21.651 70.2227 21.651C70.3593 21.651 70.4428 21.5796 70.4428 21.4369C70.4428 20.9768 69.6612 20.8499 69.6612 20.1756C69.6612 19.8028 69.8813 19.5966 70.2531 19.5966C70.5642 19.5966 70.7539 19.8345 70.7842 20.1598L70.4276 20.2073Z" fill="#FCE03A"/>
<path d="M17.8735 7L16.8567 9.3083H14.6942C14.4058 9.3083 14.1782 9.37176 14.0113 9.50661C13.8443 9.64146 13.7609 9.81597 13.7609 10.0381C13.7609 10.3633 14.1327 10.6171 14.8763 10.8075C15.0281 10.8472 15.1495 10.8789 15.2253 10.9027C15.7565 11.0455 16.1738 11.339 16.4698 11.7753C16.7657 12.2115 16.9175 12.7509 16.9175 13.3855C16.9175 13.8614 16.8188 14.3374 16.6291 14.8133C16.4394 15.2893 16.1814 15.6938 15.8551 16.0349C15.5516 16.3363 15.2405 16.5822 14.9142 16.7885C14.588 16.9868 14.201 17.1692 13.7533 17.3199C13.5636 17.3834 13.2601 17.431 12.8503 17.4627C12.4406 17.4944 11.9549 17.5103 11.3934 17.5103H7L8.00161 15.202H11.3251C11.8108 15.202 12.1902 15.1703 12.4709 15.1148C12.7441 15.0592 12.9717 14.964 13.1462 14.8371C13.3739 14.6626 13.5484 14.4643 13.6774 14.2422C13.7988 14.0201 13.8671 13.7901 13.8671 13.56C13.8671 13.1951 13.5863 12.9254 13.0172 12.7351C12.8958 12.6954 12.7972 12.6637 12.7213 12.6319C12.0991 12.4019 11.6514 12.1163 11.3858 11.7594C11.1203 11.4104 10.9913 10.9265 10.9913 10.3236C10.9913 9.34796 11.2796 8.55473 11.8563 7.92808C12.4102 7.30936 13.1538 7 14.0644 7H17.8735Z" fill="white"/>
<path d="M28.436 7L23.868 17.5182H20.977L22.8513 13.2189H21.3261L19.4443 17.5182H16.5381L21.106 7H24.0122L22.3277 10.9027H23.8529L25.5374 7H28.436Z" fill="white"/>
<path d="M33.2925 7L28.7245 17.5182H25.8184L30.3863 7H33.2925Z" fill="white"/>
<path d="M33.3836 10.9027H36.2898L33.4291 17.5103H30.5381L33.3836 10.9027ZM42.0642 9.3083H34.0968L35.0833 7H44.7124C45.1601 7 45.5091 7.10312 45.7671 7.30936C46.0251 7.5156 46.1465 7.80116 46.1465 8.16605C46.1465 8.25331 46.1313 8.35643 46.101 8.46748C46.0706 8.57853 46.0327 8.69751 45.972 8.82443L42.1932 17.5182H39.287L42.5498 10.0143C42.5574 9.99048 42.5726 9.95875 42.5802 9.91909C42.5878 9.87943 42.5953 9.8477 42.5953 9.81597C42.5953 9.67319 42.5422 9.56214 42.4436 9.45902C42.3449 9.3559 42.2159 9.3083 42.0642 9.3083ZM37.7998 10.9027H40.6604L37.8073 17.5103H34.9467L37.7998 10.9027Z" fill="white"/>
<path d="M55.5406 7L51.6404 15.9794C51.39 16.5584 51.0789 16.955 50.707 17.1772C50.3352 17.3993 49.751 17.5103 48.9542 17.5103H45.699C45.2589 17.5103 44.9098 17.4072 44.6519 17.201C44.3939 16.9947 44.2725 16.7171 44.2725 16.3681C44.2725 16.2649 44.2876 16.1539 44.3104 16.0428C44.3408 15.9318 44.3787 15.8128 44.4318 15.6938L48.2106 7H51.1168L47.8995 14.4246C47.8767 14.4722 47.854 14.5278 47.8464 14.5833C47.8312 14.6388 47.8312 14.6943 47.8312 14.7578C47.8312 14.9006 47.8843 15.0116 47.9906 15.091C48.0968 15.1703 48.2561 15.202 48.4534 15.202C48.6583 15.202 48.8328 15.1465 48.9922 15.0354C49.1439 14.9244 49.2729 14.7578 49.3716 14.5357L52.642 7L55.5406 7Z" fill="white"/>
<path d="M58.879 13.8377C58.8941 13.8059 58.9017 13.7742 58.9093 13.7345C58.9169 13.6949 58.9169 13.6631 58.9169 13.6235C58.9169 13.4886 58.8638 13.3696 58.7651 13.2745C58.6665 13.1793 58.5375 13.1317 58.3781 13.1317H57.6497L55.7148 17.5103H52.8086L55.6617 10.9741H60.1537L60.5635 9.97462C60.5787 9.93495 60.5862 9.90323 60.5938 9.86356C60.6014 9.8239 60.6014 9.78424 60.6014 9.74458C60.6014 9.60973 60.5559 9.49868 60.4572 9.41142C60.3586 9.32417 60.2296 9.27657 60.0779 9.27657H56.3977L57.3841 7H62.6578C63.1054 7 63.4545 7.10312 63.7049 7.30936C63.9553 7.5156 64.0843 7.80116 64.0843 8.16605C64.0843 8.26124 64.0691 8.36436 64.0463 8.46748C64.016 8.57853 63.9781 8.68958 63.9249 8.8165L62.3846 12.386C62.248 12.6875 62.0811 12.9016 61.8838 13.0206C61.6865 13.1475 61.4133 13.211 61.0567 13.211H60.9581C61.1326 13.3221 61.2616 13.4648 61.3526 13.6155C61.4361 13.7742 61.4816 13.9487 61.4816 14.147C61.4816 14.2422 61.4664 14.3453 61.4361 14.4643C61.4057 14.5833 61.3602 14.7023 61.3071 14.8213L60.1386 17.5103H57.3082L58.879 13.8377Z" fill="white"/>
<path d="M67.0962 7H71.8766C72.2257 7 72.4988 7.09519 72.6961 7.28556C72.8934 7.47594 72.9996 7.7377 72.9996 8.07086C72.9996 8.15812 72.9921 8.24537 72.9845 8.31676C72.9769 8.39609 72.9617 8.46748 72.9389 8.53887L70.4425 17.5024H60.8438L66.087 10.8948H69.0843L65.958 15.1941H68.1206L69.7292 9.85563C69.7292 9.8477 69.7292 9.83977 69.7368 9.83184C69.752 9.76044 69.7596 9.70492 69.7596 9.65732C69.7596 9.5542 69.7217 9.46695 69.6458 9.40349C69.5699 9.34003 69.4713 9.3083 69.3498 9.3083H66.1174L67.0962 7Z" fill="white"/>
<path d="M47.3906 21.2543H7.22754L7.36412 20.5007H47.5347L47.3906 21.2543Z" fill="url(#paint0_linear_891_155)"/>
</g>
<defs>
<linearGradient id="paint0_linear_891_155" x1="5.61574" y1="20.8749" x2="45.1207" y2="20.8749" gradientUnits="userSpaceOnUse">
<stop stop-opacity="0"/>
<stop offset="0.0576727" stop-color="#221E08" stop-opacity="0.0576727"/>
<stop offset="0.1557" stop-color="#544B13" stop-opacity="0.1557"/>
<stop offset="0.2584" stop-color="#81731E" stop-opacity="0.2584"/>
<stop offset="0.3639" stop-color="#A79426" stop-opacity="0.3639"/>
<stop offset="0.4729" stop-color="#C6B02E" stop-opacity="0.4729"/>
<stop offset="0.5864" stop-color="#DEC533" stop-opacity="0.5864"/>
<stop offset="0.7064" stop-color="#EFD437" stop-opacity="0.7064"/>
<stop offset="0.8375" stop-color="#F9DD39" stop-opacity="0.8375"/>
<stop offset="1" stop-color="#FCE03A"/>
</linearGradient>
<clipPath id="clip0_891_155">
<rect width="66" height="15" fill="white" transform="translate(7 7)"/>
</clipPath>
</defs>
</svg>
