<svg width="161" height="36" viewBox="0 0 161 36" fill="none" xmlns="http://www.w3.org/2000/svg">
<path d="M100.916 35.3576V29.83H102.267C103.433 29.83 103.97 30.2797 103.97 31.4602C103.97 32.6406 103.433 33.0903 102.267 33.0903H101.86V35.3576H100.916ZM101.86 32.3034H102.23C102.841 32.3034 103.026 32.116 103.026 31.4602C103.026 30.8044 102.841 30.617 102.23 30.617H101.86V32.3034Z" fill="#FFEC00"/>
<path d="M104.692 31.1791C104.692 30.3921 105.155 29.7551 106.136 29.7551C107.117 29.7551 107.579 30.3921 107.579 31.1791V34.0272C107.579 34.8142 107.117 35.4512 106.136 35.4512C105.155 35.4512 104.692 34.8142 104.692 34.0272V31.1791ZM105.636 33.9897C105.636 34.4019 105.765 34.6081 106.136 34.6081C106.506 34.6081 106.635 34.4019 106.635 33.9897V31.1791C106.635 30.7669 106.506 30.5608 106.136 30.5608C105.765 30.5608 105.636 30.7669 105.636 31.1791V33.9897Z" fill="#FFEC00"/>
<path d="M110.116 29.83H110.893L111.523 33.3526H111.541L112.06 29.83H112.93L111.967 35.3576H111.19L110.505 31.7038H110.486L109.857 35.3576H109.061L108.024 29.83H108.894L109.468 33.3526H109.487L110.116 29.83Z" fill="#FFEC00"/>
<path d="M113.522 35.3576V29.83H116.039V30.6545H114.466V32.0785H115.669V32.903H114.466V34.5331H116.15V35.3576H113.522Z" fill="#FFEC00"/>
<path d="M117.834 35.3576H116.89V29.83H118.204C119.259 29.83 119.796 30.2797 119.796 31.4602C119.796 32.3408 119.463 32.7156 119.13 32.8467L119.926 35.3576H118.963L118.297 33.0716C118.167 33.0903 117.982 33.0903 117.816 33.0903V35.3576H117.834ZM117.834 32.3034H118.167C118.667 32.3034 118.871 32.116 118.871 31.4602C118.871 30.8044 118.686 30.617 118.167 30.617H117.834V32.3034Z" fill="#FFEC00"/>
<path d="M124.054 35.3576H123.11V33.0528L121.98 29.83H122.924L123.591 31.9286H123.609L124.239 29.83H125.201L124.072 33.0528V35.3576H124.054Z" fill="#FFEC00"/>
<path d="M125.72 31.1791C125.72 30.3921 126.182 29.7551 127.164 29.7551C128.145 29.7551 128.607 30.3921 128.607 31.1791V34.0272C128.607 34.8142 128.145 35.4512 127.164 35.4512C126.182 35.4512 125.72 34.8142 125.72 34.0272V31.1791ZM126.645 33.9897C126.645 34.4019 126.775 34.6081 127.145 34.6081C127.515 34.6081 127.645 34.4019 127.645 33.9897V31.1791C127.645 30.7669 127.515 30.5608 127.145 30.5608C126.775 30.5608 126.645 30.7669 126.645 31.1791V33.9897Z" fill="#FFEC00"/>
<path d="M129.496 29.83H130.44V34.0085C130.44 34.4207 130.607 34.6081 130.94 34.6081C131.273 34.6081 131.44 34.4019 131.44 34.0085V29.83H132.384V33.971C132.384 34.9266 131.828 35.4325 130.94 35.4325C130.051 35.4325 129.496 34.9079 129.496 33.971V29.83Z" fill="#FFEC00"/>
<path d="M134.215 35.3576H133.271V29.83H134.586C135.641 29.83 136.178 30.2797 136.178 31.4602C136.178 32.3408 135.844 32.7156 135.511 32.8467L136.307 35.3576H135.345L134.678 33.0716C134.549 33.0903 134.364 33.0903 134.197 33.0903V35.3576H134.215ZM134.215 32.3034H134.549C135.048 32.3034 135.234 32.116 135.234 31.4602C135.234 30.8044 135.048 30.617 134.549 30.617H134.215V32.3034Z" fill="#FFEC00"/>
<path d="M138.731 35.3576V29.83H139.601L140.749 32.9966H140.768V29.83H141.619V35.3576H140.805L139.601 31.9099H139.583V35.3576H138.731Z" fill="#FFEC00"/>
<path d="M142.527 35.3576V29.83H145.044V30.6545H143.452V32.0785H144.656V32.903H143.452V34.5331H145.137V35.3576H142.527Z" fill="#FFEC00"/>
<path d="M145.877 35.3576V29.83H148.395V30.6545H146.821V32.0785H148.025V32.903H146.821V34.5331H148.506V35.3576H145.877Z" fill="#FFEC00"/>
<path d="M149.246 29.83H150.634C151.597 29.83 152.115 30.3734 152.115 31.4976V33.6899C152.115 34.8329 151.597 35.3576 150.634 35.3576H149.246V29.83ZM150.172 34.5706H150.505C151.005 34.5706 151.171 34.3832 151.171 33.8023V31.3852C151.171 30.8044 151.005 30.617 150.505 30.617H150.172V34.5706Z" fill="#FFEC00"/>
<path d="M154.725 31.1978C154.688 30.7294 154.429 30.5795 154.225 30.5795C153.929 30.5795 153.762 30.7856 153.762 31.1229C153.762 32.0598 155.669 32.5095 155.669 34.0085C155.669 34.9266 155.058 35.4325 154.188 35.4325C153.318 35.4325 152.818 34.7205 152.781 33.896L153.67 33.7649C153.707 34.327 153.929 34.6081 154.225 34.6081C154.558 34.6081 154.762 34.4394 154.762 34.1021C154.762 33.0154 152.855 32.7156 152.855 31.1229C152.855 30.2422 153.392 29.7551 154.299 29.7551C155.058 29.7551 155.521 30.3172 155.595 31.0854L154.725 31.1978Z" fill="#FFEC00"/>
<path d="M26.5249 0L24.0445 5.45259H18.7692C18.0658 5.45259 17.5105 5.60249 17.1033 5.92103C16.6961 6.23957 16.4924 6.65179 16.4924 7.17644C16.4924 7.94467 17.3994 8.54427 19.2134 8.99397C19.5836 9.08766 19.8798 9.16261 20.0649 9.21882C21.3606 9.55609 22.3786 10.2494 23.1005 11.2799C23.8224 12.3105 24.1926 13.5846 24.1926 15.0836C24.1926 16.2079 23.952 17.3321 23.4892 18.4564C23.0265 19.5806 22.3971 20.5362 21.6012 21.3419C20.8608 22.054 20.1019 22.6348 19.306 23.122C18.51 23.5904 17.566 24.0214 16.4739 24.3774C16.0112 24.5273 15.2708 24.6397 14.2712 24.7147C13.2717 24.7896 12.0871 24.8271 10.7173 24.8271H0L2.44332 19.3745H10.5507C11.7354 19.3745 12.6609 19.2996 13.3457 19.1684C14.0121 19.0372 14.5674 18.8124 14.9931 18.5126C15.5484 18.1004 15.9742 17.6319 16.2888 17.1073C16.585 16.5826 16.7516 16.0392 16.7516 15.4959C16.7516 14.6339 16.0667 13.9969 14.6785 13.5472C14.3823 13.4535 14.1417 13.3785 13.9566 13.3036C12.4387 12.7602 11.3467 12.0856 10.6988 11.2425C10.0509 10.418 9.73628 9.27503 9.73628 7.85099C9.73628 5.54628 10.4397 3.67254 11.8464 2.19228C13.1977 0.73076 15.0116 0 17.2328 0L26.5249 0Z" fill="white"/>
<path d="M52.2908 0L41.1478 24.8458H34.0955L38.6674 14.6901H34.9469L30.3564 24.8458H23.2671L34.4101 0L41.4995 0L37.3902 9.21882H41.1108L45.22 0L52.2908 0Z" fill="white"/>
<path d="M64.1372 0L52.9941 24.8458H45.9048L57.0478 0L64.1372 0Z" fill="white"/>
<path d="M64.3597 9.21882H71.4491L64.4708 24.8271H57.4185L64.3597 9.21882ZM85.5352 5.45259H66.0997L68.506 0L91.9952 0C93.0873 0 93.9387 0.243587 94.5681 0.73076C95.1974 1.21793 95.4936 1.89248 95.4936 2.7544C95.4936 2.96051 95.4566 3.2041 95.3825 3.46643C95.3085 3.72875 95.2159 4.00981 95.0679 4.30961L85.8499 24.8458H78.7605L86.7198 7.12023C86.7383 7.06401 86.7754 6.98906 86.7939 6.89538C86.8124 6.80169 86.8309 6.72674 86.8309 6.65179C86.8309 6.31452 86.7013 6.05219 86.4607 5.80861C86.2201 5.56502 85.9054 5.45259 85.5352 5.45259ZM75.1326 9.21882H82.1108L75.1511 24.8271H68.1728L75.1326 9.21882Z" fill="white"/>
<path d="M118.409 0L108.895 21.2108C108.284 22.5786 107.525 23.5155 106.618 24.0401C105.711 24.5648 104.286 24.8271 102.342 24.8271H94.4013C93.3277 24.8271 92.4762 24.5835 91.8469 24.0963C91.2175 23.6092 90.9214 22.9534 90.9214 22.1289C90.9214 21.8853 90.9584 21.623 91.0139 21.3607C91.088 21.0984 91.1805 20.8173 91.3101 20.5362L100.528 0L107.617 0L99.7692 17.5382C99.7136 17.6507 99.6581 17.7818 99.6396 17.913C99.6026 18.0441 99.6026 18.1753 99.6026 18.3252C99.6026 18.6625 99.7322 18.9248 99.9913 19.1122C100.25 19.2996 100.639 19.3745 101.12 19.3745C101.62 19.3745 102.046 19.2433 102.435 18.981C102.805 18.7187 103.12 18.3252 103.36 17.8006L111.338 0L118.409 0Z" fill="white"/>
<path d="M126.554 16.1517C126.591 16.0767 126.609 16.0018 126.628 15.9081C126.646 15.8144 126.646 15.7394 126.646 15.6458C126.646 15.3272 126.517 15.0462 126.276 14.8213C126.035 14.5965 125.721 14.484 125.332 14.484H123.555L118.835 24.8271H111.746L118.705 9.38745H129.663L130.663 7.02654C130.7 6.93285 130.718 6.8579 130.737 6.76421C130.755 6.67053 130.755 6.57684 130.755 6.48315C130.755 6.16462 130.644 5.90229 130.404 5.69618C130.163 5.49007 129.848 5.37764 129.478 5.37764H120.501L122.907 0L135.772 0C136.864 0 137.715 0.243587 138.326 0.73076C138.937 1.21793 139.252 1.89248 139.252 2.7544C139.252 2.97925 139.214 3.22284 139.159 3.46643C139.085 3.72875 138.992 3.99107 138.863 4.29087L135.105 12.7227C134.772 13.4347 134.365 13.9407 133.884 14.2217C133.402 14.5215 132.736 14.6714 131.866 14.6714H131.625C132.051 14.9337 132.366 15.271 132.588 15.627C132.792 16.0018 132.903 16.414 132.903 16.8824C132.903 17.1073 132.866 17.3509 132.792 17.6319C132.717 17.913 132.606 18.194 132.477 18.4751L129.626 24.8271H122.722L126.554 16.1517Z" fill="white"/>
<path d="M146.599 0L158.26 0C159.112 0 159.778 0.224849 160.259 0.674548C160.741 1.12425 161 1.74258 161 2.52955C161 2.73567 160.981 2.94178 160.963 3.11041C160.944 3.29779 160.907 3.46643 160.852 3.63506L154.762 24.8084H131.347L144.137 9.20008H151.449L143.822 19.3558H149.098L153.022 6.74548C153.022 6.72674 153.022 6.708 153.04 6.68926C153.077 6.52063 153.096 6.38947 153.096 6.27704C153.096 6.03345 153.003 5.82734 152.818 5.67744C152.633 5.52754 152.393 5.45259 152.096 5.45259H144.211L146.599 0Z" fill="white"/>
<path d="M98.8623 31.8911H0.888672V33.6712H98.8623V31.8911Z" fill="url(#paint0_linear_433_955)"/>
<defs>
<linearGradient id="paint0_linear_433_955" x1="-3.01754" y1="32.775" x2="93.0125" y2="32.775" gradientUnits="userSpaceOnUse">
<stop stop-opacity="0"/>
<stop offset="0.0622099" stop-color="#242200" stop-opacity="0.0622099"/>
<stop offset="0.1597" stop-color="#575100" stop-opacity="0.1597"/>
<stop offset="0.262" stop-color="#847A00" stop-opacity="0.262"/>
<stop offset="0.367" stop-color="#AA9D00" stop-opacity="0.367"/>
<stop offset="0.4755" stop-color="#C9BA00" stop-opacity="0.4755"/>
<stop offset="0.5884" stop-color="#E1D000" stop-opacity="0.5884"/>
<stop offset="0.7079" stop-color="#F2E000" stop-opacity="0.7079"/>
<stop offset="0.8383" stop-color="#FCE900" stop-opacity="0.8383"/>
<stop offset="1" stop-color="#FFEC00"/>
</linearGradient>
</defs>
</svg>
