<svg width="23" height="23" viewBox="0 0 23 23" fill="none" xmlns="http://www.w3.org/2000/svg">
<circle cx="11.2944" cy="11.6151" r="10.7973" fill="#1C9BD8"/>
<path d="M10.4534 17.2708C10.2992 17.2708 10.1731 17.2214 10.075 17.1226C9.97684 17.0096 9.92778 16.8825 9.92778 16.7413V12.8649H6.18532C6.03114 12.8649 5.89798 12.8154 5.78585 12.7166C5.68773 12.6177 5.63867 12.4906 5.63867 12.3353V10.789C5.63867 10.6336 5.68773 10.5065 5.78585 10.4077C5.89798 10.2947 6.03114 10.2382 6.18532 10.2382H9.92778V6.48891C9.92778 6.33358 9.97684 6.20648 10.075 6.10763C10.1731 6.00878 10.2992 5.95935 10.4534 5.95935H12.1775C12.3176 5.95935 12.4368 6.00878 12.5349 6.10763C12.647 6.20648 12.7031 6.33358 12.7031 6.48891V10.2382H16.4245C16.5787 10.2382 16.7049 10.2947 16.803 10.4077C16.9011 10.5065 16.9502 10.6336 16.9502 10.789V12.3353C16.9502 12.4906 16.9011 12.6177 16.803 12.7166C16.7049 12.8154 16.5787 12.8649 16.4245 12.8649H12.7031V16.7413C12.7031 16.8825 12.647 17.0096 12.5349 17.1226C12.4368 17.2214 12.3176 17.2708 12.1775 17.2708H10.4534Z" fill="white"/>
</svg>
