<svg width="62" height="62" viewBox="0 0 62 62" fill="none" xmlns="http://www.w3.org/2000/svg">
<path d="M61.269 31.2024C61.269 48.0574 47.6053 61.7212 30.7502 61.7212C13.8952 61.7212 0.231445 48.0574 0.231445 31.2024C0.231445 14.3473 13.8952 0.683594 30.7502 0.683594C47.6053 0.683594 61.269 14.3473 61.269 31.2024Z" fill="#1C9BD8"/>
<path d="M31.0473 18.5522C31.7033 18.5849 32.3261 18.8591 32.7928 19.3257C33.2908 19.8236 33.5701 20.4998 33.5701 21.204V28.9878H41.3549C42.0591 28.9878 42.7343 29.2681 43.2323 29.7661C43.7302 30.2641 44.0106 30.9392 44.0106 31.6435C44.0106 32.3477 43.7302 33.0229 43.2323 33.5208C42.7343 34.0188 42.0591 34.2991 41.3549 34.2991H33.5701V42.0829C33.5701 42.7872 33.2908 43.4633 32.7928 43.9613C32.2949 44.459 31.6194 44.7385 30.9154 44.7386C30.2112 44.7386 29.5351 44.4592 29.0371 43.9613C28.5391 43.4633 28.2598 42.7872 28.2598 42.0829V34.2991H20.476C19.7717 34.2991 19.0956 34.0188 18.5976 33.5208C18.131 33.0541 17.8568 32.4314 17.8242 31.7753L17.8203 31.6435C17.8203 30.9394 18.0999 30.264 18.5976 29.7661C19.0956 29.2681 19.7717 28.9878 20.476 28.9878H28.2598V21.204C28.2598 20.4998 28.5391 19.8236 29.0371 19.3257C29.5351 18.8277 30.2112 18.5483 30.9154 18.5483L31.0473 18.5522ZM30.9154 43.5746C30.9626 43.5745 31.0094 43.5712 31.056 43.5668C31.0094 43.5712 30.9626 43.5746 30.9154 43.5746ZM31.088 43.5629C31.1231 43.5588 31.158 43.554 31.1926 43.5474C31.158 43.554 31.1231 43.5588 31.088 43.5629ZM31.2343 43.5377C31.2685 43.5302 31.3025 43.5224 31.3361 43.5125C31.3025 43.5224 31.2685 43.5302 31.2343 43.5377ZM31.3642 43.5038C31.3949 43.4941 31.4253 43.4835 31.4553 43.4718C31.4253 43.4835 31.3949 43.4941 31.3642 43.5038ZM31.5134 43.4476C31.5434 43.4345 31.5726 43.42 31.6016 43.4049C31.5726 43.42 31.5434 43.4345 31.5134 43.4476ZM31.621 43.3953C31.657 43.3759 31.6923 43.3555 31.7267 43.3332C31.6923 43.3555 31.657 43.3759 31.621 43.3953ZM31.8604 43.2363C31.8242 43.266 31.7866 43.2936 31.748 43.3197C31.7865 43.2938 31.8244 43.2668 31.8604 43.2373L31.9699 43.1374L31.8604 43.2363ZM41.3549 33.1351L41.4838 33.1293C41.4877 33.1289 41.4915 33.1277 41.4954 33.1273C41.4489 33.1317 41.402 33.1351 41.3549 33.1351ZM41.5284 33.1225C41.5625 33.1185 41.5965 33.1143 41.6302 33.108C41.5965 33.1143 41.5625 33.1185 41.5284 33.1225ZM41.6786 33.0973C41.7109 33.0901 41.7429 33.0824 41.7746 33.0731C41.7429 33.0824 41.7109 33.0901 41.6786 33.0973ZM41.8036 33.0643C41.8344 33.0546 41.8647 33.044 41.8948 33.0324C41.8647 33.044 41.8344 33.0546 41.8036 33.0643ZM41.9529 33.0081C41.9766 32.9977 41.9995 32.9858 42.0227 32.9742C41.9995 32.9858 41.9766 32.9977 41.9529 33.0081ZM42.0692 32.95C42.102 32.9321 42.1347 32.9141 42.1661 32.8938C42.1347 32.9141 42.102 32.9321 42.0692 32.95ZM42.1875 32.8792C42.2259 32.8533 42.2639 32.8264 42.2999 32.7968C42.2638 32.8264 42.2259 32.8533 42.1875 32.8792ZM18.9911 31.5C18.9865 31.5475 18.9843 31.5954 18.9843 31.6435C18.9843 31.6929 18.9863 31.7421 18.9911 31.7908C18.9863 31.7421 18.9843 31.6929 18.9843 31.6435C18.9843 31.5954 18.9865 31.5475 18.9911 31.5ZM42.8339 31.4661C42.8299 31.4323 42.8257 31.3986 42.8194 31.3653C42.8257 31.3986 42.8299 31.4323 42.8339 31.4661ZM19.0444 31.2267C19.0355 31.2575 19.0272 31.2884 19.0202 31.3197C19.0272 31.2884 19.0355 31.2575 19.0444 31.2267ZM42.8097 31.3197C42.8027 31.2884 42.7944 31.2575 42.7855 31.2267C42.7944 31.2575 42.8027 31.2884 42.8097 31.3197ZM19.0881 31.0978C19.0765 31.1271 19.0667 31.157 19.057 31.187C19.0667 31.157 19.0765 31.1271 19.0881 31.0978ZM42.7729 31.187C42.7638 31.1589 42.7545 31.1311 42.7438 31.1036C42.7545 31.1311 42.7638 31.1589 42.7729 31.187ZM19.1443 30.9718C19.1309 30.9983 19.1182 31.025 19.1065 31.0522C19.1182 31.025 19.1309 30.9983 19.1443 30.9718ZM42.7186 31.0435C42.709 31.0217 42.6992 31 42.6885 30.9786C42.6992 31 42.709 31.0217 42.7186 31.0435ZM19.2228 30.8351C19.2031 30.8656 19.1839 30.8964 19.1666 30.9282C19.1839 30.8964 19.2031 30.8656 19.2228 30.8351ZM42.6614 30.9272C42.6455 30.8982 42.6288 30.8698 42.611 30.8419C42.6288 30.8698 42.6455 30.8983 42.6614 30.9272ZM19.3216 30.6985C19.2921 30.7345 19.2641 30.7716 19.2383 30.8099C19.2641 30.7716 19.2921 30.7345 19.3216 30.6985ZM42.5907 30.8099C42.5649 30.7717 42.5377 30.7343 42.5083 30.6985C42.5377 30.7343 42.5649 30.7717 42.5907 30.8099ZM29.4306 21.0606C29.426 21.108 29.4238 21.1559 29.4238 21.204C29.4238 21.156 29.426 21.108 29.4306 21.0606ZM32.3945 21.0295C32.3904 20.9954 32.3863 20.9614 32.3799 20.9278C32.3863 20.9614 32.3904 20.9954 32.3945 21.0295ZM29.4839 20.7872C29.475 20.818 29.4666 20.8489 29.4597 20.8803C29.4666 20.8489 29.4749 20.818 29.4839 20.7872ZM32.3644 20.8609C32.36 20.8421 32.356 20.8233 32.3509 20.8047C32.356 20.8233 32.36 20.8421 32.3644 20.8609ZM29.5265 20.6622C29.5156 20.6903 29.5057 20.7188 29.4965 20.7475C29.5057 20.7188 29.5156 20.6903 29.5265 20.6622ZM32.3276 20.732C32.3195 20.7076 32.3118 20.6832 32.3024 20.6593C32.3118 20.6832 32.3195 20.7076 32.3276 20.732ZM32.2849 20.6167C32.2717 20.5858 32.2576 20.5554 32.2423 20.5255C32.2576 20.5554 32.2717 20.5858 32.2849 20.6167ZM29.5808 20.5401C29.57 20.5618 29.5595 20.5837 29.5498 20.606C29.5595 20.5837 29.57 20.5618 29.5808 20.5401ZM32.2229 20.4887C32.2069 20.4594 32.1896 20.4307 32.1715 20.4025C32.1896 20.4307 32.2069 20.4594 32.2229 20.4887ZM29.6622 20.3957C29.6428 20.4258 29.6242 20.4564 29.607 20.4877C29.6242 20.4564 29.6428 20.4258 29.6622 20.3957ZM29.7611 20.259C29.7314 20.2952 29.7037 20.3328 29.6777 20.3714C29.7037 20.3328 29.7314 20.2952 29.7611 20.259ZM32.1512 20.3705C32.1254 20.3322 32.0982 20.2949 32.0688 20.259C32.0982 20.2949 32.1254 20.3322 32.1512 20.3705ZM19.0105 31.3653C19.0046 31.3964 19.0009 31.4278 18.9969 31.4593C19.0009 31.4278 19.0046 31.3964 19.0105 31.3653ZM42.8465 31.6435C42.8465 31.5957 42.8433 31.5482 42.8388 31.501C42.8433 31.5481 42.8465 31.5957 42.8465 31.6435ZM29.45 20.9258C29.4441 20.9569 29.4403 20.9884 29.4364 21.0198C29.4403 20.9884 29.4441 20.9569 29.45 20.9258ZM32.4071 21.204C32.4071 21.1562 32.4038 21.1087 32.3993 21.0615C32.4038 21.1086 32.4071 21.1563 32.4071 21.204Z" fill="#313131"/>
</svg>
