<svg width="132" height="19" viewBox="0 0 132 19" fill="none" xmlns="http://www.w3.org/2000/svg">
<path d="M131.377 9.14891C131.377 8.66359 131.176 8.19891 130.827 7.85815L123.321 0.536956C122.973 0.196196 122.497 0 122 0H0V19H122.011C122.507 19 122.983 18.8038 123.332 18.463L130.827 11.1315C131.176 10.7908 131.377 10.3261 131.377 9.84076V9.14891Z" fill="#1C9BD8"/>
<path d="M16.232 3.8C16.2853 3.8 16.328 3.82133 16.36 3.864C16.4027 3.896 16.424 3.93867 16.424 3.992V5.88C16.424 5.93333 16.4027 5.98133 16.36 6.024C16.328 6.056 16.2853 6.072 16.232 6.072H14.248C14.1947 6.072 14.168 6.09867 14.168 6.152V14.808C14.168 14.8613 14.1467 14.9093 14.104 14.952C14.072 14.984 14.0293 15 13.976 15H11.704C11.6507 15 11.6027 14.984 11.56 14.952C11.528 14.9093 11.512 14.8613 11.512 14.808V6.152C11.512 6.09867 11.4853 6.072 11.432 6.072H9.528C9.47467 6.072 9.42667 6.056 9.384 6.024C9.352 5.98133 9.336 5.93333 9.336 5.88V3.992C9.336 3.93867 9.352 3.896 9.384 3.864C9.42667 3.82133 9.47467 3.8 9.528 3.8H16.232ZM20.3553 15.128C19.3206 15.128 18.4939 14.8293 17.8753 14.232C17.2673 13.6347 16.9633 12.8293 16.9633 11.816V6.984C16.9633 5.98133 17.2673 5.18133 17.8753 4.584C18.4939 3.976 19.3206 3.672 20.3553 3.672C21.3793 3.672 22.2006 3.976 22.8193 4.584C23.4486 5.18133 23.7633 5.98133 23.7633 6.984V11.816C23.7633 12.8293 23.4486 13.6347 22.8193 14.232C22.2006 14.8293 21.3793 15.128 20.3553 15.128ZM20.3553 12.856C20.5899 12.856 20.7713 12.776 20.8993 12.616C21.0379 12.4453 21.1073 12.216 21.1073 11.928V6.872C21.1073 6.584 21.0379 6.36 20.8993 6.2C20.7713 6.02933 20.5899 5.944 20.3553 5.944C20.1206 5.944 19.9393 6.02933 19.8113 6.2C19.6833 6.36 19.6193 6.584 19.6193 6.872V11.928C19.6193 12.216 19.6833 12.4453 19.8113 12.616C19.9393 12.776 20.1206 12.856 20.3553 12.856ZM31.4195 3.8C31.4728 3.8 31.5155 3.82133 31.5475 3.864C31.5902 3.896 31.6115 3.93867 31.6115 3.992V5.88C31.6115 5.93333 31.5902 5.98133 31.5475 6.024C31.5155 6.056 31.4728 6.072 31.4195 6.072H29.4355C29.3822 6.072 29.3555 6.09867 29.3555 6.152V14.808C29.3555 14.8613 29.3342 14.9093 29.2915 14.952C29.2595 14.984 29.2168 15 29.1635 15H26.8915C26.8382 15 26.7902 14.984 26.7475 14.952C26.7155 14.9093 26.6995 14.8613 26.6995 14.808V6.152C26.6995 6.09867 26.6728 6.072 26.6195 6.072H24.7155C24.6622 6.072 24.6142 6.056 24.5715 6.024C24.5395 5.98133 24.5235 5.93333 24.5235 5.88V3.992C24.5235 3.93867 24.5395 3.896 24.5715 3.864C24.6142 3.82133 24.6622 3.8 24.7155 3.8H31.4195ZM36.3455 15C36.2175 15 36.1482 14.9413 36.1375 14.824L35.9295 13.432C35.9295 13.3787 35.8975 13.352 35.8335 13.352H34.1055C34.0415 13.352 34.0095 13.3787 34.0095 13.432L33.8175 14.824C33.8068 14.9413 33.7375 15 33.6095 15H31.3375C31.1988 15 31.1455 14.9307 31.1775 14.792L33.4975 3.976C33.5188 3.85867 33.5882 3.8 33.7055 3.8H36.3135C36.4308 3.8 36.5002 3.85867 36.5215 3.976L38.8255 14.792L38.8415 14.856C38.8415 14.952 38.7828 15 38.6655 15H36.3455ZM34.3615 11.224C34.3615 11.2773 34.3828 11.304 34.4255 11.304H35.4975C35.5402 11.304 35.5615 11.2773 35.5615 11.224L34.9855 7.576C34.9748 7.53333 34.9588 7.512 34.9375 7.512C34.9162 7.512 34.9002 7.53333 34.8895 7.576L34.3615 11.224ZM39.8145 15C39.7612 15 39.7132 14.984 39.6705 14.952C39.6385 14.9093 39.6225 14.8613 39.6225 14.808V3.992C39.6225 3.93867 39.6385 3.896 39.6705 3.864C39.7132 3.82133 39.7612 3.8 39.8145 3.8H42.0865C42.1398 3.8 42.1825 3.82133 42.2145 3.864C42.2572 3.896 42.2785 3.93867 42.2785 3.992V12.648C42.2785 12.7013 42.3052 12.728 42.3585 12.728H45.6225C45.6758 12.728 45.7185 12.7493 45.7505 12.792C45.7932 12.824 45.8145 12.8667 45.8145 12.92V14.808C45.8145 14.8613 45.7932 14.9093 45.7505 14.952C45.7185 14.984 45.6758 15 45.6225 15H39.8145ZM55.954 5.88C55.954 5.93333 55.9327 5.98133 55.89 6.024C55.858 6.056 55.8153 6.072 55.762 6.072H52.546C52.4927 6.072 52.466 6.09867 52.466 6.152V8.168C52.466 8.22133 52.4927 8.248 52.546 8.248H54.306C54.3593 8.248 54.402 8.26933 54.434 8.312C54.4767 8.344 54.498 8.38667 54.498 8.44V10.344C54.498 10.3973 54.4767 10.4453 54.434 10.488C54.402 10.52 54.3593 10.536 54.306 10.536H52.546C52.4927 10.536 52.466 10.5627 52.466 10.616V14.808C52.466 14.8613 52.4447 14.9093 52.402 14.952C52.37 14.984 52.3273 15 52.274 15H50.002C49.9487 15 49.9007 14.984 49.858 14.952C49.826 14.9093 49.81 14.8613 49.81 14.808V3.992C49.81 3.93867 49.826 3.896 49.858 3.864C49.9007 3.82133 49.9487 3.8 50.002 3.8H55.762C55.8153 3.8 55.858 3.82133 55.89 3.864C55.9327 3.896 55.954 3.93867 55.954 3.992V5.88ZM60.7674 15C60.6394 15 60.57 14.9413 60.5594 14.824L60.3514 13.432C60.3514 13.3787 60.3194 13.352 60.2554 13.352H58.5274C58.4634 13.352 58.4314 13.3787 58.4314 13.432L58.2394 14.824C58.2287 14.9413 58.1594 15 58.0314 15H55.7594C55.6207 15 55.5674 14.9307 55.5994 14.792L57.9194 3.976C57.9407 3.85867 58.01 3.8 58.1274 3.8H60.7354C60.8527 3.8 60.922 3.85867 60.9434 3.976L63.2474 14.792L63.2634 14.856C63.2634 14.952 63.2047 15 63.0874 15H60.7674ZM58.7834 11.224C58.7834 11.2773 58.8047 11.304 58.8474 11.304H59.9194C59.962 11.304 59.9834 11.2773 59.9834 11.224L59.4074 7.576C59.3967 7.53333 59.3807 7.512 59.3594 7.512C59.338 7.512 59.322 7.53333 59.3114 7.576L58.7834 11.224ZM66.9166 15.128C65.9033 15.128 65.0926 14.8293 64.4846 14.232C63.8766 13.6347 63.5726 12.84 63.5726 11.848V6.936C63.5726 5.93333 63.8766 5.13867 64.4846 4.552C65.0926 3.96533 65.9033 3.672 66.9166 3.672C67.93 3.672 68.7406 3.96533 69.3486 4.552C69.9673 5.13867 70.2766 5.93333 70.2766 6.936V7.08C70.2766 7.13333 70.2553 7.18133 70.2126 7.224C70.1806 7.256 70.138 7.272 70.0846 7.272L67.8126 7.368C67.6846 7.368 67.6206 7.304 67.6206 7.176V6.744C67.6206 6.49867 67.5566 6.30667 67.4286 6.168C67.3006 6.01867 67.13 5.944 66.9166 5.944C66.714 5.944 66.5486 6.01867 66.4206 6.168C66.2926 6.30667 66.2286 6.49867 66.2286 6.744V12.072C66.2286 12.3067 66.2926 12.4987 66.4206 12.648C66.5486 12.7867 66.714 12.856 66.9166 12.856C67.13 12.856 67.3006 12.7867 67.4286 12.648C67.5566 12.4987 67.6206 12.3067 67.6206 12.072V11.608C67.6206 11.5547 67.6366 11.512 67.6686 11.48C67.7113 11.4373 67.7593 11.416 67.8126 11.416L70.0846 11.512C70.138 11.512 70.1806 11.5333 70.2126 11.576C70.2553 11.608 70.2766 11.6507 70.2766 11.704V11.848C70.2766 12.84 69.9673 13.6347 69.3486 14.232C68.7406 14.8293 67.93 15.128 66.9166 15.128ZM77.8883 3.8C77.9416 3.8 77.9843 3.82133 78.0163 3.864C78.0589 3.896 78.0803 3.93867 78.0803 3.992V5.88C78.0803 5.93333 78.0589 5.98133 78.0163 6.024C77.9843 6.056 77.9416 6.072 77.8883 6.072H75.9043C75.8509 6.072 75.8243 6.09867 75.8243 6.152V14.808C75.8243 14.8613 75.8029 14.9093 75.7603 14.952C75.7283 14.984 75.6856 15 75.6323 15H73.3603C73.3069 15 73.2589 14.984 73.2163 14.952C73.1843 14.9093 73.1683 14.8613 73.1683 14.808V6.152C73.1683 6.09867 73.1416 6.072 73.0883 6.072H71.1842C71.1309 6.072 71.0829 6.056 71.0403 6.024C71.0083 5.98133 70.9923 5.93333 70.9923 5.88V3.992C70.9923 3.93867 71.0083 3.896 71.0403 3.864C71.0829 3.82133 71.1309 3.8 71.1842 3.8H77.8883ZM82.2619 15.128C81.6005 15.128 81.0192 14.9893 80.5179 14.712C80.0165 14.424 79.6272 14.024 79.3499 13.512C79.0725 13 78.9339 12.408 78.9339 11.736V3.992C78.9339 3.93867 78.9499 3.896 78.9819 3.864C79.0245 3.82133 79.0725 3.8 79.1259 3.8H81.3979C81.4512 3.8 81.4939 3.82133 81.5259 3.864C81.5685 3.896 81.5899 3.93867 81.5899 3.992V11.992C81.5899 12.248 81.6485 12.456 81.7659 12.616C81.8939 12.776 82.0592 12.856 82.2619 12.856C82.4645 12.856 82.6245 12.776 82.7419 12.616C82.8699 12.456 82.9339 12.248 82.9339 11.992V3.992C82.9339 3.93867 82.9499 3.896 82.9819 3.864C83.0245 3.82133 83.0725 3.8 83.1259 3.8H85.3979C85.4512 3.8 85.4939 3.82133 85.5259 3.864C85.5685 3.896 85.5899 3.93867 85.5899 3.992V11.736C85.5899 12.408 85.4512 13 85.1739 13.512C84.8965 14.024 84.5072 14.424 84.0059 14.712C83.5045 14.9893 82.9232 15.128 82.2619 15.128ZM91.0374 15C90.92 15 90.8454 14.9467 90.8134 14.84L89.7254 10.6C89.7147 10.5573 89.688 10.536 89.6454 10.536H89.4054C89.352 10.536 89.3254 10.5627 89.3254 10.616V14.808C89.3254 14.8613 89.304 14.9093 89.2614 14.952C89.2294 14.984 89.1867 15 89.1334 15H86.8614C86.808 15 86.76 14.984 86.7174 14.952C86.6854 14.9093 86.6694 14.8613 86.6694 14.808V3.992C86.6694 3.93867 86.6854 3.896 86.7174 3.864C86.76 3.82133 86.808 3.8 86.8614 3.8H90.3014C90.92 3.8 91.4694 3.94933 91.9494 4.248C92.4294 4.536 92.7974 4.94667 93.0534 5.48C93.32 6.00267 93.4534 6.6 93.4534 7.272C93.4534 7.86933 93.3414 8.408 93.1174 8.888C92.904 9.35733 92.6 9.736 92.2054 10.024C92.184 10.0347 92.168 10.0507 92.1574 10.072C92.1467 10.0827 92.1467 10.0987 92.1574 10.12L93.5334 14.776L93.5494 14.84C93.5494 14.9467 93.4907 15 93.3734 15H91.0374ZM89.4054 6.072C89.352 6.072 89.3254 6.09867 89.3254 6.152V8.424C89.3254 8.47733 89.352 8.504 89.4054 8.504H89.8534C90.1414 8.504 90.3707 8.39733 90.5414 8.184C90.712 7.97067 90.7974 7.67733 90.7974 7.304C90.7974 6.90933 90.712 6.60533 90.5414 6.392C90.3707 6.17867 90.1414 6.072 89.8534 6.072H89.4054ZM99.2518 15C99.1238 15 99.0544 14.9413 99.0438 14.824L98.8358 13.432C98.8358 13.3787 98.8038 13.352 98.7398 13.352H97.0118C96.9478 13.352 96.9158 13.3787 96.9158 13.432L96.7238 14.824C96.7131 14.9413 96.6438 15 96.5158 15H94.2438C94.1051 15 94.0518 14.9307 94.0838 14.792L96.4038 3.976C96.4251 3.85867 96.4944 3.8 96.6118 3.8H99.2198C99.3371 3.8 99.4064 3.85867 99.4278 3.976L101.732 14.792L101.748 14.856C101.748 14.952 101.689 15 101.572 15H99.2518ZM97.2678 11.224C97.2678 11.2773 97.2891 11.304 97.3318 11.304H98.4038C98.4464 11.304 98.4678 11.2773 98.4678 11.224L97.8918 7.576C97.8811 7.53333 97.8651 7.512 97.8438 7.512C97.8224 7.512 97.8064 7.53333 97.7958 7.576L97.2678 11.224ZM102.721 15C102.667 15 102.619 14.984 102.577 14.952C102.545 14.9093 102.529 14.8613 102.529 14.808V3.992C102.529 3.93867 102.545 3.896 102.577 3.864C102.619 3.82133 102.667 3.8 102.721 3.8H105.777C106.801 3.8 107.622 4.088 108.241 4.664C108.859 5.24 109.169 6.00267 109.169 6.952V11.848C109.169 12.7973 108.859 13.56 108.241 14.136C107.622 14.712 106.801 15 105.777 15H102.721ZM105.185 12.648C105.185 12.7013 105.211 12.728 105.265 12.728L105.713 12.712C105.937 12.7013 106.123 12.6053 106.273 12.424C106.422 12.232 106.502 11.9813 106.513 11.672V7.128C106.513 6.808 106.438 6.552 106.289 6.36C106.139 6.168 105.942 6.072 105.697 6.072H105.265C105.211 6.072 105.185 6.09867 105.185 6.152V12.648ZM113.48 15.128C112.446 15.128 111.619 14.8293 111 14.232C110.392 13.6347 110.088 12.8293 110.088 11.816V6.984C110.088 5.98133 110.392 5.18133 111 4.584C111.619 3.976 112.446 3.672 113.48 3.672C114.504 3.672 115.326 3.976 115.944 4.584C116.574 5.18133 116.888 5.98133 116.888 6.984V11.816C116.888 12.8293 116.574 13.6347 115.944 14.232C115.326 14.8293 114.504 15.128 113.48 15.128ZM113.48 12.856C113.715 12.856 113.896 12.776 114.024 12.616C114.163 12.4453 114.232 12.216 114.232 11.928V6.872C114.232 6.584 114.163 6.36 114.024 6.2C113.896 6.02933 113.715 5.944 113.48 5.944C113.246 5.944 113.064 6.02933 112.936 6.2C112.808 6.36 112.744 6.584 112.744 6.872V11.928C112.744 12.216 112.808 12.4453 112.936 12.616C113.064 12.776 113.246 12.856 113.48 12.856Z" fill="white"/>
</svg>
