<svg width="113" height="19" viewBox="0 0 113 19" fill="none" xmlns="http://www.w3.org/2000/svg">
<path d="M112.633 9.14891C112.633 8.66359 112.433 8.19891 112.084 7.85815L104.578 0.536956C104.229 0.196196 103.753 0 103.256 0H0V19H103.267C103.764 19 104.239 18.8038 104.588 18.463L112.084 11.1315C112.433 10.7908 112.633 10.3261 112.633 9.84076V9.14891Z" fill="#1C9BD8"/>
<path d="M16.232 3.8C16.2853 3.8 16.328 3.82133 16.36 3.864C16.4027 3.896 16.424 3.93867 16.424 3.992V5.88C16.424 5.93333 16.4027 5.98133 16.36 6.024C16.328 6.056 16.2853 6.072 16.232 6.072H14.248C14.1947 6.072 14.168 6.09867 14.168 6.152V14.808C14.168 14.8613 14.1467 14.9093 14.104 14.952C14.072 14.984 14.0293 15 13.976 15H11.704C11.6507 15 11.6027 14.984 11.56 14.952C11.528 14.9093 11.512 14.8613 11.512 14.808V6.152C11.512 6.09867 11.4853 6.072 11.432 6.072H9.528C9.47467 6.072 9.42667 6.056 9.384 6.024C9.352 5.98133 9.336 5.93333 9.336 5.88V3.992C9.336 3.93867 9.352 3.896 9.384 3.864C9.42667 3.82133 9.47467 3.8 9.528 3.8H16.232ZM20.3553 15.128C19.3206 15.128 18.4939 14.8293 17.8753 14.232C17.2673 13.6347 16.9633 12.8293 16.9633 11.816V6.984C16.9633 5.98133 17.2673 5.18133 17.8753 4.584C18.4939 3.976 19.3206 3.672 20.3553 3.672C21.3793 3.672 22.2006 3.976 22.8193 4.584C23.4486 5.18133 23.7633 5.98133 23.7633 6.984V11.816C23.7633 12.8293 23.4486 13.6347 22.8193 14.232C22.2006 14.8293 21.3793 15.128 20.3553 15.128ZM20.3553 12.856C20.5899 12.856 20.7713 12.776 20.8993 12.616C21.0379 12.4453 21.1073 12.216 21.1073 11.928V6.872C21.1073 6.584 21.0379 6.36 20.8993 6.2C20.7713 6.02933 20.5899 5.944 20.3553 5.944C20.1206 5.944 19.9393 6.02933 19.8113 6.2C19.6833 6.36 19.6193 6.584 19.6193 6.872V11.928C19.6193 12.216 19.6833 12.4453 19.8113 12.616C19.9393 12.776 20.1206 12.856 20.3553 12.856ZM31.4195 3.8C31.4728 3.8 31.5155 3.82133 31.5475 3.864C31.5902 3.896 31.6115 3.93867 31.6115 3.992V5.88C31.6115 5.93333 31.5902 5.98133 31.5475 6.024C31.5155 6.056 31.4728 6.072 31.4195 6.072H29.4355C29.3822 6.072 29.3555 6.09867 29.3555 6.152V14.808C29.3555 14.8613 29.3342 14.9093 29.2915 14.952C29.2595 14.984 29.2168 15 29.1635 15H26.8915C26.8382 15 26.7902 14.984 26.7475 14.952C26.7155 14.9093 26.6995 14.8613 26.6995 14.808V6.152C26.6995 6.09867 26.6728 6.072 26.6195 6.072H24.7155C24.6622 6.072 24.6142 6.056 24.5715 6.024C24.5395 5.98133 24.5235 5.93333 24.5235 5.88V3.992C24.5235 3.93867 24.5395 3.896 24.5715 3.864C24.6142 3.82133 24.6622 3.8 24.7155 3.8H31.4195ZM36.3455 15C36.2175 15 36.1482 14.9413 36.1375 14.824L35.9295 13.432C35.9295 13.3787 35.8975 13.352 35.8335 13.352H34.1055C34.0415 13.352 34.0095 13.3787 34.0095 13.432L33.8175 14.824C33.8068 14.9413 33.7375 15 33.6095 15H31.3375C31.1988 15 31.1455 14.9307 31.1775 14.792L33.4975 3.976C33.5188 3.85867 33.5882 3.8 33.7055 3.8H36.3135C36.4308 3.8 36.5002 3.85867 36.5215 3.976L38.8255 14.792L38.8415 14.856C38.8415 14.952 38.7828 15 38.6655 15H36.3455ZM34.3615 11.224C34.3615 11.2773 34.3828 11.304 34.4255 11.304H35.4975C35.5402 11.304 35.5615 11.2773 35.5615 11.224L34.9855 7.576C34.9748 7.53333 34.9588 7.512 34.9375 7.512C34.9162 7.512 34.9002 7.53333 34.8895 7.576L34.3615 11.224ZM39.8145 15C39.7612 15 39.7132 14.984 39.6705 14.952C39.6385 14.9093 39.6225 14.8613 39.6225 14.808V3.992C39.6225 3.93867 39.6385 3.896 39.6705 3.864C39.7132 3.82133 39.7612 3.8 39.8145 3.8H42.0865C42.1398 3.8 42.1825 3.82133 42.2145 3.864C42.2572 3.896 42.2785 3.93867 42.2785 3.992V12.648C42.2785 12.7013 42.3052 12.728 42.3585 12.728H45.6225C45.6758 12.728 45.7185 12.7493 45.7505 12.792C45.7932 12.824 45.8145 12.8667 45.8145 12.92V14.808C45.8145 14.8613 45.7932 14.9093 45.7505 14.952C45.7185 14.984 45.6758 15 45.6225 15H39.8145ZM53.426 3.8C54.0447 3.8 54.5887 3.94933 55.058 4.248C55.538 4.536 55.9113 4.94667 56.178 5.48C56.4447 6.01333 56.578 6.62133 56.578 7.304C56.578 7.976 56.45 8.568 56.194 9.08C55.9487 9.58133 55.5967 9.97067 55.138 10.248C54.6793 10.5253 54.1513 10.664 53.554 10.664H52.514C52.4607 10.664 52.434 10.6907 52.434 10.744V14.808C52.434 14.8613 52.4127 14.9093 52.37 14.952C52.338 14.984 52.2953 15 52.242 15H49.97C49.9167 15 49.8687 14.984 49.826 14.952C49.794 14.9093 49.778 14.8613 49.778 14.808V3.992C49.778 3.93867 49.794 3.896 49.826 3.864C49.8687 3.82133 49.9167 3.8 49.97 3.8H53.426ZM52.962 8.616C53.25 8.616 53.4793 8.50933 53.65 8.296C53.8313 8.072 53.922 7.76267 53.922 7.368C53.922 6.952 53.8313 6.632 53.65 6.408C53.4793 6.184 53.25 6.072 52.962 6.072H52.514C52.4607 6.072 52.434 6.09867 52.434 6.152V8.536C52.434 8.58933 52.4607 8.616 52.514 8.616H52.962ZM63.5321 5.88C63.5321 5.93333 63.5108 5.98133 63.4681 6.024C63.4361 6.056 63.3935 6.072 63.3401 6.072H60.1241C60.0708 6.072 60.0441 6.09867 60.0441 6.152V8.168C60.0441 8.22133 60.0708 8.248 60.1241 8.248H61.8841C61.9375 8.248 61.9801 8.26933 62.0121 8.312C62.0548 8.344 62.0761 8.38667 62.0761 8.44V10.344C62.0761 10.3973 62.0548 10.4453 62.0121 10.488C61.9801 10.52 61.9375 10.536 61.8841 10.536H60.1241C60.0708 10.536 60.0441 10.5627 60.0441 10.616V12.648C60.0441 12.7013 60.0708 12.728 60.1241 12.728H63.3401C63.3935 12.728 63.4361 12.7493 63.4681 12.792C63.5108 12.824 63.5321 12.8667 63.5321 12.92V14.808C63.5321 14.8613 63.5108 14.9093 63.4681 14.952C63.4361 14.984 63.3935 15 63.3401 15H57.5801C57.5268 15 57.4788 14.984 57.4361 14.952C57.4041 14.9093 57.3881 14.8613 57.3881 14.808V3.992C57.3881 3.93867 57.4041 3.896 57.4361 3.864C57.4788 3.82133 57.5268 3.8 57.5801 3.8H63.3401C63.3935 3.8 63.4361 3.82133 63.4681 3.864C63.5108 3.896 63.5321 3.93867 63.5321 3.992V5.88ZM64.6426 15C64.5893 15 64.5413 14.984 64.4986 14.952C64.4666 14.9093 64.4506 14.8613 64.4506 14.808V3.992C64.4506 3.93867 64.4666 3.896 64.4986 3.864C64.5413 3.82133 64.5893 3.8 64.6426 3.8H67.6986C68.7226 3.8 69.544 4.088 70.1626 4.664C70.7813 5.24 71.0906 6.00267 71.0906 6.952V11.848C71.0906 12.7973 70.7813 13.56 70.1626 14.136C69.544 14.712 68.7226 15 67.6986 15H64.6426ZM67.1066 12.648C67.1066 12.7013 67.1333 12.728 67.1866 12.728L67.6346 12.712C67.8586 12.7013 68.0453 12.6053 68.1946 12.424C68.344 12.232 68.424 11.9813 68.4346 11.672V7.128C68.4346 6.808 68.36 6.552 68.2106 6.36C68.0613 6.168 67.864 6.072 67.6186 6.072H67.1866C67.1333 6.072 67.1066 6.09867 67.1066 6.152V12.648ZM72.3301 15C72.2768 15 72.2288 14.984 72.1861 14.952C72.1541 14.9093 72.1381 14.8613 72.1381 14.808V3.992C72.1381 3.93867 72.1541 3.896 72.1861 3.864C72.2288 3.82133 72.2768 3.8 72.3301 3.8H74.6021C74.6555 3.8 74.6981 3.82133 74.7301 3.864C74.7728 3.896 74.7941 3.93867 74.7941 3.992V14.808C74.7941 14.8613 74.7728 14.9093 74.7301 14.952C74.6981 14.984 74.6555 15 74.6021 15H72.3301ZM76.0958 15C76.0424 15 75.9944 14.984 75.9518 14.952C75.9198 14.9093 75.9038 14.8613 75.9038 14.808V3.992C75.9038 3.93867 75.9198 3.896 75.9518 3.864C75.9944 3.82133 76.0424 3.8 76.0958 3.8H79.1518C80.1758 3.8 80.9971 4.088 81.6158 4.664C82.2344 5.24 82.5438 6.00267 82.5438 6.952V11.848C82.5438 12.7973 82.2344 13.56 81.6158 14.136C80.9971 14.712 80.1758 15 79.1518 15H76.0958ZM78.5598 12.648C78.5598 12.7013 78.5864 12.728 78.6398 12.728L79.0878 12.712C79.3118 12.7013 79.4984 12.6053 79.6478 12.424C79.7971 12.232 79.8771 11.9813 79.8878 11.672V7.128C79.8878 6.808 79.8131 6.552 79.6638 6.36C79.5144 6.168 79.3171 6.072 79.0718 6.072H78.6398C78.5864 6.072 78.5598 6.09867 78.5598 6.152V12.648ZM86.8553 15.128C85.8206 15.128 84.9939 14.8293 84.3753 14.232C83.7673 13.6347 83.4633 12.8293 83.4633 11.816V6.984C83.4633 5.98133 83.7673 5.18133 84.3753 4.584C84.9939 3.976 85.8206 3.672 86.8553 3.672C87.8793 3.672 88.7006 3.976 89.3193 4.584C89.9486 5.18133 90.2633 5.98133 90.2633 6.984V11.816C90.2633 12.8293 89.9486 13.6347 89.3193 14.232C88.7006 14.8293 87.8793 15.128 86.8553 15.128ZM86.8553 12.856C87.0899 12.856 87.2713 12.776 87.3993 12.616C87.5379 12.4453 87.6073 12.216 87.6073 11.928V6.872C87.6073 6.584 87.5379 6.36 87.3993 6.2C87.2713 6.02933 87.0899 5.944 86.8553 5.944C86.6206 5.944 86.4393 6.02933 86.3113 6.2C86.1833 6.36 86.1193 6.584 86.1193 6.872V11.928C86.1193 12.216 86.1833 12.4453 86.3113 12.616C86.4393 12.776 86.6206 12.856 86.8553 12.856ZM94.3675 15.128C93.7168 15.128 93.1462 15.0053 92.6555 14.76C92.1648 14.504 91.7808 14.152 91.5035 13.704C91.2368 13.2453 91.1035 12.728 91.1035 12.152V11.656C91.1035 11.6027 91.1195 11.56 91.1515 11.528C91.1942 11.4853 91.2422 11.464 91.2955 11.464H93.5355C93.5888 11.464 93.6315 11.4853 93.6635 11.528C93.7062 11.56 93.7275 11.6027 93.7275 11.656V12.024C93.7275 12.28 93.7862 12.4827 93.9035 12.632C94.0315 12.7813 94.1915 12.856 94.3835 12.856C94.5755 12.856 94.7302 12.7867 94.8475 12.648C94.9755 12.4987 95.0395 12.312 95.0395 12.088C95.0395 11.8427 94.9435 11.624 94.7515 11.432C94.5595 11.2293 94.1755 10.92 93.5995 10.504C93.0662 10.12 92.6288 9.77867 92.2875 9.48C91.9462 9.17067 91.6528 8.792 91.4075 8.344C91.1622 7.88533 91.0395 7.35733 91.0395 6.76C91.0395 6.152 91.1728 5.61333 91.4395 5.144C91.7168 4.67467 92.1008 4.312 92.5915 4.056C93.0928 3.8 93.6635 3.672 94.3035 3.672C94.9542 3.672 95.5248 3.80533 96.0155 4.072C96.5168 4.328 96.9008 4.696 97.1675 5.176C97.4448 5.64533 97.5835 6.18933 97.5835 6.808V7.192C97.5835 7.24533 97.5622 7.29333 97.5195 7.336C97.4875 7.368 97.4448 7.384 97.3915 7.384H95.1675C95.1142 7.384 95.0662 7.368 95.0235 7.336C94.9915 7.29333 94.9755 7.24533 94.9755 7.192V6.744C94.9755 6.50933 94.9115 6.31733 94.7835 6.168C94.6555 6.01867 94.4955 5.944 94.3035 5.944C94.1115 5.944 93.9568 6.01867 93.8395 6.168C93.7222 6.31733 93.6635 6.51467 93.6635 6.76C93.6635 7.02667 93.7542 7.26667 93.9355 7.48C94.1168 7.69333 94.4848 8.00267 95.0395 8.408C95.7115 8.90933 96.2182 9.31467 96.5595 9.624C96.9008 9.93333 97.1675 10.28 97.3595 10.664C97.5515 11.0373 97.6475 11.48 97.6475 11.992C97.6475 12.952 97.3435 13.7147 96.7355 14.28C96.1382 14.8453 95.3488 15.128 94.3675 15.128Z" fill="white"/>
</svg>
