<svg width="55" height="55" viewBox="0 0 55 55" fill="none" xmlns="http://www.w3.org/2000/svg">
<circle cx="27.1435" cy="27.1435" r="27.1435" fill="white"/>
<path d="M27.0308 25.556C28.214 25.556 29.3706 25.2113 30.3543 24.5655C31.3381 23.9197 32.1048 23.0018 32.5576 21.9278C33.0104 20.8539 33.1288 19.6722 32.898 18.5321C32.6672 17.3921 32.0975 16.3449 31.2608 15.5229C30.4242 14.701 29.3583 14.1412 28.1979 13.9144C27.0374 13.6877 25.8346 13.8041 24.7415 14.2489C23.6484 14.6937 22.7141 15.447 22.0568 16.4135C21.3995 17.38 21.0486 18.5163 21.0486 19.6787C21.0486 21.2375 21.6789 22.7324 22.8008 23.8346C23.9226 24.9367 25.4442 25.556 27.0308 25.556ZM27.0308 16.7401C27.6224 16.7401 28.2007 16.9125 28.6926 17.2354C29.1844 17.5583 29.5678 18.0172 29.7942 18.5542C30.0206 19.0911 30.0798 19.682 29.9644 20.252C29.849 20.8221 29.5641 21.3457 29.1458 21.7566C28.7275 22.1676 28.1945 22.4475 27.6143 22.5609C27.0341 22.6743 26.4327 22.6161 25.8862 22.3937C25.3396 22.1712 24.8725 21.7946 24.5438 21.3113C24.2151 20.8281 24.0397 20.2599 24.0397 19.6787C24.0397 18.8994 24.3549 18.1519 24.9158 17.6008C25.4767 17.0497 26.2375 16.7401 27.0308 16.7401ZM27.0308 28.4946C24.2543 28.4946 21.5915 29.5782 19.6282 31.507C17.665 33.4358 16.562 36.0519 16.562 38.7797C16.562 39.1694 16.7196 39.5431 17 39.8186C17.2805 40.0942 17.6609 40.249 18.0576 40.249C18.4542 40.249 18.8346 40.0942 19.1151 39.8186C19.3955 39.5431 19.5531 39.1694 19.5531 38.7797C19.5531 36.8313 20.3409 34.9627 21.7433 33.5849C23.1456 32.2072 25.0476 31.4332 27.0308 31.4332C29.014 31.4332 30.916 32.2072 32.3183 33.5849C33.7207 34.9627 34.5085 36.8313 34.5085 38.7797C34.5085 39.1694 34.6661 39.5431 34.9465 39.8186C35.227 40.0942 35.6074 40.249 36.0041 40.249C36.4007 40.249 36.7811 40.0942 37.0616 39.8186C37.342 39.5431 37.4996 39.1694 37.4996 38.7797C37.4996 36.0519 36.3966 33.4358 34.4334 31.507C32.4701 29.5782 29.8073 28.4946 27.0308 28.4946Z" fill="#313131"/>
</svg>
