<svg width="21" height="25" viewBox="0 0 21 25" fill="none" xmlns="http://www.w3.org/2000/svg">
<path d="M19.7232 23.1635C20.1938 22.461 20.3226 21.6364 20.0852 20.8423C20.0833 20.835 20.0809 20.8283 20.0791 20.821L19.9442 20.3986C19.3186 18.3399 17.6499 16.6925 15.3622 15.8735C15.2994 15.8472 15.2231 15.8197 15.1242 15.7874C11.9339 14.7431 8.46343 14.7425 5.27067 15.7868C2.89457 16.5625 1.0928 18.2868 0.449491 20.3998L0.318266 20.8338C0.0777862 21.6291 0.204129 22.4549 0.674711 23.1598C1.2338 23.9979 2.19388 24.5435 3.309 24.6558C5.58439 24.8841 7.9019 25.0001 10.1974 25.0001C12.4991 25.0001 14.819 24.8835 17.092 24.6546C18.2041 24.5429 19.1635 23.9991 19.7232 23.1635ZM17.6462 21.7725C17.5418 21.9275 17.269 22.1241 16.8411 22.1668C12.468 22.6081 7.95073 22.6093 3.55924 22.168C3.13138 22.1253 2.85794 21.9282 2.75418 21.7725C2.67972 21.6608 2.70047 21.5937 2.71085 21.5583L2.84146 21.1262C3.24735 19.7938 4.44547 18.6866 6.04765 18.1629C7.39226 17.7234 8.78874 17.5 10.1974 17.5C11.6061 17.5 13.002 17.7234 14.2654 18.1336C14.3124 18.1525 14.3601 18.169 14.4131 18.1867C14.4382 18.1971 14.4638 18.2074 14.4894 18.216C16.0172 18.7549 17.1628 19.8432 17.5571 21.1414L17.6926 21.5656C17.703 21.6034 17.7152 21.6688 17.6462 21.7725ZM10.2005 13.75C14.0286 13.75 17.1426 10.6659 17.1426 6.87502C17.1426 3.08411 14.0286 0 10.2005 0C6.37236 0 3.25834 3.08411 3.25834 6.87502C3.25834 10.6659 6.37236 13.75 10.2005 13.75ZM10.2005 2.50001C12.6498 2.50001 14.6426 4.4629 14.6426 6.87502C14.6426 9.28713 12.6498 11.25 10.2005 11.25C7.75114 11.25 5.75834 9.28713 5.75834 6.87502C5.75834 4.4629 7.75114 2.50001 10.2005 2.50001Z" fill="white"/>
</svg>
