<svg width="170" height="270" viewBox="0 0 170 270" fill="none" xmlns="http://www.w3.org/2000/svg">
<path d="M-1.82828e-05 130.05L-1.91482e-05 139.95C-1.97384e-05 146.7 2.68684 153.45 7.61271 158.4L111.056 262.35C115.982 267.3 122.251 270 129.416 270L276.744 270C287.492 270 296 261.45 296 250.65L296 235.8C296 225 287.492 216.45 276.744 216.45L151.806 216.45C145.089 216.45 138.372 213.75 133.446 208.8L65.3797 140.4C62.2451 137.25 62.2451 132.3 65.3797 129.15L133.446 61.2C138.372 56.25 144.641 53.55 151.806 53.55L276.744 53.55C287.492 53.55 296 45 296 34.2L296 19.35C296 8.55002 287.492 2.97738e-05 276.744 2.88342e-05L129.416 1.59543e-05C122.699 1.53671e-05 115.982 2.7 111.056 7.65001L7.16487 112.05C2.68681 116.55 -1.76927e-05 123.3 -1.82828e-05 130.05Z" fill="#0998D5"/>
</svg>
